<svg xmlns="http://www.w3.org/2000/svg" viewBox="0 0 512 512"><path d="M503.724 199.411c0-30.236-23.835-55.008-53.703-56.516V51.2c0-23.812-19.304-43.116-43.116-43.116h-301.81c-23.812 0-43.116 19.304-43.116 43.116v221.05c-29.866 1.509-53.703 26.273-53.703 56.508 0 30.236 23.835 55.008 53.703 56.516V460.8c0 23.812 19.304 43.116 43.116 43.116h301.811c23.812 0 43.116-19.304 43.116-43.116V255.918c29.865-1.509 53.702-26.273 53.702-56.507zM24.444 328.758c0-21.316 16.59-38.817 37.534-40.304v80.61c-20.944-1.486-37.534-18.99-37.534-40.306zm425.577-89.044v-80.61c20.946 1.486 37.534 18.989 37.534 40.307 0 21.316-16.589 38.817-37.534 40.303z" fill="#f2efe2"/><path d="M97.011 142.821a8.084 8.084 0 0 1 8.084-8.084h97.011a8.084 8.084 0 0 1 0 16.168h-97.011a8.084 8.084 0 0 1-8.084-8.084zm309.894 218.274h-97.011a8.084 8.084 0 0 0 0 16.168h97.011a8.084 8.084 0 0 0 0-16.168zm-194.021-75.453H105.095a8.084 8.084 0 0 0 0 16.168h107.789a8.084 8.084 0 0 0 0-16.168zm194.021 0h-97.011a8.084 8.084 0 0 0 0 16.168h97.011a8.084 8.084 0 0 0 0-16.168zM204.8 218.274a8.084 8.084 0 0 0 8.084 8.084h194.021a8.084 8.084 0 0 0 0-16.168H212.884a8.084 8.084 0 0 0-8.084 8.084zm-99.705 8.084h43.116a8.084 8.084 0 0 0 0-16.168h-43.116a8.084 8.084 0 0 0 0 16.168zm74.374-16.169a8.084 8.084 0 0 0 0 16.168h1.078a8.084 8.084 0 0 0 0-16.168h-1.078zm66.83 75.453h-1.078a8.084 8.084 0 0 0 0 16.168h1.078a8.084 8.084 0 0 0 0-16.168zm31.259 0h-1.078a8.084 8.084 0 0 0 0 16.168h1.078a8.084 8.084 0 0 0 0-16.168z" fill="#bfbba3"/><path d="M263.622 375.194l-41.92 33.082c-2.105 1.661-5.518 1.661-7.622 0-1.011-.798-1.578-1.88-1.578-3.007v-19.921H64.866c-31.204 0-56.589-25.385-56.589-56.589 0-30.3 23.938-55.11 53.895-56.522v16.2c-21.036 1.393-37.726 18.94-37.726 40.321 0 22.289 18.132 40.421 40.421 40.421h147.636V333.09c0-1.127.568-2.21 1.578-3.007 2.105-1.661 5.518-1.661 7.622 0l41.92 33.082c4.208 3.321 4.208 8.706-.001 12.029zm183.512-232.373H299.116v-36.089c0-1.127-.568-2.21-1.578-3.007-2.105-1.661-5.517-1.661-7.622 0l-41.92 33.082c-4.209 3.322-4.209 8.707 0 12.029l41.92 33.082c2.105 1.661 5.517 1.661 7.622 0 1.011-.798 1.578-1.88 1.578-3.007V158.99h148.018c22.289 0 40.421 18.132 40.421 40.421 0 21.382-16.69 38.928-37.726 40.321v16.2c29.957-1.412 53.895-26.221 53.895-56.522 0-31.203-25.386-56.589-56.59-56.589z" fill="#fc8059"/><path d="M457.913 134.792V51.2c0-28.231-22.969-51.2-51.2-51.2h-301.81c-28.231 0-51.2 22.969-51.2 51.2v212.956C23.834 265.664 0 290.438 0 320.674c0 31.204 25.385 56.589 56.589 56.589h147.636v28.004c0 3.609 1.696 7.018 4.652 9.353l.002.002c5.028 3.967 12.61 3.966 17.638 0l41.92-33.082c3.962-3.126 6.233-7.632 6.233-12.36 0-4.729-2.271-9.234-6.232-12.361l-41.92-33.081c-5.028-3.969-12.611-3.968-17.639 0-2.958 2.335-4.654 5.744-4.654 9.354v28.003H69.871V51.2c0-19.316 15.716-35.032 35.032-35.032h301.811c19.317 0 35.032 15.716 35.032 35.032v83.537H307.008v-28.004c0-3.611-1.697-7.021-4.657-9.355-5.028-3.966-12.609-3.966-17.635.001l-41.92 33.082c-3.961 3.126-6.232 7.631-6.233 12.36 0 4.729 2.271 9.234 6.233 12.361l41.919 33.08c5.028 3.97 12.612 3.969 17.634.003 2.961-2.334 4.659-5.744 4.659-9.356v-28.004H455.41c22.289 0 40.421 18.132 40.421 40.421 0 21.447-16.791 39.048-37.918 40.345v-40.345c0-4.465-3.618-8.084-8.084-8.084s-8.084 3.62-8.084 8.084V460.8c0 19.316-15.715 35.032-35.032 35.032h-301.81c-19.316 0-35.032-15.716-35.032-35.032v-43.116a8.084 8.084 0 0 0-16.168 0V460.8c0 28.231 22.969 51.2 51.2 51.2h301.811c28.231 0 51.2-22.969 51.2-51.2V247.861C487.961 246.548 512 221.692 512 191.326s-24.039-55.221-54.087-56.534zm-404.21 226.2c-20.947-1.484-37.534-19-37.534-40.319 0-21.319 16.588-38.834 37.534-40.319v80.638zM220.394 339.5l37.609 29.679-37.609 29.679V339.5zm70.446-167.001l-37.609-29.678 37.609-29.679v59.357z" fill="#4c4c4c"/></svg>