<svg xmlns="http://www.w3.org/2000/svg" width="395.28" height="241.89" viewBox="0 140 9.10 941.89"><path fill="#D8DCE1" d="M0 279.101v381.351c0 25.642 20.864 46.506 46.506 46.506h502.268c25.642 0 46.506-20.864 46.506-46.506V279.101H0z"/><path fill="#18B8FF" d="M548.774 148.883H46.506C20.864 148.883 0 169.747 0 195.39v83.711h595.28V195.39c0-25.643-20.865-46.507-46.506-46.507zM74.41 241.896c-15.411 0-27.904-12.493-27.904-27.904s12.493-27.904 27.904-27.904 27.904 12.493 27.904 27.904-12.493 27.904-27.904 27.904zm446.46 0c-15.411 0-27.904-12.493-27.904-27.904s12.493-27.904 27.904-27.904 27.904 12.493 27.904 27.904-12.493 27.904-27.904 27.904z"/><path fill="#5C546A" d="M74.41 227.944c-7.703 0-13.952-6.245-13.952-13.952v-65.109c0-7.707 6.249-13.952 13.952-13.952s13.952 6.245 13.952 13.952v65.109c0 7.707-6.249 13.952-13.952 13.952zm446.46 0c-7.703 0-13.952-6.245-13.952-13.952v-65.109c0-7.707 6.249-13.952 13.952-13.952s13.952 6.245 13.952 13.952v65.109c0 7.707-6.249 13.952-13.952 13.952z"/></svg>