<?xml version="1.0" encoding="utf-8"?>
<!-- Generator: Adobe Illustrator 17.0.0, SVG Export Plug-In . SVG Version: 6.00 Build 0)  -->
<!DOCTYPE svg PUBLIC "-//W3C//DTD SVG 1.1//EN" "http://www.w3.org/Graphics/SVG/1.1/DTD/svg11.dtd">
<svg version="1.1" id="Capa_1" xmlns="http://www.w3.org/2000/svg" xmlns:xlink="http://www.w3.org/1999/xlink" x="0px" y="0px"
	 width="395.28px" height="241.89px" viewBox="0 140 9.10 941.89" enable-background="new 0 0 595.28 841.89" xml:space="preserve">
<g>
	<g>
		<path fill="#D8DCE1" d="M0,279.101v381.351c0,25.642,20.864,46.506,46.506,46.506h502.268c25.642,0,46.506-20.864,46.506-46.506
			V279.101H0z"/>
	</g>
	<g>
		<path fill="#18B8FF" d="M548.774,148.883H46.506C20.864,148.883,0,169.747,0,195.39v83.711h595.28V195.39
			C595.28,169.747,574.415,148.883,548.774,148.883z M74.41,241.896c-15.411,0-27.904-12.493-27.904-27.904
			s12.493-27.904,27.904-27.904s27.904,12.493,27.904,27.904S89.821,241.896,74.41,241.896z M520.87,241.896
			c-15.411,0-27.904-12.493-27.904-27.904s12.493-27.904,27.904-27.904c15.411,0,27.904,12.493,27.904,27.904
			S536.281,241.896,520.87,241.896z"/>
	</g>
	<g>
		<g>
			<path fill="#5C546A" d="M74.41,227.944c-7.703,0-13.952-6.245-13.952-13.952v-65.109c0-7.707,6.249-13.952,13.952-13.952
				s13.952,6.245,13.952,13.952v65.109C88.362,221.699,82.113,227.944,74.41,227.944z"/>
		</g>
	</g>
	<g>
		<g>
			<path fill="#5C546A" d="M520.87,227.944c-7.703,0-13.952-6.245-13.952-13.952v-65.109c0-7.707,6.249-13.952,13.952-13.952
				c7.703,0,13.952,6.245,13.952,13.952v65.109C534.822,221.699,528.573,227.944,520.87,227.944z"/>
		</g>
	</g>
</g>
</svg>
