<svg xmlns="http://www.w3.org/2000/svg" width="1217.965" height="135.329" viewBox="90.788 47.742 1217.965 135.329"><path d="M218.287 132.938h-12.668v-2.111c-2.814 1.799-6.256 2.891-10.399 2.891-10.246 0-18.848-8.522-18.848-19.782 0-11.34 8.602-19.786 18.848-19.786 4.143 0 7.586 1.094 10.399 2.893v-2.035h12.668v37.93zm-12.668-13.139V108.07c-2.346-2.738-5.082-3.598-7.895-3.598-5.164 0-8.918 4.223-8.918 9.465 0 5.238 3.754 9.383 8.918 9.383 2.814 0 5.549-.783 7.895-3.521zm85.811 12.436c-4.928 1.562-7.742 1.877-11.496 1.877-9.153 0-15.254-6.727-15.254-16.971v-11.26h-7.426V95.009h7.426V82.108h12.674v12.901h12.901v10.873h-12.901v10.868c0 3.832 2.184 5.709 5.938 5.709 1.803 0 3.91-.389 6.729-.939l1.409 10.715zm-38.742-25.806c-6.178.234-10.088 1.877-13.057 4.846v21.663h-12.668V95.009h12.668v4.068c3.365-2.893 7.43-4.692 13.057-4.692v12.044zm43.789-24.481c0-4.141 3.281-7.192 7.424-7.192 4.07 0 7.428 3.051 7.428 7.192 0 4.07-3.359 7.119-7.428 7.119-4.143 0-7.424-3.049-7.424-7.119zm13.842 50.99h-12.674V95.009h12.674v37.929zm46.689 0H343.09l-7.586-10.869-7.67 10.869h-13.918l13.295-18.924-13.295-19.006h14.469l7.035 10.01 7.119-10.01h14.469l-13.297 19.006 13.297 18.924z" fill="#AAB2BC"/><g fill="#37BC9B"><path d="M153.286 124.083c-5.7 0-9.67-4.17-9.67-10.15 0-5.93 3.97-10.07 9.67-10.07 4.09 0 7.23 2.21 8.23 5.71h10.05c-1.29-8.55-8.65-14.42-18.28-14.42-1.93 0-3.77.22-5.49.66-5.1 1.25-9.2 4.27-11.66 8.44-1.65 2.78-2.57 6.06-2.57 9.68 0 10.93 8.3 18.86 19.72 18.86.59 0 1.18-.02 1.75-.07 5.6-.42 10.31-2.89 13.28-6.72a16.23 16.23 0 0 0 3.25-7.63h-10.05c-1 3.5-4.141 5.71-8.23 5.71zm-18.02-22.22l-9.41-25.67.46.41 19.71 17.62c-4.51 1.37-8.221 4.05-10.76 7.64zm43.2 51.8l-.43-.38-21.01-18.78c4.94-.75 9.14-2.99 12.1-6.31l9.34 25.47z"/><path d="M154.715 113.976a1.996 1.996 0 0 1-1.994 1.994c-1.098 0-1.992-.896-1.992-1.994s.893-1.994 1.992-1.994c1.101 0 1.994.895 1.994 1.994z"/></g><text transform="translate(223.46 151.197)" fill="#37BC9B" font-family="'Campton-BoldDEMO'" font-size="15.316">Human Resources</text><path d="M500.613 132.938h-12.668v-2.111c-2.814 1.799-6.256 2.891-10.399 2.891-10.246 0-18.848-8.522-18.848-19.782 0-11.34 8.602-19.786 18.848-19.786 4.143 0 7.586 1.094 10.399 2.893v-2.035h12.668v37.93zm-12.668-13.139V108.07c-2.346-2.738-5.082-3.598-7.895-3.598-5.164 0-8.918 4.223-8.918 9.465 0 5.238 3.754 9.383 8.918 9.383 2.814 0 5.549-.783 7.895-3.521zm85.811 12.436c-4.928 1.562-7.742 1.877-11.496 1.877-9.153 0-15.254-6.727-15.254-16.971v-11.26h-7.426V95.009h7.426V82.108h12.674v12.901h12.901v10.873H559.68v10.868c0 3.832 2.184 5.709 5.938 5.709 1.803 0 3.91-.389 6.729-.939l1.409 10.715zm-38.742-25.806c-6.178.234-10.088 1.877-13.057 4.846v21.663h-12.668V95.009h12.668v4.068c3.365-2.893 7.43-4.692 13.057-4.692v12.044zm43.789-24.481c0-4.141 3.281-7.192 7.424-7.192 4.07 0 7.428 3.051 7.428 7.192 0 4.07-3.359 7.119-7.428 7.119-4.143 0-7.424-3.049-7.424-7.119zm13.842 50.99h-12.674V95.009h12.674v37.929zm46.689 0h-13.918l-7.586-10.869-7.67 10.869h-13.918l13.295-18.924-13.295-19.006h14.469l7.035 10.01 7.119-10.01h14.469l-13.297 19.006 13.297 18.924z" fill="#AAB2BC"/><path fill="#E9573F" d="M435.612 124.083c-5.7 0-9.67-4.17-9.67-10.15 0-5.93 3.97-10.07 9.67-10.07 4.09 0 7.23 2.21 8.23 5.71h10.05c-1.29-8.55-8.65-14.42-18.28-14.42-1.93 0-3.77.22-5.49.66-5.1 1.25-9.2 4.27-11.66 8.44-1.65 2.78-2.57 6.06-2.57 9.68 0 10.93 8.3 18.86 19.72 18.86.59 0 1.18-.02 1.75-.07 5.6-.42 10.31-2.89 13.28-6.72a16.23 16.23 0 0 0 3.25-7.63h-10.05c-1 3.5-4.141 5.71-8.23 5.71zm-18.02-22.22l-9.41-25.67.46.41 19.71 17.62c-4.51 1.37-8.221 4.05-10.76 7.64zm43.2 51.8l-.43-.38-21.01-18.78c4.94-.75 9.14-2.99 12.1-6.31l9.34 25.47z"/><path fill="#E9573F" d="M437.041 113.976a1.996 1.996 0 0 1-1.994 1.994c-1.098 0-1.992-.896-1.992-1.994s.893-1.994 1.992-1.994c1.101 0 1.994.895 1.994 1.994z"/><text transform="translate(488.074 153.197)" fill="#E9573F" font-family="'Campton-BoldDEMO'" font-size="15.316">Monitoring &amp; Evaluation</text><path d="M800.362 132.938h-12.668v-2.111c-2.814 1.799-6.256 2.891-10.399 2.891-10.246 0-18.848-8.522-18.848-19.782 0-11.34 8.602-19.786 18.848-19.786 4.143 0 7.586 1.094 10.399 2.893v-2.035h12.668v37.93zm-12.668-13.139V108.07c-2.346-2.738-5.082-3.598-7.895-3.598-5.164 0-8.918 4.223-8.918 9.465 0 5.238 3.754 9.383 8.918 9.383 2.814 0 5.549-.783 7.895-3.521zm85.811 12.436c-4.928 1.562-7.742 1.877-11.496 1.877-9.153 0-15.254-6.727-15.254-16.971v-11.26h-7.426V95.009h7.426V82.108h12.674v12.901h12.901v10.873h-12.901v10.868c0 3.832 2.184 5.709 5.938 5.709 1.803 0 3.91-.389 6.729-.939l1.409 10.715zm-38.742-25.806c-6.178.234-10.088 1.877-13.057 4.846v21.663h-12.668V95.009h12.668v4.068c3.365-2.893 7.43-4.692 13.057-4.692v12.044zm43.789-24.481c0-4.141 3.281-7.192 7.424-7.192 4.07 0 7.428 3.051 7.428 7.192 0 4.07-3.359 7.119-7.428 7.119-4.143 0-7.424-3.049-7.424-7.119zm13.842 50.99H879.72V95.009h12.674v37.929zm46.689 0h-13.918l-7.586-10.869-7.67 10.869h-13.918l13.295-18.924-13.295-19.006h14.469l7.035 10.01 7.119-10.01h14.469l-13.297 19.006 13.297 18.924z" fill="#AAB2BC"/><g fill="#F6BB42"><path d="M735.361 124.083c-5.7 0-9.67-4.17-9.67-10.15 0-5.93 3.97-10.07 9.67-10.07 4.09 0 7.23 2.21 8.23 5.71h10.05c-1.29-8.55-8.65-14.42-18.28-14.42-1.93 0-3.77.22-5.49.66-5.1 1.25-9.2 4.27-11.66 8.44-1.65 2.78-2.57 6.06-2.57 9.68 0 10.93 8.3 18.86 19.72 18.86.59 0 1.18-.02 1.75-.07 5.6-.42 10.31-2.89 13.28-6.72a16.23 16.23 0 0 0 3.25-7.63h-10.05c-1 3.5-4.141 5.71-8.23 5.71zm-18.02-22.22l-9.41-25.67.46.41 19.71 17.62c-4.51 1.37-8.221 4.05-10.76 7.64zm43.2 51.8l-.43-.38-21.01-18.78c4.94-.75 9.14-2.99 12.1-6.31l9.34 25.47z"/><path d="M736.79 113.976a1.996 1.996 0 0 1-1.994 1.994c-1.098 0-1.992-.896-1.992-1.994s.893-1.994 1.992-1.994c1.101 0 1.994.895 1.994 1.994z"/></g><text transform="translate(871.534 153.197)" fill="#F6BB42" font-family="'Campton-BoldDEMO'" font-size="15.316">Finances</text><path d="M1123.365 132.938h-12.668v-2.111c-2.814 1.799-6.256 2.891-10.399 2.891-10.246 0-18.848-8.522-18.848-19.782 0-11.34 8.602-19.786 18.848-19.786 4.143 0 7.586 1.094 10.399 2.893v-2.035h12.668v37.93zm-12.668-13.139V108.07c-2.346-2.738-5.082-3.598-7.895-3.598-5.164 0-8.918 4.223-8.918 9.465 0 5.238 3.754 9.383 8.918 9.383 2.814 0 5.549-.783 7.895-3.521zm85.811 12.436c-4.928 1.562-7.742 1.877-11.496 1.877-9.153 0-15.254-6.727-15.254-16.971v-11.26h-7.426V95.009h7.426V82.108h12.674v12.901h12.901v10.873h-12.901v10.868c0 3.832 2.184 5.709 5.938 5.709 1.803 0 3.91-.389 6.729-.939l1.409 10.715zm-38.742-25.806c-6.178.234-10.088 1.877-13.057 4.846v21.663h-12.668V95.009h12.668v4.068c3.365-2.893 7.43-4.692 13.057-4.692v12.044zm43.789-24.481c0-4.141 3.281-7.192 7.424-7.192 4.07 0 7.428 3.051 7.428 7.192 0 4.07-3.359 7.119-7.428 7.119-4.143 0-7.424-3.049-7.424-7.119zm13.842 50.99h-12.674V95.009h12.674v37.929zm46.689 0h-13.918l-7.586-10.869-7.67 10.869h-13.918l13.295-18.924-13.295-19.006h14.469l7.035 10.01 7.119-10.01h14.469l-13.297 19.006 13.297 18.924z" fill="#AAB2BC"/><g fill="#3BAFDA"><path d="M1058.364 124.083c-5.7 0-9.67-4.17-9.67-10.15 0-5.93 3.97-10.07 9.67-10.07 4.09 0 7.23 2.21 8.23 5.71h10.05c-1.29-8.55-8.65-14.42-18.28-14.42-1.93 0-3.77.22-5.49.66-5.1 1.25-9.2 4.27-11.66 8.44-1.65 2.78-2.57 6.06-2.57 9.68 0 10.93 8.3 18.86 19.72 18.86.59 0 1.18-.02 1.75-.07 5.6-.42 10.31-2.89 13.28-6.72a16.23 16.23 0 0 0 3.25-7.63h-10.05c-1 3.5-4.141 5.71-8.23 5.71zm-18.02-22.22l-9.41-25.67.46.41 19.71 17.62c-4.51 1.37-8.221 4.05-10.76 7.64zm43.2 51.8l-.43-.38-21.01-18.78c4.94-.75 9.14-2.99 12.1-6.31l9.34 25.47z"/><path d="M1059.793 113.976a1.996 1.996 0 0 1-1.994 1.994c-1.098 0-1.992-.896-1.992-1.994s.893-1.994 1.992-1.994c1.101 0 1.994.895 1.994 1.994z"/></g><text transform="translate(1209.537 153.197)" fill="#3BAFDA" font-family="'Campton-BoldDEMO'" font-size="15.316">Survey</text></svg>