<?xml version="1.0" encoding="utf-8"?>
<!-- Generator: Adobe Illustrator 17.0.0, SVG Export Plug-In . SVG Version: 6.00 Build 0)  -->
<!DOCTYPE svg PUBLIC "-//W3C//DTD SVG 1.1//EN" "http://www.w3.org/Graphics/SVG/1.1/DTD/svg11.dtd">
<svg version="1.1" id="Layer_1" xmlns="http://www.w3.org/2000/svg" xmlns:xlink="http://www.w3.org/1999/xlink" x="0px" y="0px"
	 width="800px" height="800px" viewBox="0 0 800 800" enable-background="new 0 0 800 800" xml:space="preserve">
<circle fill="#E3F1FC" cx="400" cy="396.077" r="267.449"/>
<g id="Background">
</g>
<g id="Objects">
	<g opacity="0.13">
		<g>
			<path fill="#F2E2B6" d="M94.733,404.677c0,0,26.373-17.594,31.559-19.733c0,0,31.492,25.117,48.733,69.145
				c0,0-16.892,13.897-36.616,21.366C138.409,475.455,131.041,442.477,94.733,404.677z"/>
			<path fill="#B7A25F" d="M98.025,405.453c0,0,23.288-16.615,28.169-18.628c0,0,30.552,25.774,46.783,67.223
				c0,0-14.916,11.972-33.484,19.004C139.493,473.052,132.206,441.038,98.025,405.453z"/>
			<path fill="#F2E2B6" d="M131.01,394.979c0,0-5.836,4.025-10.58-1.751l-14.179,10.455c0,0,3.636,3.31,0.049,7.306
				c0,0,21.687,26.059,32.729,54.087c0,0,4.305-1.469,6.388,3.551c0,0,15.936-7.471,21.381-12.101c0,0-4.126-4.508,0.765-9.134
				C167.563,447.392,156.085,420.252,131.01,394.979z"/>
			<path fill="#B7A25F" d="M132.505,451.961l3.823-1.304c0,0-9.224-20.517-16.043-26.693l-3.209,2.337
				C117.076,426.301,127.811,441.73,132.505,451.961z"/>
			<path fill="#B7A25F" d="M161.518,449.454c0,0-5.861-11.495-8.146-13.858l-2.153,0.734c0,0,6.971,11.486,8.224,14.755
				L161.518,449.454z"/>
			<path fill="#B7A25F" d="M157.223,451.844c0,0-2.057-5.029-3.32-7.648l-1.987,0.678l3.995,7.417L157.223,451.844z"/>
			<path fill="#B7A25F" d="M110.659,404.512c0,0,6.894,10.907,9.386,13.049l2.076-0.929c0,0-7.998-10.796-9.547-13.936
				L110.659,404.512z"/>
			<path fill="#B7A25F" d="M114.716,401.737c0,0,2.51,4.818,4.009,7.31l1.916-0.858l-4.661-7.019L114.716,401.737z"/>
			<circle fill="#B7A25F" cx="140.375" cy="428.385" r="11.547"/>
			<path fill="#F2E2B6" d="M137.779,431.674l-4.016,6.176c0,0-3.713-2.591-4.316-5.736l5.7-1.945L137.779,431.674z"/>
			<path fill="#F2E2B6" d="M146.42,424.474c1.385,2.851,0.407,8.734-1.471,9.19s-1.78-1.425-1.78-1.425s-1.573,4.057-3.02,3.067
				c-1.447-0.99-0.622-1.824-0.622-1.824s-1.786,1.347-3.56-0.913c-1.774-2.26-1.94-2.203-2.117-3.806s2.01-2.719,2.01-2.719
				s-3.376-1.116-2.749-1.848c0.626-0.732,3.075-1.049,3.075-1.049s-1.816-2.614-1.029-3.015
				C135.943,419.73,142.645,416.704,146.42,424.474z"/>
			<g>
				<path fill="#B7A25F" d="M126.766,401.172c0.256,0.107,0.618,0.409,0.94,0.879c0.769,1.122,0.744,2.774-0.744,3.793
					c-1.612,1.104-3.439,0.185-4.392-1.207c-0.664-0.969-0.794-2.374-0.469-3.174l1.8,0.303c-0.127,0.637-0.171,1.273,0.21,1.83
					c0.44,0.643,1.126,0.779,1.683,0.398c0.508-0.348,0.635-1.069,0.26-1.616c-0.302-0.441-0.71-0.542-1.059-0.6l-0.294-1.602
					l3.702-1.675l2.602,3.799l-1.43,0.979l-1.767-2.581L126.766,401.172z"/>
			</g>
			<g>
				<path fill="#B7A25F" d="M147.47,458.664c0.254,0.112,0.609,0.422,0.92,0.899c0.743,1.139,0.681,2.79-0.828,3.775
					c-1.636,1.067-3.442,0.107-4.364-1.305c-0.642-0.984-0.741-2.391-0.397-3.184l1.793,0.344c-0.142,0.634-0.2,1.269,0.169,1.834
					c0.426,0.652,1.108,0.804,1.673,0.436c0.516-0.337,0.659-1.054,0.297-1.61c-0.292-0.448-0.697-0.558-1.045-0.623l-0.258-1.609
					l3.738-1.591l2.516,3.857l-1.451,0.947l-1.709-2.62L147.47,458.664z"/>
			</g>
		</g>
		<g>
			<path fill="#F2E2B6" d="M531.743,649.055c0,0-35.28,14.312-40.905,18.017c0,0,3.68,48.233,35.763,95.082
				c0,0,25.206-7.392,45.941-21.936C572.543,740.218,544.767,710.635,531.743,649.055z"/>
			<path fill="#B7A25F" d="M530.292,652.849c0,0-32.223,11.909-37.519,15.397c0,0,4.967,47.744,35.171,91.848
				c0,0,21.961-6.729,41.481-20.421C569.424,739.672,542.552,710.82,530.292,652.849z"/>
			<path fill="#F2E2B6" d="M497.619,678.534c0,0,7.937-3.078,5.404-11.689l19.956-7.022c0,0,0.832,5.845,7.223,4.982
				c0,0,11.236,39.132,31.615,69.022c0,0-4.365,3.284-0.786,8.741c0,0-18.18,10.782-26.454,13.062c0,0-1.691-7.141-9.588-5.407
				C524.988,750.223,505.786,720.5,497.619,678.534z"/>
			<path fill="#B7A25F" d="M553.197,718.493l-3.876,2.916c0,0-14.147-23.013-15.677-33.955l4.487-1.609
				C538.132,685.845,546.206,706.923,553.197,718.493z"/>
			<path fill="#B7A25F" d="M531.118,745.612c0,0-7.458-13.582-8.262-17.446l2.183-1.642c0,0,6.699,14.678,9.1,18.13L531.118,745.612
				z"/>
			<path fill="#B7A25F" d="M536.392,742.96c0,0-3.605-5.438-5.353-8.461l2.015-1.516l4.669,8.976L536.392,742.96z"/>
			<path fill="#B7A25F" d="M520.826,664.76c0,0,6.177,14.21,6.622,18.132l-2.325,1.434c0,0-5.321-15.232-7.394-18.89L520.826,664.76
				z"/>
			<path fill="#B7A25F" d="M515.331,666.915c0,0,3.09,5.746,4.552,8.917l-2.146,1.324l-3.823-9.367L515.331,666.915z"/>
			<circle fill="#B7A25F" cx="524.471" cy="710.389" r="13.866"/>
			<path fill="#F2E2B6" d="M529.489,710.032l8.845,0.181c0,0-0.066-5.437-2.782-8.16l-5.78,4.348L529.489,710.032z"/>
			<path fill="#F2E2B6" d="M516.505,713.752c1.896,3.301,8.399,6.301,10.12,4.744s-0.213-2.73-0.213-2.73s5.091,1.177,5.085-0.928
				s-1.391-1.85-1.391-1.85s2.543-0.864,1.497-4.151c-1.046-3.288-0.878-3.414-2.351-4.673s-4.057,0.16-4.057,0.16
				s1.171-4.106,0.021-3.978s-3.118,2.346-3.118,2.346s-1.369-3.568-2.3-3.057S511.337,704.757,516.505,713.752z"/>
			<g>
				<path fill="#B7A25F" d="M507.363,680.995c-0.264-0.204-0.589-0.667-0.816-1.312c-0.541-1.542,0.004-3.449,2.046-4.166
					c2.214-0.777,4.045,0.859,4.716,2.77c0.467,1.331,0.18,3-0.447,3.827l-1.993-0.914c0.346-0.699,0.596-1.423,0.328-2.187
					c-0.31-0.883-1.062-1.255-1.827-0.987c-0.698,0.245-1.07,1.041-0.806,1.793c0.213,0.606,0.654,0.851,1.041,1.026l-0.159,1.95
					l-4.816,0.787l-1.831-5.218l1.964-0.689l1.244,3.544L507.363,680.995z"/>
			</g>
			<g>
				<path fill="#B7A25F" d="M550.578,740.201c-0.292-0.16-0.685-0.567-1.009-1.17c-0.773-1.439-0.53-3.408,1.376-4.432
					c2.067-1.11,4.13,0.223,5.088,2.007c0.667,1.243,0.642,2.936,0.15,3.85l-2.111-0.594c0.234-0.744,0.369-1.498-0.015-2.212
					c-0.443-0.824-1.244-1.076-1.957-0.692c-0.652,0.35-0.896,1.194-0.519,1.896c0.304,0.566,0.778,0.739,1.187,0.853l0.144,1.951
					l-4.636,1.522l-2.616-4.872l1.833-0.985l1.777,3.31L550.578,740.201z"/>
			</g>
		</g>
		<g>
			<path fill="#D1BD93" d="M592.35,59.593l-24.959,2.249c0,0-3.795,11.554-2.481,24.702c1.314,13.148,3.699,18.437,5.31,18.238
				c1.612-0.199,16.486-11.798,18.377-17.439C590.489,81.702,592.35,59.593,592.35,59.593z"/>
			<path fill="#967F45" d="M571.318,102.989c0,0-6.945-15.611-2.892-39.878l1.458-0.846c0,0-4.213,13.413,2.309,38.945
				C572.194,101.21,571.883,104.451,571.318,102.989z"/>
			<path fill="#E5D4A8" d="M568.214,91.875l18.954-3.233l-1.399-28.456l-18.378,1.656C567.391,61.842,576.039,69.595,568.214,91.875
				z"/>
			<path fill="#AA9455" d="M585.866,86.851l-13.763,2.151c0,0,3.658-18.073-2.188-27.387l8.014-0.722
				C577.928,60.892,587.08,72.282,585.866,86.851z"/>
			<path fill="#F2E2B6" d="M567.785,53.133c0,0,8.822,9.943,8.38,25.739s-3.755,22.736-5.944,25.909c0,0,50.318-6.177,57.219-8.046
				c0,0,9.585-6.929,6.291-24.53s-16.159-22.546-16.159-22.546L567.785,53.133z"/>
			<path fill="#B7A25F" d="M571.635,54.272c0,0,7.606,9.376,7.164,25.172s-2.547,21.688-4.736,24.861c0,0,44.012-5.171,50.913-7.04
				c0,0,9.403-7.572,6.22-25.193c-2.75-15.23-12.979-19.212-12.979-19.212L571.635,54.272z"/>
			<path fill="#F2E2B6" d="M578.862,103.732c0,0,7.353-15.113,1.813-40.067c0,0,5.054-3.178,3.297-7.359l28.876-1.013
				c0,0,3.215,6.638,10.893,4.117c0,0,13.394,18.167-0.611,38.267C623.129,97.679,596.317,102.181,578.862,103.732z"/>
			<path fill="#B7A25F" d="M613.336,59.038c0,0,6.979,16.177,1.9,27.613l-3.773,1.05c0,0,4.453-14.221-2.661-28.964L613.336,59.038z
				"/>
			<path fill="#B7A25F" d="M605.516,59.344c0,0,3.694,4.701,4.263,13.409c0,0-0.095,0.445-2.728,1.003
				c-0.736-8.93-3.8-14.528-3.8-14.528L605.516,59.344z"/>
			<g>
				<path fill="#B7A25F" d="M589.688,69.794c-0.278-0.352-0.539-1.096-0.595-2.086c-0.134-2.364,1.342-5.037,4.383-5.659
					c3.297-0.675,5.142,2.095,5.309,5.024c0.116,2.04-0.921,4.419-2.09,5.497l-2.343-1.748c0.74-0.948,1.358-1.954,1.291-3.126
					c-0.077-1.354-0.951-2.053-2.09-1.82c-1.039,0.213-1.851,1.298-1.785,2.45c0.053,0.929,0.555,1.378,1.01,1.714l-0.972,2.815
					l-6.82,0.149l-0.455-8l2.925-0.599l0.309,5.435L589.688,69.794z"/>
			</g>
			<path fill="#B7A25F" d="M585.165,102.838c0,0,17.407-13.041,28.968-3.844L585.165,102.838z"/>
		</g>
		<g>
			<path fill="#D1BD93" d="M317.364,231.3l21.863,12.25c0,0,9.66-7.388,16.006-18.978s7.367-17.301,5.925-18.047
				s-20.268,0.417-25.016,4.002C331.393,214.112,317.364,231.3,317.364,231.3z"/>
			<path fill="#967F45" d="M359.239,207.383c0,0-3.092,16.804-20.149,34.534l-1.682-0.126c0,0,11.055-8.686,20.103-33.435
				C357.511,208.356,359.599,205.858,359.239,207.383z"/>
			<path fill="#E5D4A8" d="M355.519,218.307l-17.464-8.044l-14.926,24.267l16.098,9.019
				C339.226,243.55,336.473,232.266,355.519,218.307z"/>
			<path fill="#AA9455" d="M338.117,212.477l12.57,6.003c0,0-13.231,12.844-13.672,23.831l-7.019-3.933
				C329.996,238.378,328.882,223.81,338.117,212.477z"/>
			<path fill="#F2E2B6" d="M333.98,250.512c0,0-1.659-13.188,7.632-25.971c9.291-12.782,15.946-16.635,19.545-18.016
				c0,0-45.004-23.339-51.754-25.697c0,0-11.823,0.3-19.052,16.683s0.591,27.733,0.591,27.733L333.98,250.512z"/>
			<path fill="#B7A25F" d="M331.447,247.397c0,0-0.976-12.034,8.315-24.816c9.291-12.782,14.358-16.454,17.956-17.835
				c0,0-39.232-20.605-45.983-22.963c0,0-12.036,0.933-19.369,17.27c-6.337,14.119-0.149,23.185-0.149,23.185L331.447,247.397z"/>
			<path fill="#F2E2B6" d="M353.435,202.507c0,0-14.607,8.314-24.137,32.031c0,0-5.965-0.234-6.879,4.208l-24.396-15.483
				c0,0,1.099-7.293-6.66-9.553c0,0-0.785-22.557,22.129-31.226C313.493,182.485,338.158,193.923,353.435,202.507z"/>
			<path fill="#B7A25F" d="M299.736,219.899c0,0,3.384-17.291,14.037-23.855l3.706,1.266c0,0-11.71,9.216-14.172,25.4
				L299.736,219.899z"/>
			<path fill="#B7A25F" d="M306.36,224.066c0,0-0.391-5.966,4.061-13.472c0,0,0.33-0.313,2.817,0.714
				c-4.439,7.784-5.074,14.133-5.074,14.133L306.36,224.066z"/>
			<g>
				<path fill="#B7A25F" d="M325.324,224.389c0.031,0.448-0.175,1.208-0.688,2.057c-1.225,2.026-3.953,3.397-6.814,2.192
					c-3.102-1.306-3.059-4.634-1.541-7.145c1.057-1.749,3.257-3.126,4.83-3.354l0.945,2.766c-1.147,0.364-2.224,0.845-2.832,1.849
					c-0.701,1.16-0.375,2.232,0.695,2.682c0.978,0.412,2.26-0.025,2.858-1.012c0.481-0.796,0.321-1.45,0.135-1.985l2.393-1.774
					l5.711,3.731l-4.145,6.858l-2.751-1.159l2.816-4.658L325.324,224.389z"/>
			</g>
			<path fill="#B7A25F" d="M347.729,199.682c0,0-21.731,0.922-26.071-13.199L347.729,199.682z"/>
		</g>
		<g>
			<path fill="#D1BD93" d="M761.69,371.446l-7.258-23.986c0,0-12.083-1.376-24.693,2.575c-12.61,3.95-17.305,7.357-16.784,8.895
				s14.893,13.754,20.8,14.464C739.662,374.102,761.69,371.446,761.69,371.446z"/>
			<path fill="#967F45" d="M714.932,359.641c0,0,13.88-9.964,38.465-10.91l1.124,1.257c0,0-13.988-1.408-37.669,10.15
				C716.852,360.138,713.615,360.49,714.932,359.641z"/>
			<path fill="#E5D4A8" d="M725.188,354.349l7.005,17.906l27.582-7.135l-5.344-17.661
				C754.432,347.459,748.59,357.499,725.188,354.349z"/>
			<path fill="#AA9455" d="M733.684,370.617l-4.894-13.042c0,0,18.44-0.079,26.376-7.69l2.33,7.701
				C757.496,357.586,748.196,368.855,733.684,370.617z"/>
			<path fill="#F2E2B6" d="M763.039,346.081c0,0-7.95,10.653-23.508,13.42s-23.025,0.928-26.576-0.572
				c0,0,16.242,48.023,19.471,54.403c0,0,8.727,7.982,25.296,1.191c16.569-6.791,18.805-20.392,18.805-20.392L763.039,346.081z"/>
			<path fill="#B7A25F" d="M762.705,350.082c0,0-7.641,9.347-23.199,12.114s-21.754,1.899-25.305,0.399
				c0,0,13.979,42.052,17.208,48.432c0,0,9.32,7.674,25.931,0.988c14.357-5.779,16.184-16.602,16.184-16.602L762.705,350.082z"/>
			<path fill="#F2E2B6" d="M715.733,367.178c0,0,16.29,4.139,39.603-6.341c0,0,4.136,4.305,7.874,1.738l6.841,28.072
				c0,0-5.849,4.493-1.825,11.501c0,0-15.077,16.797-37.598,7.154C730.628,409.302,720.789,383.957,715.733,367.178z"/>
			<path fill="#B7A25F" d="M766.485,391.884c0,0-14.428,10.112-26.656,7.454l-1.792-3.482c0,0,14.828,1.48,27.825-8.474
				L766.485,391.884z"/>
			<path fill="#B7A25F" d="M764.601,384.288c0,0-3.855,4.57-12.268,6.891c0,0-0.455-0.003-1.535-2.468
				c8.596-2.53,13.457-6.664,13.457-6.664L764.601,384.288z"/>
			<g>
				<path fill="#B7A25F" d="M751.161,370.906c0.288-0.344,0.964-0.75,1.922-1.005c2.287-0.61,5.204,0.294,6.43,3.146
					c1.329,3.092-1.009,5.46-3.844,6.216c-1.975,0.527-4.514-0.006-5.806-0.933l1.238-2.648c1.079,0.533,2.188,0.934,3.322,0.631
					c1.31-0.35,1.818-1.348,1.359-2.415c-0.419-0.975-1.646-1.549-2.761-1.252c-0.899,0.24-1.237,0.822-1.474,1.336l-2.954-0.381
					l-1.528-6.648l7.742-2.066l1.179,2.743l-5.259,1.403L751.161,370.906z"/>
			</g>
			<path fill="#B7A25F" d="M717.885,373.17c0,0,16.297,14.405,9.632,27.589L717.885,373.17z"/>
		</g>
	</g>
	<g opacity="0.13">
		<g>
			<path fill="#F2E2B6" d="M163.376,120.678c0,0-44.613-21.923-53.113-24.181c0,0-43.783,45.519-61.525,117.502
				c0,0,29.115,18.126,61.309,25.679C110.047,239.677,114.715,186.901,163.376,120.678z"/>
			<path fill="#B7A25F" d="M158.419,122.562c0,0-39.615-21.035-47.617-23.16c0,0-42.187,46.347-58.889,114.112
				c0,0,25.647,15.541,55.955,22.651C107.867,236.165,112.609,184.905,158.419,122.562z"/>
			<path fill="#F2E2B6" d="M104.993,113.067c0,0,9.899,5.055,16.084-4.898l24.19,13.334c0,0-4.97,5.892,1.427,11.367
				c0,0-28.349,44.967-39.747,90.803c0,0-6.994-1.398-9.198,6.834c0,0-26.308-8.334-35.723-14.412c0,0,5.486-7.855-3.069-14.04
				C58.957,202.054,71.216,157.508,104.993,113.067z"/>
			<path fill="#B7A25F" d="M114.39,201.945l-6.21-1.241c0,0,10.117-33.788,19.445-44.791l5.469,2.972
				C133.094,158.886,119.582,185.076,114.39,201.945z"/>
			<path fill="#B7A25F" d="M68.778,204.016c0,0,6.746-19.073,9.812-23.215l3.497,0.699c0,0-8.473,19.287-9.748,24.627
				L68.778,204.016z"/>
			<path fill="#B7A25F" d="M75.946,206.847c0,0,2.162-8.24,3.587-12.571l3.228,0.645l-4.684,12.351L75.946,206.847z"/>
			<path fill="#B7A25F" d="M138.587,123.698c0,0-8.472,18.371-11.906,22.214l-3.418-1.018c0,0,10.211-18.426,11.972-23.625
				L138.587,123.698z"/>
			<path fill="#B7A25F" d="M131.71,120.219c0,0-2.911,8.006-4.728,12.187l-3.155-0.939l5.8-11.868L131.71,120.219z"/>
			<circle fill="#B7A25F" cx="97.309" cy="166.919" r="18.104"/>
			<path fill="#F2E2B6" d="M102.02,171.496l7.513,8.774c0,0,5.239-4.791,5.529-9.804l-9.261-1.851L102.02,171.496z"/>
			<path fill="#F2E2B6" d="M87.108,162.083c-1.567,4.717,1.165,13.66,4.177,13.982c3.013,0.322,2.474-2.581,2.474-2.581
				s3.28,5.982,5.326,4.146c2.045-1.836,0.592-2.964,0.592-2.964s3.052,1.727,5.345-2.151c2.293-3.877,2.562-3.824,2.508-6.352
				c-0.054-2.528-3.683-3.813-3.683-3.813s5.018-2.429,3.893-3.438s-4.996-0.998-4.996-0.998s2.285-4.436,0.979-4.898
				C102.417,152.554,91.377,149.229,87.108,162.083z"/>
			<g>
				<path fill="#B7A25F" d="M111.068,124.699c-0.031-0.434,0.137-1.153,0.569-1.936c1.031-1.867,3.363-2.995,5.837-1.629
					c2.681,1.481,2.68,4.688,1.401,7.002c-0.89,1.612-2.766,2.784-4.117,2.892l-0.843-2.736c0.982-0.271,1.904-0.657,2.415-1.582
					c0.591-1.069,0.299-2.126-0.627-2.637c-0.845-0.467-1.945-0.137-2.447,0.773c-0.405,0.734-0.26,1.377-0.095,1.906l-2.038,1.541
					l-4.953-4.007l3.491-6.32l2.379,1.314l-2.371,4.293L111.068,124.699z"/>
			</g>
			<g>
				<path fill="#B7A25F" d="M90.968,218.267c-0.098-0.424-0.043-1.16,0.263-2c0.73-2.004,2.859-3.48,5.514-2.513
					c2.878,1.048,3.373,4.217,2.469,6.701c-0.63,1.73-2.302,3.178-3.62,3.494l-1.256-2.573c0.929-0.419,1.78-0.943,2.142-1.937
					c0.418-1.148-0.034-2.146-1.027-2.508c-0.908-0.331-1.942,0.166-2.298,1.142c-0.287,0.788-0.044,1.4,0.201,1.898l-1.775,1.837
					l-5.513-3.192l2.471-6.784l2.553,0.93l-1.678,4.609L90.968,218.267z"/>
			</g>
		</g>
		<g>
			<path fill="#F2E2B6" d="M471.629,111.707c0,0,44.258,8.45,51.645,11.45c0,0,6.885,56.834-19.516,118.631
				c0,0-30.966-2.749-58.397-14.834C445.362,226.954,470.757,186.192,471.629,111.707z"/>
			<path fill="#B7A25F" d="M474.192,115.774c0,0,40.155,6.369,47.109,9.192c0,0,5.278,56.563-19.576,114.74
				c0,0-27.045-2.731-52.869-14.107C448.855,225.599,473.371,185.895,474.192,115.774z"/>
			<path fill="#F2E2B6" d="M518.055,138.028c0,0-9.925-1.737-8.976-12.317l-24.786-3.534c0,0,0.386,6.977-7.231,7.453
				c0,0-3.99,48.018-20.729,87.424c0,0,5.826,2.801,2.935,9.964c0,0,23.594,8.309,33.726,9.042c0,0,0.31-8.679,9.878-8.494
				C502.871,227.566,518.282,188.626,518.055,138.028z"/>
			<path fill="#B7A25F" d="M462.79,197.263l5.173,2.487c0,0,11.096-29.983,10.342-43.037l-5.581-0.829
				C472.724,155.885,468.228,182.217,462.79,197.263z"/>
			<path fill="#B7A25F" d="M494.689,223.633c0,0,5.514-17.489,5.553-22.16l-2.913-1.401c0,0-4.38,18.586-6.369,23.148
				L494.689,223.633z"/>
			<path fill="#B7A25F" d="M487.955,221.774c0,0,2.927-7.145,4.257-11.058l-2.689-1.293l-3.343,11.498L487.955,221.774z"/>
			<path fill="#B7A25F" d="M487.933,127.409c0,0-3.882,17.922-3.491,22.577l3.03,1.127c0,0,2.652-18.91,4.212-23.636
				L487.933,127.409z"/>
			<path fill="#B7A25F" d="M494.809,128.64c0,0-2.257,7.384-3.221,11.403l2.797,1.04l2.271-11.757L494.809,128.64z"/>
			<circle fill="#B7A25F" cx="494.257" cy="181.213" r="16.411"/>
			<path fill="#F2E2B6" d="M488.35,181.96l-10.225,2.257c0,0-1.181-6.325,1.342-10.114l7.715,3.709L488.35,181.96z"/>
			<path fill="#F2E2B6" d="M504.281,183.274c-1.438,4.27-8.291,9.256-10.649,7.847c-2.357-1.409-0.384-3.218-0.384-3.218
				s-5.637,2.543-6.117,0.099s1.187-2.469,1.187-2.469s-3.152-0.414-2.698-4.472s0.23-4.166,1.647-5.967
				c1.418-1.801,4.746-0.753,4.746-0.753s-2.309-4.495-0.945-4.612c1.364-0.118,4.162,2.001,4.162,2.001s0.764-4.458,1.962-4.081
				C498.39,168.026,508.198,171.638,504.281,183.274z"/>
			<g>
				<path fill="#B7A25F" d="M507.584,140.075c0.153,0.363,0.219,1.03,0.077,1.827c-0.34,1.903-2.011,3.553-4.533,3.103
					c-2.733-0.488-3.669-3.24-3.248-5.599c0.293-1.643,1.56-3.197,2.688-3.684l1.523,2.101c-0.764,0.519-1.442,1.12-1.61,2.063
					c-0.194,1.09,0.365,1.912,1.308,2.08c0.862,0.154,1.709-0.451,1.874-1.378c0.134-0.748-0.179-1.257-0.476-1.663l1.298-1.917
					l5.421,1.991l-1.15,6.443l-2.425-0.433l0.781-4.376L507.584,140.075z"/>
			</g>
			<g>
				<path fill="#B7A25F" d="M471.276,218.967c0.145,0.366,0.196,1.034,0.036,1.828c-0.382,1.895-2.09,3.507-4.601,3
					c-2.722-0.549-3.595-3.322-3.122-5.671c0.33-1.636,1.632-3.161,2.77-3.622l1.475,2.135c-0.775,0.501-1.467,1.087-1.657,2.027
					c-0.219,1.085,0.321,1.919,1.261,2.109c0.858,0.173,1.718-0.412,1.905-1.336c0.15-0.745-0.15-1.261-0.438-1.673l1.342-1.887
					l5.374,2.113l-1.294,6.415l-2.414-0.487l0.879-4.358L471.276,218.967z"/>
			</g>
		</g>
		<g>
			<path fill="#F2E2B6" d="M713.722,628.739c0,0,37.698,24.341,43.396,29.87c0,0-14.884,55.038-62.351,102.218
				c0,0-27.558-14.11-48.364-35.518C646.403,725.309,685.08,697.172,713.722,628.739z"/>
			<path fill="#B7A25F" d="M714.567,633.451c0,0,34.688,20.886,40.052,26.091c0,0-16.267,54.187-60.952,98.603
				c0,0-23.946-12.628-43.532-32.781C650.135,725.364,687.604,697.875,714.567,633.451z"/>
			<path fill="#F2E2B6" d="M746.742,670.387c0,0-8.513-5.312-3.683-14.725l-21.56-12.526c0,0-2.251,6.585-9.46,4.178
				c0,0-21.628,42.836-51.807,72.957c0,0,4.332,4.763-1.015,10.294c0,0,18.675,16.488,27.754,20.951c0,0,3.53-7.896,12.293-4.149
				C699.263,747.367,728.042,717.18,746.742,670.387z"/>
			<path fill="#B7A25F" d="M673.588,704.414l3.846,4.229c0,0,21.449-23.531,25.63-35.863l-4.842-2.851
				C698.223,669.93,684.231,692.558,673.588,704.414z"/>
			<path fill="#B7A25F" d="M693.18,740.678c0,0,11.627-14.084,13.408-18.381l-2.166-2.382c0,0-10.99,15.52-14.53,18.988
				L693.18,740.678z"/>
			<path fill="#B7A25F" d="M687.658,736.446c0,0,5.372-5.502,8.062-8.618l-1.999-2.198l-7.383,9.365L687.658,736.446z"/>
			<path fill="#B7A25F" d="M722.904,649.327c0,0-10.282,15.093-11.66,19.537l2.376,2.172c0,0,9.515-16.465,12.721-20.244
				L722.904,649.327z"/>
			<path fill="#B7A25F" d="M728.792,653.033c0,0-4.843,5.973-7.235,9.323l2.193,2.005l6.49-10.004L728.792,653.033z"/>
			<circle fill="#B7A25F" cx="708.634" cy="701.358" r="16.343"/>
			<path fill="#F2E2B6" d="M702.902,699.84l-10.282-1.738c0,0,1.273-6.28,5.018-8.835l5.736,6.307L702.902,699.84z"/>
			<path fill="#F2E2B6" d="M717.117,707.006c-2.923,3.404-11.113,5.446-12.763,3.264c-1.649-2.182,0.848-3.114,0.848-3.114
				s-6.154,0.241-5.684-2.195c0.471-2.436,2.019-1.836,2.019-1.836s-2.755-1.56-0.819-5.137c1.935-3.576,1.769-3.76,3.751-4.893
				s4.662,1.078,4.662,1.078s-0.452-5.012,0.851-4.611s3.094,3.403,3.094,3.403s2.371-3.83,3.336-3.034
				C717.378,690.73,725.082,697.729,717.117,707.006z"/>
			<g>
				<path fill="#B7A25F" d="M736.311,668.363c0.006,0.393-0.182,1.033-0.612,1.716c-1.025,1.63-3.184,2.528-5.344,1.17
					c-2.341-1.472-2.176-4.362-0.906-6.382c0.884-1.407,2.635-2.368,3.858-2.396l0.62,2.509c-0.899,0.194-1.75,0.495-2.258,1.303
					c-0.587,0.934-0.378,1.901,0.431,2.409c0.738,0.464,1.746,0.223,2.245-0.572c0.403-0.641,0.305-1.227,0.182-1.713l1.915-1.285
					l4.26,3.864l-3.469,5.518l-2.077-1.305l2.356-3.748L736.311,668.363z"/>
			</g>
			<g>
				<path fill="#B7A25F" d="M673.311,727.621c-0.003,0.392-0.205,1.028-0.65,1.701c-1.061,1.607-3.24,2.456-5.368,1.05
					c-2.307-1.524-2.078-4.41-0.763-6.401c0.916-1.387,2.688-2.308,3.911-2.309l0.564,2.522c-0.903,0.173-1.761,0.455-2.287,1.252
					c-0.608,0.92-0.421,1.892,0.376,2.418c0.728,0.481,1.74,0.262,2.257-0.521c0.417-0.632,0.332-1.22,0.221-1.708l1.944-1.241
					l4.172,3.959l-3.592,5.439l-2.047-1.352l2.44-3.695L673.311,727.621z"/>
			</g>
		</g>
		<g>
			<path fill="#E5D4A8" d="M628.424,591.441c0,0-35.192-14.29-49.822-44.43c0,0,29.393,10.698,50.851-5.809
				c21.458-16.508,42.883-52.513,42.883-52.513l59.216,26.781c0,0-38.386,41.896-60.108,60.078
				C649.72,593.728,628.424,591.441,628.424,591.441z"/>
			<path fill="#A58E50" d="M584.127,551.484c0,0,19.207,27.082,45.377,35.225c0,0,19.131,2.263,38.159-12.134
				c18.862-14.271,57.587-58.307,57.587-58.307l-52.28-21.86c0,0-25.735,39.211-43.833,51.025
				C609.889,557.998,584.127,551.484,584.127,551.484z"/>
			<path fill="#E5D4A8" d="M668.808,506.842c0,0,7.813,2.757,13.522-4.147l28.628,13.204c0,0-6.839,7.187-1.416,12.217
				c0,0-30.866,31.678-41.878,40.729c-11.013,9.052-17.383,12.669-25.753,13.428c0,0-0.745-9.014-17.908-3.018
				c0,0-18.174-8.036-25.95-18.752c0,0,6.505,1.221,6.324-4.046c0,0,11.639,1.54,28.103-8.509
				C644.034,540.896,668.808,506.842,668.808,506.842z"/>
			<circle fill="#A58E50" cx="658.734" cy="548.822" r="15.685"/>
			<path fill="#F2E2B6" d="M662.108,553.404l5.172,8.567c0,0,5.158-3.349,6.12-7.592l-7.651-2.899L662.108,553.404z"/>
			<path fill="#F2E2B6" d="M650.704,543.238c-2.01,3.808-0.948,11.839,1.58,12.543c2.529,0.704,2.481-1.854,2.481-1.854
				s1.952,5.579,3.961,4.301c2.009-1.278,0.928-2.449,0.928-2.449s2.363,1.91,4.874-1.077c2.511-2.987,2.734-2.903,3.047-5.071
				c0.313-2.168-2.605-3.783-2.605-3.783s4.634-1.362,3.816-2.384s-4.127-1.564-4.127-1.564s2.584-3.466,1.533-4.047
				C665.143,537.273,656.181,532.86,650.704,543.238z"/>
			<path fill="#A58E50" d="M671.564,529.76c0,0,11.989-13.604,15.545-19.123l4.127,1.725c0,0-14.444,17.421-17.333,19.578
				L671.564,529.76z"/>
			<path fill="#A58E50" d="M682.279,527.193c0,0,9.645-11.942,10.608-12.905l2.245,1.146c0,0-9.948,12.198-11.049,13.298
				L682.279,527.193z"/>
			<path fill="#A58E50" d="M612.859,567.471c0,0,12.656-4.186,17.883-7.839l1.62,1.573c0,0-13.176,6.476-18.266,7.641
				L612.859,567.471z"/>
			<g>
				<path fill="#A58E50" d="M671.572,516.061c0.036-0.366,0.306-0.954,0.837-1.57c1.267-1.472,3.662-2.209,5.812-0.844
					c2.331,1.48,1.842,4.166,0.272,5.991c-1.094,1.271-3.061,2.084-4.366,2.055l-0.387-2.367c0.977-0.138,1.915-0.38,2.543-1.11
					c0.726-0.843,0.608-1.754-0.197-2.265c-0.735-0.466-1.832-0.288-2.45,0.429c-0.498,0.578-0.458,1.13-0.38,1.587l-2.178,1.109
					l-4.112-3.798l4.289-4.983l2.068,1.313l-2.914,3.385L671.572,516.061z"/>
			</g>
			<g>
				<path fill="#A58E50" d="M626.155,570.979c0.116-0.262,0.534-0.601,1.244-0.862c1.693-0.623,4.463-0.262,6.525,1.59
					c2.236,2.008,1.139,3.843-0.959,4.616c-1.461,0.538-3.781,0.398-5.199-0.124l0.074-1.931c1.096,0.27,2.171,0.447,3.01,0.138
					c0.969-0.357,1.032-1.088,0.26-1.781c-0.705-0.633-1.941-0.918-2.766-0.615c-0.665,0.245-0.737,0.675-0.748,1.05l-2.611,0.001
					l-3.695-4.435l5.73-2.11l1.983,1.781l-3.892,1.433L626.155,570.979z"/>
			</g>
		</g>
		<g>
			<path fill="#E5D4A8" d="M220.66,299.045c0,0-35.192,14.29-49.822,44.43c0,0,29.393-10.699,50.851,5.809
				s42.883,52.513,42.883,52.513l59.216-26.781c0,0-38.386-41.896-60.108-60.078S220.66,299.045,220.66,299.045z"/>
			<path fill="#A58E50" d="M176.363,339.001c0,0,19.207-27.082,45.377-35.225c0,0,19.131-2.263,38.159,12.134
				c18.862,14.271,57.587,58.307,57.587,58.307l-52.28,21.86c0,0-25.735-39.211-43.833-51.025
				C202.125,332.488,176.363,339.001,176.363,339.001z"/>
			<path fill="#E5D4A8" d="M261.044,383.643c0,0,7.813-2.757,13.522,4.147l28.628-13.204c0,0-6.839-7.187-1.416-12.217
				c0,0-30.866-31.678-41.878-40.729c-11.013-9.052-17.383-12.669-25.753-13.428c0,0-0.745,9.014-17.908,3.018
				c0,0-18.174,8.036-25.95,18.752c0,0,6.505-1.221,6.324,4.046c0,0,11.639-1.54,28.103,8.509
				C236.27,349.59,261.044,383.643,261.044,383.643z"/>
			<circle fill="#A58E50" cx="250.97" cy="341.664" r="15.685"/>
			<path fill="#F2E2B6" d="M254.344,337.081l5.173-8.567c0,0,5.158,3.349,6.12,7.592l-7.651,2.899L254.344,337.081z"/>
			<path fill="#F2E2B6" d="M242.94,347.248c-2.01-3.808-0.948-11.839,1.58-12.543c2.529-0.704,2.481,1.854,2.481,1.854
				s1.952-5.579,3.961-4.301s0.928,2.449,0.928,2.449s2.363-1.91,4.874,1.077c2.511,2.987,2.733,2.903,3.047,5.072
				c0.313,2.168-2.605,3.783-2.605,3.783s4.634,1.362,3.816,2.384c-0.817,1.022-4.127,1.564-4.127,1.564s2.584,3.466,1.533,4.047
				C257.379,353.212,248.417,357.625,242.94,347.248z"/>
			<path fill="#A58E50" d="M263.8,360.725c0,0,11.989,13.604,15.545,19.123l4.127-1.725c0,0-14.444-17.421-17.333-19.578
				L263.8,360.725z"/>
			<path fill="#A58E50" d="M274.515,363.292c0,0,9.645,11.942,10.608,12.905l2.245-1.146c0,0-9.948-12.198-11.049-13.298
				L274.515,363.292z"/>
			<path fill="#A58E50" d="M205.095,323.014c0,0,12.656,4.186,17.883,7.839l1.62-1.573c0,0-13.176-6.476-18.266-7.64
				L205.095,323.014z"/>
			<g>
				<path fill="#A58E50" d="M264.977,376.037c-0.351-0.111-0.87-0.497-1.362-1.145c-1.177-1.545-1.401-4.04,0.38-5.861
					c1.932-1.974,4.458-0.938,5.917,0.977c1.016,1.334,1.404,3.427,1.104,4.697l-2.396-0.113c0.068-0.985,0.026-1.952-0.558-2.718
					c-0.674-0.885-1.59-0.959-2.257-0.278c-0.609,0.622-0.662,1.733-0.088,2.486c0.463,0.607,1.01,0.682,1.474,0.701l0.633,2.36
					l-4.568,3.234l-3.984-5.23l1.713-1.75l2.706,3.553L264.977,376.037z"/>
			</g>
			<g>
				<path fill="#A58E50" d="M220.14,320.408c-0.408-0.075-1.049-0.365-1.705-0.866c-1.567-1.198-2.237-3.202-0.567-4.747
					c1.81-1.675,4.789-0.945,6.731,0.539c1.353,1.034,2.136,2.707,2.018,3.745l-2.677,0.01c-0.091-0.798-0.301-1.577-1.078-2.171
					c-0.897-0.686-1.926-0.707-2.551-0.129c-0.571,0.528-0.442,1.427,0.321,2.01c0.616,0.471,1.236,0.508,1.754,0.504l1.1,1.879
					l-4.523,2.804l-5.304-4.053l1.606-1.485l3.603,2.754L220.14,320.408z"/>
			</g>
		</g>
		<g>
			<path fill="#E5D4A8" d="M211.686,93.978c0,0-2.217-32.278,15.384-54.743c0,0,2.798,26.497,23.455,36.75
				s56.224,13.193,56.224,13.193l1.636,55.335c0,0-46.416-13.72-68.453-23.55S211.686,93.978,211.686,93.978z"/>
			<path fill="#A58E50" d="M225.711,45.137c0,0-13.549,24.825-9.999,47.899c0,0,5.419,15.489,23.551,24.671
				c17.974,9.103,66.155,22.282,66.155,22.282l-2.81-48.187c0,0-39.632-5.041-55.44-14.477
				C230.355,67.29,225.711,45.137,225.711,45.137z"/>
			<path fill="#E5D4A8" d="M291.534,93.265c0,0,0.81,7.011,8.229,8.799l0.594,26.848c0,0-8.058-2.548-9.88,3.483
				c0,0-35.784-11.784-46.829-16.83c-11.045-5.046-16.194-8.569-19.904-14.692c0,0,6.621-3.94-4.384-14.835
				c0,0-0.642-16.914,4.653-26.872c0,0,1.497,5.436,5.461,3.328c0,0,3.172,9.484,17.018,18.33
				C256.209,87.032,291.534,93.265,291.534,93.265z"/>
			<circle fill="#A58E50" cx="255.637" cy="101.246" r="13.361"/>
			<path fill="#F2E2B6" d="M253.391,105.542l-4.624,7.161c0,0,4.491,2.697,8.098,1.847l-0.641-6.94L253.391,105.542z"/>
			<path fill="#F2E2B6" d="M256.91,93.013c-3.666-0.115-9.416,3.7-9.01,5.898s2.346,1.206,2.346,1.206s-3.541,3.58-1.812,4.64
				s2.221-0.205,2.221-0.205s-0.579,2.523,2.647,3.328c3.225,0.806,3.244,1.007,5.021,0.436s1.922-3.408,1.922-3.408
				s2.774,3.038,3.251,2.03s-0.346-3.744-0.346-3.744s3.619,0.682,3.671-0.339S266.9,93.326,256.91,93.013z"/>
			<path fill="#A58E50" d="M275.023,103.942c0,0,14.894,4.091,20.448,4.75l0.222,3.804c0,0-18.733-4.544-21.464-5.949
				L275.023,103.942z"/>
			<path fill="#A58E50" d="M280.993,111.183c0,0,12.746,2.918,13.843,3.295l-0.038,2.146c0,0-13.055-3.055-14.309-3.486
				L280.993,111.183z"/>
			<path fill="#A58E50" d="M224.214,73.105c0,0,7.935,8.122,12.685,10.758l-0.598,1.828c0,0-9.882-7.664-12.676-11.125
				L224.214,73.105z"/>
			<g>
				<path fill="#A58E50" d="M285.511,98.827c0.294-0.109,0.845-0.122,1.515,0.054c1.6,0.42,3.06,1.977,2.818,4.133
					c-0.261,2.338-2.5,2.967-4.484,2.447c-1.382-0.362-2.74-1.564-3.204-2.573l1.667-1.181c0.471,0.696,1.007,1.324,1.8,1.532
					c0.917,0.24,1.57-0.19,1.66-0.997c0.082-0.737-0.465-1.51-1.244-1.715c-0.629-0.165-1.036,0.072-1.357,0.302l-1.663-1.252
					l1.37-4.567l5.417,1.421l-0.232,2.073l-3.68-0.965L285.511,98.827z"/>
			</g>
			<g>
				<path fill="#A58E50" d="M226.5,84.593c0.244-0.009,0.66,0.184,1.125,0.63c1.11,1.063,1.868,3.318,1.222,5.589
					c-0.701,2.462-2.516,2.308-3.891,0.991c-0.958-0.917-1.717-2.745-1.848-4.026l1.505-0.665c0.203,0.94,0.469,1.829,1.019,2.356
					c0.636,0.608,1.219,0.383,1.461-0.467c0.221-0.776-0.023-1.829-0.563-2.347c-0.436-0.418-0.792-0.312-1.083-0.18l-0.977-1.998
					l2.013-4.486l3.757,3.597l-0.622,2.184l-2.552-2.444L226.5,84.593z"/>
			</g>
		</g>
		<g>
			<path fill="#E5D4A8" d="M94.933,710.748c0,0-2.217-32.278,15.384-54.743c0,0,2.798,26.497,23.455,36.75
				c20.656,10.253,56.224,13.193,56.224,13.193l1.636,55.335c0,0-46.416-13.72-68.453-23.55S94.933,710.748,94.933,710.748z"/>
			<path fill="#A58E50" d="M108.958,661.906c0,0-13.549,24.825-9.999,47.899c0,0,5.419,15.489,23.551,24.671
				c17.974,9.103,66.155,22.282,66.155,22.282l-2.81-48.187c0,0-39.632-5.041-55.44-14.477
				C113.602,684.059,108.958,661.906,108.958,661.906z"/>
			<path fill="#E5D4A8" d="M174.782,710.035c0,0,0.81,7.011,8.229,8.799l0.594,26.848c0,0-8.058-2.548-9.88,3.483
				c0,0-35.784-11.784-46.829-16.83s-16.194-8.569-19.904-14.692c0,0,6.621-3.94-4.384-14.835c0,0-0.642-16.914,4.653-26.872
				c0,0,1.497,5.436,5.461,3.328c0,0,3.172,9.484,17.018,18.33C139.456,703.802,174.782,710.035,174.782,710.035z"/>
			<circle fill="#A58E50" cx="138.884" cy="718.016" r="13.361"/>
			<path fill="#F2E2B6" d="M136.638,722.312l-4.624,7.161c0,0,4.491,2.697,8.098,1.847l-0.641-6.94L136.638,722.312z"/>
			<path fill="#F2E2B6" d="M140.157,709.783c-3.666-0.115-9.416,3.7-9.01,5.898c0.406,2.199,2.346,1.206,2.346,1.206
				s-3.541,3.58-1.812,4.64s2.221-0.205,2.221-0.205s-0.579,2.522,2.647,3.328s3.244,1.007,5.021,0.436
				c1.777-0.571,1.922-3.408,1.922-3.408s2.774,3.038,3.251,2.03s-0.346-3.744-0.346-3.744s3.619,0.682,3.671-0.339
				C150.12,718.605,150.147,710.096,140.157,709.783z"/>
			<path fill="#A58E50" d="M158.27,720.711c0,0,14.894,4.091,20.448,4.75l0.222,3.804c0,0-18.733-4.544-21.464-5.949L158.27,720.711
				z"/>
			<path fill="#A58E50" d="M164.24,727.953c0,0,12.746,2.918,13.843,3.295l-0.038,2.146c0,0-13.055-3.055-14.309-3.486
				L164.24,727.953z"/>
			<path fill="#A58E50" d="M107.462,689.874c0,0,7.935,8.122,12.685,10.758l-0.598,1.828c0,0-9.882-7.664-12.676-11.125
				L107.462,689.874z"/>
			<g>
				<path fill="#A58E50" d="M168.758,715.596c0.294-0.109,0.845-0.122,1.515,0.054c1.6,0.42,3.06,1.977,2.818,4.133
					c-0.261,2.338-2.5,2.967-4.484,2.447c-1.382-0.362-2.74-1.564-3.204-2.573l1.667-1.181c0.471,0.696,1.007,1.324,1.8,1.532
					c0.917,0.24,1.57-0.19,1.66-0.997c0.082-0.737-0.465-1.51-1.244-1.715c-0.629-0.165-1.036,0.072-1.357,0.302l-1.663-1.252
					l1.37-4.567l5.417,1.421l-0.232,2.073l-3.68-0.965L168.758,715.596z"/>
			</g>
			<g>
				<path fill="#A58E50" d="M109.747,701.362c0.244-0.009,0.66,0.184,1.125,0.63c1.11,1.063,1.868,3.318,1.222,5.589
					c-0.701,2.462-2.516,2.308-3.891,0.991c-0.958-0.917-1.717-2.745-1.848-4.026l1.505-0.665c0.203,0.94,0.469,1.829,1.019,2.356
					c0.636,0.609,1.219,0.383,1.461-0.467c0.221-0.776-0.023-1.829-0.563-2.347c-0.436-0.418-0.792-0.311-1.083-0.18l-0.977-1.998
					l2.013-4.486l3.757,3.597l-0.622,2.183l-2.552-2.444L109.747,701.362z"/>
			</g>
		</g>
		<g>
			<g>
				<path fill="#E5D4A8" d="M236.194,630.532c0,0,29.367,13.27,36.827-22.357l43.266,13.186c0,0-15.259,28.235-37.145,30.237
					C265.536,652.842,242.323,638.758,236.194,630.532z"/>
				<path fill="#A58E50" d="M274.775,610.598c0,0-4.211,26.057-31.851,24.623c0,0,22.914,16.062,28.812,15.833
					s22.994-0.045,40.958-28.9C312.694,622.154,278.323,611.199,274.775,610.598z"/>
				<path fill="#E5D4A8" d="M245.622,638.064c0,0,19.53,0.414,28.491-18.63c0,0,5.681,2.454,8.379-3.674l20.361,6.205
					c0,0-5.31,4.952,0.621,8.592c0,0-15.455,22.426-36.436,18.891L245.622,638.064z"/>
				<path fill="#A58E50" d="M288.713,622.394c0,0-2.602,7.511-6.721,11.135l2.452,0.747c0,0,4.774-6.991,5.894-11.388
					L288.713,622.394z"/>
				<path fill="#A58E50" d="M292.297,623.486c0,0-1.839,5.622-4.251,8.184l2.452,0.747c0,0,2.675-5.258,3.424-8.436L292.297,623.486
					z"/>
				<g>
					<path fill="#A58E50" d="M278.115,625.921c-0.026-0.256,0.076-0.695,0.353-1.191c0.661-1.184,2.196-2.023,3.858-1.39
						c1.802,0.687,1.843,2.592,1.023,4.06c-0.571,1.022-1.803,1.854-2.699,2.016l-0.596-1.565c0.649-0.231,1.257-0.528,1.585-1.115
						c0.379-0.678,0.171-1.285-0.451-1.522c-0.568-0.216-1.294,0.059-1.616,0.636c-0.26,0.465-0.155,0.837-0.038,1.139l-1.335,1.063
						l-3.344-2.023l2.238-4.008l1.598,0.609l-1.52,2.723L278.115,625.921z"/>
				</g>
			</g>
			<g>
				<path fill="#F2E2B6" d="M216.71,594.199c0,0,32.946,13.53,44.313,13.394c0,0-6.318,44.655,20.663,43.688
					c0,0-18.906,5.35-56.057-15.394C225.629,635.888,207.495,621.897,216.71,594.199z"/>
				<path fill="#B7A25F" d="M218.036,597.093c0,0,27.993,13.328,39.36,13.191c0,0-4.143,40.653,18.913,41.893
					c0,0-17.512,2.473-48.594-15.143C227.715,637.035,208.821,624.791,218.036,597.093z"/>
				<path fill="#F2E2B6" d="M273.294,652.239c0,0-18.719,1.125-20.013-32.33c0,0-7.451-0.666-6.009-8.621
					c0,0-14.774-2.851-23.032-7.053c0,0,0.549,5.405-6.183,4.557c0,0-3.235,18.457,11.328,29.137
					C229.386,637.93,253.639,652.25,273.294,652.239z"/>
				<path fill="#B7A25F" d="M241.019,611.838c0,0-4.683,12.788,1.684,24.008l3.016,0.553c0,0-6.429-12.029-1.918-24.028
					L241.019,611.838z"/>
				<path fill="#B7A25F" d="M237.321,611.084c0,0-1.621,4.312-1.452,11.144c0,0,0.105,0.34,2.198,0.59
					c-0.054-7.016,1.758-11.127,1.758-11.127L237.321,611.084z"/>
				<g>
					<path fill="#B7A25F" d="M224.874,615.185c-0.098-0.337-0.069-0.954,0.182-1.688c0.598-1.755,2.456-3.26,4.846-2.817
						c2.591,0.48,3.115,3.033,2.374,5.208c-0.516,1.515-1.968,2.936-3.134,3.374l-1.185-1.958c0.816-0.47,1.56-1.018,1.857-1.888
						c0.342-1.005-0.086-1.77-0.981-1.936c-0.817-0.151-1.725,0.398-2.017,1.253c-0.235,0.69-0.003,1.163,0.229,1.541l-1.533,1.757
						l-4.993-1.898l2.024-5.939l2.298,0.426l-1.375,4.035L224.874,615.185z"/>
				</g>
				<path fill="#B7A25F" d="M233.289,640.066c0,0,2.428-2.506,9.549-0.238s18.326,8.85,21.51,11.65
					C264.347,651.478,250.269,649.456,233.289,640.066z"/>
			</g>
		</g>
		<g>
			<g>
				<path fill="#E5D4A8" d="M639.995,206.888c0,0,43.744-5.411,27.09-52.329l59.916-15.405c0,0,2.283,43.838-21.852,61.758
					C690.146,212.052,653.01,212.131,639.995,206.888z"/>
				<path fill="#A58E50" d="M670.86,156.138c0,0,13.635,33.428-19.666,51.433c0,0,38.196,2.444,44.921-2.022
					c6.725-4.466,26.822-16.424,27.256-62.912C723.37,142.637,675.431,154.315,670.86,156.138z"/>
				<path fill="#E5D4A8" d="M656.369,208.972c0,0,23.104-13.421,20.009-42.042c0,0,8.382-1.179,7.17-10.257l28.197-7.25
					c0,0-2.675,9.564,6.843,9.593c0,0-2.082,37.193-29.101,48.003L656.369,208.972z"/>
				<path fill="#A58E50" d="M695.536,159.991c0,0,2.309,10.624,0.079,17.79l3.396-0.873c0,0,0.598-11.563-1.225-17.495
					L695.536,159.991z"/>
				<path fill="#A58E50" d="M700.498,158.715c0,0,1.855,7.875,0.863,12.584l3.396-0.873c0,0-0.619-8.044-2.008-12.29
					L700.498,158.715z"/>
				<g>
					<path fill="#A58E50" d="M685.67,171.656c-0.213-0.28-0.406-0.866-0.436-1.643c-0.071-1.854,1.124-3.926,3.516-4.37
						c2.593-0.481,3.998,1.716,4.086,4.013c0.061,1.6-0.785,3.449-1.717,4.276l-1.81-1.404c0.594-0.732,1.092-1.511,1.057-2.43
						c-0.041-1.061-0.716-1.622-1.611-1.456c-0.817,0.152-1.469,0.99-1.434,1.894c0.028,0.729,0.414,1.088,0.766,1.357l-0.802,2.191
						l-5.345,0.018l-0.24-6.274l2.3-0.426l0.163,4.262L685.67,171.656z"/>
				</g>
			</g>
			<g>
				<path fill="#F2E2B6" d="M591.372,178.329c0,0,48.109-7.656,61.288-15.908c0,0,24.414,56.648,55.236,36.31
					c0,0-18.27,19.709-76.426,21.933C631.47,220.664,600.33,217.236,591.372,178.329z"/>
				<path fill="#B7A25F" d="M594.982,180.764c0,0,42.18-4.365,55.358-12.618c0,0,24.106,50.426,51.915,35.46
					c0,0-18.691,15.356-67.532,16.913C634.723,220.519,603.94,219.671,594.982,180.764z"/>
				<path fill="#F2E2B6" d="M698.777,205.824c0,0-21.06,14.642-46.39-23.508c0,0-9.176,4.527-13.155-5.791
					c0,0-19.284,7.189-31.92,8.162c0,0,4.489,5.921-3.976,9.724c0,0,9.363,23.859,33.974,25.963
					C637.311,220.374,675.83,219.831,698.777,205.824z"/>
				<path fill="#B7A25F" d="M632.32,181.621c0,0,3.636,18.268,19.06,26.839l3.916-1.502c0,0-16.072-9.471-19.347-26.696
					L632.32,181.621z"/>
				<path fill="#B7A25F" d="M627.465,183.373c0,0,1.177,6.19,6.239,14.048c0,0,0.365,0.322,2.987-0.876
					c-5.059-8.155-5.87-14.247-5.87-14.247L627.465,183.373z"/>
				<g>
					<path fill="#B7A25F" d="M615.848,197.024c-0.355-0.324-0.759-1.065-0.99-2.102c-0.551-2.475,0.547-5.556,3.654-6.74
						c3.368-1.284,5.797,1.324,6.48,4.391c0.476,2.137-0.209,4.83-1.258,6.171l-2.778-1.443c0.618-1.13,1.097-2.3,0.824-3.527
						c-0.316-1.417-1.361-2.005-2.523-1.562c-1.062,0.405-1.731,1.692-1.463,2.899c0.216,0.973,0.825,1.361,1.364,1.637l-0.54,3.144
						l-7.183,1.338l-1.865-8.377l2.987-1.139l1.267,5.691L615.848,197.024z"/>
				</g>
				<path fill="#B7A25F" d="M643.39,220.09c0,0,1.052-4.656,10.983-7.076c9.931-2.421,27.703-2.713,33.414-1.709
					C687.787,211.305,669.906,218.967,643.39,220.09z"/>
			</g>
		</g>
		<g>
			<path fill="#D1BD93" d="M99.956,560.324l18.831-16.535c0,0-3.749-11.569-12.564-21.413s-13.86-12.708-15.044-11.597
				c-1.184,1.111-6.357,19.25-4.558,24.921S99.956,560.324,99.956,560.324z"/>
			<path fill="#967F45" d="M91.349,512.874c0,0,14.815,8.511,25.852,30.5l-0.679,1.544c0,0-4.508-13.317-24.831-30.09
				C91.692,514.828,90.032,512.026,91.349,512.874z"/>
			<path fill="#E5D4A8" d="M100.412,520.02l-13.401,13.788l17.911,22.156l13.865-12.175
				C118.787,543.789,107.231,542.627,100.412,520.02z"/>
			<path fill="#AA9455" d="M89.119,534.487l9.847-9.854c0,0,7.704,16.753,17.918,20.828l-6.046,5.309
				C110.837,550.77,96.729,546.969,89.119,534.487z"/>
			<path fill="#F2E2B6" d="M123.604,551.054c0,0-12.988-2.828-21.946-15.845c-8.958-13.017-10.375-20.576-10.479-24.43
				c0,0-36.994,34.662-41.466,40.242c0,0-3.655,11.248,9.385,23.52c13.04,12.272,26.346,8.679,26.346,8.679L123.604,551.054z"/>
			<path fill="#B7A25F" d="M119.824,552.406c0,0-11.672-3.087-20.63-16.105s-10.733-19.017-10.837-22.871
				c0,0-32.495,30.13-36.966,35.71c0,0-3.128,11.66,9.834,24.015c11.203,10.678,21.812,7.861,21.812,7.861L119.824,552.406z"/>
			<path fill="#F2E2B6" d="M84.819,516.723c0,0,2.974,16.542,22.164,33.427c0,0-2.207,5.547,1.677,7.887l-22.723,17.847
				c0,0-6.511-3.465-11.225,3.099c0,0-21.531-6.773-22.074-31.265C52.638,547.717,71.638,528.27,84.819,516.723z"/>
			<path fill="#B7A25F" d="M83.335,573.148c0,0-15.177-8.949-17.818-21.18l2.428-3.073c0,0,4.79,14.111,19.23,21.822L83.335,573.148
				z"/>
			<path fill="#B7A25F" d="M89.47,568.29c0,0-5.756-1.618-11.351-8.315c0,0-0.186-0.415,1.612-2.419
				c5.861,6.778,11.636,9.492,11.636,9.492L89.47,568.29z"/>
			<g>
				<path fill="#B7A25F" d="M96.09,550.516c0.432,0.12,1.081,0.567,1.71,1.334c1.502,1.83,1.887,4.859-0.203,7.155
					c-2.265,2.49-5.388,1.341-7.25-0.927c-1.297-1.579-1.862-4.112-1.554-5.672l2.923,0.031c-0.038,1.202,0.056,2.379,0.8,3.286
					c0.86,1.048,1.979,1.097,2.761,0.238c0.714-0.785,0.729-2.14-0.003-3.032c-0.59-0.719-1.261-0.786-1.826-0.789l-0.876-2.847
					l5.42-4.143l5.086,6.193l-2.009,2.208l-3.454-4.207L96.09,550.516z"/>
			</g>
			<path fill="#B7A25F" d="M80.256,521.162c0,0-6.367,20.798-21.128,20.187L80.256,521.162z"/>
		</g>
	</g>
</g>
</svg>
