<svg xmlns="http://www.w3.org/2000/svg" width="800" height="800" viewBox="0 0 800 800"><circle fill="#E3F1FC" cx="400" cy="396.077" r="267.449"/><g opacity=".13"><path fill="#F2E2B6" d="M94.733 404.677s26.373-17.594 31.559-19.733c0 0 31.492 25.117 48.733 69.145 0 0-16.892 13.897-36.616 21.366 0 0-7.368-32.978-43.676-70.778z"/><path fill="#B7A25F" d="M98.025 405.453s23.288-16.615 28.169-18.628c0 0 30.552 25.774 46.783 67.223 0 0-14.916 11.972-33.484 19.004 0 0-7.287-32.014-41.468-67.599z"/><path fill="#F2E2B6" d="M131.01 394.979s-5.836 4.025-10.58-1.751l-14.179 10.455s3.636 3.31.049 7.306c0 0 21.687 26.059 32.729 54.087 0 0 4.305-1.469 6.388 3.551 0 0 15.936-7.471 21.381-12.101 0 0-4.126-4.508.765-9.134 0 0-11.478-27.14-36.553-52.413z"/><path fill="#B7A25F" d="M132.505 451.961l3.823-1.304s-9.224-20.517-16.043-26.693l-3.209 2.337s10.735 15.429 15.429 25.66zm29.013-2.507s-5.861-11.495-8.146-13.858l-2.153.734s6.971 11.486 8.224 14.755l2.075-1.631zm-4.295 2.39s-2.057-5.029-3.32-7.648l-1.987.678 3.995 7.417 1.312-.447zm-46.564-47.332s6.894 10.907 9.386 13.049l2.076-.929s-7.998-10.796-9.547-13.936l-1.915 1.816zm4.057-2.775s2.51 4.818 4.009 7.31l1.916-.858-4.661-7.019-1.264.567z"/><circle fill="#B7A25F" cx="140.375" cy="428.385" r="11.547"/><path fill="#F2E2B6" d="M137.779 431.674l-4.016 6.176s-3.713-2.591-4.316-5.736l5.7-1.945 2.632 1.505z"/><path fill="#F2E2B6" d="M146.42 424.474c1.385 2.851.407 8.734-1.471 9.19s-1.78-1.425-1.78-1.425-1.573 4.057-3.02 3.067c-1.447-.99-.622-1.824-.622-1.824s-1.786 1.347-3.56-.913-1.94-2.203-2.117-3.806 2.01-2.719 2.01-2.719-3.376-1.116-2.749-1.848c.626-.732 3.075-1.049 3.075-1.049s-1.816-2.614-1.029-3.015c.786-.402 7.488-3.428 11.263 4.342z"/><path fill="#B7A25F" d="M126.766 401.172c.256.107.618.409.94.879.769 1.122.744 2.774-.744 3.793-1.612 1.104-3.439.185-4.392-1.207-.664-.969-.794-2.374-.469-3.174l1.8.303c-.127.637-.171 1.273.21 1.83.44.643 1.126.779 1.683.398.508-.348.635-1.069.26-1.616-.302-.441-.71-.542-1.059-.6l-.294-1.602 3.702-1.675 2.602 3.799-1.43.979-1.767-2.581-1.042.474zm20.704 57.492c.254.112.609.422.92.899.743 1.139.681 2.79-.828 3.775-1.636 1.067-3.442.107-4.364-1.305-.642-.984-.741-2.391-.397-3.184l1.793.344c-.142.634-.2 1.269.169 1.834.426.652 1.108.804 1.673.436.516-.337.659-1.054.297-1.61-.292-.448-.697-.558-1.045-.623l-.258-1.609 3.738-1.591 2.516 3.857-1.451.947-1.709-2.62-1.054.45z"/><path fill="#F2E2B6" d="M531.743 649.055s-35.28 14.312-40.905 18.017c0 0 3.68 48.233 35.763 95.082 0 0 25.206-7.392 45.941-21.936.001 0-27.775-29.583-40.799-91.163z"/><path fill="#B7A25F" d="M530.292 652.849s-32.223 11.909-37.519 15.397c0 0 4.967 47.744 35.171 91.848 0 0 21.961-6.729 41.481-20.421-.001-.001-26.873-28.853-39.133-86.824z"/><path fill="#F2E2B6" d="M497.619 678.534s7.937-3.078 5.404-11.689l19.956-7.022s.832 5.845 7.223 4.982c0 0 11.236 39.132 31.615 69.022 0 0-4.365 3.284-.786 8.741 0 0-18.18 10.782-26.454 13.062 0 0-1.691-7.141-9.588-5.407-.001 0-19.203-29.723-27.37-71.689z"/><path fill="#B7A25F" d="M553.197 718.493l-3.876 2.916s-14.147-23.013-15.677-33.955l4.487-1.609c.001 0 8.075 21.078 15.066 32.648zm-22.079 27.119s-7.458-13.582-8.262-17.446l2.183-1.642s6.699 14.678 9.1 18.13l-3.021.958zm5.274-2.652s-3.605-5.438-5.353-8.461l2.015-1.516 4.669 8.976-1.331 1.001zm-15.566-78.2s6.177 14.21 6.622 18.132l-2.325 1.434s-5.321-15.232-7.394-18.89l3.097-.676zm-5.495 2.155s3.09 5.746 4.552 8.917l-2.146 1.324-3.823-9.367 1.417-.874z"/><circle fill="#B7A25F" cx="524.471" cy="710.389" r="13.866"/><path fill="#F2E2B6" d="M529.489 710.032l8.845.181s-.066-5.437-2.782-8.16l-5.78 4.348-.283 3.631z"/><path fill="#F2E2B6" d="M516.505 713.752c1.896 3.301 8.399 6.301 10.12 4.744s-.213-2.73-.213-2.73 5.091 1.177 5.085-.928-1.391-1.85-1.391-1.85 2.543-.864 1.497-4.151c-1.046-3.288-.878-3.414-2.351-4.673s-4.057.16-4.057.16 1.171-4.106.021-3.978-3.118 2.346-3.118 2.346-1.369-3.568-2.3-3.057-8.461 5.122-3.293 14.117z"/><path fill="#B7A25F" d="M507.363 680.995c-.264-.204-.589-.667-.816-1.312-.541-1.542.004-3.449 2.046-4.166 2.214-.777 4.045.859 4.716 2.77.467 1.331.18 3-.447 3.827l-1.993-.914c.346-.699.596-1.423.328-2.187-.31-.883-1.062-1.255-1.827-.987-.698.245-1.07 1.041-.806 1.793.213.606.654.851 1.041 1.026l-.159 1.95-4.816.787-1.831-5.218 1.964-.689 1.244 3.544 1.356-.224zm43.215 59.206c-.292-.16-.685-.567-1.009-1.17-.773-1.439-.53-3.408 1.376-4.432 2.067-1.11 4.13.223 5.088 2.007.667 1.243.642 2.936.15 3.85l-2.111-.594c.234-.744.369-1.498-.015-2.212-.443-.824-1.244-1.076-1.957-.692-.652.35-.896 1.194-.519 1.896.304.566.778.739 1.187.853l.144 1.951-4.636 1.522-2.616-4.872 1.833-.985 1.777 3.31 1.308-.432z"/><path fill="#D1BD93" d="M592.35 59.593l-24.959 2.249s-3.795 11.554-2.481 24.702c1.314 13.148 3.699 18.437 5.31 18.238 1.612-.199 16.486-11.798 18.377-17.439 1.892-5.641 3.753-27.75 3.753-27.75z"/><path fill="#967F45" d="M571.318 102.989s-6.945-15.611-2.892-39.878l1.458-.846s-4.213 13.413 2.309 38.945c.001 0-.31 3.241-.875 1.779z"/><path fill="#E5D4A8" d="M568.214 91.875l18.954-3.233-1.399-28.456-18.378 1.656s8.648 7.753.823 30.033z"/><path fill="#AA9455" d="M585.866 86.851l-13.763 2.151s3.658-18.073-2.188-27.387l8.014-.722c-.001-.001 9.151 11.389 7.937 25.958z"/><path fill="#F2E2B6" d="M567.785 53.133s8.822 9.943 8.38 25.739-3.755 22.736-5.944 25.909c0 0 50.318-6.177 57.219-8.046 0 0 9.585-6.929 6.291-24.53s-16.159-22.546-16.159-22.546l-49.787 3.474z"/><path fill="#B7A25F" d="M571.635 54.272s7.606 9.376 7.164 25.172-2.547 21.688-4.736 24.861c0 0 44.012-5.171 50.913-7.04 0 0 9.403-7.572 6.22-25.193-2.75-15.23-12.979-19.212-12.979-19.212l-46.582 1.412z"/><path fill="#F2E2B6" d="M578.862 103.732s7.353-15.113 1.813-40.067c0 0 5.054-3.178 3.297-7.359l28.876-1.013s3.215 6.638 10.893 4.117c0 0 13.394 18.167-.611 38.267-.001.002-26.813 4.504-44.268 6.055z"/><path fill="#B7A25F" d="M613.336 59.038s6.979 16.177 1.9 27.613l-3.773 1.05s4.453-14.221-2.661-28.964l4.534.301zm-7.82.306s3.694 4.701 4.263 13.409c0 0-.095.445-2.728 1.003-.736-8.93-3.8-14.528-3.8-14.528l2.265.116zm-15.828 10.45c-.278-.352-.539-1.096-.595-2.086-.134-2.364 1.342-5.037 4.383-5.659 3.297-.675 5.142 2.095 5.309 5.024.116 2.04-.921 4.419-2.09 5.497l-2.343-1.748c.74-.948 1.358-1.954 1.291-3.126-.077-1.354-.951-2.053-2.09-1.82-1.039.213-1.851 1.298-1.785 2.45.053.929.555 1.378 1.01 1.714l-.972 2.815-6.82.149-.455-8 2.925-.599.309 5.435 1.923-.046zm-4.523 33.044s17.407-13.041 28.968-3.844l-28.968 3.844z"/><path fill="#D1BD93" d="M317.364 231.3l21.863 12.25s9.66-7.388 16.006-18.978 7.367-17.301 5.925-18.047-20.268.417-25.016 4.002c-4.749 3.585-18.778 20.773-18.778 20.773z"/><path fill="#967F45" d="M359.239 207.383s-3.092 16.804-20.149 34.534l-1.682-.126s11.055-8.686 20.103-33.435c0 0 2.088-2.498 1.728-.973z"/><path fill="#E5D4A8" d="M355.519 218.307l-17.464-8.044-14.926 24.267 16.098 9.019c-.001.001-2.754-11.283 16.292-25.242z"/><path fill="#AA9455" d="M338.117 212.477l12.57 6.003s-13.231 12.844-13.672 23.831l-7.019-3.933s-1.114-14.568 8.121-25.901z"/><path fill="#F2E2B6" d="M333.98 250.512s-1.659-13.188 7.632-25.971c9.291-12.782 15.946-16.635 19.545-18.016 0 0-45.004-23.339-51.754-25.697 0 0-11.823.3-19.052 16.683s.591 27.733.591 27.733l43.038 25.268z"/><path fill="#B7A25F" d="M331.447 247.397s-.976-12.034 8.315-24.816c9.291-12.782 14.358-16.454 17.956-17.835 0 0-39.232-20.605-45.983-22.963 0 0-12.036.933-19.369 17.27-6.337 14.119-.149 23.185-.149 23.185l39.23 25.159z"/><path fill="#F2E2B6" d="M353.435 202.507s-14.607 8.314-24.137 32.031c0 0-5.965-.234-6.879 4.208l-24.396-15.483s1.099-7.293-6.66-9.553c0 0-.785-22.557 22.129-31.226.001.001 24.666 11.439 39.943 20.023z"/><path fill="#B7A25F" d="M299.736 219.899s3.384-17.291 14.037-23.855l3.706 1.266s-11.71 9.216-14.172 25.4l-3.571-2.811zm6.624 4.167s-.391-5.966 4.061-13.472c0 0 .33-.313 2.817.714-4.439 7.784-5.074 14.133-5.074 14.133l-1.804-1.375zm18.964.323c.031.448-.175 1.208-.688 2.057-1.225 2.026-3.953 3.397-6.814 2.192-3.102-1.306-3.059-4.634-1.541-7.145 1.057-1.749 3.257-3.126 4.83-3.354l.945 2.766c-1.147.364-2.224.845-2.832 1.849-.701 1.16-.375 2.232.695 2.682.978.412 2.26-.025 2.858-1.012.481-.796.321-1.45.135-1.985l2.393-1.774 5.711 3.731-4.145 6.858-2.751-1.159 2.816-4.658-1.612-1.048zm22.405-24.707s-21.731.922-26.071-13.199l26.071 13.199z"/><path fill="#D1BD93" d="M761.69 371.446l-7.258-23.986s-12.083-1.376-24.693 2.575c-12.61 3.95-17.305 7.357-16.784 8.895s14.893 13.754 20.8 14.464c5.907.708 27.935-1.948 27.935-1.948z"/><path fill="#967F45" d="M714.932 359.641s13.88-9.964 38.465-10.91l1.124 1.257s-13.988-1.408-37.669 10.15c0 0-3.237.352-1.92-.497z"/><path fill="#E5D4A8" d="M725.188 354.349l7.005 17.906 27.582-7.135-5.344-17.661c.001 0-5.841 10.04-29.243 6.89z"/><path fill="#AA9455" d="M733.684 370.617l-4.894-13.042s18.44-.079 26.376-7.69l2.33 7.701s-9.3 11.269-23.812 13.031z"/><path fill="#F2E2B6" d="M763.039 346.081s-7.95 10.653-23.508 13.42-23.025.928-26.576-.572c0 0 16.242 48.023 19.471 54.403 0 0 8.727 7.982 25.296 1.191s18.805-20.392 18.805-20.392l-13.488-48.05z"/><path fill="#B7A25F" d="M762.705 350.082s-7.641 9.347-23.199 12.114-21.754 1.899-25.305.399c0 0 13.979 42.052 17.208 48.432 0 0 9.32 7.674 25.931.988 14.357-5.779 16.184-16.602 16.184-16.602l-10.819-45.331z"/><path fill="#F2E2B6" d="M715.733 367.178s16.29 4.139 39.603-6.341c0 0 4.136 4.305 7.874 1.738l6.841 28.072s-5.849 4.493-1.825 11.501c0 0-15.077 16.797-37.598 7.154 0 0-9.839-25.345-14.895-42.124z"/><path fill="#B7A25F" d="M766.485 391.884s-14.428 10.112-26.656 7.454l-1.792-3.482s14.828 1.48 27.825-8.474l.623 4.502zm-1.884-7.596s-3.855 4.57-12.268 6.891c0 0-.455-.003-1.535-2.468 8.596-2.53 13.457-6.664 13.457-6.664l.346 2.241zm-13.44-13.382c.288-.344.964-.75 1.922-1.005 2.287-.61 5.204.294 6.43 3.146 1.329 3.092-1.009 5.46-3.844 6.216-1.975.527-4.514-.006-5.806-.933l1.238-2.648c1.079.533 2.188.934 3.322.631 1.31-.35 1.818-1.348 1.359-2.415-.419-.975-1.646-1.549-2.761-1.252-.899.24-1.237.822-1.474 1.336l-2.954-.381-1.528-6.648 7.742-2.066 1.179 2.743-5.259 1.403.434 1.873zm-33.276 2.264s16.297 14.405 9.632 27.589l-9.632-27.589z"/></g><g opacity=".13"><path fill="#F2E2B6" d="M163.376 120.678s-44.613-21.923-53.113-24.181c0 0-43.783 45.519-61.525 117.502 0 0 29.115 18.126 61.309 25.679 0-.001 4.668-52.777 53.329-119z"/><path fill="#B7A25F" d="M158.419 122.562s-39.615-21.035-47.617-23.16c0 0-42.187 46.347-58.889 114.112 0 0 25.647 15.541 55.955 22.651-.001 0 4.741-51.26 50.551-113.603z"/><path fill="#F2E2B6" d="M104.993 113.067s9.899 5.055 16.084-4.898l24.19 13.334s-4.97 5.892 1.427 11.367c0 0-28.349 44.967-39.747 90.803 0 0-6.994-1.398-9.198 6.834 0 0-26.308-8.334-35.723-14.412 0 0 5.486-7.855-3.069-14.04 0-.001 12.259-44.547 46.036-88.988z"/><path fill="#B7A25F" d="M114.39 201.945l-6.21-1.241s10.117-33.788 19.445-44.791l5.469 2.972c0 .001-13.512 26.191-18.704 43.06zm-45.612 2.071s6.746-19.073 9.812-23.215l3.497.699s-8.473 19.287-9.748 24.627l-3.561-2.111zm7.168 2.831s2.162-8.24 3.587-12.571l3.228.645-4.684 12.351-2.131-.425zm62.641-83.149s-8.472 18.371-11.906 22.214l-3.418-1.018s10.211-18.426 11.972-23.625l3.352 2.429zm-6.877-3.479s-2.911 8.006-4.728 12.187l-3.155-.939 5.8-11.868 2.083.62z"/><circle fill="#B7A25F" cx="97.309" cy="166.919" r="18.104"/><path fill="#F2E2B6" d="M102.02 171.496l7.513 8.774s5.239-4.791 5.529-9.804l-9.261-1.851-3.781 2.881z"/><path fill="#F2E2B6" d="M87.108 162.083c-1.567 4.717 1.165 13.66 4.177 13.982 3.013.322 2.474-2.581 2.474-2.581s3.28 5.982 5.326 4.146c2.045-1.836.592-2.964.592-2.964s3.052 1.727 5.345-2.151c2.293-3.877 2.562-3.824 2.508-6.352-.054-2.528-3.683-3.813-3.683-3.813s5.018-2.429 3.893-3.438-4.996-.998-4.996-.998 2.285-4.436.979-4.898c-1.306-.462-12.346-3.787-16.615 9.067z"/><path fill="#B7A25F" d="M111.068 124.699c-.031-.434.137-1.153.569-1.936 1.031-1.867 3.363-2.995 5.837-1.629 2.681 1.481 2.68 4.688 1.401 7.002-.89 1.612-2.766 2.784-4.117 2.892l-.843-2.736c.982-.271 1.904-.657 2.415-1.582.591-1.069.299-2.126-.627-2.637-.845-.467-1.945-.137-2.447.773-.405.734-.26 1.377-.095 1.906l-2.038 1.541-4.953-4.007 3.491-6.32 2.379 1.314-2.371 4.293 1.399 1.126zm-20.1 93.568c-.098-.424-.043-1.16.263-2 .73-2.004 2.859-3.48 5.514-2.513 2.878 1.048 3.373 4.217 2.469 6.701-.63 1.73-2.302 3.178-3.62 3.494l-1.256-2.573c.929-.419 1.78-.943 2.142-1.937.418-1.148-.034-2.146-1.027-2.508-.908-.331-1.942.166-2.298 1.142-.287.788-.044 1.4.201 1.898l-1.775 1.837-5.513-3.192 2.471-6.784 2.553.93-1.678 4.609 1.554.896z"/><path fill="#F2E2B6" d="M471.629 111.707s44.258 8.45 51.645 11.45c0 0 6.885 56.834-19.516 118.631 0 0-30.966-2.749-58.397-14.834.001 0 25.396-40.762 26.268-115.247z"/><path fill="#B7A25F" d="M474.192 115.774s40.155 6.369 47.109 9.192c0 0 5.278 56.563-19.576 114.74 0 0-27.045-2.731-52.869-14.107-.001 0 24.515-39.704 25.336-109.825z"/><path fill="#F2E2B6" d="M518.055 138.028s-9.925-1.737-8.976-12.317l-24.786-3.534s.386 6.977-7.231 7.453c0 0-3.99 48.018-20.729 87.424 0 0 5.826 2.801 2.935 9.964 0 0 23.594 8.309 33.726 9.042 0 0 .31-8.679 9.878-8.494-.001 0 15.41-38.94 15.183-89.538z"/><path fill="#B7A25F" d="M462.79 197.263l5.173 2.487s11.096-29.983 10.342-43.037l-5.581-.829c0 .001-4.496 26.333-9.934 41.379zm31.899 26.37s5.514-17.489 5.553-22.16l-2.913-1.401s-4.38 18.586-6.369 23.148l3.729.413zm-6.734-1.859s2.927-7.145 4.257-11.058l-2.689-1.293-3.343 11.498 1.775.853zm-.022-94.365s-3.882 17.922-3.491 22.577l3.03 1.127s2.652-18.91 4.212-23.636l-3.751-.068zm6.876 1.231s-2.257 7.384-3.221 11.403l2.797 1.04 2.271-11.757-1.847-.686z"/><circle fill="#B7A25F" cx="494.257" cy="181.213" r="16.411"/><path fill="#F2E2B6" d="M488.35 181.96l-10.225 2.257s-1.181-6.325 1.342-10.114l7.715 3.709 1.168 4.148z"/><path fill="#F2E2B6" d="M504.281 183.274c-1.438 4.27-8.291 9.256-10.649 7.847-2.357-1.409-.384-3.218-.384-3.218s-5.637 2.543-6.117.099 1.187-2.469 1.187-2.469-3.152-.414-2.698-4.472.23-4.166 1.647-5.967c1.418-1.801 4.746-.753 4.746-.753s-2.309-4.495-.945-4.612c1.364-.118 4.162 2.001 4.162 2.001s.764-4.458 1.962-4.081c1.198.377 11.006 3.989 7.089 15.625z"/><path fill="#B7A25F" d="M507.584 140.075c.153.363.219 1.03.077 1.827-.34 1.903-2.011 3.553-4.533 3.103-2.733-.488-3.669-3.24-3.248-5.599.293-1.643 1.56-3.197 2.688-3.684l1.523 2.101c-.764.519-1.442 1.12-1.61 2.063-.194 1.09.365 1.912 1.308 2.08.862.154 1.709-.451 1.874-1.378.134-.748-.179-1.257-.476-1.663l1.298-1.917 5.421 1.991-1.15 6.443-2.425-.433.781-4.376-1.528-.558zm-36.308 78.892c.145.366.196 1.034.036 1.828-.382 1.895-2.09 3.507-4.601 3-2.722-.549-3.595-3.322-3.122-5.671.33-1.636 1.632-3.161 2.77-3.622l1.475 2.135c-.775.501-1.467 1.087-1.657 2.027-.219 1.085.321 1.919 1.261 2.109.858.173 1.718-.412 1.905-1.336.15-.745-.15-1.261-.438-1.673l1.342-1.887 5.374 2.113-1.294 6.415-2.414-.487.879-4.358-1.516-.593z"/><path fill="#F2E2B6" d="M713.722 628.739s37.698 24.341 43.396 29.87c0 0-14.884 55.038-62.351 102.218 0 0-27.558-14.11-48.364-35.518 0 0 38.677-28.137 67.319-96.57z"/><path fill="#B7A25F" d="M714.567 633.451s34.688 20.886 40.052 26.091c0 0-16.267 54.187-60.952 98.603 0 0-23.946-12.628-43.532-32.781 0 0 37.469-27.489 64.432-91.913z"/><path fill="#F2E2B6" d="M746.742 670.387s-8.513-5.312-3.683-14.725l-21.56-12.526s-2.251 6.585-9.46 4.178c0 0-21.628 42.836-51.807 72.957 0 0 4.332 4.763-1.015 10.294 0 0 18.675 16.488 27.754 20.951 0 0 3.53-7.896 12.293-4.149-.001 0 28.778-30.187 47.478-76.98z"/><path fill="#B7A25F" d="M673.588 704.414l3.846 4.229s21.449-23.531 25.63-35.863l-4.842-2.851c.001.001-13.991 22.629-24.634 34.485zm19.592 36.264s11.627-14.084 13.408-18.381l-2.166-2.382s-10.99 15.52-14.53 18.988l3.288 1.775zm-5.522-4.232s5.372-5.502 8.062-8.618l-1.999-2.198-7.383 9.365 1.32 1.451zm35.246-87.119s-10.282 15.093-11.66 19.537l2.376 2.172s9.515-16.465 12.721-20.244l-3.437-1.465zm5.888 3.706s-4.843 5.973-7.235 9.323l2.193 2.005 6.49-10.004-1.448-1.324z"/><circle fill="#B7A25F" cx="708.634" cy="701.358" r="16.343"/><path fill="#F2E2B6" d="M702.902 699.84l-10.282-1.738s1.273-6.28 5.018-8.835l5.736 6.307-.472 4.266z"/><path fill="#F2E2B6" d="M717.117 707.006c-2.923 3.404-11.113 5.446-12.763 3.264-1.649-2.182.848-3.114.848-3.114s-6.154.241-5.684-2.195c.471-2.436 2.019-1.836 2.019-1.836s-2.755-1.56-.819-5.137c1.935-3.576 1.769-3.76 3.751-4.893s4.662 1.078 4.662 1.078-.452-5.012.851-4.611 3.094 3.403 3.094 3.403 2.371-3.83 3.336-3.034c.966.799 8.67 7.798.705 17.075z"/><path fill="#B7A25F" d="M736.311 668.363c.006.393-.182 1.033-.612 1.716-1.025 1.63-3.184 2.528-5.344 1.17-2.341-1.472-2.176-4.362-.906-6.382.884-1.407 2.635-2.368 3.858-2.396l.62 2.509c-.899.194-1.75.495-2.258 1.303-.587.934-.378 1.901.431 2.409.738.464 1.746.223 2.245-.572.403-.641.305-1.227.182-1.713l1.915-1.285 4.26 3.864-3.469 5.518-2.077-1.305 2.356-3.748-1.201-1.088zm-63 59.258c-.003.392-.205 1.028-.65 1.701-1.061 1.607-3.24 2.456-5.368 1.05-2.307-1.524-2.078-4.41-.763-6.401.916-1.387 2.688-2.308 3.911-2.309l.564 2.522c-.903.173-1.761.455-2.287 1.252-.608.92-.421 1.892.376 2.418.728.481 1.74.262 2.257-.521.417-.632.332-1.22.221-1.708l1.944-1.241 4.172 3.959-3.592 5.439-2.047-1.352 2.44-3.695-1.178-1.114z"/><path fill="#E5D4A8" d="M628.424 591.441s-35.192-14.29-49.822-44.43c0 0 29.393 10.698 50.851-5.809 21.458-16.508 42.883-52.513 42.883-52.513l59.216 26.781s-38.386 41.896-60.108 60.078c-21.724 18.18-43.02 15.893-43.02 15.893z"/><path fill="#A58E50" d="M584.127 551.484s19.207 27.082 45.377 35.225c0 0 19.131 2.263 38.159-12.134 18.862-14.271 57.587-58.307 57.587-58.307l-52.28-21.86s-25.735 39.211-43.833 51.025c-19.248 12.565-45.01 6.051-45.01 6.051z"/><path fill="#E5D4A8" d="M668.808 506.842s7.813 2.757 13.522-4.147l28.628 13.204s-6.839 7.187-1.416 12.217c0 0-30.866 31.678-41.878 40.729-11.013 9.052-17.383 12.669-25.753 13.428 0 0-.745-9.014-17.908-3.018 0 0-18.174-8.036-25.95-18.752 0 0 6.505 1.221 6.324-4.046 0 0 11.639 1.54 28.103-8.509 11.554-7.052 36.328-41.106 36.328-41.106z"/><circle fill="#A58E50" cx="658.734" cy="548.822" r="15.685"/><path fill="#F2E2B6" d="M662.108 553.404l5.172 8.567s5.158-3.349 6.12-7.592l-7.651-2.899-3.641 1.924z"/><path fill="#F2E2B6" d="M650.704 543.238c-2.01 3.808-.948 11.839 1.58 12.543 2.529.704 2.481-1.854 2.481-1.854s1.952 5.579 3.961 4.301c2.009-1.278.928-2.449.928-2.449s2.363 1.91 4.874-1.077c2.511-2.987 2.734-2.903 3.047-5.071.313-2.168-2.605-3.783-2.605-3.783s4.634-1.362 3.816-2.384-4.127-1.564-4.127-1.564 2.584-3.466 1.533-4.047c-1.049-.58-10.011-4.993-15.488 5.385z"/><path fill="#A58E50" d="M671.564 529.76s11.989-13.604 15.545-19.123l4.127 1.725s-14.444 17.421-17.333 19.578l-2.339-2.18zm10.715-2.567s9.645-11.942 10.608-12.905l2.245 1.146s-9.948 12.198-11.049 13.298l-1.804-1.539zm-69.42 40.278s12.656-4.186 17.883-7.839l1.62 1.573s-13.176 6.476-18.266 7.641l-1.237-1.375zm58.713-51.41c.036-.366.306-.954.837-1.57 1.267-1.472 3.662-2.209 5.812-.844 2.331 1.48 1.842 4.166.272 5.991-1.094 1.271-3.061 2.084-4.366 2.055l-.387-2.367c.977-.138 1.915-.38 2.543-1.11.726-.843.608-1.754-.197-2.265-.735-.466-1.832-.288-2.45.429-.498.578-.458 1.13-.38 1.587l-2.178 1.109-4.112-3.798 4.289-4.983 2.068 1.313-2.914 3.385 1.163 1.068zm-45.417 54.918c.116-.262.534-.601 1.244-.862 1.693-.623 4.463-.262 6.525 1.59 2.236 2.008 1.139 3.843-.959 4.616-1.461.538-3.781.398-5.199-.124l.074-1.931c1.096.27 2.171.447 3.01.138.969-.357 1.032-1.088.26-1.781-.705-.633-1.941-.918-2.766-.615-.665.245-.737.675-.748 1.05l-2.611.001-3.695-4.435 5.73-2.11 1.983 1.781-3.892 1.433 1.044 1.249z"/><path fill="#E5D4A8" d="M220.66 299.045s-35.192 14.29-49.822 44.43c0 0 29.393-10.699 50.851 5.809s42.883 52.513 42.883 52.513l59.216-26.781s-38.386-41.896-60.108-60.078-43.02-15.893-43.02-15.893z"/><path fill="#A58E50" d="M176.363 339.001s19.207-27.082 45.377-35.225c0 0 19.131-2.263 38.159 12.134 18.862 14.271 57.587 58.307 57.587 58.307l-52.28 21.86s-25.735-39.211-43.833-51.025c-19.248-12.564-45.01-6.051-45.01-6.051z"/><path fill="#E5D4A8" d="M261.044 383.643s7.813-2.757 13.522 4.147l28.628-13.204s-6.839-7.187-1.416-12.217c0 0-30.866-31.678-41.878-40.729-11.013-9.052-17.383-12.669-25.753-13.428 0 0-.745 9.014-17.908 3.018 0 0-18.174 8.036-25.95 18.752 0 0 6.505-1.221 6.324 4.046 0 0 11.639-1.54 28.103 8.509 11.554 7.053 36.328 41.106 36.328 41.106z"/><circle fill="#A58E50" cx="250.97" cy="341.664" r="15.685"/><path fill="#F2E2B6" d="M254.344 337.081l5.173-8.567s5.158 3.349 6.12 7.592l-7.651 2.899-3.642-1.924z"/><path fill="#F2E2B6" d="M242.94 347.248c-2.01-3.808-.948-11.839 1.58-12.543 2.529-.704 2.481 1.854 2.481 1.854s1.952-5.579 3.961-4.301.928 2.449.928 2.449 2.363-1.91 4.874 1.077c2.511 2.987 2.733 2.903 3.047 5.072.313 2.168-2.605 3.783-2.605 3.783s4.634 1.362 3.816 2.384c-.817 1.022-4.127 1.564-4.127 1.564s2.584 3.466 1.533 4.047c-1.049.578-10.011 4.991-15.488-5.386z"/><path fill="#A58E50" d="M263.8 360.725s11.989 13.604 15.545 19.123l4.127-1.725s-14.444-17.421-17.333-19.578l-2.339 2.18zm10.715 2.567s9.645 11.942 10.608 12.905l2.245-1.146s-9.948-12.198-11.049-13.298l-1.804 1.539zm-69.42-40.278s12.656 4.186 17.883 7.839l1.62-1.573s-13.176-6.476-18.266-7.64l-1.237 1.374zm59.882 53.023c-.351-.111-.87-.497-1.362-1.145-1.177-1.545-1.401-4.04.38-5.861 1.932-1.974 4.458-.938 5.917.977 1.016 1.334 1.404 3.427 1.104 4.697l-2.396-.113c.068-.985.026-1.952-.558-2.718-.674-.885-1.59-.959-2.257-.278-.609.622-.662 1.733-.088 2.486.463.607 1.01.682 1.474.701l.633 2.36-4.568 3.234-3.984-5.23 1.713-1.75 2.706 3.553 1.286-.913zm-44.837-55.629c-.408-.075-1.049-.365-1.705-.866-1.567-1.198-2.237-3.202-.567-4.747 1.81-1.675 4.789-.945 6.731.539 1.353 1.034 2.136 2.707 2.018 3.745l-2.677.01c-.091-.798-.301-1.577-1.078-2.171-.897-.686-1.926-.707-2.551-.129-.571.528-.442 1.427.321 2.01.616.471 1.236.508 1.754.504l1.1 1.879-4.523 2.804-5.304-4.053 1.606-1.485 3.603 2.754 1.272-.794z"/><path fill="#E5D4A8" d="M211.686 93.978S209.469 61.7 227.07 39.235c0 0 2.798 26.497 23.455 36.75s56.224 13.193 56.224 13.193l1.636 55.335s-46.416-13.72-68.453-23.55-28.246-26.985-28.246-26.985z"/><path fill="#A58E50" d="M225.711 45.137s-13.549 24.825-9.999 47.899c0 0 5.419 15.489 23.551 24.671 17.974 9.103 66.155 22.282 66.155 22.282l-2.81-48.187s-39.632-5.041-55.44-14.477c-16.813-10.035-21.457-32.188-21.457-32.188z"/><path fill="#E5D4A8" d="M291.534 93.265s.81 7.011 8.229 8.799l.594 26.848s-8.058-2.548-9.88 3.483c0 0-35.784-11.784-46.829-16.83-11.045-5.046-16.194-8.569-19.904-14.692 0 0 6.621-3.94-4.384-14.835 0 0-.642-16.914 4.653-26.872 0 0 1.497 5.436 5.461 3.328 0 0 3.172 9.484 17.018 18.33 9.717 6.208 45.042 12.441 45.042 12.441z"/><circle fill="#A58E50" cx="255.637" cy="101.246" r="13.361"/><path fill="#F2E2B6" d="M253.391 105.542l-4.624 7.161s4.491 2.697 8.098 1.847l-.641-6.94-2.833-2.068z"/><path fill="#F2E2B6" d="M256.91 93.013c-3.666-.115-9.416 3.7-9.01 5.898s2.346 1.206 2.346 1.206-3.541 3.58-1.812 4.64 2.221-.205 2.221-.205-.579 2.523 2.647 3.328c3.225.806 3.244 1.007 5.021.436s1.922-3.408 1.922-3.408 2.774 3.038 3.251 2.03-.346-3.744-.346-3.744 3.619.682 3.671-.339.079-9.529-9.911-9.842z"/><path fill="#A58E50" d="M275.023 103.942s14.894 4.091 20.448 4.75l.222 3.804s-18.733-4.544-21.464-5.949l.794-2.605zm5.97 7.241s12.746 2.918 13.843 3.295l-.038 2.146s-13.055-3.055-14.309-3.486l.504-1.955zm-56.779-38.078s7.935 8.122 12.685 10.758l-.598 1.828s-9.882-7.664-12.676-11.125l.589-1.461zm61.297 25.722c.294-.109.845-.122 1.515.054 1.6.42 3.06 1.977 2.818 4.133-.261 2.338-2.5 2.967-4.484 2.447-1.382-.362-2.74-1.564-3.204-2.573l1.667-1.181c.471.696 1.007 1.324 1.8 1.532.917.24 1.57-.19 1.66-.997.082-.737-.465-1.51-1.244-1.715-.629-.165-1.036.072-1.357.302l-1.663-1.252 1.37-4.567 5.417 1.421-.232 2.073-3.68-.965-.383 1.288zM226.5 84.593c.244-.009.66.184 1.125.63 1.11 1.063 1.868 3.318 1.222 5.589-.701 2.462-2.516 2.308-3.891.991-.958-.917-1.717-2.745-1.848-4.026l1.505-.665c.203.94.469 1.829 1.019 2.356.636.608 1.219.383 1.461-.467.221-.776-.023-1.829-.563-2.347-.436-.418-.792-.312-1.083-.18l-.977-1.998 2.013-4.486 3.757 3.597-.622 2.184-2.552-2.444-.566 1.266z"/><path fill="#E5D4A8" d="M94.933 710.748s-2.217-32.278 15.384-54.743c0 0 2.798 26.497 23.455 36.75 20.656 10.253 56.224 13.193 56.224 13.193l1.636 55.335s-46.416-13.72-68.453-23.55-28.246-26.985-28.246-26.985z"/><path fill="#A58E50" d="M108.958 661.906s-13.549 24.825-9.999 47.899c0 0 5.419 15.489 23.551 24.671 17.974 9.103 66.155 22.282 66.155 22.282l-2.81-48.187s-39.632-5.041-55.44-14.477c-16.813-10.035-21.457-32.188-21.457-32.188z"/><path fill="#E5D4A8" d="M174.782 710.035s.81 7.011 8.229 8.799l.594 26.848s-8.058-2.548-9.88 3.483c0 0-35.784-11.784-46.829-16.83s-16.194-8.569-19.904-14.692c0 0 6.621-3.94-4.384-14.835 0 0-.642-16.914 4.653-26.872 0 0 1.497 5.436 5.461 3.328 0 0 3.172 9.484 17.018 18.33 9.716 6.208 45.042 12.441 45.042 12.441z"/><circle fill="#A58E50" cx="138.884" cy="718.016" r="13.361"/><path fill="#F2E2B6" d="M136.638 722.312l-4.624 7.161s4.491 2.697 8.098 1.847l-.641-6.94-2.833-2.068z"/><path fill="#F2E2B6" d="M140.157 709.783c-3.666-.115-9.416 3.7-9.01 5.898.406 2.199 2.346 1.206 2.346 1.206s-3.541 3.58-1.812 4.64 2.221-.205 2.221-.205-.579 2.522 2.647 3.328 3.244 1.007 5.021.436c1.777-.571 1.922-3.408 1.922-3.408s2.774 3.038 3.251 2.03-.346-3.744-.346-3.744 3.619.682 3.671-.339c.052-1.02.079-9.529-9.911-9.842z"/><path fill="#A58E50" d="M158.27 720.711s14.894 4.091 20.448 4.75l.222 3.804s-18.733-4.544-21.464-5.949l.794-2.605zm5.97 7.242s12.746 2.918 13.843 3.295l-.038 2.146s-13.055-3.055-14.309-3.486l.504-1.955zm-56.778-38.079s7.935 8.122 12.685 10.758l-.598 1.828s-9.882-7.664-12.676-11.125l.589-1.461zm61.296 25.722c.294-.109.845-.122 1.515.054 1.6.42 3.06 1.977 2.818 4.133-.261 2.338-2.5 2.967-4.484 2.447-1.382-.362-2.74-1.564-3.204-2.573l1.667-1.181c.471.696 1.007 1.324 1.8 1.532.917.24 1.57-.19 1.66-.997.082-.737-.465-1.51-1.244-1.715-.629-.165-1.036.072-1.357.302l-1.663-1.252 1.37-4.567 5.417 1.421-.232 2.073-3.68-.965-.383 1.288zm-59.011-14.234c.244-.009.66.184 1.125.63 1.11 1.063 1.868 3.318 1.222 5.589-.701 2.462-2.516 2.308-3.891.991-.958-.917-1.717-2.745-1.848-4.026l1.505-.665c.203.94.469 1.829 1.019 2.356.636.609 1.219.383 1.461-.467.221-.776-.023-1.829-.563-2.347-.436-.418-.792-.311-1.083-.18l-.977-1.998 2.013-4.486 3.757 3.597-.622 2.183-2.552-2.444-.566 1.267z"/><path fill="#E5D4A8" d="M236.194 630.532s29.367 13.27 36.827-22.357l43.266 13.186s-15.259 28.235-37.145 30.237c-13.606 1.244-36.819-12.84-42.948-21.066z"/><path fill="#A58E50" d="M274.775 610.598s-4.211 26.057-31.851 24.623c0 0 22.914 16.062 28.812 15.833s22.994-.045 40.958-28.9c0 0-34.371-10.955-37.919-11.556z"/><path fill="#E5D4A8" d="M245.622 638.064s19.53.414 28.491-18.63c0 0 5.681 2.454 8.379-3.674l20.361 6.205s-5.31 4.952.621 8.592c0 0-15.455 22.426-36.436 18.891l-21.416-11.384z"/><path fill="#A58E50" d="M288.713 622.394s-2.602 7.511-6.721 11.135l2.452.747s4.774-6.991 5.894-11.388l-1.625-.494zm3.584 1.092s-1.839 5.622-4.251 8.184l2.452.747s2.675-5.258 3.424-8.436l-1.625-.495zm-14.182 2.435c-.026-.256.076-.695.353-1.191.661-1.184 2.196-2.023 3.858-1.39 1.802.687 1.843 2.592 1.023 4.06-.571 1.022-1.803 1.854-2.699 2.016l-.596-1.565c.649-.231 1.257-.528 1.585-1.115.379-.678.171-1.285-.451-1.522-.568-.216-1.294.059-1.616.636-.26.465-.155.837-.038 1.139l-1.335 1.063-3.344-2.023 2.238-4.008 1.598.609-1.52 2.723.944.568z"/><path fill="#F2E2B6" d="M216.71 594.199s32.946 13.53 44.313 13.394c0 0-6.318 44.655 20.663 43.688 0 0-18.906 5.35-56.057-15.394 0 .001-18.134-13.99-8.919-41.688z"/><path fill="#B7A25F" d="M218.036 597.093s27.993 13.328 39.36 13.191c0 0-4.143 40.653 18.913 41.893 0 0-17.512 2.473-48.594-15.143 0 .001-18.894-12.243-9.679-39.941z"/><path fill="#F2E2B6" d="M273.294 652.239s-18.719 1.125-20.013-32.33c0 0-7.451-.666-6.009-8.621 0 0-14.774-2.851-23.032-7.053 0 0 .549 5.405-6.183 4.557 0 0-3.235 18.457 11.328 29.137.001.001 24.254 14.321 43.909 14.31z"/><path fill="#B7A25F" d="M241.019 611.838s-4.683 12.788 1.684 24.008l3.016.553s-6.429-12.029-1.918-24.028l-2.782-.533z"/><path fill="#B7A25F" d="M237.321 611.084s-1.621 4.312-1.452 11.144c0 0 .105.34 2.198.59-.054-7.016 1.758-11.127 1.758-11.127l-2.504-.607zm-12.447 4.101c-.098-.337-.069-.954.182-1.688.598-1.755 2.456-3.26 4.846-2.817 2.591.48 3.115 3.033 2.374 5.208-.516 1.515-1.968 2.936-3.134 3.374l-1.185-1.958c.816-.47 1.56-1.018 1.857-1.888.342-1.005-.086-1.77-.981-1.936-.817-.151-1.725.398-2.017 1.253-.235.69-.003 1.163.229 1.541l-1.533 1.757-4.993-1.898 2.024-5.939 2.298.426-1.375 4.035 1.408.53zm8.415 24.881s2.428-2.506 9.549-.238 18.326 8.85 21.51 11.65c-.001 0-14.079-2.022-31.059-11.412z"/><path fill="#E5D4A8" d="M639.995 206.888s43.744-5.411 27.09-52.329l59.916-15.405s2.283 43.838-21.852 61.758c-15.003 11.14-52.139 11.219-65.154 5.976z"/><path fill="#A58E50" d="M670.86 156.138s13.635 33.428-19.666 51.433c0 0 38.196 2.444 44.921-2.022 6.725-4.466 26.822-16.424 27.256-62.912-.001 0-47.94 11.678-52.511 13.501z"/><path fill="#E5D4A8" d="M656.369 208.972s23.104-13.421 20.009-42.042c0 0 8.382-1.179 7.17-10.257l28.197-7.25s-2.675 9.564 6.843 9.593c0 0-2.082 37.193-29.101 48.003l-33.118 1.953z"/><path fill="#A58E50" d="M695.536 159.991s2.309 10.624.079 17.79l3.396-.873s.598-11.563-1.225-17.495l-2.25.578zm4.962-1.276s1.855 7.875.863 12.584l3.396-.873s-.619-8.044-2.008-12.29l-2.251.579zm-14.828 12.941c-.213-.28-.406-.866-.436-1.643-.071-1.854 1.124-3.926 3.516-4.37 2.593-.481 3.998 1.716 4.086 4.013.061 1.6-.785 3.449-1.717 4.276l-1.81-1.404c.594-.732 1.092-1.511 1.057-2.43-.041-1.061-.716-1.622-1.611-1.456-.817.152-1.469.99-1.434 1.894.028.729.414 1.088.766 1.357l-.802 2.191-5.345.018-.24-6.274 2.3-.426.163 4.262 1.507-.008z"/><path fill="#F2E2B6" d="M591.372 178.329s48.109-7.656 61.288-15.908c0 0 24.414 56.648 55.236 36.31 0 0-18.27 19.709-76.426 21.933 0 0-31.14-3.428-40.098-42.335z"/><path fill="#B7A25F" d="M594.982 180.764s42.18-4.365 55.358-12.618c0 0 24.106 50.426 51.915 35.46 0 0-18.691 15.356-67.532 16.913 0 0-30.783-.848-39.741-39.755z"/><path fill="#F2E2B6" d="M698.777 205.824s-21.06 14.642-46.39-23.508c0 0-9.176 4.527-13.155-5.791 0 0-19.284 7.189-31.92 8.162 0 0 4.489 5.921-3.976 9.724 0 0 9.363 23.859 33.974 25.963.001 0 38.52-.543 61.467-14.55z"/><path fill="#B7A25F" d="M632.32 181.621s3.636 18.268 19.06 26.839l3.916-1.502s-16.072-9.471-19.347-26.696l-3.629 1.359z"/><path fill="#B7A25F" d="M627.465 183.373s1.177 6.19 6.239 14.048c0 0 .365.322 2.987-.876-5.059-8.155-5.87-14.247-5.87-14.247l-3.356 1.075zm-11.617 13.651c-.355-.324-.759-1.065-.99-2.102-.551-2.475.547-5.556 3.654-6.74 3.368-1.284 5.797 1.324 6.48 4.391.476 2.137-.209 4.83-1.258 6.171l-2.778-1.443c.618-1.13 1.097-2.3.824-3.527-.316-1.417-1.361-2.005-2.523-1.562-1.062.405-1.731 1.692-1.463 2.899.216.973.825 1.361 1.364 1.637l-.54 3.144-7.183 1.338-1.865-8.377 2.987-1.139 1.267 5.691 2.024-.381zm27.542 23.066s1.052-4.656 10.983-7.076c9.931-2.421 27.703-2.713 33.414-1.709 0 0-17.881 7.662-44.397 8.785z"/><path fill="#D1BD93" d="M99.956 560.324l18.831-16.535s-3.749-11.569-12.564-21.413-13.86-12.708-15.044-11.597c-1.184 1.111-6.357 19.25-4.558 24.921s13.335 24.624 13.335 24.624z"/><path fill="#967F45" d="M91.349 512.874s14.815 8.511 25.852 30.5l-.679 1.544s-4.508-13.317-24.831-30.09c.001 0-1.659-2.802-.342-1.954z"/><path fill="#E5D4A8" d="M100.412 520.02l-13.401 13.788 17.911 22.156 13.865-12.175s-11.556-1.162-18.375-23.769z"/><path fill="#AA9455" d="M89.119 534.487l9.847-9.854s7.704 16.753 17.918 20.828l-6.046 5.309c-.001 0-14.109-3.801-21.719-16.283z"/><path fill="#F2E2B6" d="M123.604 551.054s-12.988-2.828-21.946-15.845c-8.958-13.017-10.375-20.576-10.479-24.43 0 0-36.994 34.662-41.466 40.242 0 0-3.655 11.248 9.385 23.52s26.346 8.679 26.346 8.679l38.16-32.166z"/><path fill="#B7A25F" d="M119.824 552.406s-11.672-3.087-20.63-16.105-10.733-19.017-10.837-22.871c0 0-32.495 30.13-36.966 35.71 0 0-3.128 11.66 9.834 24.015 11.203 10.678 21.812 7.861 21.812 7.861l36.787-28.61z"/><path fill="#F2E2B6" d="M84.819 516.723s2.974 16.542 22.164 33.427c0 0-2.207 5.547 1.677 7.887l-22.723 17.847s-6.511-3.465-11.225 3.099c0 0-21.531-6.773-22.074-31.265 0-.001 19-19.448 32.181-30.995z"/><path fill="#B7A25F" d="M83.335 573.148s-15.177-8.949-17.818-21.18l2.428-3.073s4.79 14.111 19.23 21.822l-3.84 2.431zm6.135-4.858s-5.756-1.618-11.351-8.315c0 0-.186-.415 1.612-2.419 5.861 6.778 11.636 9.492 11.636 9.492l-1.897 1.242zm6.62-17.774c.432.12 1.081.567 1.71 1.334 1.502 1.83 1.887 4.859-.203 7.155-2.265 2.49-5.388 1.341-7.25-.927-1.297-1.579-1.862-4.112-1.554-5.672l2.923.031c-.038 1.202.056 2.379.8 3.286.86 1.048 1.979 1.097 2.761.238.714-.785.729-2.14-.003-3.032-.59-.719-1.261-.786-1.826-.789l-.876-2.847 5.42-4.143 5.086 6.193-2.009 2.208-3.454-4.207-1.525 1.172zm-15.834-29.354s-6.367 20.798-21.128 20.187l21.128-20.187z"/></g></svg>