<?xml version="1.0" encoding="utf-8"?>
<!-- Generator: Adobe Illustrator 17.0.0, SVG Export Plug-In . SVG Version: 6.00 Build 0)  -->
<!DOCTYPE svg PUBLIC "-//W3C//DTD SVG 1.1//EN" "http://www.w3.org/Graphics/SVG/1.1/DTD/svg11.dtd">
<svg version="1.1" xmlns="http://www.w3.org/2000/svg" xmlns:xlink="http://www.w3.org/1999/xlink" x="0px" y="0px" width="800px"
	 height="800px" viewBox="0 0 800 800" enable-background="new 0 0 800 800" xml:space="preserve">
<g id="Background">
</g>
<g id="Objects">
	<rect display="none" fill="#87AD5D" width="800" height="800"/>
	<circle opacity="0.4" fill="none" stroke="#FFFFFF" stroke-miterlimit="10" cx="400" cy="400" r="386.34"/>
	<circle opacity="0.4" fill="none" stroke="#FFFFFF" stroke-miterlimit="10" cx="400" cy="400" r="101.54"/>
	<circle opacity="0.05" fill="#FFFFFF" cx="400" cy="400" r="375.069"/>
	<g>
		<circle opacity="0.4" fill="none" stroke="#FFFFFF" stroke-miterlimit="10" cx="400" cy="400" r="298.326"/>
		<circle opacity="0.4" fill="none" stroke="#FFFFFF" stroke-miterlimit="10" cx="400" cy="400" r="269.964"/>
	</g>
	<g>
		<g>
			<path fill="#D7921A" d="M378.851,244.926c0,8.968,12.606,35.148,16.237,35.148c3.629,0,16.237-26.181,16.237-35.148
				s-7.269-16.237-16.237-16.237C386.12,228.689,378.851,235.958,378.851,244.926z M384.271,244.926
				c0-5.975,4.843-10.817,10.817-10.817c5.975,0,10.817,4.843,10.817,10.817c0,5.974-4.843,10.817-10.817,10.817
				C389.114,255.743,384.271,250.899,384.271,244.926z"/>
		</g>
		<g>
			<g>
				<path fill="none" stroke="#C0272D" stroke-width="2" stroke-linecap="round" stroke-miterlimit="10" d="M80.485,325.316
					c0-0.669,0.009-1.335,0.027-2"/>
				
					<path fill="none" stroke="#C0272D" stroke-width="2" stroke-linecap="round" stroke-miterlimit="10" stroke-dasharray="3.9352,7.8705" d="
					M81.158,315.472c4.796-34.784,34.642-61.573,70.745-61.573c37.455,0,68.176,28.833,71.177,65.514"/>
				<path fill="none" stroke="#C0272D" stroke-width="2" stroke-linecap="round" stroke-miterlimit="10" d="M223.293,323.316
					c0.018,0.665,0.027,1.331,0.027,2"/>
			</g>
		</g>
		<g>
			<g>
				<path fill="none" stroke="#C0272D" stroke-width="2" stroke-linecap="round" stroke-miterlimit="10" d="M202.241,426.446
					c0.321,0.587,0.632,1.177,0.935,1.769"/>
				
					<path fill="none" stroke="#C0272D" stroke-width="2" stroke-linecap="round" stroke-miterlimit="10" stroke-dasharray="3.9352,7.8705" d="
					M206.369,435.409c12.462,32.827-0.893,70.643-32.579,87.946c-32.872,17.951-73.654,7.37-93.869-23.385"/>
				<path fill="none" stroke="#C0272D" stroke-width="2" stroke-linecap="round" stroke-miterlimit="10" d="M77.864,496.647
					c-0.335-0.574-0.662-1.155-0.983-1.742"/>
			</g>
		</g>
		<g>
			<g>
				<path fill="none" stroke="#C0272D" stroke-width="2" stroke-linecap="round" stroke-miterlimit="10" d="M489.592,470.316
					c0.321,0.587,0.633,1.177,0.935,1.769"/>
				
					<path fill="none" stroke="#C0272D" stroke-width="2" stroke-linecap="round" stroke-miterlimit="10" stroke-dasharray="3.9352,7.8705" d="
					M493.72,479.279c12.462,32.827-0.893,70.643-32.579,87.946c-32.872,17.951-73.654,7.37-93.868-23.385"/>
				<path fill="none" stroke="#C0272D" stroke-width="2" stroke-linecap="round" stroke-miterlimit="10" d="M365.215,540.518
					c-0.334-0.574-0.662-1.155-0.983-1.742"/>
			</g>
		</g>
		<g>
			<g>
				<path fill="none" stroke="#C0272D" stroke-width="2" stroke-linecap="round" stroke-miterlimit="10" d="M565.726,441.671
					c0.084-0.664,0.178-1.324,0.279-1.98"/>
				
					<path fill="none" stroke="#C0272D" stroke-width="2" stroke-linecap="round" stroke-miterlimit="10" stroke-dasharray="3.9352,7.8704" d="
					M567.632,431.989c9.136-33.903,42.116-56.722,77.932-52.178c37.157,4.714,64.004,37.184,62.364,73.951"/>
				<path fill="none" stroke="#C0272D" stroke-width="2" stroke-linecap="round" stroke-miterlimit="10" d="M707.648,457.661
					c-0.065,0.661-0.141,1.324-0.225,1.987"/>
			</g>
		</g>
		<g>
			<g>
				<path fill="none" stroke="#C0272D" stroke-width="2" stroke-linecap="round" stroke-miterlimit="10" d="M291.635,245.723
					c0.324-0.585,0.653-1.165,0.986-1.74"/>
				
					<path fill="none" stroke="#C0272D" stroke-width="2" stroke-linecap="round" stroke-miterlimit="10" stroke-dasharray="3.9644,7.9289" d="
					M296.845,237.269c30.505-44.711,90.624-59.627,138.902-32.863c49.456,27.417,68.401,88.541,44.062,138.82"/>
				<path fill="none" stroke="#C0272D" stroke-width="2" stroke-linecap="round" stroke-miterlimit="10" d="M478.017,346.761
					c-0.312,0.588-0.629,1.174-0.953,1.758"/>
			</g>
		</g>
		<g>
			<g>
				<path fill="none" stroke="#C0272D" stroke-width="2" stroke-linecap="round" stroke-miterlimit="10" d="M276.231,475.99
					c-0.338-0.576-0.671-1.154-0.997-1.734"/>
				
					<path fill="none" stroke="#C0272D" stroke-width="2" stroke-linecap="round" stroke-miterlimit="10" stroke-dasharray="3.9644,7.9289" d="
					M271.602,467.205c-22.985-49.004-5.255-108.354,42.341-136.312c48.757-28.642,111.022-13.87,141.938,32.656"/>
				<path fill="none" stroke="#C0272D" stroke-width="2" stroke-linecap="round" stroke-miterlimit="10" d="M458.012,366.89
					c0.348,0.567,0.691,1.139,1.029,1.715"/>
			</g>
		</g>
		<g>
			<defs>
				<circle id="SVGID_1_" cx="637.368" cy="304.013" r="32.439"/>
			</defs>
			<clipPath id="SVGID_2_">
				<use xlink:href="#SVGID_1_"  overflow="visible"/>
			</clipPath>
			<g clip-path="url(#SVGID_2_)">
				<rect x="604.929" y="271.573" fill="#97DAD3" width="64.878" height="64.878"/>
				<path opacity="0.1" d="M604.929,303.31c0.22-0.236,0.439-0.457,0.661-0.655c0.253-0.28,0.506-0.533,0.762-0.763
					c0.252-0.279,0.508-0.533,0.762-0.762c0.252-0.279,0.506-0.533,0.763-0.763c0.252-0.278,0.507-0.531,0.762-0.761
					c0.252-0.279,0.506-0.533,0.762-0.762c0.253-0.28,0.507-0.534,0.763-0.763c0.253-0.279,0.506-0.532,0.762-0.761
					c0.251-0.28,0.506-0.533,0.762-0.764c0.252-0.278,0.507-0.532,0.762-0.762c0.252-0.279,0.507-0.532,0.762-0.762
					c0.252-0.28,0.507-0.533,0.763-0.763c0.253-0.279,0.506-0.532,0.763-0.762c0.251-0.278,0.505-0.531,0.76-0.761
					c0.253-0.279,0.507-0.533,0.764-0.763c0.251-0.278,0.505-0.533,0.762-0.762c0.252-0.28,0.507-0.533,0.762-0.763
					c0.252-0.278,0.506-0.531,0.761-0.759c0.252-0.281,0.508-0.535,0.765-0.766c0.251-0.278,0.505-0.531,0.76-0.76
					c0.252-0.279,0.507-0.534,0.763-0.763c0.252-0.279,0.506-0.532,0.761-0.761c0.252-0.28,0.507-0.534,0.763-0.764
					c0.253-0.279,0.507-0.533,0.763-0.762c0.252-0.279,0.506-0.533,0.761-0.761c0.253-0.28,0.506-0.533,0.762-0.762
					c0.254-0.281,0.508-0.535,0.765-0.765c0.252-0.278,0.505-0.531,0.76-0.759c0.252-0.28,0.507-0.534,0.763-0.764
					c4.643-5.149,10.121-1.394,10.121-1.394s5.716-3.925,10.418,1.729c4.703,5.653,1.14,15.732,7.376,18.076
					c0,0-0.49,0.353-1.101,0.614c0.112,0.05,0.221,0.103,0.339,0.146c0,0-0.49,0.354-1.1,0.615c0.11,0.05,0.22,0.103,0.338,0.148
					c0,0-0.49,0.352-1.1,0.614c0.11,0.05,0.219,0.103,0.338,0.147c0,0-0.409,0.295-0.944,0.546c-0.01,0.04-0.019,0.084-0.028,0.125
					c0.07,0.03,0.138,0.064,0.211,0.091c0,0-0.102,0.074-0.271,0.178c-0.603,2.816-1.154,7.596,0.732,11.565
					c2.259,1.253,4.679,2.986,4.911,4.107c0.366,1.751,2.578,13.034,0.536,17.822h-52.773V303.31z"/>
				<g>
					<path fill="#41403E" d="M622.247,300.193c-1.019,0.382-2.673-0.815-2.673-0.815c6.236-2.343,2.673-12.422,7.376-18.075
						c4.702-5.653,10.418-1.729,10.418-1.729s5.715-3.924,10.417,1.729c4.703,5.653,1.14,15.732,7.377,18.075
						c0,0-1.655,1.197-2.674,0.815c0,0-4.773,13.575,4.614,18.752c0,0-11.563,11.924-19.734,9.124
						c-8.173,2.8-19.735-9.124-19.735-9.124C627.019,313.769,622.247,300.193,622.247,300.193z"/>
					<path fill="#006F5C" d="M617.248,318.275c0.373-1.795,6.357-5.161,8.302-5.609c1.945-0.449,3.066,2.51,3.066,2.51l8.752,9.309
						l8.751-9.309c0,0,1.121-2.959,3.066-2.51c1.945,0.448,7.93,3.815,8.303,5.609c0.373,1.796,2.692,13.613,0.373,18.176h-20.493
						h-20.495C614.555,331.889,616.873,320.071,617.248,318.275z"/>
					<path fill="#603A11" d="M633.097,305.867h8.542c0,8.608,5.229,9.192,5.229,9.192c0,8.153-9.499,9.425-9.499,9.425
						s-9.5-1.272-9.5-9.425C627.868,315.06,633.097,314.476,633.097,305.867z"/>
					<path fill="#895619" d="M637.368,309.009c3.614,0,6.373-3.044,7.609-5.326c1.237-2.283,2.092-15.41-0.57-19.025
						c-2.609-3.539-7.039-3.138-7.039-3.138s-4.431-0.401-7.039,3.138c-2.663,3.615-1.809,16.742-0.572,19.025
						C630.994,305.965,633.753,309.009,637.368,309.009z"/>
					<path fill="#41403E" d="M646.073,297.117c-10.99-1.574-13.544-9.331-13.544-9.331s-0.319,4.241-3.945,7.088
						c0,0-2.598-7.392,1.521-11.45c4.12-4.059,10.844-3.938,14.903,0.425C649.067,288.21,646.073,297.117,646.073,297.117z"/>
					<path opacity="0.3" fill="#006F5C" d="M650.424,325.397c0,0,2.47,8.415-4.547,11.055h5.612
						C651.489,336.451,652.275,329.663,650.424,325.397z"/>
					<path opacity="0.3" fill="#006F5C" d="M624.311,325.397c0,0-2.47,8.415,4.547,11.055h-5.613
						C623.245,336.451,622.46,329.663,624.311,325.397z"/>
				</g>
			</g>
		</g>
		<g>
			<defs>
				<circle id="SVGID_3_" cx="471.019" cy="476.043" r="44.083"/>
			</defs>
			<clipPath id="SVGID_4_">
				<use xlink:href="#SVGID_3_"  overflow="visible"/>
			</clipPath>
			<g clip-path="url(#SVGID_4_)">
				<rect x="427.122" y="431.96" fill="#FEF0DF" width="88.166" height="88.165"/>
				<path opacity="0.1" d="M427.122,482.041c0.234-0.38,0.559-0.695,0.955-0.906c0.234-0.439,0.596-0.801,1.036-1.035
					c0.234-0.439,0.595-0.801,1.035-1.035c0.234-0.44,0.596-0.801,1.035-1.035c0.234-0.44,0.596-0.803,1.035-1.035
					c0.234-0.44,0.596-0.803,1.035-1.037c0.234-0.438,0.596-0.801,1.036-1.036c0.233-0.438,0.595-0.8,1.035-1.035
					c0.234-0.438,0.596-0.8,1.035-1.034c0.234-0.439,0.596-0.801,1.036-1.036c0.234-0.438,0.595-0.8,1.035-1.035
					c0.234-0.44,0.596-0.8,1.035-1.035c0.235-0.439,0.596-0.802,1.035-1.034c0.234-0.44,0.596-0.803,1.035-1.037
					c0.234-0.438,0.596-0.801,1.036-1.036c0.233-0.439,0.595-0.8,1.035-1.035c0.234-0.439,0.596-0.8,1.035-1.035
					c0.235-0.438,0.596-0.8,1.036-1.035c0.233-0.438,0.595-0.8,1.035-1.035c0.234-0.44,0.596-0.8,1.035-1.035
					c0.235-0.439,0.596-0.802,1.035-1.035c0.235-0.439,0.598-0.802,1.035-1.036c0.235-0.44,0.596-0.802,1.035-1.035
					c0.235-0.44,0.596-0.801,1.036-1.036c0.234-0.439,0.595-0.801,1.035-1.035c0.235-0.44,0.596-0.8,1.035-1.035
					c0.235-0.439,0.596-0.8,1.036-1.035c0.234-0.439,0.595-0.801,1.035-1.035c0.423-0.794,1.258-1.332,2.219-1.332
					c0.047,0,0.091,0.011,0.136,0.013c0.122-0.12,0.253-0.23,0.391-0.329c0.07-0.064,0.14-0.123,0.216-0.176
					c0.216-0.338,0.497-0.63,0.822-0.861c0.067-0.062,0.138-0.121,0.213-0.174c0.253-0.397,0.595-0.732,0.995-0.979
					c0.004-0.003,0.009-0.008,0.013-0.009c0.257-0.418,0.607-0.771,1.023-1.027c0.004-0.003,0.008-0.007,0.012-0.01
					c0.259-0.421,0.612-0.772,1.033-1.029c0.259-0.423,0.613-0.778,1.035-1.036c0.55-0.895,1.534-1.493,2.66-1.493
					c1.049,0,1.975,0.518,2.539,1.311c0.446-0.314,0.988-0.501,1.575-0.501c0.702,0,1.341,0.268,1.826,0.702
					c0.082-0.057,0.17-0.108,0.26-0.158c0.439-0.804,1.288-1.354,2.269-1.354c1.433,0,2.593,1.161,2.593,2.594
					c0,0.001,0,0.003,0,0.003c0.028,0,0.055-0.003,0.083-0.003c1.27,0,2.33,0.884,2.603,2.071c0.148-0.026,0.3-0.045,0.456-0.045
					c0.817,0,1.538,0.39,2.009,0.984c1.076,0.019,1.941,0.893,1.941,1.973c0,0.227-0.045,0.44-0.115,0.641
					c0.184,0.408,0.289,0.858,0.297,1.333c1.026,0.556,1.724,1.643,1.724,2.891c0,0.52-0.125,1.01-0.341,1.446
					c0.503,0.44,0.827,1.075,0.827,1.796c0,0.554-0.198,1.058-0.513,1.463c0.647,0.415,1.08,1.135,1.08,1.962
					c0,0.818-0.425,1.535-1.063,1.951c-0.01,0.177-0.028,0.353-0.062,0.522c0.042,0.147,0.072,0.301,0.072,0.462
					c0,0.067-0.013,0.131-0.02,0.194c0.265,0.261,0.431,0.619,0.431,1.019c0,0.665-0.461,1.213-1.08,1.368
					c-0.032,0.133-0.081,0.258-0.149,0.374c0.002,0.028,0.008,0.058,0.008,0.087c0,0.601-0.197,1.152-0.525,1.603
					c0.043,0.264,0.033,0.54-0.046,0.812l-1.013,3.463c-0.168,0.569-0.587,0.99-1.1,1.193c-0.194,0.489-0.572,0.853-1.035,1.035
					c-0.194,0.487-0.572,0.853-1.034,1.034c-0.183,0.459-0.528,0.807-0.952,1.001c-0.047,0.061-0.098,0.122-0.144,0.185
					c-0.123,0.243-0.294,0.453-0.499,0.617c-0.422,0.495-0.886,0.979-1.387,1.439c-0.298,0.327-0.616,0.647-0.948,0.954
					c0.369,5.554,4.501,6.7,5.715,6.919c2.966,0.312,6.788,1.02,7.811,1.02c4.735,0,8.572,3.838,8.572,8.572v20.457h-72.343V482.041
					z"/>
				<g>
					<path fill="#534741" d="M454.619,465.692c0-0.406,0.114-0.784,0.296-1.116c-0.087-0.242-0.142-0.498-0.142-0.772
						c0-0.659,0.283-1.251,0.732-1.666c-0.232-0.471-0.367-0.998-0.367-1.558c0-1.084,0.491-2.053,1.259-2.702
						c-0.529-0.44-0.874-1.096-0.874-1.837c0-0.448,0.131-0.866,0.348-1.225c-0.116-0.29-0.185-0.605-0.185-0.936
						c0-1.39,1.126-2.515,2.515-2.515c0.301,0,0.584,0.062,0.852,0.158c0.047-1.144,0.973-2.058,2.124-2.078
						c0.185-1.262,1.197-2.252,2.471-2.397c0.162-1.571,1.489-2.794,3.103-2.794c1.049,0,1.973,0.519,2.539,1.312
						c0.446-0.315,0.986-0.502,1.574-0.502c0.765,0,1.457,0.315,1.951,0.821c0.383-0.956,1.313-1.631,2.404-1.631
						c1.433,0,2.594,1.161,2.594,2.594c0,0.001,0,0.001,0,0.004c0.028-0.001,0.055-0.004,0.082-0.004c1.27,0,2.33,0.886,2.603,2.073
						c0.149-0.028,0.301-0.047,0.457-0.047c0.817,0,1.539,0.388,2.009,0.984c1.075,0.018,1.942,0.893,1.942,1.973
						c0,0.225-0.047,0.439-0.115,0.641c0.184,0.408,0.289,0.858,0.295,1.335c1.027,0.554,1.725,1.639,1.725,2.888
						c0,0.522-0.124,1.011-0.34,1.448c0.503,0.438,0.826,1.076,0.826,1.794c0,0.556-0.197,1.058-0.513,1.464
						c0.648,0.414,1.079,1.137,1.079,1.96c0,0.82-0.424,1.537-1.062,1.953c-0.009,0.177-0.027,0.353-0.061,0.522
						c0.041,0.147,0.071,0.301,0.071,0.462c0,0.067-0.013,0.131-0.021,0.196c0.267,0.257,0.432,0.617,0.432,1.017
						c0,0.73-0.551,1.322-1.259,1.405c0.022,0.139,0.037,0.28,0.037,0.424c0,1.5-1.217,2.715-2.715,2.715
						c-1.5,0-2.715-1.215-2.715-2.715c0-0.511,0.143-0.986,0.389-1.395c-0.829-0.66-1.362-1.677-1.362-2.819
						c0-1.966,1.575-3.564,3.531-3.604c-0.377-0.422-0.612-0.975-0.612-1.585c0-0.038,0.009-0.077,0.012-0.116
						c-1.275-0.408-2.207-1.573-2.274-2.967c-1.108-0.547-1.871-1.686-1.871-3.007c0-0.458,0.091-0.896,0.259-1.293
						c-0.065-0.137-0.115-0.277-0.156-0.425c-0.19,0.043-0.386,0.066-0.589,0.066c-1.478,0-2.676-1.196-2.676-2.674
						c0-0.026,0.004-0.053,0.005-0.081c-0.002,0-0.003,0.002-0.005,0.002c-0.692,0-1.319-0.276-1.783-0.721
						c-0.379,1.056-1.386,1.812-2.572,1.812c-0.79,0-1.498-0.335-1.997-0.871c-0.556,0.516-1.3,0.832-2.116,0.832
						c-0.01,0-0.019-0.001-0.026-0.001c-0.289,1.254-1.41,2.19-2.753,2.19c-0.283,0-0.556-0.043-0.812-0.119
						c-0.354,0.72-1.087,1.218-1.943,1.218c-0.179,0-0.352-0.027-0.518-0.068c0.004,0.057,0.018,0.109,0.018,0.167
						c0,0.457-0.131,0.881-0.347,1.251c0.6,0.451,0.992,1.162,0.992,1.969c0,0.347-0.071,0.674-0.2,0.974
						c0.645,0.641,1.045,1.525,1.045,2.506c0,1.729-1.245,3.165-2.885,3.469c-0.029,0.272-0.102,0.526-0.218,0.761
						c0.077,0.192,0.121,0.398,0.148,0.608c0.449-0.188,0.944-0.292,1.464-0.292c2.102,0,3.807,1.704,3.807,3.806
						c0,2.104-1.705,3.808-3.807,3.808c-1.558,0-2.894-0.936-3.483-2.273c-0.97-0.189-1.701-1.04-1.701-2.064
						c0-0.27,0.056-0.525,0.148-0.762C455.041,467.226,454.619,466.51,454.619,465.692z"/>
					<rect x="442.996" y="505.328" fill="#9C743E" width="56.418" height="14.797"/>
					<path fill="#C0272D" d="M451.567,490.618c1.605,0,10.083-1.74,11.366-0.975c2.506,1.496,8.271,6.416,8.271,9.545
						c0-3.129,5.765-8.049,8.27-9.545c1.283-0.766,9.764,0.975,11.367,0.975c4.733,0,8.572,3.836,8.572,8.57v6.14h-10.335v14.797
						h-17.874h-17.876v-14.797h-10.333v-6.14C442.996,494.454,446.834,490.618,451.567,490.618z"/>
					<polygon fill="#FBED21" points="499.414,503.667 499.414,505.328 489.079,505.328 489.079,520.125 453.329,520.125 
						453.329,505.328 442.996,505.328 442.996,503.667 					"/>
					<rect x="453.329" y="513.556" fill="#8BC53F" width="35.75" height="6.569"/>
					<path fill="#9C743E" d="M465.125,481.863c0-7.295,6.08-7.903,6.08-7.903s6.08,0.608,6.08,7.903c0,7.296,6.08,7.78,6.08,7.78
						c-2.309,10.456-12.16,9.605-12.16,9.605s-9.851,0.851-12.16-9.605C459.045,489.644,465.125,489.159,465.125,481.863z"/>
					<path fill="#AB8551" d="M458.236,469.465c0.412-0.119,0.828-0.083,1.197,0.062c-0.458-6.45-0.086-14.731,2.205-17.841
						c3.545-4.809,9.566-4.265,9.566-4.265s6.021-0.545,9.564,4.265c2.292,3.109,2.664,11.391,2.207,17.841
						c0.368-0.146,0.786-0.182,1.197-0.062c0.979,0.287,1.542,1.312,1.255,2.293l-1.013,3.461c-0.288,0.979-1.314,1.541-2.294,1.254
						c-0.053-0.016-0.102-0.04-0.153-0.062c-0.134,0.474-0.277,0.858-0.423,1.129c-1.68,3.103-5.429,7.238-10.341,7.238
						c-4.912,0-8.661-4.136-10.342-7.238c-0.146-0.271-0.288-0.655-0.424-1.129c-0.05,0.022-0.099,0.047-0.153,0.062
						c-0.979,0.287-2.005-0.274-2.291-1.254l-1.014-3.461C456.695,470.776,457.258,469.752,458.236,469.465z"/>
					<path fill="#534741" d="M456.536,462.732c0,1.019,0.825,1.844,1.846,1.844c1.019,0,1.846-0.825,1.846-1.844
						c0-0.003-0.002-0.005-0.002-0.006c0.493-0.158,0.852-0.615,0.852-1.159c0-0.137-0.026-0.268-0.069-0.392
						c0.119-0.1,0.225-0.209,0.319-0.332c0.269,0.131,0.569,0.211,0.889,0.211c0.547,0,1.041-0.219,1.409-0.566
						c0.378,0.236,0.819,0.38,1.298,0.38c1.093,0,2.005-0.722,2.32-1.71c1.102-0.04,2.048-0.683,2.518-1.612
						c0.82-0.005,1.523-0.469,1.885-1.143c0.182,0.195,0.407,0.348,0.664,0.44c0.067,1.652,1.423,2.972,3.093,2.972
						c0.824,0,1.571-0.324,2.127-0.851c0.226,0.348,0.569,0.604,0.974,0.729c0.008,1.577,1.241,2.858,2.795,2.953
						c0,0.003-0.001,0.007-0.001,0.008c0,0.941,0.764,1.703,1.703,1.703c0.939,0,1.702-0.763,1.702-1.703
						c0-0.316-0.093-0.609-0.245-0.864c0.639-0.526,1.045-1.321,1.045-2.21c0-0.95-0.464-1.79-1.176-2.31
						c0.531-0.516,0.863-1.237,0.863-2.036c0-1.567-1.272-2.839-2.84-2.839c-0.021,0-0.043,0.003-0.064,0.003
						c-0.276-1.352-1.411-2.39-2.808-2.521c-0.145-0.682-0.75-1.194-1.475-1.194c-0.217,0-0.355-0.161-0.542-0.079
						c-0.083-0.042-0.17-0.082-0.257-0.116c-0.784-1.041-2.094-1.51-3.497-1.51c-0.512,0-1,0.095-1.454,0.259
						c-0.373-0.551-1.005-0.914-1.719-0.914c-0.654,0-1.23,0.308-1.61,0.781c-0.286-0.276-0.674-0.449-1.103-0.449
						c-0.772,0-1.413,0.551-1.559,1.279c-0.156-0.05-0.32-0.086-0.494-0.086c-0.658,0-1.226,0.4-1.469,0.972
						c-0.062-0.006-0.121-0.017-0.184-0.017c-0.826,0-1.503,0.609-1.617,1.404c-0.061-0.009-0.121-0.019-0.184-0.019
						c-0.619,0-1.12,0.501-1.12,1.121c0,0.004,0.001,0.007,0.001,0.014c-0.045-0.007-0.09-0.014-0.137-0.014
						c-0.638,0-1.155,0.517-1.155,1.154c0,0.127,0.026,0.247,0.064,0.361c-0.429,0.203-0.728,0.638-0.728,1.143
						c0,0.303,0.111,0.577,0.289,0.795c-0.47,0.386-0.774,0.965-0.774,1.621c0,0.394,0.113,0.756,0.302,1.071
						c-0.924,0.247-1.605,1.082-1.605,2.083c0,0.535,0.2,1.018,0.523,1.396C457.152,461.117,456.536,461.851,456.536,462.732z"/>
				</g>
			</g>
		</g>
		<g>
			<defs>
				<circle id="SVGID_5_" cx="222.919" cy="329.984" r="24.503"/>
			</defs>
			<clipPath id="SVGID_6_">
				<use xlink:href="#SVGID_5_"  overflow="visible"/>
			</clipPath>
			<g clip-path="url(#SVGID_6_)">
				<rect x="198.623" y="305.481" fill="#97DAD3" width="49.006" height="49.005"/>
				<path opacity="0.1" d="M198.623,331.65c0.056-0.054,0.106-0.11,0.163-0.162c0.182-0.199,0.373-0.39,0.572-0.571
					c0.184-0.201,0.377-0.394,0.577-0.577c0.183-0.2,0.376-0.392,0.574-0.575c0.185-0.201,0.378-0.395,0.579-0.578
					c0.183-0.2,0.375-0.391,0.573-0.574c0.184-0.199,0.376-0.392,0.577-0.575c0.184-0.2,0.376-0.393,0.576-0.577
					c0.183-0.199,0.376-0.391,0.574-0.574c0.184-0.199,0.376-0.392,0.576-0.575c0.184-0.2,0.376-0.392,0.575-0.575
					c0.184-0.2,0.376-0.392,0.577-0.576c0.184-0.2,0.376-0.393,0.576-0.577c0.184-0.198,0.374-0.389,0.572-0.571
					c0.186-0.202,0.379-0.396,0.581-0.581c0.183-0.198,0.374-0.39,0.572-0.572c0.184-0.199,0.375-0.391,0.574-0.574
					c0.185-0.201,0.378-0.394,0.579-0.579c0.184-0.199,0.375-0.391,0.575-0.574c0.183-0.199,0.376-0.393,0.576-0.575
					c0.183-0.199,0.374-0.391,0.573-0.574c0.185-0.2,0.377-0.392,0.577-0.576c0.183-0.2,0.376-0.392,0.576-0.576
					c0.183-0.199,0.374-0.392,0.574-0.575c0.185-0.2,0.377-0.392,0.577-0.576c0.184-0.2,0.376-0.392,0.575-0.576
					c0.184-0.199,0.374-0.39,0.573-0.573c0.185-0.2,0.378-0.393,0.578-0.577c0.184-0.199,0.376-0.392,0.575-0.575
					c0.184-0.2,0.378-0.393,0.577-0.576c0.183-0.2,0.375-0.391,0.574-0.574c1.786-1.94,4.347-3.158,7.193-3.158
					c5.398,0,9.774,4.377,9.774,9.773v15.322c0,0.701-0.075,1.383-0.215,2.041c0.59,0.086,1.064,0.148,1.289,0.148
					c2.631,0,4.765,2.133,4.765,4.764v11.371h-40.232V331.65z"/>
				<g>
					<path fill="#41403E" d="M213.419,335.896c0,5.398,4.376,9.774,9.774,9.774l0,0c5.399,0,9.774-4.376,9.774-9.774v-15.321
						c0-5.398-4.375-9.774-9.774-9.774l0,0c-5.398,0-9.774,4.376-9.774,9.774V335.896z"/>
					<path fill="#EDD0A8" d="M219.9,330.995h6.452c0,6.503,3.949,6.944,3.949,6.944c0,6.158-7.176,7.118-7.176,7.118
						s-7.175-0.96-7.175-7.118C215.95,337.94,219.9,337.498,219.9,330.995z"/>
					<path fill="#B2B2B2" d="M212.211,338.085c0.892,0,5.605-0.967,6.318-0.541c1.392,0.832,4.596,3.565,4.596,5.305
						c0-1.739,3.206-4.473,4.597-5.305c0.713-0.426,5.427,0.541,6.319,0.541c2.631,0,4.764,2.133,4.764,4.764v3.413v8.225h-5.744
						h-9.936h-9.935h-5.745v-8.225v-3.413C207.446,340.218,209.579,338.085,212.211,338.085z"/>
					<path fill="#989898" d="M229.317,337.547c0,0,2.505,3.812,1.542,8.765l-2.109,1.775l1.164,1.526c0,0-0.294,3.74-1.164,4.873
						h-1.581v-14.685L229.317,337.547z"/>
					<path fill="#989898" d="M217.068,337.547c0,0-2.506,3.812-1.543,8.765l2.11,1.775l-1.165,1.526c0,0,0.293,3.74,1.165,4.873
						h1.579v-14.685L217.068,337.547z"/>
					<path fill="#FCE5C5" d="M223.125,333.369c2.731,0,4.815-2.299,5.749-4.023c0.935-1.725,1.581-11.64-0.431-14.37
						c-1.971-2.674-5.317-2.371-5.317-2.371s-3.346-0.303-5.316,2.371c-2.012,2.73-1.366,12.646-0.432,14.37
						C218.312,331.07,220.396,333.369,223.125,333.369z"/>
					<path fill="#41403E" d="M229.701,324.387c-8.301-1.188-10.23-7.049-10.23-7.049s-0.241,3.204-2.98,5.355
						c0,0-1.962-5.583,1.149-8.649c3.112-3.065,8.191-2.974,11.256,0.321C231.963,317.658,229.701,324.387,229.701,324.387z"/>
					<rect x="219.214" y="338.851" fill="#E5E5E5" width="7.955" height="15.636"/>
					<path fill="#F1F1F1" d="M228.166,335.707c0,0-0.997,1.764-3.143,3.144c0,0,2.453,3.411,2.415,4.676c0,0,1.84-4.446,1.879-5.979
						C229.317,337.547,228.512,335.86,228.166,335.707z"/>
					<path fill="#F1F1F1" d="M218.084,335.707c0,0,0.997,1.764,3.145,3.144c0,0-2.454,3.411-2.416,4.676c0,0-1.84-4.446-1.877-5.979
						C216.936,337.547,217.74,335.86,218.084,335.707z"/>
					<polygon fill="#C0272D" points="225.023,338.851 221.229,338.851 221.229,340.844 222.172,342.07 224.011,342.07 
						225.023,340.728 					"/>
					<polygon fill="#C0272D" points="224.011,342.07 225.023,354.486 221.229,354.486 222.172,342.07 					"/>
				</g>
			</g>
		</g>
		<g>
			<defs>
				<circle id="SVGID_7_" cx="82.538" cy="329.984" r="17.378"/>
			</defs>
			<clipPath id="SVGID_8_">
				<use xlink:href="#SVGID_7_"  overflow="visible"/>
			</clipPath>
			<g clip-path="url(#SVGID_8_)">
				<rect x="65.379" y="312.605" fill="#9AC2D2" width="34.757" height="34.757"/>
				<path opacity="0.1" d="M65.379,334.766c0.078-0.079,0.156-0.154,0.235-0.223c0.133-0.152,0.27-0.287,0.408-0.408
					c0.133-0.152,0.269-0.287,0.409-0.409c0.132-0.151,0.269-0.286,0.407-0.407c0.132-0.152,0.27-0.287,0.409-0.409
					c0.132-0.151,0.269-0.287,0.408-0.408c0.132-0.151,0.269-0.286,0.407-0.407c0.132-0.152,0.269-0.287,0.409-0.409
					c0.132-0.151,0.268-0.286,0.407-0.407c0.133-0.152,0.269-0.287,0.409-0.408c0.132-0.152,0.269-0.287,0.408-0.408
					c0.132-0.152,0.269-0.287,0.408-0.408c0.133-0.152,0.269-0.288,0.409-0.408c0.133-0.152,0.269-0.288,0.408-0.408
					c0.132-0.152,0.269-0.287,0.408-0.408c0.132-0.152,0.269-0.287,0.408-0.408c0.132-0.152,0.269-0.287,0.408-0.408
					c0.132-0.152,0.269-0.287,0.408-0.408c0.132-0.152,0.269-0.287,0.408-0.408c0.132-0.152,0.269-0.287,0.409-0.408
					c0.132-0.152,0.269-0.287,0.407-0.408c0.133-0.152,0.27-0.287,0.409-0.408c0.132-0.152,0.269-0.287,0.407-0.408
					c0.133-0.152,0.269-0.287,0.408-0.408c0.133-0.152,0.27-0.287,0.408-0.408c0.133-0.152,0.27-0.287,0.408-0.408
					c0.133-0.152,0.27-0.287,0.408-0.408c0.133-0.152,0.27-0.287,0.409-0.408c0.132-0.152,0.269-0.287,0.407-0.407
					c0.133-0.153,0.27-0.288,0.409-0.409c0.132-0.152,0.269-0.287,0.407-0.408c0.133-0.152,0.27-0.287,0.409-0.408
					c0.132-0.152,0.269-0.287,0.407-0.408c0.133-0.152,0.269-0.287,0.409-0.408c0.132-0.152,0.268-0.287,0.407-0.408
					c1.399-1.61,3.314-1.375,3.314-1.375s3.38-0.416,4.439,3.633v4.524c0.083-0.022,0.171-0.028,0.261-0.011
					c0.311,0.062,0.514,0.364,0.452,0.676l-0.298,1.503c-0.043,0.221-0.21,0.385-0.414,0.44v1.215c0,0,0.017,1.516-1.139,2.612
					c1.813,0.259,1.837,0.7,1.837,0.7v0.989c1.072,0.137,2.254,0.348,2.604,0.348c1.867,0,3.379,1.513,3.379,3.379v8.064H65.379
					V334.766z"/>
				<g>
					<g>
						<rect x="71.637" y="341.529" fill="#EDD0A8" width="22.241" height="5.833"/>
						<path fill="#F1F1F1" d="M75.016,335.729c0.632,0,3.976-0.686,4.481-0.384c0.987,0.59,3.26,2.529,3.26,3.763
							c0-1.233,2.273-3.173,3.26-3.763c0.507-0.302,3.849,0.384,4.481,0.384c1.866,0,3.379,1.513,3.379,3.379v1.766v0.655h-4.074
							v3.243v2.59h-7.046H75.71v-2.59v-3.243h-4.073v-0.655v-1.766C71.637,337.242,73.15,335.729,75.016,335.729z"/>
					</g>
					<path fill="#001E31" d="M82.758,333.509c5.094,0,5.138,0.885,5.138,0.885v4.871c0,0-1.629-1.405-2.205-1.501
						c-0.575-0.096-2.933,1.501-2.933,1.501s-2.358-1.597-2.934-1.501c-0.575,0.096-2.204,1.501-2.204,1.501v-4.871
						C77.62,334.394,77.663,333.509,82.758,333.509z"/>
					<path fill="#EDD0A8" d="M86.944,329.479c-0.07,0.35,0.157,0.689,0.507,0.759l0,0c0.35,0.07,0.689-0.157,0.758-0.507
						l0.335-1.688c0.07-0.35-0.157-0.69-0.507-0.759l0,0c-0.35-0.069-0.69,0.158-0.759,0.508L86.944,329.479z"/>
					<path fill="#EDD0A8" d="M78.571,329.479c0.07,0.35-0.157,0.689-0.507,0.759l0,0c-0.35,0.07-0.689-0.157-0.758-0.507
						l-0.335-1.688c-0.069-0.35,0.158-0.69,0.507-0.759l0,0c0.35-0.069,0.69,0.158,0.759,0.508L78.571,329.479z"/>
					<path fill="#EDD0A8" d="M79.44,334.828c0,0,1.465-0.043,1.465-1.81c0-1.766,3.704-1.766,3.704,0c0,1.767,1.465,1.81,1.465,1.81
						s0.388,1.077,0.387,1.68c0,0.603-3.704,2.757-3.704,2.757s-3.704-2.153-3.705-2.757
						C79.053,335.905,79.44,334.828,79.44,334.828z"/>
					<path fill="#FCE5C5" d="M84.627,335.262h-3.739c-1.362-0.806-2.755-2.763-2.755-4.46v-7.744c0-2.555,2.07-4.626,4.625-4.626
						c2.554,0,4.625,2.071,4.625,4.626v7.744C87.383,332.499,85.988,334.456,84.627,335.262z"/>
					<path fill="#5F0D0F" d="M77.771,322.214v9.377c0,0-0.052,4.175,4.987,4.175c5.039,0,4.987-4.175,4.987-4.175v-9.377
						c-1.19-4.548-4.987-4.081-4.987-4.081S78.96,317.666,77.771,322.214z M80.759,320.656c0,0-0.268,1.121,1.998,1.121
						c2.265,0,1.997-1.121,1.997-1.121c2.115-0.685,1.999,3.24,1.999,3.24v6.354c0,0-0.236,0.966-1.06,0.966
						c-0.822,0-0.996-0.591-1.37-0.966c-0.375-0.375-1.566,0-1.566,0s-1.226-0.34-1.567,0c-0.34,0.34-0.361,0.966-1.371,0.966
						c-1.009,0-1.059-0.966-1.059-0.966v-6.354C78.761,323.897,78.646,319.972,80.759,320.656z"/>
				</g>
			</g>
		</g>
		<g>
			<defs>
				<circle id="SVGID_9_" cx="701.136" cy="448.884" r="27.158"/>
			</defs>
			<clipPath id="SVGID_10_">
				<use xlink:href="#SVGID_9_"  overflow="visible"/>
			</clipPath>
			<g clip-path="url(#SVGID_10_)">
				<rect x="674.051" y="421.725" fill="#C9C6E4" width="54.317" height="54.318"/>
				<path opacity="0.1" d="M674.051,451.894c0.166-0.179,0.337-0.351,0.52-0.511c0.198-0.226,0.411-0.438,0.637-0.638
					c0.199-0.226,0.412-0.438,0.638-0.639c0.2-0.225,0.413-0.438,0.639-0.638c0.199-0.227,0.411-0.438,0.637-0.636
					c0.199-0.227,0.413-0.441,0.639-0.64c0.199-0.226,0.412-0.438,0.638-0.638c0.199-0.226,0.413-0.439,0.639-0.639
					c0.199-0.227,0.412-0.439,0.637-0.638c0.2-0.225,0.412-0.439,0.639-0.638c0.199-0.225,0.412-0.44,0.639-0.638
					c0.198-0.226,0.411-0.439,0.637-0.638c0.199-0.226,0.413-0.439,0.638-0.639c0.2-0.225,0.412-0.438,0.638-0.638
					c0.2-0.225,0.413-0.438,0.639-0.638c0.199-0.225,0.412-0.439,0.638-0.638c0.199-0.227,0.413-0.44,0.639-0.638
					c0.199-0.227,0.412-0.439,0.637-0.638c0.2-0.226,0.412-0.439,0.639-0.639c0.199-0.225,0.412-0.438,0.638-0.638
					c0.199-0.225,0.412-0.438,0.638-0.638c0.199-0.225,0.413-0.44,0.639-0.64c0.199-0.225,0.413-0.438,0.638-0.636
					c0.199-0.227,0.412-0.439,0.637-0.639c0.2-0.225,0.412-0.438,0.639-0.638c0.199-0.227,0.412-0.439,0.639-0.638
					c0.198-0.225,0.412-0.439,0.637-0.638c0.199-0.227,0.413-0.44,0.639-0.639c0.199-0.227,0.412-0.439,0.638-0.638
					c0.199-0.227,0.411-0.44,0.638-0.638c0.199-0.225,0.412-0.439,0.639-0.638c0.199-0.227,0.412-0.439,0.637-0.638
					c0.199-0.227,0.413-0.439,0.639-0.64c0.199-0.226,0.413-0.438,0.638-0.637c1.32-1.496,3.251-2.441,5.403-2.441
					c3.979,0,7.205,3.227,7.205,7.206v6.889h0.089c0.229-0.247,0.576-0.374,0.931-0.305c0.544,0.108,0.898,0.638,0.79,1.183
					l-0.521,2.629c-0.072,0.368-0.339,0.643-0.669,0.753c-0.016,0.049-0.034,0.095-0.057,0.139c0,1.22,0,2.007,0,2.007
					s0.032,2.837-2.207,4.763c-0.188,0.219-0.4,0.434-0.638,0.637c-0.137,0.161-0.287,0.316-0.449,0.469
					c0.727,0.256,2.139,0.714,2.786,0.922c2.088,0.145,5.398,0.777,6.203,0.777c3.266,0,5.913,2.646,5.913,5.912v14.173h-46.349
					V451.894z"/>
				<g>
					<path fill="#EDD0A8" d="M707.812,444.77c-0.107,0.545,0.246,1.074,0.792,1.183l0,0c0.545,0.108,1.073-0.247,1.181-0.792
						l0.521-2.629c0.108-0.545-0.245-1.074-0.79-1.183l0,0c-0.545-0.107-1.075,0.247-1.183,0.792L707.812,444.77z"/>
					<path fill="#EDD0A8" d="M694.769,444.77c0.109,0.545-0.245,1.074-0.791,1.183l0,0c-0.544,0.108-1.072-0.247-1.181-0.792
						l-0.523-2.629c-0.107-0.545,0.246-1.074,0.791-1.183l0,0c0.545-0.107,1.075,0.247,1.182,0.792L694.769,444.77z"/>
					<path fill="#EDD0A8" d="M695.486,454.615c0,0,2.565-0.076,2.565-3.166c0-3.09,6.482-3.09,6.482,0
						c0,3.09,2.562,3.166,2.562,3.166s0.68,1.885,0.678,2.939c0,1.056-6.482,4.824-6.482,4.824s-6.481-3.768-6.481-4.824
						C694.809,456.5,695.486,454.615,695.486,454.615z"/>
					<path fill="#FCE5C5" d="M704.204,453.775h-5.824c-2.121-1.254-4.294-4.304-4.294-6.945v-12.066
						c0-3.979,3.227-7.205,7.205-7.205c3.979,0,7.206,3.226,7.206,7.205v12.066C708.497,449.472,706.324,452.522,704.204,453.775z"
						/>
					<path fill="#6C6F72" d="M695.066,441.653v4.317c0,0,0.077,1.506,1.65,1.506c1.573,0,1.604-0.975,2.136-1.506
						c0.529-0.529,2.439,0,2.439,0s1.855-0.584,2.44,0c0.584,0.585,0.853,1.506,2.136,1.506c1.282,0,1.649-1.506,1.649-1.506v-4.317
						h1.544c0,3.393,0,6.405,0,6.405s0.079,6.503-7.769,6.503c-7.848,0-7.768-6.503-7.768-6.503v-6.405H695.066z"/>
					<g>
						<path fill="#F1F1F1" d="M694.866,463.793v-8.967c0.291,0.016,0.515,0.055,0.639,0.128c3.807,3.322,9.421,1.856,11.409,0
							c0.1-0.06,0.265-0.097,0.477-0.115v8.954H694.866z"/>
						<path fill="#801A1E" d="M687.663,455.626c1.106,0,6.956-1.2,7.842-0.672c1.727,1.032-0.065,6.583,5.704,6.583
							c5.771,0,3.977-5.551,5.705-6.583c0.886-0.528,6.735,0.672,7.842,0.672c3.266,0,5.912,2.646,5.912,5.911v4.236v10.207h-7.129
							h-12.33h-12.33h-7.128v-10.207v-4.236C681.751,458.272,684.397,455.626,687.663,455.626z"/>
						<path fill="#E5E5E5" d="M705.361,453.775c0,0-1.406,1.406-4.07,3.118c0,0,3.045,4.234,2.997,5.804
							c0,0,4.557-5.836,4.604-7.738C708.893,454.959,705.789,453.965,705.361,453.775z"/>
						<path fill="#E5E5E5" d="M697.222,453.775c0,0,1.406,1.406,4.069,3.118c0,0-3.044,4.234-2.996,5.804
							c0,0-4.721-5.836-4.768-7.738C693.526,454.959,696.794,453.965,697.222,453.775z"/>
					</g>
				</g>
			</g>
		</g>
		<g>
			<defs>
				<circle id="SVGID_11_" cx="465.348" cy="370.156" r="40.172"/>
			</defs>
			<clipPath id="SVGID_12_">
				<use xlink:href="#SVGID_11_"  overflow="visible"/>
			</clipPath>
			<g clip-path="url(#SVGID_12_)">
				<rect x="425.346" y="329.984" fill="#348191" width="80.345" height="80.344"/>
				<path opacity="0.1" d="M425.346,373.177c0.108-0.098,0.219-0.19,0.336-0.274c0.272-0.366,0.584-0.685,0.944-0.943
					c0.27-0.366,0.583-0.686,0.943-0.943c0.271-0.365,0.583-0.685,0.942-0.943c0.272-0.366,0.584-0.686,0.943-0.944
					c0.272-0.366,0.584-0.685,0.943-0.943c0.273-0.366,0.585-0.685,0.944-0.943c0.272-0.366,0.584-0.686,0.943-0.943
					c0.272-0.366,0.584-0.686,0.943-0.943c0.272-0.366,0.585-0.686,0.944-0.944c0.271-0.366,0.584-0.685,0.944-0.944
					c0.271-0.364,0.583-0.684,0.941-0.942c0.272-0.366,0.585-0.686,0.944-0.943c0.272-0.366,0.584-0.687,0.944-0.944
					c0.272-0.365,0.583-0.685,0.942-0.943c0.272-0.366,0.584-0.685,0.945-0.944c0.271-0.365,0.583-0.685,0.942-0.943
					c0.271-0.365,0.584-0.685,0.943-0.942c0.272-0.366,0.584-0.686,0.944-0.944c0.271-0.365,0.584-0.686,0.943-0.944
					c0.272-0.364,0.583-0.684,0.943-0.943c0.271-0.365,0.583-0.686,0.944-0.943c0.27-0.365,0.583-0.684,0.942-0.942
					c0.271-0.366,0.584-0.686,0.944-0.944c0.272-0.366,0.585-0.686,0.943-0.943c0.272-0.365,0.583-0.685,0.943-0.942
					c0.271-0.367,0.584-0.687,0.943-0.945c0.272-0.365,0.584-0.686,0.944-0.943c0.272-0.365,0.584-0.686,0.943-0.943
					c0.271-0.365,0.584-0.685,0.943-0.943c0.271-0.365,0.585-0.686,0.944-0.944c0.271-0.365,0.582-0.685,0.943-0.943
					c1.014-1.365,2.603-2.078,5.058-1.443c0.005-0.005,0.011-0.011,0.017-0.016c0.251-0.32,4.725-5.817,13.387-1.418
					c8.917,4.528,5.899,14.649,5.899,14.649s-0.239-0.06-0.692-0.201c-0.124,0.714-0.251,1.145-0.251,1.145s-0.24-0.061-0.692-0.2
					c-0.125,0.715-0.251,1.145-0.251,1.145s-0.222-0.057-0.64-0.185v4.218c0.207-0.056,0.428-0.071,0.651-0.028
					c0.777,0.155,1.282,0.909,1.128,1.688l-0.745,3.752c-0.103,0.533-0.496,0.931-0.98,1.082c-0.016,0.051-0.034,0.099-0.054,0.145
					c0,1.766,0,2.906,0,2.906s0.047,4.063-3.166,6.811c-0.278,0.325-0.592,0.642-0.943,0.943c-0.18,0.211-0.376,0.418-0.587,0.62
					c1.038,0.365,3.05,1.016,3.972,1.313c2.98,0.204,7.702,1.108,8.851,1.108c4.659,0,8.438,3.778,8.438,8.436v20.207h-67.984
					V373.177z"/>
				<g>
					<path fill="#1A1A1A" d="M459.948,341.717c0,0,4.48-5.964,13.398-1.435c8.917,4.529,5.899,14.65,5.899,14.65
						s-7.2-1.824-18.051-8.839c0,0-1.579,6.433-7.666,8.839C453.529,354.933,451.008,339.399,459.948,341.717z"/>
					<path fill="#EDD0A8" d="M474.939,365.705c-0.153,0.777,0.351,1.532,1.129,1.686l0,0c0.778,0.153,1.531-0.352,1.685-1.128
						l0.745-3.752c0.154-0.778-0.352-1.533-1.128-1.688l0,0c-0.778-0.153-1.534,0.352-1.686,1.129L474.939,365.705z"/>
					<path fill="#EDD0A8" d="M456.33,365.705c0.154,0.777-0.35,1.532-1.128,1.686l0,0c-0.777,0.153-1.533-0.352-1.686-1.128
						l-0.743-3.752c-0.154-0.778,0.35-1.533,1.126-1.688l0,0c0.778-0.153,1.534,0.352,1.689,1.129L456.33,365.705z"/>
					<path fill="#EDD0A8" d="M457.354,379.753c0,0,3.656-0.108,3.656-4.517c0-4.409,9.249-4.409,9.249,0
						c0,4.408,3.657,4.517,3.657,4.517s0.969,2.69,0.968,4.195c-0.002,1.505-9.249,6.883-9.249,6.883s-9.248-5.378-9.249-6.883
						C456.385,382.442,457.354,379.753,457.354,379.753z"/>
					<path fill="#FCE5C5" d="M469.79,378.555h-8.31c-3.026-1.788-6.126-6.14-6.126-9.91v-17.214c0-5.678,4.604-10.281,10.281-10.281
						c5.677,0,10.28,4.603,10.28,10.281v17.214C475.916,372.415,472.815,376.767,469.79,378.555z"/>
					<path fill="#1A1A1A" d="M460.447,341.521c-2.271,1.126-5.897-0.743-5.897,8.035v20.842c0,0-0.113,9.277,11.085,9.277
						c11.197,0,11.083-9.277,11.083-9.277s0-15.594,0-20.842c0-10.2-11.083-9.07-11.083-9.07S463.145,340.179,460.447,341.521z
						 M461.195,346.094c0,0,3.851,8.623,13.321,7.201v14.124c0,0-0.524,2.147-2.354,2.147c-1.83,0-2.213-1.314-3.047-2.147
						c-0.833-0.833-3.48,0-3.48,0s-2.725-0.755-3.48,0c-0.757,0.757-0.803,2.147-3.047,2.147c-2.245,0-2.355-2.147-2.355-2.147
						v-14.124C456.753,353.295,461.195,349.93,461.195,346.094z"/>
					<g>
						<path fill="#6C6F72" d="M446.189,381.194c1.58,0,9.925-1.712,11.189-0.957c2.465,1.473,8.14,6.314,8.14,9.393
							c0-3.079,5.675-7.92,8.14-9.393c1.263-0.755,9.609,0.957,11.187,0.957c4.659,0,8.437,3.776,8.437,8.436v6.044v14.564h-10.171
							h-17.593h-17.593h-10.171v-14.564v-6.044C437.755,384.971,441.53,381.194,446.189,381.194z"/>
						<path fill="#403F43" d="M476.48,380.242c0,0,4.436,6.752,2.73,15.52l-3.734,3.145l2.061,2.702c0,0-0.519,6.623-2.061,8.629
							h-2.798v-26.004L476.48,380.242z"/>
						<path fill="#403F43" d="M454.791,380.242c0,0-4.436,6.752-2.73,15.52l3.734,3.145l-2.062,2.702c0,0,0.521,6.623,2.062,8.629
							h2.798v-26.004L454.791,380.242z"/>
						<rect x="458.593" y="382.551" fill="#E5E5E5" width="14.086" height="27.687"/>
						<path fill="#F1F1F1" d="M471.442,378.555c0,0,1.236,1.552-2.564,3.996c0,0,4.345,6.041,4.277,8.28
							c0,0,3.256-7.874,3.325-10.589C476.48,380.242,472.054,378.826,471.442,378.555z"/>
						<path fill="#F1F1F1" d="M459.829,378.555c0,0-1.472,1.552,2.329,3.996c0,0-4.344,6.041-4.277,8.28
							c0,0-3.257-7.874-3.325-10.589C454.556,380.242,459.217,378.826,459.829,378.555z"/>
						<polygon fill="#C0272D" points="468.878,382.551 462.158,382.551 462.158,386.08 463.828,388.252 467.086,388.252 
							468.878,385.876 						"/>
						<polygon fill="#C0272D" points="467.086,388.252 468.878,410.237 462.158,410.237 463.828,388.252 						"/>
					</g>
				</g>
			</g>
		</g>
		<g>
			<defs>
				<circle id="SVGID_13_" cx="249.934" cy="593.806" r="36.731"/>
			</defs>
			<clipPath id="SVGID_14_">
				<use xlink:href="#SVGID_13_"  overflow="visible"/>
			</clipPath>
			<g clip-path="url(#SVGID_14_)">
				<rect x="213.512" y="557.074" fill="#FEF0DF" width="73.463" height="73.462"/>
				<path opacity="0.1" d="M213.512,597.463c0.167-0.171,0.33-0.345,0.506-0.505c0.274-0.301,0.562-0.59,0.864-0.864
					c0.274-0.301,0.562-0.59,0.865-0.864c0.272-0.3,0.559-0.587,0.859-0.86c0.274-0.303,0.563-0.591,0.865-0.864
					c0.274-0.301,0.56-0.587,0.859-0.861c0.275-0.301,0.564-0.59,0.866-0.864c0.273-0.3,0.561-0.588,0.862-0.861
					c0.274-0.302,0.562-0.59,0.864-0.865c0.274-0.301,0.56-0.586,0.861-0.861c0.274-0.301,0.562-0.588,0.863-0.862
					c0.274-0.302,0.562-0.589,0.863-0.863c0.273-0.301,0.561-0.588,0.862-0.862c0.273-0.302,0.562-0.589,0.862-0.861
					c0.274-0.302,0.564-0.59,0.864-0.866c0.274-0.3,0.562-0.587,0.861-0.861c0.275-0.3,0.562-0.589,0.863-0.861
					c0.274-0.3,0.56-0.589,0.862-0.861c0.275-0.303,0.563-0.592,0.864-0.865c0.275-0.303,0.562-0.59,0.863-0.862
					c0.273-0.302,0.561-0.589,0.861-0.861c0.275-0.303,0.562-0.59,0.864-0.865c0.273-0.299,0.561-0.588,0.862-0.861
					c0.275-0.301,0.564-0.59,0.865-0.864c0.274-0.301,0.561-0.588,0.863-0.862c0.273-0.302,0.56-0.589,0.861-0.861
					c0.274-0.302,0.562-0.589,0.863-0.863c0.275-0.301,0.562-0.59,0.864-0.864c0.274-0.3,0.561-0.589,0.861-0.86
					c0.274-0.303,0.562-0.59,0.862-0.863c0.273-0.301,0.562-0.589,0.864-0.864c0.274-0.301,0.562-0.588,0.864-0.862
					c2.362-2.596,5.765-4.227,9.552-4.227c6.99,0,12.681,5.55,12.912,12.483h0.001c0,0,2.664,1.277,1.337,3.824
					c-1.327,2.548-0.496,4.6,0.849,4.81c0,0-0.347,0.992-1.093,1.417c0,0,2.154,1.698,1.447,3.468
					c-0.708,1.768-1.911,3.255-0.212,4.104c1.698,0.848,2.265,3.963,1.485,5.448c-0.778,1.486,0.142,3.326,1.345,2.831
					c0,0-0.204,1.021-0.793,2.01c3.511,0.45,6.226,3.443,6.226,7.077v17.078h-60.31V597.463z"/>
				<g>
					<path fill="#B4131A" d="M233.517,601.092c-0.779-1.487-0.213-4.601,1.486-5.449c1.698-0.85,0.495-2.336-0.212-4.105
						c-0.708-1.77,1.446-3.468,1.446-3.468c-0.747-0.425-1.092-1.415-1.092-1.415c1.345-0.213,2.176-2.265,0.85-4.812
						c-1.329-2.547,1.335-3.823,1.335-3.823h0.002c0.232-6.933,5.922-12.483,12.911-12.483c6.99,0,12.681,5.55,12.914,12.483h0.001
						c0,0,2.663,1.276,1.336,3.823c-1.327,2.548-0.495,4.6,0.849,4.812c0,0-0.345,0.99-1.092,1.415c0,0,2.155,1.698,1.446,3.468
						c-0.708,1.769-1.911,3.256-0.212,4.105c1.698,0.849,2.265,3.962,1.486,5.449c-0.779,1.484,0.141,3.325,1.344,2.829
						c0,0-0.636,3.185-2.901,3.751h-3.166c-1.902,4.768-6.557,8.138-12.005,8.138c-5.446,0-10.102-3.37-12.003-8.138h-3.167
						c-2.265-0.566-2.9-3.751-2.9-3.751C233.375,604.417,234.295,602.576,233.517,601.092z"/>
					<path fill="#EDD0A8" d="M245.408,595.238h9.671c0,9.749,5.921,10.41,5.921,10.41c0,9.232-10.757,22.017-10.757,22.017
						s-10.755-12.785-10.755-22.017C239.488,605.648,245.408,604.987,245.408,595.238z"/>
					<path fill="#358292" d="M233.881,605.867c1.337,0,8.403-1.45,9.472-0.812c-0.26,7.232,6.89,17.973,6.89,20.58
						c0-2.608,6.062-8.793,6.891-20.58c1.069-0.638,8.136,0.812,9.472,0.812c3.944,0,7.142,3.197,7.142,7.141v5.115v12.331h-8.611
						h-14.894H235.35h-8.612v-12.331v-5.115C226.738,609.065,229.936,605.867,233.881,605.867z"/>
					<path fill="#0B282F" d="M259.524,605.06c0,0,3.755,5.715,2.312,13.138l-3.163,2.662l1.746,2.289c0,0-0.44,5.607-1.746,7.306
						h-2.368v-22.016L259.524,605.06z"/>
					<path fill="#0B282F" d="M241.162,605.06c0,0-3.756,5.715-2.312,13.138l3.163,2.662l-1.747,2.289c0,0,0.44,5.607,1.747,7.306
						h2.368v-22.016L241.162,605.06z"/>
					<polygon fill="#E5E5E5" points="256.306,607.014 250.343,623.889 244.38,607.014 244.38,630.454 256.306,630.454 					"/>
					<path fill="#F1F1F1" d="M257.8,602.301c0,0-1.561,2.772-2.423,7.342c0,0,1.39,2.485,1.332,4.382c0,0,2.759-6.668,2.816-8.965
						C259.524,605.06,258.317,602.53,257.8,602.301z"/>
					<path fill="#F1F1F1" d="M242.686,602.301c0,0,1.694,3.604,2.755,7.718c0,0-1.72,2.109-1.663,4.006c0,0-2.758-6.668-2.814-8.965
						C240.964,605.06,242.17,602.53,242.686,602.301z"/>
					<path fill="#EDD0A8" d="M258.852,589.106c-0.141,0.71,0.321,1.401,1.031,1.542l0,0c0.711,0.142,1.401-0.322,1.543-1.032
						l0.68-3.43c0.14-0.711-0.321-1.401-1.031-1.543l0,0c-0.711-0.141-1.402,0.321-1.543,1.032L258.852,589.106z"/>
					<path fill="#EDD0A8" d="M241.836,589.106c0.141,0.71-0.321,1.401-1.032,1.542l0,0c-0.712,0.142-1.401-0.322-1.542-1.032
						l-0.68-3.43c-0.142-0.711,0.321-1.401,1.03-1.543l0,0c0.712-0.141,1.402,0.321,1.543,1.032L241.836,589.106z"/>
					<path fill="#FCE5C5" d="M250.243,598.796c4.094,0,7.218-3.445,8.618-6.031c1.401-2.586,2.369-17.448-0.647-21.541
						c-2.954-4.009-7.971-3.556-7.971-3.556s-5.017-0.453-7.97,3.556c-3.015,4.093-2.046,18.955-0.646,21.541
						C243.026,595.351,246.151,598.796,250.243,598.796z"/>
					<path fill="#B4131A" d="M260.1,582.601c-6.955-0.995-10.926,2.053-13.077,0.19c-1.696-1.468-2.257-8.026-2.257-8.026
						s0.723,5.437-0.386,7.631c-0.664,1.316-2.543-0.814-4.082,0.396c0,0-2.941-8.368,1.724-12.964
						c4.664-4.597,12.279-4.46,16.873,0.479C263.491,575.245,260.1,582.601,260.1,582.601z"/>
				</g>
			</g>
		</g>
		<g>
			<defs>
				<circle id="SVGID_15_" cx="565.182" cy="437.487" r="19.467"/>
			</defs>
			<clipPath id="SVGID_16_">
				<use xlink:href="#SVGID_15_"  overflow="visible"/>
			</clipPath>
			<g clip-path="url(#SVGID_16_)">
				<rect x="545.962" y="418.021" fill="#FBC98A" width="38.933" height="38.934"/>
				<path opacity="0.1" d="M545.962,456.954h31.978v-9.008c0-2.091-1.695-3.784-3.786-3.784c-0.44,0-2.06-0.299-3.356-0.441
					c0.032-0.125,0.062-0.278,0.07-0.416c0.028-0.461,0.069-0.336,0.3-0.587c0.229-0.252,0.131-0.713,0.065-1.212
					c-0.003-0.026-0.005-0.053-0.007-0.079c0.025,0.042,0.055,0.088,0.085,0.135c0.026,0.118-0.003,0.232,0.015,0.488
					c0.028,0.42,0.028,0.336-0.127,1.101c-0.155,0.766,0.098,0.157,0.127-0.304c0.028-0.461,0.069-0.335,0.3-0.585
					c0.229-0.252,0.131-0.713,0.065-1.213c-0.005-0.027-0.006-0.054-0.008-0.079c0.025,0.041,0.055,0.087,0.085,0.134
					c0.027,0.118-0.003,0.234,0.015,0.49c0.028,0.418,0.028,0.336-0.127,1.099c-0.155,0.768,0.099,0.157,0.127-0.304
					c0.028-0.459,0.07-0.334,0.3-0.585c0.229-0.252,0.131-0.713,0.065-1.212c-0.004-0.026-0.005-0.053-0.007-0.08
					c0.048,0.078,0.108,0.176,0.166,0.257c0.026,0.069,0.05,0.137,0.072,0.193c0.066,0.168,0.165,0.168,0.066-0.712
					c-0.012-0.103-0.013-0.191-0.007-0.271c0.005-0.022,0.013-0.046,0.017-0.069c0.035,0,0.057,0.001,0.057,0.001
					s0.134,0.233,0.252,0.399c0.025,0.069,0.05,0.138,0.071,0.194c0.066,0.167,0.165,0.167,0.066-0.711
					c-0.012-0.104-0.013-0.192-0.007-0.271c0.006-0.023,0.013-0.048,0.018-0.069c0.035-0.002,0.057,0.001,0.057,0.001
					s0.557,0.964,0.394,0.377c-0.091-0.324-0.061-0.572,0.008-0.836c0.034-0.002,0.056,0.001,0.056,0.001s0.558,0.964,0.395,0.378
					c-0.165-0.587,0.065-0.921,0.196-1.55c0.132-0.628,0.196-0.712-0.328-1.549c-0.524-0.838-0.328-0.544-0.197-1.088
					c0.132-0.545-0.525-1.048-0.688-1.299c-0.164-0.252-0.164-1.256-0.231-1.967c-0.064-0.712,0.066-0.503-0.229-0.796
					c-0.296-0.293-0.524-0.084-0.561-1.006c-0.025-0.63-0.298-1.498-0.467-1.98c-0.092-0.971-0.431-1.991-1.247-2.869
					c-1.231-1.323-2.871-1.994-4.51-2.023c-0.048-0.001-0.076-0.001-0.076-0.001s-0.028,0-0.073,0.001
					c-1.555,0.01-3.099,0.6-4.285,1.768c-0.074,0.075-0.143,0.151-0.211,0.229c-0.084,0.073-0.166,0.149-0.246,0.229
					c-0.075,0.074-0.144,0.151-0.211,0.229c-0.084,0.072-0.166,0.148-0.246,0.228c-0.075,0.074-0.143,0.15-0.211,0.229
					c-0.083,0.073-0.165,0.148-0.246,0.229c-0.075,0.074-0.143,0.15-0.211,0.229c-0.084,0.072-0.166,0.148-0.246,0.228
					c-0.075,0.075-0.144,0.151-0.212,0.229c-0.083,0.073-0.165,0.149-0.246,0.228c-0.074,0.075-0.143,0.151-0.21,0.229
					c-0.085,0.073-0.166,0.148-0.247,0.229c-0.075,0.074-0.143,0.15-0.21,0.228c-0.084,0.075-0.166,0.149-0.247,0.23
					c-0.075,0.072-0.143,0.15-0.211,0.227c-0.084,0.073-0.166,0.149-0.246,0.229c-0.075,0.074-0.144,0.152-0.212,0.229
					c-0.083,0.073-0.165,0.149-0.245,0.229c-0.075,0.072-0.143,0.15-0.212,0.228c-0.083,0.075-0.165,0.15-0.246,0.228
					c-0.074,0.074-0.143,0.152-0.211,0.229c-0.084,0.073-0.166,0.149-0.246,0.229c-0.075,0.074-0.143,0.15-0.21,0.228
					c-0.084,0.075-0.166,0.149-0.247,0.23c-0.075,0.072-0.143,0.15-0.211,0.227c-0.083,0.073-0.166,0.149-0.246,0.229
					c-0.075,0.074-0.143,0.15-0.212,0.229c-0.083,0.073-0.165,0.149-0.245,0.229c-0.075,0.072-0.143,0.15-0.212,0.228
					c-0.084,0.075-0.165,0.15-0.246,0.228c-0.074,0.074-0.143,0.152-0.21,0.229c-0.085,0.073-0.167,0.149-0.248,0.229
					c-0.074,0.074-0.143,0.15-0.211,0.229c-0.083,0.073-0.165,0.149-0.245,0.228c-0.075,0.072-0.143,0.15-0.211,0.228
					c-0.084,0.073-0.166,0.149-0.246,0.229c-0.075,0.074-0.143,0.15-0.211,0.228c-0.084,0.075-0.166,0.151-0.247,0.23
					c-0.075,0.072-0.144,0.15-0.211,0.227c-0.084,0.075-0.165,0.149-0.246,0.229c-0.074,0.074-0.143,0.152-0.211,0.229
					c-0.083,0.073-0.166,0.149-0.246,0.229c-0.075,0.074-0.143,0.15-0.21,0.228c-0.084,0.075-0.167,0.151-0.247,0.23
					c-0.075,0.072-0.143,0.15-0.211,0.228c-0.084,0.073-0.166,0.149-0.247,0.229c-0.074,0.074-0.144,0.152-0.211,0.229
					c-0.083,0.073-0.165,0.149-0.246,0.229c-0.075,0.073-0.144,0.152-0.211,0.228c-0.084,0.074-0.165,0.148-0.246,0.228
					c-0.074,0.074-0.143,0.15-0.21,0.229c-0.084,0.074-0.167,0.15-0.247,0.229c-0.075,0.074-0.143,0.152-0.212,0.229
					c-0.083,0.073-0.165,0.149-0.245,0.229c-0.075,0.073-0.144,0.15-0.211,0.227c-0.084,0.075-0.166,0.149-0.247,0.23
					c-0.074,0.072-0.144,0.15-0.211,0.228c-0.084,0.073-0.165,0.149-0.245,0.229c-0.075,0.073-0.143,0.15-0.211,0.229
					c-0.084,0.072-0.166,0.148-0.247,0.228c-0.075,0.074-0.144,0.152-0.211,0.229c-0.084,0.073-0.166,0.149-0.246,0.229
					c-0.075,0.074-0.144,0.15-0.211,0.229c-0.083,0.073-0.165,0.149-0.246,0.229c-0.074,0.073-0.143,0.15-0.211,0.227
					c-0.084,0.074-0.166,0.15-0.247,0.229c-0.026,0.026-0.049,0.055-0.074,0.082V456.954z M570.417,443.683
					c0.029-0.367,0.078-0.271,0.295-0.507c0.218-0.239,0.14-0.669,0.075-1.14c0.023,0.042,0.049,0.09,0.079,0.146
					c-0.002,0.08-0.008,0.18,0.003,0.325c0.028,0.419,0.028,0.336-0.127,1.101c-0.009,0.039-0.015,0.073-0.021,0.104
					C570.617,443.701,570.516,443.692,570.417,443.683z M570.24,443.646c0.005-0.005,0.01-0.008,0.014-0.014
					c0.218-0.237,0.141-0.667,0.076-1.14c0.022,0.044,0.05,0.092,0.079,0.147c-0.003,0.081-0.007,0.181,0.003,0.326
					c0.022,0.327,0.026,0.35-0.048,0.713c-0.026-0.002-0.055-0.005-0.08-0.007C570.269,443.663,570.255,443.655,570.24,443.646z"/>
				<g>
					<path fill="#333333" d="M557.221,436.039c0.525-0.838,0.329-0.545,0.197-1.09c-0.131-0.545,0.525-1.046,0.688-1.297
						c0.165-0.252,0.165-1.256,0.231-1.969c0.065-0.712-0.065-0.502,0.229-0.794c0.295-0.294,0.525-0.086,0.562-1.006
						c0.037-0.921,0.599-2.345,0.599-2.345c1.556-4.564,5.701-4.529,5.701-4.529s4.145-0.034,5.7,4.529c0,0,0.562,1.424,0.6,2.345
						c0.037,0.92,0.267,0.712,0.562,1.006c0.295,0.292,0.163,0.082,0.229,0.794c0.065,0.713,0.065,1.717,0.229,1.969
						c0.163,0.251,0.819,0.752,0.688,1.297c-0.131,0.545-0.327,0.252,0.197,1.09c0.524,0.837,0.459,0.921,0.328,1.549
						c-0.132,0.627-0.361,0.963-0.197,1.549c0.164,0.587-0.395-0.377-0.395-0.377s-0.622-0.084-0.524,0.797
						c0.099,0.878,0,0.878-0.065,0.71c-0.065-0.167-0.131-0.419-0.295-0.586c-0.164-0.168-0.46,0.172-0.393,0.673
						c0.065,0.5,0.164,0.961-0.067,1.213c-0.229,0.25-0.271,0.124-0.299,0.585c-0.029,0.461-0.282,1.069-0.127,0.304
						c0.155-0.765,0.155-0.681,0.127-1.101c-0.029-0.417,0.069-0.459-0.159-0.752c-0.23-0.294-0.974-0.042-0.717,0.543
						c0.257,0.587,0.427,0.712,0.276,1.048c-0.15,0.335-0.106,0.167-0.276-0.168c-0.17-0.335-0.235-0.419-0.367-0.587
						c-0.131-0.166-0.131-0.92-0.262-0.125c-0.132,0.796-0.362,1.17-0.247,1.505c0.115,0.339-0.027,0.421-0.234,0.672
						c-0.208,0.252-0.24,0.126-0.405-0.209c-0.163-0.336,0.297-0.879,0.067-1.172c-0.231-0.293-0.812-0.392-0.854,0.346
						c-0.043,0.739-0.328,0.91-0.919,0.91c-0.591,0-1.05,0-1.247-0.208c-0.008-0.01-0.016-0.053-0.026-0.123
						c-0.599,0.179-2.611,0.331-3.134,0.331c-0.59,0-0.876-0.171-0.918-0.91c-0.044-0.737-0.624-0.639-0.854-0.346
						c-0.23,0.293,0.229,0.836,0.066,1.172c-0.163,0.335-0.197,0.461-0.403,0.209c-0.208-0.251-0.351-0.333-0.235-0.672
						c0.115-0.335-0.115-0.709-0.246-1.505c-0.132-0.795-0.132-0.041-0.263,0.125c-0.132,0.168-0.197,0.252-0.367,0.587
						c-0.17,0.335-0.126,0.503-0.276,0.168c-0.15-0.336,0.02-0.461,0.276-1.048c0.257-0.585-0.486-0.837-0.715-0.543
						c-0.23,0.293-0.132,0.335-0.16,0.752c-0.029,0.42-0.07,0.462-0.301,0.212c-0.228-0.252-0.13-0.713-0.064-1.213
						c0.065-0.501-0.23-0.841-0.394-0.673c-0.165,0.167-0.23,0.419-0.295,0.586c-0.066,0.168-0.165,0.168-0.066-0.71
						c0.099-0.881-0.524-0.797-0.524-0.797s-0.558,0.964-0.395,0.377c0.165-0.586-0.064-0.922-0.197-1.549
						C556.762,436.96,556.696,436.876,557.221,436.039z"/>
					<g>
						<rect x="552.972" y="450.419" fill="#5E3E1B" width="24.913" height="6.535"/>
						<path fill="#00A895" d="M556.757,443.924c0.708,0,4.453-0.768,5.02-0.43c1.105,0.661,3.652,2.832,3.652,4.215
							c0-1.383,2.546-3.554,3.651-4.215c0.567-0.339,4.312,0.43,5.02,0.43c2.092,0,3.785,1.694,3.785,3.785v1.977v0.732h-4.563
							v3.633v2.902h-7.893h-7.894v-2.902v-3.633h-4.563v-0.732v-1.977C552.972,445.618,554.666,443.924,556.757,443.924z"/>
					</g>
					<path fill="#5E3E1B" d="M562.865,438.246h5.126c0,5.167,3.138,5.518,3.138,5.518c0,4.892-5.7,11.668-5.7,11.668
						s-5.701-6.776-5.701-11.668C559.727,443.764,562.865,443.413,562.865,438.246z"/>
					<path fill="#EDD0A8" d="M569.99,434.996c-0.074,0.377,0.17,0.742,0.548,0.818l0,0c0.376,0.074,0.741-0.171,0.815-0.547
						l0.361-1.819c0.074-0.377-0.171-0.743-0.546-0.817l0,0c-0.378-0.074-0.744,0.171-0.817,0.548L569.99,434.996z"/>
					<path fill="#EDD0A8" d="M560.973,434.996c0.074,0.377-0.17,0.742-0.547,0.818l0,0c-0.377,0.074-0.743-0.171-0.816-0.547
						l-0.362-1.819c-0.074-0.377,0.171-0.743,0.548-0.817l0,0c0.377-0.074,0.742,0.171,0.817,0.548L560.973,434.996z"/>
					<path fill="#6B491F" d="M565.429,440.132c2.169,0,3.824-1.826,4.566-3.195c0.742-1.371,1.256-9.248-0.343-11.417
						c-1.565-2.124-4.224-1.884-4.224-1.884s-2.659-0.24-4.225,1.884c-1.599,2.169-1.085,10.046-0.343,11.417
						C561.604,438.306,563.26,440.132,565.429,440.132z"/>
					<path fill="#333333" d="M570.652,431.549c-3.687-0.527-4.031-1.215-5.17-2.202c-0.9-0.777-2.957-1.95-2.957-1.95
						s-0.408,1.347-0.995,2.509c-0.353,0.697-0.557,1.103-1.373,1.744c0,0-1.558-4.435,0.913-6.87
						c2.473-2.436,6.507-2.363,8.943,0.254C572.449,427.65,570.652,431.549,570.652,431.549z"/>
				</g>
			</g>
		</g>
		<g>
			<defs>
				<circle id="SVGID_17_" cx="296.587" cy="265.005" r="34.212"/>
			</defs>
			<clipPath id="SVGID_18_">
				<use xlink:href="#SVGID_17_"  overflow="visible"/>
			</clipPath>
			<g clip-path="url(#SVGID_18_)">
				<rect x="262.374" y="230.793" fill="#D0D3D5" width="68.424" height="68.425"/>
				<path opacity="0.1" d="M262.374,269.69c0.027-0.025,0.053-0.052,0.082-0.076c0.246-0.284,0.513-0.555,0.806-0.806
					c0.244-0.282,0.51-0.55,0.799-0.8c0.247-0.285,0.514-0.555,0.806-0.808c0.247-0.283,0.513-0.552,0.804-0.802
					c0.246-0.284,0.512-0.553,0.803-0.804c0.246-0.284,0.512-0.553,0.804-0.804c0.245-0.284,0.512-0.553,0.802-0.803
					c0.247-0.284,0.514-0.553,0.805-0.805c0.246-0.283,0.512-0.553,0.803-0.804c0.246-0.283,0.512-0.552,0.804-0.803
					c0.245-0.284,0.512-0.554,0.803-0.804c0.247-0.285,0.513-0.554,0.804-0.804c0.245-0.284,0.512-0.554,0.803-0.804
					c0.247-0.283,0.512-0.553,0.804-0.804c0.245-0.283,0.512-0.553,0.802-0.803c0.247-0.284,0.514-0.554,0.805-0.806
					c0.246-0.282,0.512-0.551,0.801-0.802c0.248-0.284,0.515-0.554,0.807-0.806c0.246-0.284,0.512-0.553,0.803-0.803
					c0.246-0.283,0.512-0.552,0.802-0.802c0.246-0.284,0.513-0.555,0.806-0.806c0.245-0.283,0.511-0.552,0.802-0.803
					c0.245-0.283,0.513-0.553,0.805-0.805c0.245-0.283,0.512-0.553,0.803-0.804c0.245-0.283,0.511-0.551,0.802-0.802
					c0.246-0.284,0.512-0.554,0.805-0.805c0.246-0.283,0.512-0.552,0.803-0.803c0.245-0.283,0.512-0.553,0.803-0.805
					c0.246-0.283,0.513-0.552,0.805-0.804c0.246-0.283,0.512-0.552,0.803-0.804c0.245-0.283,0.512-0.552,0.803-0.802
					c0.245-0.284,0.512-0.553,0.802-0.803c0.246-0.285,0.514-0.555,0.806-0.806c1.505-1.737,3.829-2.915,7.365-2.915
					c12.268,0,9.7,14.512,9.148,17.084c0.235-0.211,0.56-0.315,0.894-0.249c0.56,0.111,0.923,0.656,0.812,1.215l-0.583,2.938
					c-0.085,0.422-0.412,0.731-0.807,0.812c-0.087,0.416-0.412,0.723-0.803,0.803c-0.06,0.286-0.232,0.518-0.461,0.664
					c-0.087,0.273-0.175,0.499-0.266,0.668c-0.568,1.048-1.446,2.241-2.564,3.263c-0.251,0.275-0.518,0.542-0.801,0.801
					c-0.025,0.027-0.048,0.056-0.074,0.082c0.248,2.627,1.014,4.384,1.9,5.552c0.368-0.495,0.549-0.814,0.549-0.814
					c0.423,0.189,1.34,2.027,1.558,2.472c2.353,0.2,5.781,0.849,6.644,0.849c3.674,0,6.653,2.978,6.653,6.652v16.249h-55.766V269.69
					z"/>
				<g>
					<g>
						<g>
							<path fill="#755B42" d="M305.735,262.774c-0.123,0.614,0.277,1.212,0.892,1.334l0,0c0.615,0.122,1.212-0.276,1.336-0.893
								l0.641-3.224c0.123-0.615-0.278-1.212-0.892-1.335l0,0c-0.615-0.122-1.212,0.277-1.336,0.893L305.735,262.774z"/>
							<path fill="#755B42" d="M287.438,262.774c0.123,0.614-0.276,1.212-0.893,1.334l0,0c-0.614,0.122-1.212-0.276-1.335-0.893
								l-0.641-3.224c-0.122-0.615,0.278-1.212,0.892-1.335l0,0c0.616-0.122,1.213,0.277,1.335,0.893L287.438,262.774z"/>
						</g>
						<g>
							<path fill="#493627" d="M292.083,266.417h9.008c0,9.08,5.514,9.695,5.514,9.695c0,8.6-10.018,9.941-10.018,9.941
								s-10.019-1.342-10.019-9.941C286.568,276.112,292.083,275.497,292.083,266.417z"/>
							<path fill="#1A3357" d="M281.347,276.316c1.244,0,7.825-1.35,8.822-0.756c1.944,1.161,6.418,4.98,6.418,7.408
								c0-2.429,4.475-6.247,6.418-7.408c0.997-0.594,7.577,0.756,8.823,0.756c3.673,0,6.652,2.978,6.652,6.652v4.765v11.484h-8.02
								h-13.872h-13.873h-8.02v-11.484v-4.765C274.694,279.294,277.671,276.316,281.347,276.316z"/>
							<path fill="#368195" d="M305.231,275.565c0,0,3.497,5.323,2.153,12.238l-2.944,2.479l1.625,2.13c0,0-0.409,5.223-1.625,6.805
								h-2.207v-20.505L305.231,275.565z"/>
							<path fill="#368195" d="M288.128,275.565c0,0-3.499,5.323-2.154,12.238l2.946,2.479l-1.626,2.13c0,0,0.41,5.223,1.626,6.805
								h2.205v-20.505L288.128,275.565z"/>
							<path fill="#755B42" d="M296.587,272.618c4.184,0,7.378-3.523,8.81-6.167c1.431-2.642,2.421-17.839-0.662-22.023
								c-3.019-4.099-8.148-3.634-8.148-3.634s-5.129-0.465-8.149,3.634c-3.083,4.185-2.093,19.382-0.662,22.023
								C289.208,269.095,292.402,272.618,296.587,272.618z"/>
							<rect x="291.125" y="277.385" fill="#E5E5E5" width="11.108" height="21.833"/>
							<path fill="#F1F1F1" d="M303.624,272.996c0,0-1.392,2.462-4.388,4.389c0,0,3.425,4.764,3.372,6.53
								c0,0,2.568-6.209,2.623-8.35C305.231,275.565,304.106,273.21,303.624,272.996z"/>
							<path fill="#F1F1F1" d="M289.548,272.996c0,0,1.391,2.462,4.388,4.389c0,0-3.424,4.764-3.372,6.53
								c0,0-2.568-6.209-2.621-8.35C287.943,275.565,289.066,273.21,289.548,272.996z"/>
							<polygon fill="#1A3357" points="299.236,277.385 293.936,277.385 293.936,280.168 295.253,281.881 297.822,281.881 
								299.236,280.008 							"/>
							<polygon fill="#1A3357" points="297.822,281.881 299.236,299.218 293.936,299.218 295.253,281.881 							"/>
						</g>
					</g>
					<path fill="#333333" d="M306.633,259.359l-1.466-6.96c0,0-2.444-0.377-3.102-4.325c0,0-0.848,2.915-3.291,3.573
						c-2.444,0.657-9.683,0.094-9.683,0.094s-0.314,1.975-1.496,2.914l-1.184,4.252c0,0-4.5-18.729,10.277-18.729
						C311.464,240.179,306.633,259.359,306.633,259.359z"/>
				</g>
			</g>
		</g>
		<g>
			<defs>
				<circle id="SVGID_19_" cx="413.282" cy="189.798" r="23.982"/>
			</defs>
			<clipPath id="SVGID_20_">
				<use xlink:href="#SVGID_19_"  overflow="visible"/>
			</clipPath>
			<g clip-path="url(#SVGID_20_)">
				<rect x="389.402" y="165.816" fill="#97DAD3" width="47.963" height="47.963"/>
				<path opacity="0.1" d="M389.402,193.653c0.101-0.104,0.205-0.201,0.311-0.292c0.18-0.207,0.368-0.395,0.562-0.562
					c0.181-0.208,0.369-0.396,0.564-0.564c0.181-0.207,0.369-0.395,0.564-0.564c0.181-0.206,0.369-0.395,0.562-0.562
					c0.18-0.207,0.369-0.395,0.563-0.563c0.18-0.207,0.369-0.395,0.562-0.562c0.181-0.209,0.37-0.396,0.565-0.565
					c0.18-0.208,0.369-0.395,0.562-0.562c0.181-0.208,0.37-0.395,0.563-0.563c0.18-0.207,0.369-0.396,0.563-0.564
					c0.18-0.207,0.369-0.395,0.562-0.564c0.18-0.207,0.37-0.395,0.564-0.562c0.18-0.208,0.368-0.395,0.562-0.563
					c0.18-0.208,0.369-0.395,0.564-0.563c0.18-0.208,0.369-0.396,0.564-0.564c0.18-0.207,0.368-0.395,0.562-0.562
					c0.181-0.207,0.369-0.396,0.565-0.564c0.18-0.207,0.368-0.395,0.561-0.562c0.181-0.207,0.37-0.396,0.564-0.564
					c0.18-0.207,0.369-0.395,0.563-0.563c0.181-0.207,0.369-0.395,0.563-0.564c0.181-0.208,0.37-0.395,0.563-0.563
					c0.181-0.207,0.369-0.394,0.564-0.563c0.181-0.207,0.369-0.394,0.564-0.562c0.18-0.208,0.369-0.395,0.563-0.564
					c0.18-0.207,0.368-0.395,0.564-0.563c0.18-0.208,0.368-0.396,0.564-0.564c0.18-0.207,0.367-0.395,0.562-0.562
					c0.181-0.208,0.368-0.395,0.563-0.563c0.18-0.207,0.368-0.395,0.564-0.562c0.18-0.208,0.369-0.396,0.563-0.563
					c0.18-0.208,0.368-0.396,0.562-0.562c0.181-0.209,0.369-0.398,0.564-0.564c2.022-2.327,5.111-2.049,5.111-2.049
					s3.399-0.309,5.401,2.409c1.293,1.754,1.505,6.432,1.246,10.074c0.209-0.083,0.443-0.104,0.677-0.036
					c0.552,0.161,0.869,0.741,0.707,1.294l-0.571,1.955c-0.094,0.316-0.323,0.551-0.605,0.667c-0.108,0.263-0.877,1.022-1.127,1.126
					c-0.107,0.26-0.308,0.454-0.553,0.56c-0.007,0.008-0.012,0.018-0.02,0.027c-0.073,0.165-0.184,0.304-0.32,0.407
					c-0.252,0.304-0.533,0.601-0.838,0.88c-0.172,0.188-0.355,0.371-0.547,0.548c0.211,3.133,2.541,3.78,3.227,3.904
					c1.676,0.177,3.834,0.576,4.412,0.576c2.674,0,4.84,2.167,4.84,4.84v11.823h-39.938V193.653z"/>
				<g>
					<rect x="397.454" y="205.424" fill="#9C743E" width="31.858" height="8.356"/>
					<path fill="#358292" d="M402.294,197.116c0.905,0,5.694-0.982,6.419-0.55c1.415,0.846,4.67,3.623,4.67,5.39
						c0-1.767,3.257-4.544,4.671-5.39c0.725-0.433,5.513,0.55,6.419,0.55c2.672,0,4.84,2.167,4.84,4.84v2.528v0.939h-5.836v4.645
						v3.711h-10.094h-10.094v-3.711v-4.645h-5.835v-0.939v-2.528C397.454,199.283,399.621,197.116,402.294,197.116z"/>
					<path fill="#9C743E" d="M409.95,192.173c0-4.119,3.433-4.463,3.433-4.463s3.435,0.344,3.435,4.463
						c0,4.119,3.433,4.394,3.433,4.394c-1.305,5.904-6.867,5.425-6.867,5.425s-5.562,0.48-6.866-5.425
						C406.517,196.566,409.95,196.292,409.95,192.173z"/>
					<path fill="#AB8551" d="M406.06,185.172c0.232-0.068,0.468-0.047,0.677,0.036c-0.259-3.643-0.048-8.32,1.245-10.074
						c2.001-2.718,5.401-2.409,5.401-2.409s3.4-0.309,5.402,2.409c1.293,1.754,1.505,6.432,1.245,10.074
						c0.208-0.083,0.444-0.104,0.676-0.036c0.553,0.161,0.87,0.741,0.709,1.294l-0.573,1.955c-0.161,0.554-0.74,0.87-1.293,0.708
						c-0.031-0.008-0.059-0.023-0.087-0.035c-0.076,0.268-0.156,1.008-0.238,1.16c-0.949,1.752-1.048,4.087-5.841,4.087
						c-4.792,0-4.89-2.335-5.839-4.087c-0.083-0.152-0.163-0.893-0.239-1.16c-0.029,0.012-0.057,0.027-0.087,0.035
						c-0.553,0.162-1.132-0.154-1.295-0.708l-0.571-1.955C405.189,185.913,405.507,185.333,406.06,185.172z"/>
				</g>
			</g>
		</g>
		<g>
			<defs>
				<path id="SVGID_21_" d="M354.069,547.282c0,13.331,10.807,24.138,24.136,24.138c13.331,0,24.136-10.807,24.136-24.138
					c0-13.328-10.806-24.136-24.136-24.136C364.876,523.146,354.069,533.954,354.069,547.282z"/>
			</defs>
			<clipPath id="SVGID_22_">
				<use xlink:href="#SVGID_21_"  overflow="visible"/>
			</clipPath>
			<g clip-path="url(#SVGID_22_)">
				<rect x="354.272" y="523.146" fill="#FAAF3B" width="48.273" height="48.273"/>
				<path opacity="0.1" d="M354.272,550.543c0.183-0.206,0.37-0.391,0.558-0.556c0.184-0.211,0.373-0.398,0.565-0.564
					c0.186-0.213,0.376-0.4,0.569-0.569c0.185-0.212,0.374-0.397,0.566-0.566c0.185-0.212,0.374-0.398,0.566-0.567
					c0.185-0.211,0.375-0.398,0.567-0.566c0.185-0.211,0.375-0.398,0.566-0.567c0.186-0.21,0.375-0.397,0.567-0.566
					c0.185-0.212,0.375-0.399,0.567-0.567c0.185-0.211,0.374-0.398,0.565-0.566c0.186-0.211,0.375-0.398,0.568-0.567
					c0.185-0.211,0.374-0.398,0.566-0.566c0.185-0.211,0.375-0.4,0.567-0.567c0.185-0.212,0.375-0.399,0.567-0.567
					c0.186-0.211,0.375-0.398,0.567-0.567c0.185-0.211,0.374-0.399,0.567-0.566c0.184-0.211,0.373-0.397,0.566-0.566
					c0.185-0.212,0.375-0.4,0.568-0.568c0.184-0.211,0.374-0.398,0.566-0.566c0.185-0.211,0.376-0.399,0.567-0.568
					c0.185-0.209,0.374-0.397,0.566-0.564c0.184-0.211,0.375-0.399,0.567-0.568c0.185-0.211,0.374-0.397,0.566-0.566
					c0.186-0.211,0.375-0.399,0.568-0.568c0.185-0.211,0.373-0.398,0.565-0.565c0.185-0.211,0.375-0.399,0.569-0.568
					c0.184-0.211,0.373-0.398,0.565-0.567c0.185-0.211,0.376-0.398,0.569-0.568c0.185-0.211,0.374-0.397,0.567-0.566
					c0.185-0.211,0.374-0.398,0.567-0.566c0.185-0.211,0.374-0.398,0.566-0.566c0.186-0.211,0.375-0.399,0.567-0.566
					c0.185-0.213,0.374-0.4,0.567-0.568c2.354-2.689,5.486-1.736,5.486-1.736s3.85-1.172,6.221,2.745
					c0.075,0.124,0.145,0.25,0.211,0.381c0.898,1.73,0.988,3.73,0.997,5.721c0.01,0.849,0,1.678,0.013,2.444
					c0.273,0.189,0.422,0.527,0.355,0.875l-0.217,1.092c0.136,0.859,0.4,1.521,0.919,1.856c0,0-1.242,1.225-1.111,1.31
					c0,0,0.602,0.656,1.676,0.715c0,0-2.037,2.301-2.043,2.395c0.082,0.016,0.886,0.402,2.043,0.483c0,0-3.328,4.407-3.11,4.528
					c1.662,0.129,4.177,0.608,4.8,0.608c2.592,0,4.693,2.102,4.693,4.693v11.464h-39.63V550.543z"/>
				<g>
					<g>
						<path fill="#5A0F07" d="M371.87,541.354h0.639c0,0,0.283-6.092,1.888-7.037c0,0-2.403-3.114,4.013-3.114v-1.093
							c0,0-3.849-1.172-6.219,2.745c-2.371,3.916-0.106,10.959-2.278,12.368c0,0,0.315,0.177,0.897,0c0,0,0.284,1.931-1.462,2.025
							c0,0,0.474,0.329,1.251,0.283c0,0,0.777,2.453-1.251,2.595c0,0,2.265,0.235,1.462,1.936c0,0,1.039-0.189,1.653-0.755
							c0,0,0.943,0.661,0.566,1.651c0,0,1.558,1.369,2.974-1.841C377.417,547.908,371.87,541.354,371.87,541.354z"/>
						<path fill="#5A0F07" d="M384.949,541.354h-0.64c0,0-0.282-6.092-1.886-7.037c0,0,2.402-3.114-4.014-3.114v-1.093
							c0,0,3.85-1.172,6.22,2.745c2.371,3.916,0.105,10.959,2.276,12.368c0,0-0.315,0.177-0.896,0c0,0-0.283,1.931,1.463,2.025
							c0,0-0.474,0.329-1.251,0.283c0,0-0.778,2.453,1.251,2.595c0,0-2.265,0.235-1.463,1.936c0,0-1.038-0.189-1.652-0.755
							c0,0-0.943,0.661-0.565,1.651c0,0-1.558,1.369-2.973-1.841C379.402,547.908,384.949,541.354,384.949,541.354z"/>
						<g>
							<rect x="362.965" y="563.316" fill="#EDD0A8" width="30.889" height="8.104"/>
							<path fill="#F1F1F1" d="M367.657,555.263c0.878,0,5.521-0.952,6.225-0.532c1.371,0.818,4.527,3.513,4.527,5.226
								c0-1.713,3.157-4.407,4.529-5.226c0.702-0.42,5.345,0.532,6.224,0.532c2.591,0,4.692,2.102,4.692,4.693v2.451v0.909h-5.658
								v4.506v3.598h-9.787h-9.787v-3.598v-4.506h-5.658v-0.909v-2.451C362.965,557.364,365.065,555.263,367.657,555.263z"/>
						</g>
						<path fill="#EDD0A8" d="M375.232,548.225h6.355c0,6.405,3.891,6.84,3.891,6.84c0,6.066-7.068,5.084-7.068,5.084
							s-7.067,0.983-7.067-5.084C371.342,555.065,375.232,554.63,375.232,548.225z"/>
						<path fill="#EDD0A8" d="M384.066,544.194c-0.092,0.467,0.211,0.92,0.678,1.013l0,0c0.468,0.094,0.921-0.211,1.013-0.678
							l0.448-2.254c0.092-0.467-0.211-0.92-0.678-1.014l0,0c-0.468-0.093-0.921,0.212-1.014,0.679L384.066,544.194z"/>
						<path fill="#EDD0A8" d="M372.884,544.194c0.093,0.467-0.211,0.92-0.678,1.013l0,0c-0.467,0.094-0.92-0.211-1.013-0.678
							l-0.447-2.254c-0.093-0.467,0.21-0.92,0.677-1.014l0,0c0.468-0.093,0.922,0.212,1.014,0.679L372.884,544.194z"/>
						<path fill="#FCE5C5" d="M378.409,550.563c2.689,0,4.742-2.266,5.662-3.966c0.92-1.697,1.557-11.465-0.425-14.154
							c-1.941-2.634-5.237-2.334-5.237-2.334s-3.297-0.3-5.237,2.334c-1.982,2.689-1.345,12.457-0.425,14.154
							C373.667,548.298,375.719,550.563,378.409,550.563z"/>
						<path fill="#5A0F07" d="M372.19,532.854c2.37-3.917,6.219-2.745,6.219-2.745s3.85-1.172,6.22,2.745
							c1.408,2.325,1.176,5.199,1.214,7.896l-0.935,0.551h-0.601c-0.03-0.572-0.365-6.089-1.885-6.984h-8.027
							c-1.521,0.896-1.854,6.412-1.886,6.984h-0.6l-0.936-0.551C371.013,538.054,370.783,535.18,372.19,532.854z"/>
					</g>
					<path fill="#5A0F07" d="M372.344,536.301c0,0,1.224,1.929,4.254,2.846c0,0-1.775-1.315-1.928-3.335c0,0,2.603,3.714,6.062,4.52
						c0,0-2.225-2.96-2.597-5.347c0,0,3.576,3.704,6.421,4.744c0,0,0.075-6.518-1.615-7.928
						C382.941,531.801,373.864,529.188,372.344,536.301z"/>
				</g>
			</g>
		</g>
		<g>
			<defs>
				<circle id="SVGID_23_" cx="283.018" cy="476.041" r="27.158"/>
			</defs>
			<clipPath id="SVGID_24_">
				<use xlink:href="#SVGID_23_"  overflow="visible"/>
			</clipPath>
			<g clip-path="url(#SVGID_24_)">
				<rect x="256.277" y="448.884" fill="#97DAD3" width="54.316" height="54.316"/>
				<path opacity="0.1" d="M256.277,479.305c0.131-0.136,0.265-0.267,0.401-0.385c0.205-0.235,0.419-0.448,0.638-0.638
					c0.205-0.235,0.419-0.448,0.638-0.638c0.206-0.236,0.419-0.448,0.638-0.638c0.206-0.236,0.419-0.449,0.638-0.638
					c0.205-0.236,0.419-0.449,0.638-0.639c0.205-0.235,0.419-0.448,0.638-0.638c0.206-0.235,0.419-0.448,0.638-0.64
					c0.206-0.234,0.419-0.446,0.638-0.636c0.206-0.236,0.419-0.448,0.638-0.64c0.206-0.234,0.419-0.447,0.638-0.637
					c0.206-0.235,0.419-0.448,0.638-0.638c0.206-0.235,0.419-0.448,0.638-0.64c0.206-0.234,0.419-0.446,0.638-0.636
					c0.206-0.236,0.419-0.448,0.639-0.64c0.205-0.234,0.418-0.447,0.637-0.637c0.205-0.235,0.419-0.448,0.638-0.638
					c0.205-0.235,0.419-0.448,0.639-0.64c0.205-0.234,0.418-0.446,0.637-0.636c0.206-0.236,0.419-0.448,0.638-0.64
					c0.206-0.234,0.42-0.447,0.638-0.637c0.206-0.235,0.419-0.448,0.639-0.639c0.205-0.234,0.418-0.447,0.638-0.637
					c0.205-0.235,0.418-0.448,0.638-0.64c0.205-0.234,0.418-0.446,0.637-0.638c0.206-0.234,0.419-0.447,0.639-0.638
					c0.205-0.234,0.418-0.447,0.637-0.638c0.206-0.234,0.419-0.447,0.638-0.637c0.206-0.235,0.419-0.448,0.638-0.638
					c0.206-0.236,0.419-0.448,0.639-0.64c0.206-0.235,0.418-0.447,0.637-0.638c0.206-0.234,0.419-0.447,0.639-0.638
					c0.206-0.234,0.418-0.447,0.637-0.638c0.206-0.234,0.419-0.447,0.639-0.639c1.481-1.696,3.409-2.165,4.543-2.165
					c2.409,0,5.119-2.843,5.119-2.843c0.121,0.341,0.1,0.775,0.016,1.218c0.05,0.182,0.092,0.36,0.124,0.54
					c0.29-0.765,0.458-1.386,0.458-1.386c0.078,0.252,0.134,0.502,0.18,0.748c0.29-0.765,0.458-1.386,0.458-1.386
					c0.078,0.251,0.135,0.5,0.18,0.748c0.29-0.765,0.458-1.386,0.458-1.386c0.769,2.476-0.167,4.884-0.167,4.884
					c0.012-0.004,0.025-0.012,0.038-0.018c0.163-0.256,0.258-0.445,0.258-0.445c0.015,0.097,0.027,0.188,0.04,0.278
					c0.006-0.005,0.013-0.01,0.02-0.015c0.353-0.451,0.579-0.901,0.579-0.901c0.016,0.1,0.029,0.192,0.041,0.285
					c0.363-0.458,0.597-0.923,0.597-0.923c0.368,2.174-0.377,3.077-0.377,3.077c1.766,4.45,0.532,11.14,0.532,11.14s0,0,0-0.002
					c-0.001,0.026-0.002,0.055-0.004,0.081c0.202-0.126,0.448-0.181,0.7-0.131c0.525,0.104,0.867,0.614,0.762,1.141l-0.503,2.536
					c-0.071,0.361-0.337,0.633-0.668,0.734c-0.096,0.314-0.339,0.546-0.638,0.638c-0.071,0.233-0.221,0.421-0.417,0.54
					c-0.057,0.166-0.114,0.308-0.173,0.416c-0.451,0.832-1.147,1.78-2.035,2.59c-0.199,0.22-0.413,0.432-0.638,0.637
					c-0.018,0.022-0.036,0.042-0.055,0.062c0.338,3.596,1.905,5.131,3.053,5.776c1.87,0.145,4.7,0.683,5.401,0.683
					c2.917,0,5.281,2.365,5.281,5.281V503.2h-44.614V479.305z"/>
				<g>
					<g>
						<rect x="266.057" y="494.084" fill="#EDD0A8" width="34.758" height="9.116"/>
						<path fill="#8BC53F" d="M271.337,485.02c0.989,0,6.213-1.07,7.004-0.599c1.543,0.922,5.094,3.953,5.094,5.88
							c0-1.927,3.553-4.958,5.095-5.88c0.791-0.472,6.015,0.599,7.003,0.599c2.917,0,5.281,2.365,5.281,5.281v2.759v1.024h-6.366
							v5.068v4.048h-11.013h-11.012v-4.048v-5.068h-6.367v-1.024v-2.759C266.057,487.385,268.421,485.02,271.337,485.02z"/>
					</g>
					<path fill="#EDD0A8" d="M279.86,477.102h7.151c0,7.207,4.376,7.696,4.376,7.696c0,6.826-7.953,5.721-7.953,5.721
						s-7.953,1.105-7.953-5.721C275.483,484.798,279.86,484.309,279.86,477.102z"/>
					<path fill="#EDD0A8" d="M289.801,472.566c-0.104,0.526,0.236,1.035,0.763,1.141l0,0c0.525,0.103,1.036-0.237,1.14-0.764
						l0.503-2.536c0.104-0.526-0.237-1.036-0.763-1.141l0,0c-0.526-0.104-1.036,0.237-1.14,0.764L289.801,472.566z"/>
					<path fill="#EDD0A8" d="M277.22,472.566c0.104,0.526-0.237,1.035-0.763,1.141l0,0c-0.526,0.103-1.037-0.237-1.14-0.764
						l-0.503-2.536c-0.104-0.526,0.237-1.036,0.762-1.141l0,0c0.526-0.104,1.037,0.237,1.142,0.764L277.22,472.566z"/>
					<path fill="#FCE5C5" d="M283.435,479.732c3.026,0,5.336-2.551,6.372-4.461c1.034-1.91,1.751-12.9-0.479-15.927
						c-2.184-2.963-5.893-2.628-5.893-2.628s-3.708-0.335-5.893,2.628c-2.23,3.026-1.513,14.017-0.478,15.927
						C278.1,477.182,280.409,479.732,283.435,479.732z"/>
					<path fill="#333333" d="M276.123,469.318c0,0,1.725-5.085,2.092-7.06c0,0,4.583,0.603,8.262-1.37c0,0,1.641,1.538,2.711,1.94
						c0,0,0.678,4.581,1.559,6.489c0,0,1.233-6.689-0.532-11.14c0,0,0.745-0.903,0.377-3.077c0,0-0.702,1.404-1.572,1.739
						c0,0,0.936-2.408,0.168-4.884c0,0-1.138,4.215-2.61,4.215c0,0,1.138-2.174,0.736-3.311c0,0-2.71,2.843-5.119,2.843
						C279.788,455.703,273.798,457.81,276.123,469.318z"/>
					<path fill="#FCE5C5" d="M277.064,475.272c1.035,1.91,1.347,4.461,6.371,4.461c5.024,0,5.336-2.551,6.372-4.461"/>
				</g>
			</g>
		</g>
		<g>
			<defs>
				<circle id="SVGID_25_" cx="100.447" cy="503.2" r="27.158"/>
			</defs>
			<clipPath id="SVGID_26_">
				<use xlink:href="#SVGID_25_"  overflow="visible"/>
			</clipPath>
			<g clip-path="url(#SVGID_26_)">
				<rect x="73.289" y="476.043" fill="#FBC98A" width="54.316" height="54.316"/>
				<path opacity="0.1" d="M73.289,504.891c0.08-0.079,0.161-0.157,0.243-0.23c0.207-0.23,0.419-0.443,0.637-0.638
					c0.207-0.229,0.42-0.443,0.639-0.638c0.207-0.229,0.419-0.443,0.637-0.637c0.208-0.23,0.42-0.445,0.639-0.639
					c0.207-0.229,0.419-0.444,0.638-0.638c0.206-0.23,0.419-0.444,0.637-0.639c0.207-0.23,0.421-0.443,0.64-0.639
					c0.207-0.23,0.418-0.442,0.636-0.635c0.207-0.232,0.42-0.446,0.638-0.64c0.207-0.229,0.419-0.444,0.639-0.638
					c0.206-0.231,0.419-0.444,0.638-0.639c0.207-0.23,0.419-0.443,0.638-0.638c0.207-0.229,0.42-0.443,0.637-0.636
					c0.207-0.233,0.42-0.446,0.64-0.64c0.206-0.232,0.418-0.444,0.637-0.638c0.207-0.232,0.419-0.444,0.638-0.639
					c0.207-0.23,0.419-0.443,0.638-0.638c0.206-0.231,0.42-0.443,0.638-0.638c0.206-0.231,0.419-0.444,0.638-0.638
					c0.207-0.231,0.419-0.444,0.638-0.638c0.206-0.231,0.419-0.444,0.638-0.639c0.207-0.23,0.42-0.443,0.639-0.638
					c0.207-0.232,0.418-0.443,0.636-0.636c0.207-0.231,0.42-0.445,0.639-0.64c0.207-0.232,0.42-0.444,0.638-0.638
					c0.207-0.232,0.419-0.444,0.637-0.638c0.207-0.232,0.42-0.444,0.64-0.639c0.206-0.23,0.419-0.443,0.637-0.638
					c0.208-0.231,0.42-0.443,0.638-0.638c0.676-0.754,1.415-1.321,2.217-1.646c3.344-2.058,6.005-1.367,6.005-1.367
					s6.718-0.575,9.293,6.458c1.918,5.236,3.34,14.006-1.938,18.798c-0.202,0.22-0.413,0.434-0.639,0.64
					c-0.201,0.218-0.411,0.432-0.637,0.637c-0.202,0.219-0.412,0.433-0.638,0.638c-0.128,0.14-0.264,0.275-0.403,0.408
					c0.675,0.911,1.439,1.386,2.006,1.63c0.075-0.068,0.152-0.132,0.233-0.191c0.18-0.235,0.393-0.462,0.638-0.638
					c0.439-0.577,1.084-1.112,1.904-0.924c1.629,0.376,6.638,3.194,6.951,4.697c0.309,1.483,2.2,11.131,0.386,15.058h-44.12V504.891
					z"/>
				<g>
					<path fill="#41403E" d="M100.521,482.989c0,0,6.718-0.575,9.294,6.458c2.577,7.036,4.263,20.445-9.993,22.026l0.256,6.919
						c0,0-6.253,1.27-10.635-3.228c-4.382-4.498-2.306-27.826,5.074-30.808C97.86,482.299,100.521,482.989,100.521,482.989z"/>
					<g>
						<path fill="#C7859D" d="M83.602,515.142c0.312-1.503,5.322-4.321,6.951-4.696c1.628-0.376,2.567,2.102,2.567,2.102
							l7.327,7.792l7.327-7.792c0,0,0.939-2.478,2.567-2.102c1.628,0.375,6.638,3.193,6.951,4.696
							c0.312,1.502,2.253,11.396,0.312,15.218h-17.158H83.289C81.348,526.538,83.289,516.644,83.602,515.142z"/>
						<path fill="#EDD0A8" d="M96.871,504.754h7.151c0,7.206,4.377,7.695,4.377,7.695c0,6.825-7.953,7.89-7.953,7.89
							s-7.953-1.065-7.953-7.89C92.494,512.449,96.871,511.96,96.871,504.754z"/>
						<path fill="#FCE5C5" d="M100.447,507.385c3.026,0,5.336-2.551,6.371-4.461c1.035-1.912,1.751-12.9-0.478-15.927
							c-2.184-2.965-5.893-2.629-5.893-2.629s-3.71-0.336-5.893,2.629c-2.23,3.026-1.514,14.015-0.479,15.927
							C95.11,504.834,97.42,507.385,100.447,507.385z"/>
						<path fill="#41403E" d="M107.735,497.427c-9.201-1.316-11.339-7.812-11.339-7.812s-0.268,3.551-3.303,5.935
							c0,0-2.175-6.188,1.274-9.587c3.45-3.396,9.079-3.296,12.477,0.355C110.242,489.971,107.735,497.427,107.735,497.427z"/>
						<path opacity="0.4" fill="#C7859D" d="M111.377,521.104c0,0,2.068,7.043-3.806,9.255h4.699
							C112.27,530.359,112.928,524.676,111.377,521.104z"/>
						<path opacity="0.4" fill="#C7859D" d="M89.516,521.104c0,0-2.067,7.043,3.806,9.255h-4.699
							C88.623,530.359,87.965,524.676,89.516,521.104z"/>
					</g>
					<path fill="#C7859D" d="M93.746,492.112c-0.153,0.152-0.153,0.399,0,0.551l1.034,1.034c0.152,0.153,0.398,0.153,0.551,0l0,0
						c0.151-0.15,0.151-0.397,0-0.55l-1.035-1.035C94.145,491.96,93.897,491.96,93.746,492.112L93.746,492.112z"/>
					<path fill="#C7859D" d="M92.839,493.15c-0.152,0.152-0.152,0.399,0,0.552l1.034,1.035c0.152,0.151,0.399,0.151,0.551,0l0,0
						c0.152-0.152,0.152-0.399,0-0.552l-1.035-1.035C93.238,492.999,92.991,492.999,92.839,493.15L92.839,493.15z"/>
				</g>
			</g>
		</g>
		<g>
			<defs>
				<circle id="SVGID_27_" cx="148.34" cy="258.776" r="38.644"/>
			</defs>
			<clipPath id="SVGID_28_">
				<use xlink:href="#SVGID_27_"  overflow="visible"/>
			</clipPath>
			<g clip-path="url(#SVGID_28_)">
				<rect x="109.859" y="220.134" fill="#FFAFB0" width="77.288" height="77.286"/>
				<path opacity="0.1" d="M109.859,262.805c0.062-0.058,0.122-0.117,0.185-0.173c0.284-0.322,0.586-0.623,0.906-0.907
					c0.284-0.321,0.587-0.624,0.91-0.907c0.283-0.321,0.586-0.625,0.907-0.907c0.282-0.321,0.585-0.625,0.908-0.908
					c0.283-0.321,0.586-0.625,0.907-0.909c0.284-0.319,0.586-0.622,0.908-0.906c0.283-0.321,0.587-0.624,0.908-0.908
					c0.282-0.321,0.586-0.624,0.907-0.906c0.284-0.323,0.586-0.626,0.908-0.908c0.283-0.322,0.586-0.625,0.907-0.907
					c0.282-0.321,0.586-0.624,0.908-0.908c0.283-0.321,0.587-0.625,0.908-0.908c0.283-0.321,0.586-0.624,0.907-0.908
					c0.284-0.321,0.586-0.624,0.908-0.907c0.283-0.321,0.586-0.624,0.907-0.908c0.283-0.321,0.587-0.622,0.908-0.906
					c0.283-0.322,0.587-0.625,0.909-0.908c0.282-0.321,0.585-0.624,0.906-0.908c0.284-0.321,0.587-0.624,0.908-0.907
					c0.283-0.321,0.586-0.624,0.907-0.908c0.284-0.321,0.587-0.624,0.908-0.907c0.284-0.321,0.586-0.624,0.908-0.907
					c0.283-0.321,0.587-0.626,0.909-0.908c0.283-0.321,0.585-0.624,0.906-0.906c0.283-0.322,0.586-0.625,0.907-0.909
					c0.284-0.321,0.588-0.624,0.908-0.907c0.284-0.321,0.587-0.624,0.909-0.907c0.283-0.322,0.585-0.624,0.906-0.907
					c0.284-0.322,0.586-0.625,0.909-0.909c0.283-0.321,0.585-0.623,0.906-0.907c0.284-0.321,0.587-0.624,0.908-0.906
					c0.284-0.323,0.587-0.625,0.909-0.91c0.284-0.32,0.586-0.622,0.907-0.906c0.283-0.321,0.586-0.624,0.908-0.908
					c1.867-2.118,4.597-3.459,7.644-3.459c4.332,0,8.03,2.701,9.508,6.511c0.953,1.109,0.903-0.408,1.486,1.828v11.205
					c0.206-0.057,0.424-0.072,0.647-0.027c0.771,0.153,1.272,0.903,1.118,1.673l-0.737,3.722c-0.104,0.521-0.481,0.911-0.952,1.065
					c-0.021,0.066-0.046,0.13-0.077,0.19v2.846c0,0,0.046,4.019-3.13,6.744c-0.27,0.314-0.57,0.618-0.909,0.908
					c-0.268,0.312-0.57,0.618-0.907,0.908c-0.114,0.133-0.234,0.263-0.359,0.392c1.068,1.3,2.527,1.351,2.527,1.351
					s0.021,0.068,0.056,0.181c1.74-0.528,9.401,1.029,10.902,1.029c4.622,0,8.367,3.746,8.367,8.369v20.213h-66.228V262.805z"/>
				<g>
					<g>
						<rect x="120.962" y="282.973" fill="#7A5F3F" width="55.081" height="14.447"/>
						<path fill="#1A1A1A" d="M129.331,268.61c1.566,0,9.844-1.698,11.097-0.949c2.446,1.461,8.075,6.262,8.075,9.318
							c0-3.057,5.629-7.857,8.075-9.318c1.252-0.749,9.531,0.949,11.098,0.949c4.622,0,8.368,3.747,8.368,8.369v4.371v1.622h-10.089
							v8.032v6.415h-17.452h-17.452v-6.415v-8.032h-10.088v-1.622v-4.371C120.962,272.357,124.709,268.61,129.331,268.61z"/>
					</g>
					<path fill="#7A5F3F" d="M157.732,252.443c-0.152,0.77,0.349,1.52,1.12,1.673l0,0c0.772,0.152,1.521-0.349,1.673-1.12
						l0.737-3.722c0.154-0.77-0.348-1.52-1.118-1.673l0,0c-0.772-0.153-1.52,0.349-1.673,1.12L157.732,252.443z"/>
					<path fill="#7A5F3F" d="M139.273,252.443c0.152,0.77-0.348,1.52-1.12,1.673l0,0c-0.77,0.152-1.519-0.349-1.672-1.12
						l-0.738-3.722c-0.153-0.77,0.349-1.52,1.119-1.673l0,0c0.771-0.153,1.521,0.349,1.674,1.12L139.273,252.443z"/>
					<path fill="#4C3B28" d="M140.288,267.399c0,0,3.628-0.12,3.628-5.07c0-4.949,9.173-4.949,9.173,0c0,4.95,3.628,5.07,3.628,5.07
						s0.961,3.018,0.959,4.708c-0.001,1.691-9.175,4.555-9.175,4.555s-9.173-2.864-9.175-4.555
						C139.327,270.417,140.288,267.399,140.288,267.399z"/>
					<path fill="#7A5F3F" d="M152.624,265.19h-8.244c-3.001-1.775-6.076-6.092-6.076-9.83v-17.076
						c0-5.633,4.565-10.198,10.198-10.198c5.633,0,10.198,4.565,10.198,10.198v17.076
						C158.701,259.098,155.626,263.414,152.624,265.19z"/>
					<path fill="#1A1A1A" d="M139.028,234.505l0.978,2.105c-0.363,1.783-0.313,3.523-0.313,3.523v14.01c0,0,0.108,2.13,2.335,2.13
						c2.226,0,2.272-1.379,3.022-2.13c0.75-0.75,3.453,0,3.453,0s2.626-0.826,3.453,0c0.827,0.828,1.206,2.13,3.022,2.13
						c1.816,0,2.335-2.13,2.335-2.13v-14.01c0,0,0.054-1.854-0.349-3.697l0.971-1.931c1.032,1.281,0.962-0.375,1.562,1.919v20.674
						c0,0,0.114,9.203-10.995,9.203c-11.108,0-10.996-9.203-10.996-9.203v-20.674C138.102,234.157,138.011,235.782,139.028,234.505z
						"/>
				</g>
			</g>
		</g>
		<g>
			<defs>
				<circle id="SVGID_29_" cx="175.498" cy="415.637" r="47.421"/>
			</defs>
			<clipPath id="SVGID_30_">
				<use xlink:href="#SVGID_29_"  overflow="visible"/>
			</clipPath>
			<g clip-path="url(#SVGID_30_)">
				<rect x="128.477" y="368.216" fill="#8BC53F" width="94.843" height="94.841"/>
				<path opacity="0.1" d="M128.477,420.142c0.213-0.216,0.43-0.427,0.655-0.631c0.352-0.388,0.723-0.76,1.112-1.111
					c0.355-0.391,0.728-0.765,1.118-1.119c0.353-0.387,0.722-0.756,1.11-1.108c0.353-0.391,0.727-0.762,1.114-1.116
					c0.355-0.39,0.726-0.761,1.114-1.113c0.354-0.389,0.725-0.762,1.114-1.115c0.354-0.387,0.727-0.76,1.114-1.113
					c0.355-0.389,0.726-0.762,1.117-1.115c0.352-0.388,0.722-0.758,1.109-1.109c0.354-0.391,0.727-0.762,1.115-1.117
					c0.354-0.389,0.725-0.76,1.114-1.113c0.353-0.389,0.727-0.761,1.115-1.114c0.352-0.389,0.723-0.759,1.112-1.112
					c0.354-0.391,0.726-0.763,1.116-1.116c0.353-0.388,0.724-0.759,1.111-1.111c0.353-0.389,0.725-0.762,1.114-1.115
					c0.354-0.389,0.726-0.76,1.114-1.114c0.355-0.389,0.726-0.761,1.115-1.115c0.354-0.387,0.725-0.757,1.111-1.11
					c0.354-0.39,0.727-0.76,1.115-1.115c0.355-0.389,0.727-0.76,1.115-1.114c0.352-0.389,0.724-0.76,1.113-1.112
					c0.354-0.389,0.726-0.763,1.115-1.116c0.353-0.389,0.725-0.761,1.115-1.114c0.353-0.387,0.722-0.757,1.111-1.11
					c0.353-0.39,0.725-0.761,1.114-1.115c0.355-0.389,0.727-0.762,1.117-1.116c0.352-0.387,0.723-0.758,1.11-1.11
					c0.354-0.389,0.726-0.762,1.115-1.115c0.353-0.389,0.727-0.76,1.114-1.113c0.355-0.389,0.726-0.762,1.117-1.117
					c3.05-3.35,7.443-5.455,12.33-5.455c9.024,0,16.371,7.167,16.67,16.117h0.003c0,0,3.438,1.646,1.725,4.936
					c-1.712,3.289-0.64,5.94,1.096,6.212c0,0-0.447,1.278-1.41,1.829c0,0,2.781,2.192,1.867,4.475
					c-0.913,2.284-2.466,4.204-0.274,5.3c2.192,1.097,2.924,5.115,1.919,7.035c-1.005,1.919,0.183,4.294,1.735,3.654
					c0,0-0.264,1.319-1.024,2.595c4.534,0.582,8.04,4.445,8.04,9.136v22.243h-77.862V420.142z"/>
				<g>
					<path fill="#5A0F07" d="M154.303,425.149c-1.003-1.92-0.273-5.94,1.919-7.034c2.192-1.097,0.639-3.017-0.274-5.3
						c-0.913-2.283,1.867-4.478,1.867-4.478c-0.963-0.549-1.41-1.827-1.41-1.827c1.736-0.273,2.809-2.923,1.096-6.212
						c-1.713-3.289,1.726-4.935,1.726-4.935h0.002c0.3-8.951,7.646-16.118,16.669-16.118c9.025,0,16.371,7.167,16.672,16.118h0.001
						c0,0,3.438,1.646,1.725,4.935c-1.712,3.289-0.64,5.939,1.096,6.212c0,0-0.445,1.278-1.41,1.827c0,0,2.781,2.194,1.868,4.478
						c-0.914,2.283-2.467,4.203-0.275,5.3c2.192,1.094,2.924,5.114,1.919,7.034c-1.005,1.919,0.183,4.295,1.737,3.655
						c0,0-0.822,4.108-3.747,4.841h-4.088c-2.455,6.154-8.466,10.508-15.499,10.508c-7.03,0-13.04-4.353-15.497-10.508h-4.088
						c-2.924-0.732-3.745-4.841-3.745-4.841C154.121,429.444,155.309,427.068,154.303,425.149z"/>
					<path fill="#543C21" d="M169.657,417.593h12.484c0,12.586,7.645,13.441,7.645,13.441c0,11.918-13.889,28.424-13.889,28.424
						s-13.886-16.506-13.886-28.424C162.012,431.034,169.657,430.179,169.657,417.593z"/>
					<g>
						<path fill="#C7859D" d="M154.773,431.314c1.727,0,10.849-1.87,12.229-1.047c-0.087,2.407,0.465,5.114,1.326,7.865v-4.623
							c0.045,2.843,0.689,13.288,7.7,13.288c7.009,0,7.651-10.449,7.696-13.289v3.932c0.505-2.191,0.887-4.573,1.072-7.173
							c1.381-0.823,10.501,1.047,12.227,1.047c5.093,0,9.221,4.13,9.221,9.221v6.605v15.917h-11.117h-11.403h-7.827h-7.569H156.67
							h-11.116V447.14v-6.605C145.554,435.443,149.682,431.314,154.773,431.314z"/>
						<path fill="#E5E5E5" d="M183.725,433.508v-0.711C183.725,432.797,183.734,433.062,183.725,433.508z"/>
						<path fill="#E5E5E5" d="M168.329,432.797v0.712C168.322,433.062,168.329,432.797,168.329,432.797z"/>
					</g>
					<path fill="#775935" d="M196.365,431.27c0.275,0.028,0.498,0.044,0.659,0.044c5.093,0,9.221,4.13,9.221,9.221v22.522h-9.879
						V431.27z"/>
					<path fill="#775935" d="M155.432,431.27c-0.275,0.028-0.497,0.044-0.659,0.044c-5.092,0-9.219,4.13-9.219,9.221v22.522h9.878
						V431.27z"/>
					<path fill="#F1F1F1" d="M185.654,426.713c0,0-2.016,3.576-3.129,9.477c0,0,1.794,3.21,1.721,5.657c0,0,3.56-8.605,3.634-11.573
						C187.88,430.273,186.322,427.009,185.654,426.713z"/>
					<path fill="#F1F1F1" d="M166.144,426.713c0,0,2.185,4.651,3.557,9.963c0,0-2.223,2.724-2.148,5.171
						c0,0-3.559-8.605-3.634-11.573C163.919,430.273,165.475,427.009,166.144,426.713z"/>
					<path fill="#775935" d="M187.012,409.676c-0.182,0.917,0.414,1.808,1.332,1.99l0,0c0.919,0.182,1.809-0.414,1.99-1.332
						l0.879-4.429c0.182-0.918-0.415-1.809-1.332-1.991l0,0c-0.919-0.182-1.811,0.415-1.992,1.332L187.012,409.676z"/>
					<path fill="#775935" d="M165.044,409.676c0.182,0.917-0.414,1.808-1.332,1.99l0,0c-0.919,0.182-1.81-0.414-1.991-1.332
						l-0.878-4.429c-0.182-0.918,0.414-1.809,1.331-1.991l0,0c0.919-0.182,1.81,0.415,1.991,1.332L165.044,409.676z"/>
					<path fill="#775935" d="M175.898,422.188c5.285,0,9.318-4.451,11.126-7.788c1.808-3.336,3.059-22.525-0.834-27.809
						c-3.815-5.176-10.292-4.589-10.292-4.589s-6.476-0.587-10.29,4.589c-3.893,5.283-2.642,24.473-0.834,27.809
						C166.582,417.736,170.615,422.188,175.898,422.188z"/>
					<path fill="#5A0F07" d="M163.03,401.276c8.98-1.285,12.159-2.752,14.935-5.156c2.19-1.896,4.865-4.959,4.865-4.959
						s0.586,2.396,2.016,5.229c0.857,1.7,1.763,3.572,3.751,5.134c0,0,3.797-10.805-2.225-16.738
						c-6.021-5.934-15.852-5.758-21.785,0.62C158.653,391.782,163.03,401.276,163.03,401.276z"/>
				</g>
			</g>
		</g>
		<g>
			<defs>
				<circle id="SVGID_31_" cx="506.767" cy="318.059" r="14.26"/>
			</defs>
			<clipPath id="SVGID_32_">
				<use xlink:href="#SVGID_31_"  overflow="visible"/>
			</clipPath>
			<g clip-path="url(#SVGID_32_)">
				<rect x="492.687" y="303.799" fill="#8BC53F" width="28.519" height="28.519"/>
				<path opacity="0.1" d="M492.688,321.568c0.065-0.064,0.128-0.126,0.193-0.183c0.108-0.125,0.221-0.235,0.335-0.335
					c0.108-0.124,0.22-0.235,0.335-0.335c0.107-0.124,0.221-0.235,0.335-0.334c0.108-0.125,0.22-0.236,0.335-0.336
					c0.108-0.125,0.221-0.236,0.335-0.335c0.108-0.124,0.221-0.235,0.335-0.334c0.107-0.125,0.22-0.236,0.335-0.335
					c0.107-0.126,0.221-0.236,0.334-0.335c0.109-0.126,0.221-0.236,0.336-0.335c0.108-0.125,0.22-0.236,0.335-0.335
					c0.107-0.125,0.221-0.236,0.334-0.335c0.109-0.125,0.221-0.236,0.336-0.336c0.108-0.124,0.22-0.235,0.335-0.334
					c0.107-0.125,0.22-0.236,0.334-0.335c0.109-0.125,0.221-0.235,0.336-0.336c0.107-0.124,0.22-0.234,0.333-0.334
					c0.109-0.125,0.222-0.236,0.337-0.335c0.107-0.125,0.22-0.236,0.334-0.335c0.108-0.125,0.221-0.235,0.335-0.335
					c0.109-0.125,0.221-0.235,0.336-0.335c0.107-0.125,0.22-0.236,0.334-0.335c0.108-0.125,0.222-0.235,0.335-0.335
					c0.108-0.125,0.221-0.235,0.335-0.335c0.108-0.125,0.221-0.235,0.335-0.335c0.108-0.125,0.221-0.236,0.335-0.335
					c0.109-0.125,0.221-0.235,0.335-0.334c0.108-0.126,0.221-0.236,0.335-0.336c0.108-0.125,0.221-0.235,0.335-0.335
					c0.108-0.124,0.221-0.235,0.335-0.335c0.108-0.124,0.221-0.235,0.334-0.335c0.109-0.124,0.222-0.235,0.337-0.335
					c0.108-0.124,0.22-0.235,0.333-0.335c0.109-0.124,0.221-0.235,0.336-0.335c0.108-0.124,0.221-0.235,0.335-0.335
					c1.147-1.32,2.719-1.128,2.719-1.128s2.773-0.342,3.643,2.982v3.712c0.068-0.019,0.141-0.023,0.215-0.009
					c0.255,0.05,0.421,0.299,0.37,0.554l-0.245,1.233c-0.035,0.183-0.174,0.318-0.343,0.362c-0.037,0.143-0.135,0.253-0.261,0.31
					v0.11c0,0.656-0.287,1.364-0.702,1.974c-0.059,0.31-0.191,0.619-0.431,0.885c0.132,0.335,0.29,0.607,0.459,0.83
					c0.152-0.206,0.229-0.34,0.229-0.34c0.177,0.078,0.56,0.846,0.649,1.03c0.98,0.084,2.409,0.354,2.769,0.354
					c1.531,0,2.773,1.241,2.773,2.772v6.689h-23.425V321.568z"/>
				<g>
					<path fill="#EDC18E" d="M505.07,318.647h3.754c0,3.785,2.299,4.042,2.299,4.042c0,3.583-4.176,4.142-4.176,4.142
						s-4.176-0.559-4.176-4.142C502.771,322.689,505.07,322.432,505.07,318.647z"/>
					<path fill="#1A1A1A" d="M500.595,322.772c0.52,0,3.263-0.562,3.678-0.314c0.81,0.484,2.675,2.075,2.675,3.087
						c0-1.012,1.865-2.602,2.675-3.087c0.416-0.248,3.158,0.314,3.677,0.314c1.532,0,2.773,1.241,2.773,2.772v1.986v4.786h-3.342
						h-5.782h-5.782h-3.342v-4.786v-1.986C497.823,324.014,499.063,322.772,500.595,322.772z"/>
					<path fill="#4D4D4D" d="M510.55,322.46c0,0,1.458,2.219,0.898,5.1l-1.228,1.033l0.677,0.888c0,0-0.17,2.177-0.677,2.836H509.3
						v-8.546L510.55,322.46z"/>
					<path fill="#4D4D4D" d="M503.422,322.46c0,0-1.458,2.219-0.898,5.1l1.229,1.033l-0.678,0.888c0,0,0.171,2.177,0.678,2.836
						h0.919v-8.546L503.422,322.46z"/>
					<rect x="504.671" y="323.218" fill="#E5E5E5" width="4.629" height="9.1"/>
					<path fill="#F1F1F1" d="M509.881,321.389c0,0-0.581,1.026-1.829,1.829c0,0,1.428,1.986,1.405,2.722c0,0,1.07-2.587,1.093-3.48
						C510.55,322.46,510.081,321.478,509.881,321.389z"/>
					<path fill="#F1F1F1" d="M504.014,321.389c0,0,0.58,1.026,1.829,1.829c0,0-1.428,1.986-1.405,2.722c0,0-1.071-2.587-1.093-3.48
						C503.345,322.46,503.812,321.478,504.014,321.389z"/>
					<polygon fill="#C0272D" points="508.052,323.218 505.843,323.218 505.843,324.378 506.392,325.093 507.463,325.093 
						508.052,324.311 					"/>
					<polygon fill="#C0272D" points="507.463,325.093 508.052,332.317 505.843,332.317 506.392,325.093 					"/>
					<g>
						<path fill="#EDD0A8" d="M510.006,317.074c-0.052,0.256,0.115,0.504,0.37,0.555l0,0c0.256,0.05,0.504-0.115,0.555-0.371
							l0.244-1.233c0.051-0.255-0.114-0.504-0.371-0.554l0,0c-0.255-0.051-0.503,0.115-0.554,0.37L510.006,317.074z"/>
						<path fill="#EDD0A8" d="M503.889,317.074c0.052,0.256-0.114,0.504-0.37,0.555l0,0c-0.256,0.05-0.504-0.115-0.554-0.371
							l-0.245-1.233c-0.051-0.255,0.115-0.504,0.371-0.554l0,0c0.256-0.051,0.503,0.115,0.554,0.37L503.889,317.074z"/>
						<path fill="#FCE5C5" d="M508.312,321.298h-2.731c-0.994-0.589-2.013-2.019-2.013-3.258v-5.657
							c0-1.866,1.514-3.379,3.379-3.379c1.865,0,3.379,1.513,3.379,3.379v5.657C510.326,319.279,509.308,320.709,508.312,321.298z"
							/>
						<path fill="#333333" d="M504.803,318.344c0.736,0,0.752-0.458,1.001-0.706c0.248-0.248,1.144,0,1.144,0s0.87-0.273,1.143,0
							c0.274,0.274,0.4,0.706,1.002,0.706c0.601,0,1.534,3.322-2.145,3.322S504.064,318.344,504.803,318.344z"/>
						<path fill="#333333" d="M509.866,315.685v-2.689c0,0,0.085-2.868-1.46-2.367c0,0,0.196,0.819-1.459,0.819
							c-1.654,0-1.459-0.819-1.459-0.819c-1.545-0.501-1.461,2.367-1.461,2.367v2.689h-0.723v-3.917
							c0.869-3.323,3.643-2.982,3.643-2.982s2.773-0.342,3.643,2.982v3.917H509.866z"/>
					</g>
					<path fill="#FCE5C5" d="M505.772,318.727c0,0.218,0.175,0.393,0.393,0.393h1.564c0.217,0,0.393-0.176,0.393-0.393l0,0
						c0-0.217-0.176-0.393-0.393-0.393h-1.564C505.947,318.334,505.772,318.51,505.772,318.727L505.772,318.727z"/>
				</g>
			</g>
		</g>
		<path fill="#C0272D" d="M629.505,411.583h3.516v-3.517c0-0.8,0.648-1.448,1.447-1.448c0.8,0,1.448,0.648,1.448,1.448v3.517h3.517
			c0.8,0,1.447,0.647,1.447,1.447s-0.648,1.447-1.447,1.447h-3.517v3.518c0,0.799-0.648,1.447-1.448,1.447
			c-0.799,0-1.447-0.648-1.447-1.447v-3.518h-3.516c-0.8,0-1.448-0.647-1.448-1.447S628.705,411.583,629.505,411.583z"/>
		<path fill="#C0272D" d="M716.918,328.536h3.516v-3.517c0-0.8,0.648-1.447,1.447-1.447c0.801,0,1.448,0.647,1.448,1.447v3.517
			h3.518c0.799,0,1.447,0.648,1.447,1.448c0,0.799-0.648,1.447-1.447,1.447h-3.518v3.517c0,0.8-0.648,1.447-1.448,1.447
			c-0.799,0-1.447-0.648-1.447-1.447v-3.517h-3.516c-0.8,0-1.448-0.648-1.448-1.447C715.47,329.185,716.118,328.536,716.918,328.536
			z"/>
		<path fill="#C0272D" d="M453.973,278.626h3.516v-3.517c0-0.8,0.648-1.447,1.447-1.447c0.801,0,1.448,0.647,1.448,1.447v3.517
			h3.517c0.8,0,1.447,0.648,1.447,1.448c0,0.799-0.647,1.447-1.447,1.447h-3.517v3.517c0,0.8-0.647,1.447-1.448,1.447
			c-0.799,0-1.447-0.648-1.447-1.447v-3.517h-3.516c-0.8,0-1.448-0.649-1.448-1.447
			C452.524,279.274,453.173,278.626,453.973,278.626z"/>
		<path fill="#C0272D" d="M139.861,343.266h3.516v-3.517c0-0.8,0.648-1.447,1.447-1.447c0.8,0,1.448,0.647,1.448,1.447v3.517h3.517
			c0.799,0,1.447,0.648,1.447,1.448c0,0.799-0.648,1.447-1.447,1.447h-3.517v3.517c0,0.8-0.648,1.447-1.448,1.447
			c-0.799,0-1.447-0.647-1.447-1.447v-3.517h-3.516c-0.8,0-1.448-0.648-1.448-1.447
			C138.414,343.914,139.061,343.266,139.861,343.266z"/>
		<path fill="#C0272D" d="M329.227,436.924h3.516v-3.516c0-0.801,0.648-1.448,1.447-1.448c0.8,0,1.448,0.647,1.448,1.448v3.516
			h3.517c0.799,0,1.447,0.648,1.447,1.448c0,0.799-0.648,1.448-1.447,1.448h-3.517v3.517c0,0.799-0.648,1.446-1.448,1.446
			c-0.799,0-1.447-0.647-1.447-1.446v-3.517h-3.516c-0.8,0-1.448-0.649-1.448-1.448
			C327.779,437.572,328.427,436.924,329.227,436.924z"/>
		<path fill="#C0272D" d="M406.361,508.165h3.517v-3.517c0-0.8,0.647-1.448,1.447-1.448s1.448,0.648,1.448,1.448v3.517h3.517
			c0.8,0,1.447,0.647,1.447,1.448c0,0.799-0.648,1.446-1.447,1.446h-3.517v3.517c0,0.8-0.648,1.448-1.448,1.448
			s-1.447-0.648-1.447-1.448v-3.517h-3.517c-0.8,0-1.447-0.647-1.447-1.446C404.914,508.812,405.561,508.165,406.361,508.165z"/>
		<circle fill="#C0272D" cx="405.981" cy="413.919" r="7.301"/>
		<circle fill="#C0272D" cx="271.843" cy="329.984" r="7.301"/>
		<g>
			<path fill="#C0272D" d="M565.183,499.078c2.274,0,4.122,1.849,4.122,4.122s-1.849,4.122-4.122,4.122
				c-2.273,0-4.122-1.849-4.122-4.122S562.909,499.078,565.183,499.078 M565.183,495.899c-4.032,0-7.301,3.269-7.301,7.301
				s3.269,7.301,7.301,7.301c4.032,0,7.301-3.269,7.301-7.301S569.215,495.899,565.183,495.899L565.183,495.899z"/>
		</g>
		<g>
			<path fill="#C0272D" d="M363.169,444.762c2.273,0,4.122,1.849,4.122,4.122c0,2.273-1.849,4.122-4.122,4.122
				c-2.273,0-4.122-1.849-4.122-4.122C359.047,446.61,360.896,444.762,363.169,444.762 M363.169,441.583
				c-4.032,0-7.301,3.269-7.301,7.301s3.268,7.301,7.301,7.301c4.032,0,7.301-3.269,7.301-7.301S367.201,441.583,363.169,441.583
				L363.169,441.583z"/>
		</g>
		<g>
			<path fill="#C0272D" d="M151.237,319.45c2.273,0,4.122,1.849,4.122,4.122c0,2.272-1.849,4.122-4.122,4.122
				c-2.273,0-4.122-1.85-4.122-4.122C147.115,321.299,148.964,319.45,151.237,319.45 M151.237,316.272
				c-4.032,0-7.301,3.268-7.301,7.301c0,4.032,3.269,7.301,7.301,7.301c4.032,0,7.301-3.268,7.301-7.301
				C158.538,319.54,155.269,316.272,151.237,316.272L151.237,316.272z"/>
		</g>
		<g>
			<path fill="#C0272D" d="M669.807,357.261c2.273,0,4.122,1.85,4.122,4.122c0,2.273-1.849,4.122-4.122,4.122
				c-2.273,0-4.122-1.849-4.122-4.122C665.685,359.11,667.533,357.261,669.807,357.261 M669.807,354.082
				c-4.032,0-7.301,3.269-7.301,7.301c0,4.032,3.268,7.301,7.301,7.301c4.032,0,7.301-3.269,7.301-7.301
				C677.107,357.351,673.839,354.082,669.807,354.082L669.807,354.082z"/>
		</g>
	</g>
</g>
</svg>
