<svg xmlns="http://www.w3.org/2000/svg" width="499.903" height="472.66" viewBox="0 0 499.903 472.66"><path fill="#694B4B" d="M161.958 135.58c-93.211 0-82.876 113.351-82.449 195.493.016 3.102 1.641 5.899 4.299 7.501 10.329 6.227 38.696 20.784 78.152 20.784s67.822-14.557 78.152-20.784c2.657-1.601 4.282-4.398 4.299-7.501.423-82.141 10.758-195.493-82.453-195.493z"/><path fill="#5A4146" d="M155.953 135.814c-86.69 4.861-76.86 114.945-76.444 195.259.016 3.102 1.641 5.899 4.299 7.501 10.329 6.227 38.696 20.784 78.152 20.784l23.556-164.889"/><path fill="#694B4B" d="M161.958 135.58c-53 0-56.68 64.041-56.68 64.041 30.548-5.153 49.32 7.729 80.237-5.153l-23.556 164.889c39.457 0 67.822-14.557 78.152-20.784 2.657-1.601 4.282-4.398 4.299-7.501.424-82.14 10.759-195.492-82.452-195.492z"/><path fill="#785550" d="M244.408 331.073c.365-70.583 7.985-164.143-49.001-189.094-.993 5.164-2.795 19.578 1.885 28.935 11.778 23.556 23.556 23.556 35.332 41.221 11.778 64.778-22.504 133.531-33.89 142.892 20.174-4.797 34.635-12.39 41.376-16.453 2.656-1.603 4.282-4.399 4.298-7.501z"/><path fill="#E6AF78" d="M251.196 348.939l-52.546-21.894a11.778 11.778 0 0 1-7.247-10.872v-14.231h-58.889v14.231c0 4.756-2.859 9.043-7.247 10.872L72.72 348.939a17.667 17.667 0 0 0-10.872 16.308v23.556c0 6.505 5.273 11.778 11.778 11.778h176.665c6.505 0 11.778-5.273 11.778-11.778v-23.556a17.666 17.666 0 0 0-10.873-16.308z"/><path fill="#EFF2FA" d="M251.196 348.939l-50.806-21.17-38.432 16.587-38.432-16.587-50.807 21.17a17.667 17.667 0 0 0-10.872 16.308v23.556c0 6.505 5.273 11.778 11.778 11.778H250.29c6.505 0 11.778-5.273 11.778-11.778v-23.556a17.664 17.664 0 0 0-10.872-16.308z"/><path fill="#D29B6E" d="M191.401 301.941h-58.889v14.231c0 4.756-2.859 9.043-7.247 10.872l-8.208 3.42c62.806 16.013 74.344-28.523 74.344-28.523z"/><g fill="#E4EAF6"><path d="M90.55 371.719l-23.638-18.802c-3.168 3.239-5.065 7.618-5.065 12.329v23.556c0 6.505 5.273 11.778 11.778 11.778h23.556v-15.065c0-5.367-2.44-10.443-6.631-13.796zm171.518 17.082v-23.556c0-4.674-1.867-9.024-4.99-12.255l-23.713 18.728a17.663 17.663 0 0 0-6.629 13.795v15.065h23.556c6.503.001 11.776-5.272 11.776-11.777zm-99.227 0h-1.766a5.005 5.005 0 0 1-5.005-5.005V344.37h11.778v39.426a5.008 5.008 0 0 1-5.007 5.005z"/><path d="M161.958 344.357l-33.705-25.278a4.71 4.71 0 0 0-6.746 1.155l-6.66 9.99 20.664 28.929a4.712 4.712 0 0 0 6.776.941l19.671-15.737zm0 0l33.705-25.278a4.71 4.71 0 0 1 6.746 1.155l6.66 9.99-20.664 28.929a4.712 4.712 0 0 1-6.776.941l-19.671-15.737z"/></g><path fill="#F0C087" d="M191.401 188.58c-29.444 29.444-87.229 5.889-87.229 53l3.657 34.702a23.556 23.556 0 0 0 12.018 18.459l33.53 18.627a17.667 17.667 0 0 0 17.159 0l33.53-18.627a23.552 23.552 0 0 0 12.018-18.459l4.221-41.215c.301-2.929.364-5.877.266-8.816-2.202-14.99-23.28-25.893-29.17-37.671z"/><path fill="#E6AF78" d="M104.173 241.58l3.657 34.702a23.556 23.556 0 0 0 12.018 18.459l33.53 18.627c3.702 2.057 7.949 2.589 11.991 1.792 0 0-16.904-5.123-26.966-32.358-3.082-8.343-7.361-52.509-3.681-57.908 7.275-10.67 47.846-11.778 59.835-31.571a33.194 33.194 0 0 1-1.638-2.207c-.04-.059-.089-.119-.129-.179a22.521 22.521 0 0 1-1.388-2.356c-29.444 29.443-87.229 5.888-87.229 52.999z"/><path fill="#E4EAF6" d="M204.947 388.801h-15.311c-5.529 0-10.011 4.482-10.011 10.011v1.766h35.332v-1.766c.001-5.528-4.481-10.011-10.01-10.011z"/><path fill="#E6AF78" d="M331.431 301.271V260.38H226.28v40.891l52.576 46.734z"/><path fill="#707487" d="M412.724 320.399l-72.285-17.007c-1.092-.256-2.096-.693-3.036-1.222l-58.549 34.153-56.266-35.805a11.618 11.618 0 0 1-5.318 2.873l-72.285 17.007a23.367 23.367 0 0 0-18.016 22.747v45.752c0 6.453 5.231 11.683 11.683 11.683h280.402c6.453 0 11.683-5.231 11.683-11.683v-45.752c.003-10.843-7.457-20.261-18.013-22.746z"/><path fill="#D29B6E" d="M226.28 260.38v43.145c66.232 23.861 105.151-35.859 105.151-35.859v-7.286H226.28z"/><path fill="#F0C087" d="M202.915 126.021l5.091 111.994a35.053 35.053 0 0 0 13.984 26.449l24.154 18.116a35.046 35.046 0 0 0 21.029 7.01h23.367c7.583 0 14.964-2.46 21.029-7.01l24.154-18.116a35.051 35.051 0 0 0 13.984-26.449l5.091-111.994H202.915z"/><path fill="#E6AF78" d="M261.331 149.388c23.367 0 58.417-5.841 66.732-23.367H202.915l5.089 111.994a35.053 35.053 0 0 0 13.984 26.449l24.154 18.116a35.046 35.046 0 0 0 21.029 7.01h11.683c-11.683 0-35.05-23.367-35.05-52.576v-70.101c.002-5.842 5.843-17.525 17.527-17.525z"/><path d="M387.854 362.668l37.854-34.004a23.324 23.324 0 0 1 5.032 14.481v45.752c0 6.453-5.231 11.683-11.683 11.683h-40.891v-16.184a29.21 29.21 0 0 1 9.688-21.728zm-217.997 0l-37.854-34.004a23.324 23.324 0 0 0-5.032 14.481v45.752c0 6.453 5.231 11.683 11.683 11.683h40.891v-16.184a29.196 29.196 0 0 0-9.688-21.728zM293.46 400.58h-29.209l3.652-52.575h21.907z" fill="#5B5D6E"/><path fill="#515262" d="M293.46 336.322h-29.209v3.375c0 7.816 6.335 14.151 14.151 14.151h.906c7.816 0 14.151-6.335 14.151-14.151v-3.375h.001z"/><path d="M225.461 288.265l53.395 48.056s-14.954 7.548-33.409 22.764c-3.806 3.139-9.566 1.867-11.606-2.625l-25.086-55.19 7.936-11.904c1.976-2.962 6.121-3.483 8.77-1.101zm106.79 0l-53.395 48.056s14.954 7.548 33.409 22.764c3.806 3.139 9.566 1.867 11.606-2.625l25.086-55.19-7.936-11.904c-1.975-2.962-6.12-3.483-8.77-1.101z" fill="#5B5D6E"/><path fill="#785550" d="M314.271 87.32l5.477 38.702c24.999 4.999 28.602 44.232 29.121 55.438a11.522 11.522 0 0 0 1.846 5.708l9.539 14.795s-3.265-24.463 11.683-40.891c0-.001 5.132-97.119-57.666-73.752z"/><path fill="#F0C087" d="M366.116 199.464l-6.597 26.389a7.025 7.025 0 0 1-13.784-.831l-3.373-26.989c-.902-7.217 4.725-13.592 11.999-13.592h.024c7.865-.003 13.637 7.39 11.731 15.023z"/><path fill="#694B4B" d="M208.511 76.854l8.642 5.902c-39.065 28.844-31.764 78.315-31.764 78.315 11.683 11.683 11.683 40.891 11.683 40.891l11.683-11.683s-4.509-33.75 17.526-46.732c20.446-12.048 38.337-5.841 56.591-5.841 48.924 0 62.615-18.437 60.242-40.891-1.227-11.619-18.992-35.819-64.258-35.05-18.268.309-52.576 5.84-70.345 15.089z"/><path fill="#5A4146" d="M205.105 132.593s-6.207-24.463 12.048-49.837c-39.065 28.844-31.764 78.315-31.764 78.315 11.683 11.683 11.683 40.891 11.683 40.891l11.683-11.683s-4.509-33.75 17.526-46.732c20.446-12.048 38.337-5.841 56.591-5.841 7.957 0 14.891-.533 21.066-1.446-37.678 1.261-59.889-27.278-98.833-3.667z"/><path fill="#E6AF78" d="M191.597 199.464l6.597 26.389a7.025 7.025 0 0 0 13.784-.831l3.373-26.989c.902-7.217-4.725-13.592-11.999-13.592h-.024c-7.866-.003-13.639 7.39-11.731 15.023z"/><path fill="#5B5D6E" d="M348.957 388.898h-29.209c-6.453 0-11.683 5.231-11.683 11.683h52.576c-.002-6.452-5.233-11.683-11.684-11.683z"/></svg>