<?xml version="1.0" encoding="utf-8"?>
<!-- Generator: Adobe Illustrator 17.0.0, SVG Export Plug-In . SVG Version: 6.00 Build 0)  -->
<!DOCTYPE svg PUBLIC "-//W3C//DTD SVG 1.1//EN" "http://www.w3.org/Graphics/SVG/1.1/DTD/svg11.dtd">
<svg version="1.1" id="Layer_1" xmlns="http://www.w3.org/2000/svg" xmlns:xlink="http://www.w3.org/1999/xlink" x="0px" y="0px"
	 width="499.903px" height="472.66px" viewBox="0 0 499.903 472.66" enable-background="new 0 0 499.903 472.66"
	 xml:space="preserve">
<g>
	<path fill="#694B4B" d="M161.958,135.58c-93.211,0-82.876,113.351-82.449,195.493c0.016,3.102,1.641,5.899,4.299,7.501
		c10.329,6.227,38.696,20.784,78.152,20.784s67.822-14.557,78.152-20.784c2.657-1.601,4.282-4.398,4.299-7.501
		C244.834,248.932,255.169,135.58,161.958,135.58z"/>
	<path fill="#5A4146" d="M155.953,135.814c-86.69,4.861-76.86,114.945-76.444,195.259c0.016,3.102,1.641,5.899,4.299,7.501
		c10.329,6.227,38.696,20.784,78.152,20.784l23.556-164.889"/>
	<path fill="#694B4B" d="M161.958,135.58c-53,0-56.68,64.041-56.68,64.041c30.548-5.153,49.32,7.729,80.237-5.153l-23.556,164.889
		c39.457,0,67.822-14.557,78.152-20.784c2.657-1.601,4.282-4.398,4.299-7.501C244.834,248.932,255.169,135.58,161.958,135.58z"/>
	<path fill="#785550" d="M244.408,331.073c0.365-70.583,7.985-164.143-49.001-189.094c-0.993,5.164-2.795,19.578,1.885,28.935
		c11.778,23.556,23.556,23.556,35.332,41.221c11.778,64.778-22.504,133.531-33.89,142.892l0,0
		c20.174-4.797,34.635-12.39,41.376-16.453C242.766,336.971,244.392,334.175,244.408,331.073z"/>
	<path fill="#E6AF78" d="M251.196,348.939l-52.546-21.894c-4.388-1.829-7.247-6.116-7.247-10.872v-14.231h-58.889v14.231
		c0,4.756-2.859,9.043-7.247,10.872L72.72,348.939c-6.583,2.743-10.872,9.175-10.872,16.308v23.556
		c0,6.505,5.273,11.778,11.778,11.778h176.665c6.505,0,11.778-5.273,11.778-11.778v-23.556
		C262.068,358.114,257.781,351.682,251.196,348.939z"/>
	<path fill="#EFF2FA" d="M251.196,348.939l-50.806-21.17l-38.432,16.587l-38.432-16.587l-50.807,21.17
		c-6.583,2.743-10.872,9.175-10.872,16.308v23.556c0,6.505,5.273,11.778,11.778,11.778H250.29c6.505,0,11.778-5.273,11.778-11.778
		v-23.556C262.068,358.114,257.781,351.682,251.196,348.939z"/>
	<path fill="#D29B6E" d="M191.401,301.941h-58.889v14.231c0,4.756-2.859,9.043-7.247,10.872l-8.208,3.42
		C179.863,346.477,191.401,301.941,191.401,301.941z"/>
	<g>
		<path fill="#E4EAF6" d="M90.55,371.719l-23.638-18.802c-3.168,3.239-5.065,7.618-5.065,12.329v23.556
			c0,6.505,5.273,11.778,11.778,11.778h23.556v-15.065C97.181,380.148,94.741,375.072,90.55,371.719z"/>
		<path fill="#E4EAF6" d="M262.068,388.801v-23.556c0-4.674-1.867-9.024-4.99-12.255l-23.713,18.728
			c-4.191,3.352-6.629,8.428-6.629,13.795v15.065h23.556C256.795,400.579,262.068,395.306,262.068,388.801z"/>
		<path fill="#E4EAF6" d="M162.841,388.801h-1.766c-2.764,0-5.005-2.241-5.005-5.005V344.37h11.778v39.426
			C167.847,386.56,165.605,388.801,162.841,388.801z"/>
		<path fill="#E4EAF6" d="M161.958,344.357l-33.705-25.278c-2.164-1.623-5.246-1.095-6.746,1.155l-6.66,9.99l20.664,28.929
			c1.571,2.198,4.666,2.629,6.776,0.941L161.958,344.357z"/>
		<path fill="#E4EAF6" d="M161.958,344.357l33.705-25.278c2.164-1.623,5.246-1.095,6.746,1.155l6.66,9.99l-20.664,28.929
			c-1.571,2.198-4.666,2.629-6.776,0.941L161.958,344.357z"/>
	</g>
	<path fill="#F0C087" d="M191.401,188.58c-29.444,29.444-87.229,5.889-87.229,53l3.657,34.702
		c0.706,7.763,5.205,14.674,12.018,18.459l33.53,18.627c5.335,2.964,11.823,2.964,17.159,0l33.53-18.627
		c6.814-3.786,11.314-10.697,12.018-18.459l4.221-41.215c0.301-2.929,0.364-5.877,0.266-8.816
		C218.369,211.261,197.291,200.358,191.401,188.58z"/>
	<path fill="#E6AF78" d="M104.173,241.58l3.657,34.702c0.706,7.763,5.205,14.674,12.018,18.459l33.53,18.627
		c3.702,2.057,7.949,2.589,11.991,1.792l0,0c0,0-16.904-5.123-26.966-32.358c-3.082-8.343-7.361-52.509-3.681-57.908
		c7.275-10.67,47.846-11.778,59.835-31.571c-0.592-0.735-1.139-1.47-1.638-2.207c-0.04-0.059-0.089-0.119-0.129-0.179
		c-0.521-0.783-0.992-1.567-1.388-2.356C161.958,218.024,104.173,194.469,104.173,241.58z"/>
	<path fill="#E4EAF6" d="M204.947,388.801h-15.311c-5.529,0-10.011,4.482-10.011,10.011v1.766h35.332v-1.766
		C214.958,393.284,210.476,388.801,204.947,388.801z"/>
</g>
<polygon fill="#E6AF78" points="331.431,301.271 331.431,260.38 226.28,260.38 226.28,301.271 278.856,348.005 "/>
<path fill="#707487" d="M412.724,320.399l-72.285-17.007c-1.092-0.256-2.096-0.693-3.036-1.222l-58.549,34.153l-56.266-35.805
	c-1.457,1.372-3.263,2.39-5.318,2.873l-72.285,17.007c-10.556,2.483-18.016,11.902-18.016,22.747v45.752
	c0,6.453,5.231,11.683,11.683,11.683h280.402c6.453,0,11.683-5.231,11.683-11.683v-45.752
	C430.74,332.302,423.28,322.884,412.724,320.399z"/>
<path fill="#D29B6E" d="M226.28,260.38v43.145c66.232,23.861,105.151-35.859,105.151-35.859v-7.286H226.28z"/>
<path fill="#F0C087" d="M202.915,126.021l5.091,111.994c0.476,10.463,5.605,20.164,13.984,26.449l24.154,18.116
	c6.067,4.551,13.447,7.01,21.029,7.01h23.367c7.583,0,14.964-2.46,21.029-7.01l24.154-18.116
	c8.379-6.284,13.508-15.986,13.984-26.449l5.091-111.994H202.915z"/>
<path fill="#E6AF78" d="M261.331,149.388c23.367,0,58.417-5.841,66.732-23.367H202.915l5.089,111.994
	c0.476,10.463,5.605,20.164,13.984,26.449l24.154,18.116c6.067,4.551,13.447,7.01,21.029,7.01h11.683
	c-11.683,0-35.05-23.367-35.05-52.576c0-14.285,0-52.576,0-70.101C243.806,161.071,249.647,149.388,261.331,149.388z"/>
<g>
	<path fill="#5B5D6E" d="M387.854,362.668l37.854-34.004c3.172,4.016,5.032,9.07,5.032,14.481v45.752
		c0,6.453-5.231,11.683-11.683,11.683h-40.891v-16.184C378.165,376.106,381.689,368.209,387.854,362.668z"/>
	<path fill="#5B5D6E" d="M169.857,362.668l-37.854-34.004c-3.172,4.016-5.032,9.07-5.032,14.481v45.752
		c0,6.453,5.231,11.683,11.683,11.683h40.891v-16.184C179.548,376.106,176.024,368.209,169.857,362.668z"/>
	<polygon fill="#5B5D6E" points="293.46,400.58 264.251,400.58 267.903,348.005 289.81,348.005 	"/>
</g>
<path fill="#515262" d="M293.46,336.322h-29.209v3.375c0,7.816,6.335,14.151,14.151,14.151h0.906
	c7.816,0,14.151-6.335,14.151-14.151v-3.375H293.46z"/>
<g>
	<path fill="#5B5D6E" d="M225.461,288.265l53.395,48.056c0,0-14.954,7.548-33.409,22.764c-3.806,3.139-9.566,1.867-11.606-2.625
		l-25.086-55.19l7.936-11.904C218.667,286.404,222.812,285.883,225.461,288.265z"/>
	<path fill="#5B5D6E" d="M332.251,288.265l-53.395,48.056c0,0,14.954,7.548,33.409,22.764c3.806,3.139,9.566,1.867,11.606-2.625
		l25.086-55.19l-7.936-11.904C339.046,286.404,334.901,285.883,332.251,288.265z"/>
</g>
<path fill="#785550" d="M314.271,87.32l5.477,38.702c24.999,4.999,28.602,44.232,29.121,55.438c0.094,2.033,0.743,3.998,1.846,5.708
	l9.539,14.795c0,0-3.265-24.463,11.683-40.891C371.937,161.071,377.069,63.953,314.271,87.32z"/>
<path fill="#F0C087" d="M366.116,199.464l-6.597,26.389c-0.782,3.126-3.592,5.32-6.814,5.32l0,0c-3.542,0-6.53-2.638-6.97-6.151
	l-3.373-26.989c-0.902-7.217,4.725-13.592,11.999-13.592h0.024C362.25,184.438,368.022,191.831,366.116,199.464z"/>
<path fill="#694B4B" d="M208.511,76.854l8.642,5.902c-39.065,28.844-31.764,78.315-31.764,78.315
	c11.683,11.683,11.683,40.891,11.683,40.891l11.683-11.683c0,0-4.509-33.75,17.526-46.732c20.446-12.048,38.337-5.841,56.591-5.841
	c48.924,0,62.615-18.437,60.242-40.891c-1.227-11.619-18.992-35.819-64.258-35.05C260.588,62.074,226.28,67.605,208.511,76.854z"/>
<path fill="#5A4146" d="M205.105,132.593c0,0-6.207-24.463,12.048-49.837c-39.065,28.844-31.764,78.315-31.764,78.315
	c11.683,11.683,11.683,40.891,11.683,40.891l11.683-11.683c0,0-4.509-33.75,17.526-46.732c20.446-12.048,38.337-5.841,56.591-5.841
	c7.957,0,14.891-0.533,21.066-1.446C266.26,137.521,244.049,108.982,205.105,132.593z"/>
<path fill="#E6AF78" d="M191.597,199.464l6.597,26.389c0.782,3.126,3.592,5.32,6.814,5.32l0,0c3.542,0,6.53-2.638,6.97-6.151
	l3.373-26.989c0.902-7.217-4.725-13.592-11.999-13.592h-0.024C195.462,184.438,189.689,191.831,191.597,199.464z"/>
<path fill="#5B5D6E" d="M348.957,388.898h-29.209c-6.453,0-11.683,5.231-11.683,11.683l0,0h52.576l0,0
	C360.639,394.129,355.408,388.898,348.957,388.898z"/>
</svg>
