<svg xmlns="http://www.w3.org/2000/svg" width="2930.224" height="614.896" viewBox="0 0 2930.224 314.896"><path fill="#FFF" d="M540.575 227.894c13.006 0 26.011.015 39.017-.025 1.183-.004 1.683.214 1.879 1.526 1.365 9.147 1.226 18.278-.125 27.399-1.773 11.973-5.425 23.316-12.553 33.204-12.03 16.688-28.109 27.455-48.36 31.542-16.924 3.416-33.8 3.025-50.052-3.148-31.816-12.086-52.137-34.622-58.473-68.291-4.823-25.632 1.774-48.979 18.154-69.278 14.594-18.086 33.565-29.17 56.565-32.544 25.933-3.804 49.41 2.193 69.606 19.431 1.191 1.017 2.329 2.096 3.514 3.121.543.47.622.805.047 1.375a1988.374 1988.374 0 0 0-15.641 15.641c-.823.833-1.166.182-1.654-.255-6.611-5.913-13.996-10.577-22.491-13.209-37.195-11.528-74.106 10.241-81.772 47.238-4.79 23.118 1.236 43.527 18.076 60.276 9.985 9.931 22.268 15.579 36.3 17.072 13.506 1.437 26.513-.32 38.577-6.985 14.297-7.898 23.095-19.759 25.765-35.993.132-.8.15-1.638.406-2.395.536-1.588-.281-1.656-1.522-1.654-17.999.031-35.997.009-53.996.069-1.518.005-1.962-.353-1.942-1.912.09-6.792.079-13.586.006-20.378-.015-1.433.365-1.863 1.828-1.857 12.946.053 25.893.03 38.841.03zm406.321-12.841c0-1-.086-1.586-1.365-1.572-7.023.057-14.054.043-21.077.007-1.007-.007-1.307.35-1.279 1.315.05 2.208.029 4.416 0 6.623 0 .414.25 1-.372 1.186-.543.164-.822-.314-1.129-.65-1.293-1.422-2.679-2.737-4.23-3.873-11.003-8.052-23.3-9.76-36.253-6.738-27.172 6.33-47.056 33.474-42.548 63.89 2.822 19.02 13.097 33.238 30.066 42.312 11.325 6.052 23.371 7.724 35.882 4.258 6.609-1.836 12.382-5.187 17.033-10.332.329-.371.622-.922 1.265-.664.414.164.293.593.293.922-.05 5.502.314 11.032-.779 16.49-1.222 6.087-3.458 11.711-8.067 16.062-7.952 7.516-17.641 9.06-27.872 7.016-10.239-2.036-17.005-8.795-21.506-17.948-.572-1.157-1.007-1.343-2.186-.836a939.065 939.065 0 0 1-18.777 7.831c-1.272.514-1.343.972-.8 2.115 5.959 12.546 15.083 21.913 27.837 27.529 11.332 4.987 23.157 5.537 35.132 3.129 14.869-2.987 26.372-10.81 33.538-24.414 5.144-9.76 7.073-20.32 7.131-31.238.086-16.376.021-32.745.021-49.121h.029V237.7c-.002-7.55-.016-15.095.013-22.647zm-27.987 72.821c-10.853 16.812-34.817 17.855-47.635 2.415-5.652-6.802-8.217-14.683-8.245-23.2.121-9.66 2.922-18.091 9.474-24.986 14.897-15.69 39.183-12.089 48.492 7.424 6.188 12.975 5.795 26.136-2.086 38.347zm-269.827-77.822c-32.324.014-57.009 24.636-56.959 56.816.057 31.952 24.964 56.738 57.002 56.716 32.052-.014 56.931-24.807 56.959-56.759.028-32.166-24.686-56.788-57.002-56.773zm22.328 81.573c-15.947 16.59-43.084 10.81-51.715-10.803a38.39 38.39 0 0 1-2.022-6.995c-.443-2.344-.579-4.723-.6-7.116.2-11.61 4.208-21.478 13.811-28.43 17.741-12.832 42.627-3.965 48.635 17.455 3.723 13.268 1.7 25.693-8.109 35.889zm100.6-81.573c-32.324.043-56.988 24.686-56.909 56.866.086 31.959 25.014 56.738 57.038 56.673 32.059-.064 56.931-24.879 56.924-56.809-.001-32.166-24.744-56.766-57.053-56.73zm23.499 80.458c-15.919 17.727-43.913 12.575-52.851-9.717-1.822-4.537-2.601-9.253-2.629-14.568.164-10.353 3.73-19.727 12.225-26.715 13.733-11.303 33.61-8.967 44.599 5.08 10.188 13.018 9.581 33.76-1.344 45.92zm305.402-38.889c-2.615-6.702-5.28-13.375-9.503-19.291-9.989-13.99-23.193-22.142-40.733-22.278-16.248-.129-29.909 5.823-40.576 18.098-9.517 10.953-13.482 24-13.618 38.64.136 2.258.136 4.801.45 7.352 1.493 12.046 6.087 22.714 14.404 31.588 12.139 12.961 27.315 18.577 44.92 17.648 18.241-.957 32.402-9.46 43.22-23.935.672-.907.493-1.25-.379-1.822-5.623-3.687-11.232-7.402-16.776-11.203-1.208-.822-1.722-.672-2.558.486-4.658 6.43-10.524 11.31-18.405 13.189-13.89 3.308-27.486-.657-35.139-14.397-.715-1.279-.807-1.829.772-2.465 11.539-4.687 23.035-9.481 34.546-14.247 12.789-5.294 25.586-10.589 38.368-15.897.629-.259 1.5-.223 1.007-1.466zm-30.33-7.017c-9.81 4.008-19.584 8.088-29.373 12.153-6.152 2.551-12.318 5.08-18.455 7.674-1.129.472-1.593.5-1.593-.979.064-14.947 9.874-27.429 24.314-30.873a22.195 22.195 0 0 1 5.702-.586c5.98.064 11.425 1.665 16.09 5.552 1.672 1.386 2.951 3.079 4.058 4.951.65 1.115.508 1.594-.743 2.108zm-84.624-7.651c0 27.051-.011 54.102.03 81.154.002 1.516-.276 2.087-1.964 2.061-6.906-.106-13.815-.08-20.723-.014-1.327.013-1.645-.386-1.644-1.671.031-54.393.031-108.785-.001-163.178-.001-1.269.271-1.676 1.615-1.662a957.67 957.67 0 0 0 20.897-.002c1.444-.016 1.825.349 1.822 1.809-.045 27.168-.032 54.336-.032 81.503zm195.263-43.535h-49.771v124.55h27.729v-32.774h19.384c33.974 0 55.08-17.912 55.08-46.742 0-27.779-20.084-45.034-52.422-45.034zm-.757 68.02h-21.285v-44.077h21.285c15.454 0 25.443 8.281 25.443 21.092 0 13.961-9.989 22.985-25.443 22.985zm71.485-73.707v130.237h26.408V187.731h-26.408zm117.855 42.633v6.695l-3.301-2.108c-6.931-4.43-15.019-6.673-24.043-6.673-24.4 0-43.52 20.113-43.52 45.792 0 12.504 4.587 24.114 12.918 32.709 8.181 8.438 19.048 13.082 30.602 13.082 9.024 0 17.112-2.243 24.043-6.673l3.301-2.101v6.881h26.408v-87.604h-26.408zm0 58.71l-.514.6c-5.352 6.245-12.146 9.281-20.77 9.281-13.532 0-23.743-10.703-23.743-24.886 0-14.054 10.432-25.064 23.743-25.064 8.517 0 15.311 3.094 20.77 9.46l.514.607v30.002zm124.521-58.71l-25.2 59.796-27.801-59.796h-27.851l42.555 90.84-16.548 39.204h27.558l54.844-130.044h-27.557z"/><g fill="#FFF"><path d="M2005.803 316.757c-6.959-3.027-13.354-6.976-19.086-11.954-3.372-2.929-6.552-6.059-9.403-9.513-2.933-3.553-5.52-7.328-7.683-11.397-2.78-5.228-4.837-10.72-6.108-16.507-.585-2.661-1.16-5.322-1.299-8.054-.159-.278.004-.602-.127-.884l-.044-.798c-.163-.34.012-.719-.124-1.062l-.042-1.257c-.186-.585.027-1.199-.13-1.787-.119-2.2-.113-4.399.002-6.598.154-.579-.056-1.183.123-1.76l.044-1.115c.137-.35-.029-.735.124-1.084l.047-.777c.123-.296-.014-.626.122-.92.244-3.475.981-6.86 1.879-10.214a61.794 61.794 0 0 1 6.676-15.777c2.297-3.846 4.979-7.4 7.993-10.716 3.083-3.392 6.477-6.434 10.101-9.228a86.235 86.235 0 0 1 7.91-5.431c.917-.557.919-.556.245-1.429-.426-.552-.865-1.094-1.281-1.653a67.215 67.215 0 0 0-11.821-12.247 72.491 72.491 0 0 0-15.811-9.674c-4.806-2.158-9.778-3.793-14.882-5.06-4.052-1.006-8.174-1.621-12.298-2.223-.283-.133-.608.03-.887-.128l-.635-.043c-.302-.117-.637.011-.936-.125l-.924-.045c-.304-.113-.64.01-.941-.125l-1.257-.042c-.754-.161-1.528.063-2.28-.125a8.617 8.617 0 0 1-2.2 0c-.638.182-1.301-.029-1.942.123l-1.131.047c-.399.169-.834-.019-1.236.124-.886.122-1.771.262-2.659.364-5.349.614-10.554 1.888-15.716 3.377-4.321 1.247-8.54 2.788-12.765 4.318-5.445 1.971-10.916 3.869-16.471 5.514-1.675.496-3.344 1.042-5.104 1.183a5.735 5.735 0 0 1-2.003-.002c-.391-.01-.792.03-1.172-.039-3.293-.6-6.503-1.541-9.675-2.577a283.194 283.194 0 0 1-12.491-4.431 147.718 147.718 0 0 0-14.752-4.751c-3.567-.94-7.197-1.599-10.853-2.108-.302-.121-.638.01-.938-.128l-.922-.042c-.521-.153-1.07.052-1.59-.124l-2.553-.002c-.751.189-1.525-.036-2.278.125l-1.26.041c-.357.152-.747.001-1.107.124l-.92.047c-.301.135-.637.008-.941.126-2.516.363-5.035.7-7.532 1.2-6.191 1.239-12.134 3.218-17.852 5.877-2.725 1.267-5.344 2.735-7.912 4.297-3.411 2.074-6.672 4.366-9.724 6.933-2.298 1.932-4.503 3.966-6.546 6.189-1.677 1.825-3.325 3.661-4.9 5.577-3.125 3.8-5.776 7.919-8.207 12.171a81.399 81.399 0 0 0-3.909 7.838 118.97 118.97 0 0 0-2.902 7.339c-.867 2.411-1.584 4.861-2.259 7.328a96.727 96.727 0 0 0-1.945 8.599c-.382 2.147-.779 4.306-.91 6.495-.138.281.031.607-.13.884l-.042.638c-.129.285.029.609-.125.89l-.04.631c-.142.35.028.735-.126 1.083l-.049.946c-.126.358.028.746-.123 1.101l-.041 1.097c-.156.526.051 1.08-.128 1.604l-.043 1.609c-.169.984.074 1.986-.131 2.968l-.001 6.064c.204.926-.035 1.873.131 2.801l.041 1.936c.181.527-.023 1.086.13 1.615l.045 1.284c.164.405-.022.846.126 1.252l.04.925c.151.355-.003.745.125 1.104l.045.799c.151.282 0 .606.122.892l.049.792c.146.286-.001.61.121.899.127 1.141.289 2.282.39 3.42.125 1.408.293 2.824.549 4.192.392 2.098.729 4.21 1.144 6.305.551 2.778 1.071 5.569 1.744 8.314 1.074 4.38 2.253 8.738 3.663 13.029 1.339 4.074 2.646 8.158 4.189 12.162 1.271 3.297 2.542 6.592 3.996 9.814 1.105 2.448 2.146 4.927 3.318 7.343a191.635 191.635 0 0 0 5.325 10.136c1.577 2.809 3.246 5.561 4.938 8.302 2.149 3.481 4.512 6.82 6.922 10.117 2.709 3.706 5.456 7.385 8.339 10.964 2.743 3.404 5.573 6.725 8.576 9.897 1.615 1.706 3.369 3.266 5.121 4.832 2.434 2.176 4.972 4.204 7.704 5.989 2.157 1.409 4.408 2.677 6.783 3.647 3.096 1.265 6.307 2.212 9.68 2.448.304.115.641-.012.941.128l4.384-.003c.352-.153.739.002 1.095-.122l.798-.048c.282-.154.609.008.894-.129.585-.218 1.215-.142 1.809-.264 3.458-.712 6.905-1.467 10.248-2.633 2.208-.77 4.489-1.364 6.631-2.283 2.338-1.002 4.722-1.876 7.095-2.774 3.633-1.375 7.378-2.411 11.182-3.189 2.288-.468 4.575-.998 6.927-1.075.293-.138.622 0 .917-.122l.785-.046c.402-.165.839.019 1.244-.123.475-.044.948-.138 1.426-.038a39.43 39.43 0 0 1 5.424-.004c.427-.082.849-.005 1.271.043.399.145.833-.048 1.23.125.607-.096 1.206.085 1.78.178 1.612.261 3.23.509 4.838.799 2.835.512 5.613 1.236 8.356 2.059 4.255 1.277 8.333 3.066 12.491 4.623 2.202.825 4.423 1.588 6.676 2.229 3.479.99 6.998 1.856 10.623 2.16.286.128.612-.027.895.125l.796.042c.469.151.97-.045 1.438.129l3.043-.001c.41-.162.852.011 1.264-.122l.788-.049c.286-.147.615.006.903-.127.348-.065.695-.141 1.044-.195 4.031-.62 7.85-1.904 11.498-3.707 4.892-2.418 9.16-5.721 13.137-9.413 3.773-3.504 7.132-7.396 10.355-11.401 2.974-3.696 5.778-7.523 8.567-11.361 5.26-7.236 9.981-14.8 14.108-22.739 4.372-8.41 7.965-17.145 11.047-26.1.14-.403.128-.505-.315-.697zm-135.198-162.886c.163.406-.02.847.125 1.255l.045.765c.144.294-.017.635.141.927.49.229 1.03.08 1.534.2 1.521.084 3.041.091 4.562-.003l1.281-.046c.35-.151.735.011 1.086-.123l.631-.043c.281-.155.608.008.891-.129a54.25 54.25 0 0 0 9.336-2.234c2.286-.763 4.497-1.707 6.65-2.78 6.613-3.295 12.44-7.69 17.742-12.803a89.399 89.399 0 0 0 9.651-10.983c4.354-5.846 7.869-12.153 10.372-19.004 1.729-4.731 2.785-9.629 3.433-14.619.126-.291-.02-.618.123-.906l.05-.954c.136-.406-.043-.842.121-1.245l.047-1.629a42.648 42.648 0 0 0-.001-4.73l-.042-1.6c-.166-.413.015-.861-.13-1.275.014-.876-.315-1.374-1.285-1.172-.355.156-.749-.007-1.106.131l-.627.04c-.282.153-.61-.007-.895.128-1.048.178-2.096.35-3.142.534-5.977 1.05-11.664 3.016-17.162 5.534a85.877 85.877 0 0 0-8.338 4.409c-4.341 2.597-8.375 5.585-12.059 9.041-3.461 3.248-6.531 6.848-9.321 10.685-1.944 2.674-3.752 5.447-5.299 8.364-1.411 2.66-2.75 5.362-3.857 8.18-1.038 2.642-1.968 5.315-2.681 8.053-.738 2.834-1.363 5.702-1.578 8.637-.127.3.008.637-.13.936l-.04.755c-.154.466.044.963-.127 1.428l-.045 1.785a12.185 12.185 0 0 0 0 2.533c.013.653.028 1.306.044 1.958z"/><path d="M1938.423 89.517l-.001-4.73c.237 1.577.235 3.154.001 4.73zm-65.974 67.501l4.562-.003a15.038 15.038 0 0 1-4.562.003zm-1.89-7.637v2.533a4.696 4.696 0 0 1 0-2.533zm-53.662 8.468c-.753.167-1.517.122-2.278.125.745-.3 1.519-.082 2.278-.125zm118.451-.72c-.762-.006-1.527.045-2.28-.125.76.043 1.534-.176 2.28.125zm-61.503 14.924a3.216 3.216 0 0 1-2.002-.001l2.002.001zm57.023-15.049c-.639.175-1.291.137-1.942.123.632-.284 1.295-.09 1.942-.123zm30.889 89.941c-.023-.591-.06-1.183.123-1.76-.034.587.169 1.191-.123 1.76zm.129 8.385c-.213-.583-.135-1.187-.13-1.787.299.577.08 1.192.13 1.787zm-140.846-97.355c-.534.017-1.069.039-1.59-.124.531.028 1.079-.154 1.59.124zm49.692-11.807c.013.481.04.963-.127 1.428.029-.477-.163-.974.127-1.428zm-.127 7.703c.16.407.146.83.125 1.255-.276-.395-.1-.835-.125-1.255zm57.191 3.303c-.401.152-.818.144-1.236.124.389-.271.822-.1 1.236-.124zm10.584-73.987c-.175-.412-.138-.845-.13-1.275.282.401.094.85.13 1.275zm-.124 9.205c-.019-.421-.021-.84.121-1.245-.023.416.146.852-.121 1.245zm23.795 165.257c-.151-.341-.149-.7-.124-1.062.256.329.106.705.124 1.062zM1936.965 80.74c-.355.161-.73.148-1.106.131.342-.271.736-.101 1.106-.131zm24.959 163.33c-.025-.369-.041-.736.124-1.083-.017.363.139.747-.124 1.083zm-83.632-87.1c.348-.161.717-.142 1.086-.123-.337.261-.722.105-1.086.123zm-64.933 1.046c-.355.169-.733.132-1.107.124.344-.259.737-.095 1.107-.124zm66.65-1.212c.281-.153.584-.153.891-.129-.268.246-.59.117-.891.129zm-9.235-.912c.168.291.131.612.141.927-.274-.275-.125-.614-.141-.927zm.127-11.415c.016.32.034.64-.129.936.019-.315-.125-.653.129-.936zm66.645 12.819c-.321.016-.644.046-.941-.124.317.02.655-.121.941.124zm1.86.171c-.319.014-.64.037-.936-.125.315.018.652-.122.936.125zm1.522.171c-.305.024-.607.022-.887-.128.3.012.62-.115.887.128zm-2.845-63.386c-.022-.311-.029-.619.123-.906-.008.306.12.631-.123.906zm24.14 165.079c-.148-.28-.153-.58-.127-.884.239.266.114.585.127.884zm-26.991-178.419c-.284.143-.587.154-.895.128.27-.246.592-.118.895-.128zM1822.9 158.145c-.32.011-.641.034-.938-.127.316.02.654-.123.938.127zm-11.568.042c-.296.173-.619.143-.941.126.286-.248.625-.106.941-.126zm150.763 84.023c-.019-.314-.04-.629.122-.919-.009.31.122.639-.122.919z"/></g><path d="M2120.845 152.877a120.833 120.833 0 0 1 17.92-1.356c12.107 0 20.729 2.81 26.443 8.137 5.812 5.328 9.202 12.883 9.202 23.441 0 10.654-3.293 19.372-9.396 25.378-6.103 6.103-16.177 9.396-28.865 9.396-6.006 0-11.042-.291-15.305-.775v-64.221zm8.428 57.73c2.131.388 5.23.484 8.523.484 18.017 0 27.8-10.074 27.8-27.703.097-15.401-8.621-25.185-26.443-25.185-4.359 0-7.652.388-9.88.872v51.532zm98.607-17.144c0 17.338-12.011 24.894-23.344 24.894-12.689 0-22.473-9.299-22.473-24.119 0-15.691 10.268-24.894 23.247-24.894 13.465 0 22.57 9.783 22.57 24.119zm-37.195.484c0 10.267 5.908 18.016 14.238 18.016 8.137 0 14.239-7.651 14.239-18.21 0-7.942-3.972-18.017-14.045-18.017-10.074 0-14.432 9.299-14.432 18.211zm50.66-23.538l6.199 23.828c1.356 5.23 2.615 10.074 3.487 14.917h.291c1.065-4.746 2.615-9.783 4.165-14.82l7.651-23.925h7.168l7.265 23.44c1.744 5.618 3.1 10.559 4.165 15.305h.291c.775-4.746 2.034-9.687 3.584-15.207l6.684-23.538h8.427l-15.11 46.882h-7.749l-7.168-22.376c-1.646-5.23-3.003-9.88-4.165-15.4h-.193c-1.163 5.618-2.615 10.461-4.263 15.498l-7.555 22.278h-7.749l-14.143-46.882h8.718zm67.903 12.69c0-4.844-.098-8.814-.388-12.689h7.556l.484 7.749h.193c2.324-4.456 7.749-8.814 15.498-8.814 6.489 0 16.563 3.874 16.563 19.954v27.993h-8.524v-27.025c0-7.555-2.809-13.851-10.849-13.851-5.617 0-9.977 3.971-11.43 8.718-.387 1.065-.581 2.518-.581 3.971v28.188h-8.523v-34.194zm53.76-34.581h8.523v68.772h-8.523v-68.772zm65.285 44.945c0 17.338-12.011 24.894-23.344 24.894-12.689 0-22.473-9.299-22.473-24.119 0-15.691 10.268-24.894 23.247-24.894 13.465 0 22.57 9.783 22.57 24.119zm-37.195.484c0 10.267 5.908 18.016 14.238 18.016 8.137 0 14.239-7.651 14.239-18.21 0-7.942-3.972-18.017-14.045-18.017-10.074 0-14.432 9.299-14.432 18.211zm73.908 23.344l-.678-5.909h-.291c-2.615 3.681-7.652 6.975-14.336 6.975-9.492 0-14.335-6.684-14.335-13.464 0-11.333 10.073-17.532 28.187-17.436v-.969c0-3.874-1.065-10.849-10.654-10.849-4.359 0-8.912 1.356-12.205 3.487l-1.938-5.618c3.875-2.519 9.492-4.165 15.401-4.165 14.336 0 17.822 9.783 17.822 19.179v17.532c0 4.068.194 8.04.775 11.236h-7.748zm-1.26-23.926c-9.299-.193-19.856 1.453-19.856 10.559 0 5.521 3.681 8.137 8.04 8.137 6.102 0 9.977-3.875 11.333-7.847.29-.871.483-1.84.483-2.712v-8.137zm62.479-44.847v56.664c0 4.165.097 8.912.388 12.108h-7.652l-.388-8.137h-.193c-2.615 5.23-8.33 9.202-15.982 9.202-11.333 0-20.051-9.59-20.051-23.828-.097-15.595 9.59-25.185 21.02-25.185 7.168 0 12.011 3.391 14.142 7.168h.194v-27.993h8.522zm-8.524 40.973c0-1.065-.098-2.519-.388-3.584-1.26-5.424-5.909-9.88-12.302-9.88-8.814 0-14.045 7.749-14.045 18.113 0 9.492 4.649 17.339 13.852 17.339 5.715 0 10.945-3.778 12.495-10.171.29-1.162.388-2.325.388-3.681v-8.136zm85.628 3.972c0 17.338-12.011 24.894-23.344 24.894-12.689 0-22.473-9.299-22.473-24.119 0-15.691 10.268-24.894 23.247-24.894 13.465 0 22.57 9.783 22.57 24.119zm-37.195.484c0 10.267 5.908 18.016 14.238 18.016 8.137 0 14.239-7.651 14.239-18.21 0-7.942-3.972-18.017-14.045-18.017-10.074 0-14.432 9.299-14.432 18.211zm47.948-10.848c0-4.844-.098-8.814-.388-12.689h7.556l.484 7.749h.193c2.324-4.456 7.749-8.814 15.498-8.814 6.489 0 16.563 3.874 16.563 19.954v27.993h-8.524v-27.025c0-7.555-2.809-13.851-10.849-13.851-5.617 0-9.977 3.971-11.43 8.718-.387 1.065-.581 2.518-.581 3.971v28.188h-8.523v-34.194zm84.563-26.154v13.464h12.204v6.49h-12.204v25.281c0 5.812 1.646 9.104 6.393 9.104 2.228 0 3.874-.29 4.939-.581l.388 6.393c-1.646.679-4.262 1.163-7.555 1.163-3.972 0-7.168-1.26-9.202-3.584-2.422-2.519-3.294-6.684-3.294-12.205v-25.571h-7.265v-6.49h7.265v-11.236l8.331-2.228zm21.795-8.427h8.523v29.252h.194c1.355-2.421 3.486-4.553 6.102-6.005 2.519-1.453 5.521-2.422 8.718-2.422 6.296 0 16.37 3.874 16.37 20.051v27.896h-8.524v-26.928c0-7.556-2.809-13.948-10.849-13.948-5.521 0-9.88 3.874-11.43 8.523-.484 1.162-.581 2.422-.581 4.068v28.284h-8.523v-68.771zm58.506 46.881c.193 11.527 7.555 16.273 16.079 16.273 6.103 0 9.783-1.065 12.979-2.422l1.453 6.103c-3.003 1.356-8.137 2.906-15.595 2.906-14.433 0-23.054-9.493-23.054-23.635s8.33-25.281 21.988-25.281c15.304 0 19.372 13.464 19.372 22.085 0 1.743-.193 3.1-.29 3.971h-32.932zm24.99-6.101c.097-5.425-2.228-13.852-11.817-13.852-8.62 0-12.398 7.942-13.076 13.852h24.893zm-658.764 127.507l-11.99 36.314h-15.417l39.227-115.453h17.986l39.397 115.453h-15.93l-12.334-36.314h-40.939zm37.857-11.649l-11.306-33.231c-2.569-7.536-4.282-14.389-5.995-21.069h-.343c-1.713 6.853-3.597 13.875-5.824 20.898l-11.306 33.402h34.774zm47.281-7.879c0-10.621-.343-19.186-.686-27.065h13.532l.686 14.218h.343c6.166-10.106 15.93-16.102 29.462-16.102 20.042 0 35.116 16.958 35.116 42.139 0 29.806-18.157 44.536-37.686 44.536-10.963 0-20.555-4.796-25.522-13.018h-.343v45.05h-14.902v-89.758zm14.902 22.097c0 2.227.343 4.282.686 6.167 2.74 10.448 11.819 17.643 22.61 17.643 15.931 0 25.181-13.018 25.181-32.032 0-16.615-8.736-30.833-24.667-30.833-10.277 0-19.87 7.366-22.782 18.672-.514 1.884-1.027 4.11-1.027 6.166v14.217zm82.565-22.097c0-10.621-.343-19.186-.686-27.065h13.532l.686 14.218h.343c6.166-10.106 15.93-16.102 29.462-16.102 20.042 0 35.116 16.958 35.116 42.139 0 29.806-18.157 44.536-37.686 44.536-10.963 0-20.555-4.796-25.522-13.018h-.343v45.05h-14.902v-89.758zm14.902 22.097c0 2.227.343 4.282.686 6.167 2.74 10.448 11.819 17.643 22.61 17.643 15.931 0 25.181-13.018 25.181-32.032 0-16.615-8.736-30.833-24.667-30.833-10.277 0-19.87 7.366-22.782 18.672-.514 1.884-1.027 4.11-1.027 6.166v14.217zm117.336 15.588c6.681 4.111 16.444 7.537 26.722 7.537 15.246 0 24.153-8.051 24.153-19.699 0-10.792-6.167-16.958-21.755-22.953-18.843-6.681-30.49-16.444-30.49-32.718 0-17.986 14.902-31.348 37.342-31.348 11.819 0 20.385 2.741 25.523 5.653l-4.111 12.162c-3.769-2.056-11.477-5.481-21.926-5.481-15.759 0-21.754 9.421-21.754 17.301 0 10.792 7.022 16.102 22.953 22.269 19.527 7.537 29.463 16.958 29.463 33.916 0 17.815-13.189 33.231-40.426 33.231-11.134 0-23.296-3.255-29.463-7.365l3.769-12.505zm103.638-88.56v23.81h21.583v11.478h-21.583v44.708c0 10.277 2.912 16.102 11.306 16.102 3.939 0 6.852-.514 8.735-1.028l.686 11.306c-2.912 1.199-7.537 2.056-13.361 2.056-7.022 0-12.676-2.227-16.272-6.338-4.283-4.454-5.824-11.819-5.824-21.583v-45.222h-12.848v-11.478h12.848v-19.87l14.73-3.941zm112.542 64.578c0 30.662-21.241 44.022-41.282 44.022-22.44 0-39.741-16.444-39.741-42.652 0-27.749 18.157-44.022 41.111-44.022 23.809 0 39.912 17.301 39.912 42.652zm-65.778.857c0 18.157 10.448 31.861 25.18 31.861 14.389 0 25.181-13.532 25.181-32.204 0-14.046-7.023-31.86-24.838-31.86s-25.523 16.444-25.523 32.203zm84.792-15.759c0-9.764-.172-18.157-.686-25.866h13.189l.515 16.273h.685c3.769-11.134 12.848-18.157 22.954-18.157 1.713 0 2.911.171 4.282.514v14.218c-1.542-.343-3.084-.514-5.139-.514-10.621 0-18.158 8.051-20.213 19.356-.343 2.055-.686 4.453-.686 7.022v44.194h-14.902v-57.04zm62.696 18.328c.342 20.385 13.36 28.777 28.435 28.777 10.792 0 17.301-1.884 22.953-4.282l2.57 10.792c-5.311 2.398-14.39 5.139-27.579 5.139-25.522 0-40.769-16.787-40.769-41.796s14.731-44.708 38.885-44.708c27.064 0 34.259 23.81 34.259 39.056 0 3.083-.343 5.481-.514 7.022h-58.24zm44.193-10.791c.172-9.593-3.939-24.496-20.897-24.496-15.245 0-21.926 14.047-23.125 24.496h44.022zM325.586 233.682L150.993 132.879a17.245 17.245 0 0 0-17.246 0 17.252 17.252 0 0 0-8.615 14.934v201.6a17.246 17.246 0 0 0 8.615 14.927 17.233 17.233 0 0 0 8.623 2.308c2.972 0 5.951-.766 8.617-2.308l174.593-100.8a17.23 17.23 0 0 0 8.619-14.927 17.222 17.222 0 0 0-8.613-14.931z" fill="#FFF"/></svg>