<?xml version="1.0" encoding="utf-8"?>
<!-- Generator: Adobe Illustrator 17.0.0, SVG Export Plug-In . SVG Version: 6.00 Build 0)  -->
<!DOCTYPE svg PUBLIC "-//W3C//DTD SVG 1.1//EN" "http://www.w3.org/Graphics/SVG/1.1/DTD/svg11.dtd">
<svg version="1.1" id="Layer_1" xmlns="http://www.w3.org/2000/svg" xmlns:xlink="http://www.w3.org/1999/xlink" x="0px" y="0px"
	 width="2930.224px" height="614.896px" viewBox="0 0 2930.224 314.896" enable-background="new 0 0 2930.224 514.896"
	 xml:space="preserve">
<g>
	<path fill="#FFFFFF" d="M540.575,227.894c13.006,0,26.011,0.015,39.017-0.025c1.183-0.004,1.683,0.214,1.879,1.526
		c1.365,9.147,1.226,18.278-0.125,27.399c-1.773,11.973-5.425,23.316-12.553,33.204c-12.03,16.688-28.109,27.455-48.36,31.542
		c-16.924,3.416-33.8,3.025-50.052-3.148c-31.816-12.086-52.137-34.622-58.473-68.291c-4.823-25.632,1.774-48.979,18.154-69.278
		c14.594-18.086,33.565-29.17,56.565-32.544c25.933-3.804,49.41,2.193,69.606,19.431c1.191,1.017,2.329,2.096,3.514,3.121
		c0.543,0.47,0.622,0.805,0.047,1.375c-5.238,5.189-10.461,10.394-15.641,15.641c-0.823,0.833-1.166,0.182-1.654-0.255
		c-6.611-5.913-13.996-10.577-22.491-13.209c-37.195-11.528-74.106,10.241-81.772,47.238c-4.79,23.118,1.236,43.527,18.076,60.276
		c9.985,9.931,22.268,15.579,36.3,17.072c13.506,1.437,26.513-0.32,38.577-6.985c14.297-7.898,23.095-19.759,25.765-35.993
		c0.132-0.8,0.15-1.638,0.406-2.395c0.536-1.588-0.281-1.656-1.522-1.654c-17.999,0.031-35.997,0.009-53.996,0.069
		c-1.518,0.005-1.962-0.353-1.942-1.912c0.09-6.792,0.079-13.586,0.006-20.378c-0.015-1.433,0.365-1.863,1.828-1.857
		C514.68,227.917,527.627,227.894,540.575,227.894z"/>
	<path fill="#FFFFFF" d="M946.896,215.053c0-1-0.086-1.586-1.365-1.572c-7.023,0.057-14.054,0.043-21.077,0.007
		c-1.007-0.007-1.307,0.35-1.279,1.315c0.05,2.208,0.029,4.416,0,6.623c0,0.414,0.25,1-0.372,1.186
		c-0.543,0.164-0.822-0.314-1.129-0.65c-1.293-1.422-2.679-2.737-4.23-3.873c-11.003-8.052-23.3-9.76-36.253-6.738
		c-27.172,6.33-47.056,33.474-42.548,63.89c2.822,19.02,13.097,33.238,30.066,42.312c11.325,6.052,23.371,7.724,35.882,4.258
		c6.609-1.836,12.382-5.187,17.033-10.332c0.329-0.371,0.622-0.922,1.265-0.664c0.414,0.164,0.293,0.593,0.293,0.922
		c-0.05,5.502,0.314,11.032-0.779,16.49c-1.222,6.087-3.458,11.711-8.067,16.062c-7.952,7.516-17.641,9.06-27.872,7.016
		c-10.239-2.036-17.005-8.795-21.506-17.948c-0.572-1.157-1.007-1.343-2.186-0.836c-6.23,2.672-12.489,5.294-18.777,7.831
		c-1.272,0.514-1.343,0.972-0.8,2.115c5.959,12.546,15.083,21.913,27.837,27.529c11.332,4.987,23.157,5.537,35.132,3.129
		c14.869-2.987,26.372-10.81,33.538-24.414c5.144-9.76,7.073-20.32,7.131-31.238c0.086-16.376,0.021-32.745,0.021-49.121h0.029
		v-30.652C946.881,230.15,946.867,222.605,946.896,215.053z M918.909,287.874c-10.853,16.812-34.817,17.855-47.635,2.415
		c-5.652-6.802-8.217-14.683-8.245-23.2c0.121-9.66,2.922-18.091,9.474-24.986c14.897-15.69,39.183-12.089,48.492,7.424
		C927.183,262.502,926.79,275.663,918.909,287.874z"/>
	<path fill="#FFFFFF" d="M649.082,210.052c-32.324,0.014-57.009,24.636-56.959,56.816c0.057,31.952,24.964,56.738,57.002,56.716
		c32.052-0.014,56.931-24.807,56.959-56.759C706.112,234.659,681.398,210.037,649.082,210.052z M671.41,291.625
		c-15.947,16.59-43.084,10.81-51.715-10.803c-0.9-2.265-1.565-4.601-2.022-6.995c-0.443-2.344-0.579-4.723-0.6-7.116
		c0.2-11.61,4.208-21.478,13.811-28.43c17.741-12.832,42.627-3.965,48.635,17.455C683.242,269.004,681.219,281.429,671.41,291.625z"
		/>
	<path fill="#FFFFFF" d="M772.01,210.052c-32.324,0.043-56.988,24.686-56.909,56.866c0.086,31.959,25.014,56.738,57.038,56.673
		c32.059-0.064,56.931-24.879,56.924-56.809C829.062,234.616,804.319,210.016,772.01,210.052z M795.509,290.51
		c-15.919,17.727-43.913,12.575-52.851-9.717c-1.822-4.537-2.601-9.253-2.629-14.568c0.164-10.353,3.73-19.727,12.225-26.715
		c13.733-11.303,33.61-8.967,44.599,5.08C807.041,257.608,806.434,278.35,795.509,290.51z"/>
	<path fill="#FFFFFF" d="M1100.911,251.621c-2.615-6.702-5.28-13.375-9.503-19.291c-9.989-13.99-23.193-22.142-40.733-22.278
		c-16.248-0.129-29.909,5.823-40.576,18.098c-9.517,10.953-13.482,24-13.618,38.64c0.136,2.258,0.136,4.801,0.45,7.352
		c1.493,12.046,6.087,22.714,14.404,31.588c12.139,12.961,27.315,18.577,44.92,17.648c18.241-0.957,32.402-9.46,43.22-23.935
		c0.672-0.907,0.493-1.25-0.379-1.822c-5.623-3.687-11.232-7.402-16.776-11.203c-1.208-0.822-1.722-0.672-2.558,0.486
		c-4.658,6.43-10.524,11.31-18.405,13.189c-13.89,3.308-27.486-0.657-35.139-14.397c-0.715-1.279-0.807-1.829,0.772-2.465
		c11.539-4.687,23.035-9.481,34.546-14.247c12.789-5.294,25.586-10.589,38.368-15.897
		C1100.533,252.828,1101.404,252.864,1100.911,251.621z M1070.581,244.604c-9.81,4.008-19.584,8.088-29.373,12.153
		c-6.152,2.551-12.318,5.08-18.455,7.674c-1.129,0.472-1.593,0.5-1.593-0.979c0.064-14.947,9.874-27.429,24.314-30.873
		c1.879-0.443,3.773-0.636,5.702-0.586c5.98,0.064,11.425,1.665,16.09,5.552c1.672,1.386,2.951,3.079,4.058,4.951
		C1071.974,243.611,1071.832,244.09,1070.581,244.604z"/>
	<path fill="#FFFFFF" d="M985.957,236.953c0,27.051-0.011,54.102,0.03,81.154c0.002,1.516-0.276,2.087-1.964,2.061
		c-6.906-0.106-13.815-0.08-20.723-0.014c-1.327,0.013-1.645-0.386-1.644-1.671c0.031-54.393,0.031-108.785-0.001-163.178
		c-0.001-1.269,0.271-1.676,1.615-1.662c6.965,0.073,13.932,0.077,20.897-0.002c1.444-0.016,1.825,0.349,1.822,1.809
		C985.944,182.618,985.957,209.786,985.957,236.953z"/>
	<g>
		<g>
			<path fill="#FFFFFF" d="M1181.22,193.418h-49.771v124.55h27.729v-32.774h19.384c33.974,0,55.08-17.912,55.08-46.742
				C1233.642,210.673,1213.558,193.418,1181.22,193.418z M1180.463,261.438h-21.285v-44.077h21.285
				c15.454,0,25.443,8.281,25.443,21.092C1205.906,252.414,1195.917,261.438,1180.463,261.438z"/>
		</g>
		<g>
			<path fill="#FFFFFF" d="M1251.948,187.731v130.237h26.408V187.731H1251.948z"/>
		</g>
		<g>
			<path fill="#FFFFFF" d="M1369.803,230.364v6.695l-3.301-2.108c-6.931-4.43-15.019-6.673-24.043-6.673
				c-24.4,0-43.52,20.113-43.52,45.792c0,12.504,4.587,24.114,12.918,32.709c8.181,8.438,19.048,13.082,30.602,13.082
				c9.024,0,17.112-2.243,24.043-6.673l3.301-2.101v6.881h26.408v-87.604H1369.803z M1369.803,289.074l-0.514,0.6
				c-5.352,6.245-12.146,9.281-20.77,9.281c-13.532,0-23.743-10.703-23.743-24.886c0-14.054,10.432-25.064,23.743-25.064
				c8.517,0,15.311,3.094,20.77,9.46l0.514,0.607V289.074z"/>
		</g>
		<g>
			<path fill="#FFFFFF" d="M1494.324,230.364l-25.2,59.796l-27.801-59.796h-27.851l42.555,90.84l-16.548,39.204h27.558
				l54.844-130.044H1494.324z"/>
		</g>
	</g>
</g>
<g>
	<g>
		<path fill="#FFFFFF" d="M2005.803,316.757c-6.959-3.027-13.354-6.976-19.086-11.954c-3.372-2.929-6.552-6.059-9.403-9.513
			c-2.933-3.553-5.52-7.328-7.683-11.397c-2.78-5.228-4.837-10.72-6.108-16.507c-0.585-2.661-1.16-5.322-1.299-8.054
			c-0.159-0.278,0.004-0.602-0.127-0.884c-0.015-0.266-0.03-0.532-0.044-0.798c-0.163-0.34,0.012-0.719-0.124-1.062
			c-0.014-0.419-0.028-0.838-0.042-1.257c-0.186-0.585,0.027-1.199-0.13-1.787c-0.119-2.2-0.113-4.399,0.002-6.598
			c0.154-0.579-0.056-1.183,0.123-1.76c0.015-0.372,0.029-0.743,0.044-1.115c0.137-0.35-0.029-0.735,0.124-1.084
			c0.016-0.259,0.031-0.518,0.047-0.777c0.123-0.296-0.014-0.626,0.122-0.92c0.244-3.475,0.981-6.86,1.879-10.214
			c1.491-5.569,3.72-10.828,6.676-15.777c2.297-3.846,4.979-7.4,7.993-10.716c3.083-3.392,6.477-6.434,10.101-9.228
			c2.537-1.956,5.172-3.769,7.91-5.431c0.917-0.557,0.919-0.556,0.245-1.429c-0.426-0.552-0.865-1.094-1.281-1.653
			c-3.418-4.587-7.369-8.666-11.821-12.247c-4.85-3.901-10.123-7.12-15.811-9.674c-4.806-2.158-9.778-3.793-14.882-5.06
			c-4.052-1.006-8.174-1.621-12.298-2.223c-0.283-0.133-0.608,0.03-0.887-0.128c-0.212-0.014-0.423-0.029-0.635-0.043
			c-0.302-0.117-0.637,0.011-0.936-0.125c-0.308-0.015-0.616-0.03-0.924-0.045c-0.304-0.113-0.64,0.01-0.941-0.125
			c-0.419-0.014-0.838-0.028-1.257-0.042c-0.754-0.161-1.528,0.063-2.28-0.125c-0.733,0.094-1.466,0.094-2.2,0
			c-0.638,0.182-1.301-0.029-1.942,0.123c-0.377,0.016-0.754,0.031-1.131,0.047c-0.399,0.169-0.834-0.019-1.236,0.124
			c-0.886,0.122-1.771,0.262-2.659,0.364c-5.349,0.614-10.554,1.888-15.716,3.377c-4.321,1.247-8.54,2.788-12.765,4.318
			c-5.445,1.971-10.916,3.869-16.471,5.514c-1.675,0.496-3.344,1.042-5.104,1.183c-0.668,0.118-1.335,0.115-2.003-0.002
			c-0.391-0.01-0.792,0.03-1.172-0.039c-3.293-0.6-6.503-1.541-9.675-2.577c-4.199-1.371-8.358-2.864-12.491-4.431
			c-4.836-1.834-9.752-3.434-14.752-4.751c-3.567-0.94-7.197-1.599-10.853-2.108c-0.302-0.121-0.638,0.01-0.938-0.128
			c-0.307-0.014-0.615-0.028-0.922-0.042c-0.521-0.153-1.07,0.052-1.59-0.124c-0.851-0.001-1.702-0.001-2.553-0.002
			c-0.751,0.189-1.525-0.036-2.278,0.125c-0.42,0.014-0.84,0.028-1.26,0.041c-0.357,0.152-0.747,0.001-1.107,0.124
			c-0.307,0.016-0.613,0.031-0.92,0.047c-0.301,0.135-0.637,0.008-0.941,0.126c-2.516,0.363-5.035,0.7-7.532,1.2
			c-6.191,1.239-12.134,3.218-17.852,5.877c-2.725,1.267-5.344,2.735-7.912,4.297c-3.411,2.074-6.672,4.366-9.724,6.933
			c-2.298,1.932-4.503,3.966-6.546,6.189c-1.677,1.825-3.325,3.661-4.9,5.577c-3.125,3.8-5.776,7.919-8.207,12.171
			c-1.446,2.53-2.739,5.157-3.909,7.838c-1.053,2.414-2.011,4.86-2.902,7.339c-0.867,2.411-1.584,4.861-2.259,7.328
			c-0.777,2.838-1.431,5.709-1.945,8.599c-0.382,2.147-0.779,4.306-0.91,6.495c-0.138,0.281,0.031,0.607-0.13,0.884
			c-0.014,0.213-0.028,0.425-0.042,0.638c-0.129,0.285,0.029,0.609-0.125,0.89c-0.013,0.21-0.026,0.421-0.04,0.631
			c-0.142,0.35,0.028,0.735-0.126,1.083c-0.016,0.315-0.033,0.631-0.049,0.946c-0.126,0.358,0.028,0.746-0.123,1.101
			c-0.014,0.366-0.028,0.731-0.041,1.097c-0.156,0.526,0.051,1.08-0.128,1.604c-0.014,0.536-0.029,1.073-0.043,1.609
			c-0.169,0.984,0.074,1.986-0.131,2.968c0,2.021,0,4.043-0.001,6.064c0.204,0.926-0.035,1.873,0.131,2.801
			c0.014,0.645,0.027,1.291,0.041,1.936c0.181,0.527-0.023,1.086,0.13,1.615c0.015,0.428,0.03,0.856,0.045,1.284
			c0.164,0.405-0.022,0.846,0.126,1.252c0.013,0.308,0.027,0.617,0.04,0.925c0.151,0.355-0.003,0.745,0.125,1.104
			c0.015,0.266,0.03,0.533,0.045,0.799c0.151,0.282,0,0.606,0.122,0.892c0.016,0.264,0.033,0.528,0.049,0.792
			c0.146,0.286-0.001,0.61,0.121,0.899c0.127,1.141,0.289,2.282,0.39,3.42c0.125,1.408,0.293,2.824,0.549,4.192
			c0.392,2.098,0.729,4.21,1.144,6.305c0.551,2.778,1.071,5.569,1.744,8.314c1.074,4.38,2.253,8.738,3.663,13.029
			c1.339,4.074,2.646,8.158,4.189,12.162c1.271,3.297,2.542,6.592,3.996,9.814c1.105,2.448,2.146,4.927,3.318,7.343
			c1.666,3.434,3.456,6.806,5.325,10.136c1.577,2.809,3.246,5.561,4.938,8.302c2.149,3.481,4.512,6.82,6.922,10.117
			c2.709,3.706,5.456,7.385,8.339,10.964c2.743,3.404,5.573,6.725,8.576,9.897c1.615,1.706,3.369,3.266,5.121,4.832
			c2.434,2.176,4.972,4.204,7.704,5.989c2.157,1.409,4.408,2.677,6.783,3.647c3.096,1.265,6.307,2.212,9.68,2.448
			c0.304,0.115,0.641-0.012,0.941,0.128c1.461-0.001,2.923-0.002,4.384-0.003c0.352-0.153,0.739,0.002,1.095-0.122
			c0.266-0.016,0.532-0.032,0.798-0.048c0.282-0.154,0.609,0.008,0.894-0.129c0.585-0.218,1.215-0.142,1.809-0.264
			c3.458-0.712,6.905-1.467,10.248-2.633c2.208-0.77,4.489-1.364,6.631-2.283c2.338-1.002,4.722-1.876,7.095-2.774
			c3.633-1.375,7.378-2.411,11.182-3.189c2.288-0.468,4.575-0.998,6.927-1.075c0.293-0.138,0.622,0,0.917-0.122
			c0.262-0.015,0.523-0.031,0.785-0.046c0.402-0.165,0.839,0.019,1.244-0.123c0.475-0.044,0.948-0.138,1.426-0.038
			c1.808-0.131,3.616-0.122,5.424-0.004c0.427-0.082,0.849-0.005,1.271,0.043c0.399,0.145,0.833-0.048,1.23,0.125
			c0.607-0.096,1.206,0.085,1.78,0.178c1.612,0.261,3.23,0.509,4.838,0.799c2.835,0.512,5.613,1.236,8.356,2.059
			c4.255,1.277,8.333,3.066,12.491,4.623c2.202,0.825,4.423,1.588,6.676,2.229c3.479,0.99,6.998,1.856,10.623,2.16
			c0.286,0.128,0.612-0.027,0.895,0.125c0.265,0.014,0.53,0.028,0.796,0.042c0.469,0.151,0.97-0.045,1.438,0.129
			c1.014,0,2.029-0.001,3.043-0.001c0.41-0.162,0.852,0.011,1.264-0.122c0.263-0.016,0.526-0.033,0.788-0.049
			c0.286-0.147,0.615,0.006,0.903-0.127c0.348-0.065,0.695-0.141,1.044-0.195c4.031-0.62,7.85-1.904,11.498-3.707
			c4.892-2.418,9.16-5.721,13.137-9.413c3.773-3.504,7.132-7.396,10.355-11.401c2.974-3.696,5.778-7.523,8.567-11.361
			c5.26-7.236,9.981-14.8,14.108-22.739c4.372-8.41,7.965-17.145,11.047-26.1C2006.258,317.051,2006.246,316.949,2005.803,316.757z"
			/>
		<path fill="#FFFFFF" d="M1870.605,153.871c0.163,0.406-0.02,0.847,0.125,1.255c0.015,0.255,0.03,0.51,0.045,0.765
			c0.144,0.294-0.017,0.635,0.141,0.927c0.49,0.229,1.03,0.08,1.534,0.2c1.521,0.084,3.041,0.091,4.562-0.003
			c0.427-0.015,0.854-0.03,1.281-0.046c0.35-0.151,0.735,0.011,1.086-0.123c0.21-0.014,0.421-0.029,0.631-0.043
			c0.281-0.155,0.608,0.008,0.891-0.129c3.179-0.465,6.288-1.217,9.336-2.234c2.286-0.763,4.497-1.707,6.65-2.78
			c6.613-3.295,12.44-7.69,17.742-12.803c3.519-3.393,6.73-7.061,9.651-10.983c4.354-5.846,7.869-12.153,10.372-19.004
			c1.729-4.731,2.785-9.629,3.433-14.619c0.126-0.291-0.02-0.618,0.123-0.906c0.017-0.318,0.033-0.636,0.05-0.954
			c0.136-0.406-0.043-0.842,0.121-1.245c0.016-0.543,0.031-1.086,0.047-1.629c0.086-1.577,0.088-3.154-0.001-4.73
			c-0.014-0.533-0.028-1.066-0.042-1.6c-0.166-0.413,0.015-0.861-0.13-1.275c0.014-0.876-0.315-1.374-1.285-1.172
			c-0.355,0.156-0.749-0.007-1.106,0.131c-0.209,0.013-0.418,0.027-0.627,0.04c-0.282,0.153-0.61-0.007-0.895,0.128
			c-1.048,0.178-2.096,0.35-3.142,0.534c-5.977,1.05-11.664,3.016-17.162,5.534c-2.859,1.309-5.632,2.79-8.338,4.409
			c-4.341,2.597-8.375,5.585-12.059,9.041c-3.461,3.248-6.531,6.848-9.321,10.685c-1.944,2.674-3.752,5.447-5.299,8.364
			c-1.411,2.66-2.75,5.362-3.857,8.18c-1.038,2.642-1.968,5.315-2.681,8.053c-0.738,2.834-1.363,5.702-1.578,8.637
			c-0.127,0.3,0.008,0.637-0.13,0.936c-0.013,0.252-0.027,0.503-0.04,0.755c-0.154,0.466,0.044,0.963-0.127,1.428
			c-0.015,0.595-0.03,1.19-0.045,1.785c-0.088,0.844-0.088,1.688,0,2.533C1870.574,152.566,1870.589,153.219,1870.605,153.871z"/>
	</g>
	<path fill="#FFFFFF" d="M1938.423,89.517c0-1.577-0.001-3.154-0.001-4.73C1938.659,86.364,1938.657,87.941,1938.423,89.517z"/>
	<path fill="#FFFFFF" d="M1872.449,157.018c1.521-0.001,3.041-0.002,4.562-0.003C1875.49,157.251,1873.97,157.246,1872.449,157.018z
		"/>
	<path fill="#FFFFFF" d="M1870.559,149.381c0,0.844,0,1.688,0,2.533C1870.327,151.069,1870.327,150.225,1870.559,149.381z"/>
	<path fill="#FFFFFF" d="M1816.897,157.849c-0.753,0.167-1.517,0.122-2.278,0.125
		C1815.364,157.674,1816.138,157.892,1816.897,157.849z"/>
	<path fill="#FFFFFF" d="M1935.348,157.129c-0.762-0.006-1.527,0.045-2.28-0.125
		C1933.828,157.047,1934.602,156.828,1935.348,157.129z"/>
	<path fill="#FFFFFF" d="M1873.845,172.053c-0.667,0.217-1.335,0.208-2.002-0.001
		C1872.51,172.052,1873.177,172.052,1873.845,172.053z"/>
	<path fill="#FFFFFF" d="M1930.868,157.004c-0.639,0.175-1.291,0.137-1.942,0.123
		C1929.558,156.843,1930.221,157.037,1930.868,157.004z"/>
	<path fill="#FFFFFF" d="M1961.757,246.945c-0.023-0.591-0.06-1.183,0.123-1.76C1961.846,245.772,1962.049,246.376,1961.757,246.945
		z"/>
	<path fill="#FFFFFF" d="M1961.886,255.33c-0.213-0.583-0.135-1.187-0.13-1.787C1962.055,254.12,1961.836,254.735,1961.886,255.33z"
		/>
	<path fill="#FFFFFF" d="M1821.04,157.975c-0.534,0.017-1.069,0.039-1.59-0.124C1819.981,157.879,1820.529,157.697,1821.04,157.975z
		"/>
	<path fill="#FFFFFF" d="M1870.732,146.168c0.013,0.481,0.04,0.963-0.127,1.428C1870.634,147.119,1870.442,146.622,1870.732,146.168
		z"/>
	<path fill="#FFFFFF" d="M1870.605,153.871c0.16,0.407,0.146,0.83,0.125,1.255C1870.454,154.731,1870.63,154.291,1870.605,153.871z"
		/>
	<path fill="#FFFFFF" d="M1927.796,157.174c-0.401,0.152-0.818,0.144-1.236,0.124
		C1926.949,157.027,1927.382,157.198,1927.796,157.174z"/>
	<path fill="#FFFFFF" d="M1938.38,83.187c-0.175-0.412-0.138-0.845-0.13-1.275C1938.532,82.313,1938.344,82.762,1938.38,83.187z"/>
	<path fill="#FFFFFF" d="M1938.256,92.392c-0.019-0.421-0.021-0.84,0.121-1.245C1938.354,91.563,1938.523,91.999,1938.256,92.392z"
		/>
	<path fill="#FFFFFF" d="M1962.051,257.649c-0.151-0.341-0.149-0.7-0.124-1.062C1962.183,256.916,1962.033,257.292,1962.051,257.649
		z"/>
	<path fill="#FFFFFF" d="M1936.965,80.74c-0.355,0.161-0.73,0.148-1.106,0.131C1936.201,80.6,1936.595,80.77,1936.965,80.74z"/>
	<path fill="#FFFFFF" d="M1961.924,244.07c-0.025-0.369-0.041-0.736,0.124-1.083C1962.031,243.35,1962.187,243.734,1961.924,244.07z
		"/>
	<path fill="#FFFFFF" d="M1878.292,156.97c0.348-0.161,0.717-0.142,1.086-0.123C1879.041,157.108,1878.656,156.952,1878.292,156.97z
		"/>
	<path fill="#FFFFFF" d="M1813.359,158.016c-0.355,0.169-0.733,0.132-1.107,0.124
		C1812.596,157.881,1812.989,158.045,1813.359,158.016z"/>
	<path fill="#FFFFFF" d="M1880.009,156.804c0.281-0.153,0.584-0.153,0.891-0.129C1880.632,156.921,1880.31,156.792,1880.009,156.804
		z"/>
	<path fill="#FFFFFF" d="M1870.774,155.892c0.168,0.291,0.131,0.612,0.141,0.927C1870.641,156.544,1870.79,156.205,1870.774,155.892
		z"/>
	<path fill="#FFFFFF" d="M1870.901,144.477c0.016,0.32,0.034,0.64-0.129,0.936C1870.791,145.098,1870.647,144.76,1870.901,144.477z"
		/>
	<path fill="#FFFFFF" d="M1937.546,157.296c-0.321,0.016-0.644,0.046-0.941-0.124
		C1936.922,157.192,1937.26,157.051,1937.546,157.296z"/>
	<path fill="#FFFFFF" d="M1939.406,157.467c-0.319,0.014-0.64,0.037-0.936-0.125C1938.785,157.36,1939.122,157.22,1939.406,157.467z
		"/>
	<path fill="#FFFFFF" d="M1940.928,157.638c-0.305,0.024-0.607,0.022-0.887-0.128
		C1940.341,157.522,1940.661,157.395,1940.928,157.638z"/>
	<path fill="#FFFFFF" d="M1938.083,94.252c-0.022-0.311-0.029-0.619,0.123-0.906C1938.198,93.652,1938.326,93.977,1938.083,94.252z"
		/>
	<path fill="#FFFFFF" d="M1962.223,259.331c-0.148-0.28-0.153-0.58-0.127-0.884C1962.335,258.713,1962.21,259.032,1962.223,259.331z
		"/>
	<path fill="#FFFFFF" d="M1935.232,80.912c-0.284,0.143-0.587,0.154-0.895,0.128C1934.607,80.794,1934.929,80.922,1935.232,80.912z"
		/>
	<path fill="#FFFFFF" d="M1822.9,158.145c-0.32,0.011-0.641,0.034-0.938-0.127C1822.278,158.038,1822.616,157.895,1822.9,158.145z"
		/>
	<path fill="#FFFFFF" d="M1811.332,158.187c-0.296,0.173-0.619,0.143-0.941,0.126
		C1810.677,158.065,1811.016,158.207,1811.332,158.187z"/>
	<path fill="#FFFFFF" d="M1962.095,242.21c-0.019-0.314-0.04-0.629,0.122-0.919C1962.208,241.601,1962.339,241.93,1962.095,242.21z"
		/>
</g>
<g>
	<path fill="#FFFFFF" d="M2120.845,152.877c5.134-0.774,11.236-1.356,17.92-1.356c12.107,0,20.729,2.81,26.443,8.137
		c5.812,5.328,9.202,12.883,9.202,23.441c0,10.654-3.293,19.372-9.396,25.378c-6.103,6.103-16.177,9.396-28.865,9.396
		c-6.006,0-11.042-0.291-15.305-0.775V152.877z M2129.273,210.607c2.131,0.388,5.23,0.484,8.523,0.484
		c18.017,0,27.8-10.074,27.8-27.703c0.097-15.401-8.621-25.185-26.443-25.185c-4.359,0-7.652,0.388-9.88,0.872V210.607z"/>
	<path fill="#FFFFFF" d="M2227.88,193.463c0,17.338-12.011,24.894-23.344,24.894c-12.689,0-22.473-9.299-22.473-24.119
		c0-15.691,10.268-24.894,23.247-24.894C2218.775,169.344,2227.88,179.127,2227.88,193.463z M2190.685,193.947
		c0,10.267,5.908,18.016,14.238,18.016c8.137,0,14.239-7.651,14.239-18.21c0-7.942-3.972-18.017-14.045-18.017
		C2195.043,175.736,2190.685,185.035,2190.685,193.947z"/>
	<path fill="#FFFFFF" d="M2241.345,170.409l6.199,23.828c1.356,5.23,2.615,10.074,3.487,14.917h0.291
		c1.065-4.746,2.615-9.783,4.165-14.82l7.651-23.925h7.168l7.265,23.44c1.744,5.618,3.1,10.559,4.165,15.305h0.291
		c0.775-4.746,2.034-9.687,3.584-15.207l6.684-23.538h8.427l-15.11,46.882h-7.749l-7.168-22.376c-1.646-5.23-3.003-9.88-4.165-15.4
		h-0.193c-1.163,5.618-2.615,10.461-4.263,15.498l-7.555,22.278h-7.749l-14.143-46.882H2241.345z"/>
	<path fill="#FFFFFF" d="M2309.248,183.099c0-4.844-0.098-8.814-0.388-12.689h7.556l0.484,7.749h0.193
		c2.324-4.456,7.749-8.814,15.498-8.814c6.489,0,16.563,3.874,16.563,19.954v27.993h-8.524v-27.025
		c0-7.555-2.809-13.851-10.849-13.851c-5.617,0-9.977,3.971-11.43,8.718c-0.387,1.065-0.581,2.518-0.581,3.971v28.188h-8.523
		V183.099z"/>
	<path fill="#FFFFFF" d="M2363.008,148.518h8.523v68.772h-8.523V148.518z"/>
	<path fill="#FFFFFF" d="M2428.293,193.463c0,17.338-12.011,24.894-23.344,24.894c-12.689,0-22.473-9.299-22.473-24.119
		c0-15.691,10.268-24.894,23.247-24.894C2419.188,169.344,2428.293,179.127,2428.293,193.463z M2391.098,193.947
		c0,10.267,5.908,18.016,14.238,18.016c8.137,0,14.239-7.651,14.239-18.21c0-7.942-3.972-18.017-14.045-18.017
		C2395.456,175.736,2391.098,185.035,2391.098,193.947z"/>
	<path fill="#FFFFFF" d="M2465.006,217.291l-0.678-5.909h-0.291c-2.615,3.681-7.652,6.975-14.336,6.975
		c-9.492,0-14.335-6.684-14.335-13.464c0-11.333,10.073-17.532,28.187-17.436v-0.969c0-3.874-1.065-10.849-10.654-10.849
		c-4.359,0-8.912,1.356-12.205,3.487l-1.938-5.618c3.875-2.519,9.492-4.165,15.401-4.165c14.336,0,17.822,9.783,17.822,19.179
		v17.532c0,4.068,0.194,8.04,0.775,11.236H2465.006z M2463.746,193.365c-9.299-0.193-19.856,1.453-19.856,10.559
		c0,5.521,3.681,8.137,8.04,8.137c6.102,0,9.977-3.875,11.333-7.847c0.29-0.871,0.483-1.84,0.483-2.712V193.365z"/>
	<path fill="#FFFFFF" d="M2526.225,148.518v56.664c0,4.165,0.097,8.912,0.388,12.108h-7.652l-0.388-8.137h-0.193
		c-2.615,5.23-8.33,9.202-15.982,9.202c-11.333,0-20.051-9.59-20.051-23.828c-0.097-15.595,9.59-25.185,21.02-25.185
		c7.168,0,12.011,3.391,14.142,7.168h0.194v-27.993H2526.225z M2517.701,189.491c0-1.065-0.098-2.519-0.388-3.584
		c-1.26-5.424-5.909-9.88-12.302-9.88c-8.814,0-14.045,7.749-14.045,18.113c0,9.492,4.649,17.339,13.852,17.339
		c5.715,0,10.945-3.778,12.495-10.171c0.29-1.162,0.388-2.325,0.388-3.681V189.491z"/>
	<path fill="#FFFFFF" d="M2603.329,193.463c0,17.338-12.011,24.894-23.344,24.894c-12.689,0-22.473-9.299-22.473-24.119
		c0-15.691,10.268-24.894,23.247-24.894C2594.224,169.344,2603.329,179.127,2603.329,193.463z M2566.134,193.947
		c0,10.267,5.908,18.016,14.238,18.016c8.137,0,14.239-7.651,14.239-18.21c0-7.942-3.972-18.017-14.045-18.017
		C2570.492,175.736,2566.134,185.035,2566.134,193.947z"/>
	<path fill="#FFFFFF" d="M2614.082,183.099c0-4.844-0.098-8.814-0.388-12.689h7.556l0.484,7.749h0.193
		c2.324-4.456,7.749-8.814,15.498-8.814c6.489,0,16.563,3.874,16.563,19.954v27.993h-8.524v-27.025
		c0-7.555-2.809-13.851-10.849-13.851c-5.617,0-9.977,3.971-11.43,8.718c-0.387,1.065-0.581,2.518-0.581,3.971v28.188h-8.523
		V183.099z"/>
	<path fill="#FFFFFF" d="M2698.645,156.945v13.464h12.204v6.49h-12.204v25.281c0,5.812,1.646,9.104,6.393,9.104
		c2.228,0,3.874-0.29,4.939-0.581l0.388,6.393c-1.646,0.679-4.262,1.163-7.555,1.163c-3.972,0-7.168-1.26-9.202-3.584
		c-2.422-2.519-3.294-6.684-3.294-12.205v-25.571h-7.265v-6.49h7.265v-11.236L2698.645,156.945z"/>
	<path fill="#FFFFFF" d="M2720.44,148.518h8.523v29.252h0.194c1.355-2.421,3.486-4.553,6.102-6.005
		c2.519-1.453,5.521-2.422,8.718-2.422c6.296,0,16.37,3.874,16.37,20.051v27.896h-8.524v-26.928c0-7.556-2.809-13.948-10.849-13.948
		c-5.521,0-9.88,3.874-11.43,8.523c-0.484,1.162-0.581,2.422-0.581,4.068v28.284h-8.523V148.518z"/>
	<path fill="#FFFFFF" d="M2778.946,195.399c0.193,11.527,7.555,16.273,16.079,16.273c6.103,0,9.783-1.065,12.979-2.422l1.453,6.103
		c-3.003,1.356-8.137,2.906-15.595,2.906c-14.433,0-23.054-9.493-23.054-23.635s8.33-25.281,21.988-25.281
		c15.304,0,19.372,13.464,19.372,22.085c0,1.743-0.193,3.1-0.29,3.971H2778.946z M2803.936,189.298
		c0.097-5.425-2.228-13.852-11.817-13.852c-8.62,0-12.398,7.942-13.076,13.852H2803.936z"/>
</g>
<g>
	<path fill="#FFFFFF" d="M2145.172,316.805l-11.99,36.314h-15.417l39.227-115.453h17.986l39.397,115.453h-15.93l-12.334-36.314
		H2145.172z M2183.029,305.156l-11.306-33.231c-2.569-7.536-4.282-14.389-5.995-21.069h-0.343
		c-1.713,6.853-3.597,13.875-5.824,20.898l-11.306,33.402H2183.029z"/>
	<path fill="#FFFFFF" d="M2230.31,297.277c0-10.621-0.343-19.186-0.686-27.065h13.532l0.686,14.218h0.343
		c6.166-10.106,15.93-16.102,29.462-16.102c20.042,0,35.116,16.958,35.116,42.139c0,29.806-18.157,44.536-37.686,44.536
		c-10.963,0-20.555-4.796-25.522-13.018h-0.343v45.05h-14.902V297.277z M2245.212,319.374c0,2.227,0.343,4.282,0.686,6.167
		c2.74,10.448,11.819,17.643,22.61,17.643c15.931,0,25.181-13.018,25.181-32.032c0-16.615-8.736-30.833-24.667-30.833
		c-10.277,0-19.87,7.366-22.782,18.672c-0.514,1.884-1.027,4.11-1.027,6.166V319.374z"/>
	<path fill="#FFFFFF" d="M2327.777,297.277c0-10.621-0.343-19.186-0.686-27.065h13.532l0.686,14.218h0.343
		c6.166-10.106,15.93-16.102,29.462-16.102c20.042,0,35.116,16.958,35.116,42.139c0,29.806-18.157,44.536-37.686,44.536
		c-10.963,0-20.555-4.796-25.522-13.018h-0.343v45.05h-14.902V297.277z M2342.679,319.374c0,2.227,0.343,4.282,0.686,6.167
		c2.74,10.448,11.819,17.643,22.61,17.643c15.931,0,25.181-13.018,25.181-32.032c0-16.615-8.736-30.833-24.667-30.833
		c-10.277,0-19.87,7.366-22.782,18.672c-0.514,1.884-1.027,4.11-1.027,6.166V319.374z"/>
	<path fill="#FFFFFF" d="M2460.015,334.962c6.681,4.111,16.444,7.537,26.722,7.537c15.246,0,24.153-8.051,24.153-19.699
		c0-10.792-6.167-16.958-21.755-22.953c-18.843-6.681-30.49-16.444-30.49-32.718c0-17.986,14.902-31.348,37.342-31.348
		c11.819,0,20.385,2.741,25.523,5.653l-4.111,12.162c-3.769-2.056-11.477-5.481-21.926-5.481c-15.759,0-21.754,9.421-21.754,17.301
		c0,10.792,7.022,16.102,22.953,22.269c19.527,7.537,29.463,16.958,29.463,33.916c0,17.815-13.189,33.231-40.426,33.231
		c-11.134,0-23.296-3.255-29.463-7.365L2460.015,334.962z"/>
	<path fill="#FFFFFF" d="M2563.653,246.402v23.81h21.583v11.478h-21.583v44.708c0,10.277,2.912,16.102,11.306,16.102
		c3.939,0,6.852-0.514,8.735-1.028l0.686,11.306c-2.912,1.199-7.537,2.056-13.361,2.056c-7.022,0-12.676-2.227-16.272-6.338
		c-4.283-4.454-5.824-11.819-5.824-21.583v-45.222h-12.848v-11.478h12.848v-19.87L2563.653,246.402z"/>
	<path fill="#FFFFFF" d="M2676.195,310.98c0,30.662-21.241,44.022-41.282,44.022c-22.44,0-39.741-16.444-39.741-42.652
		c0-27.749,18.157-44.022,41.111-44.022C2660.092,268.328,2676.195,285.629,2676.195,310.98z M2610.417,311.837
		c0,18.157,10.448,31.861,25.18,31.861c14.389,0,25.181-13.532,25.181-32.204c0-14.046-7.023-31.86-24.838-31.86
		S2610.417,296.078,2610.417,311.837z"/>
	<path fill="#FFFFFF" d="M2695.209,296.078c0-9.764-0.172-18.157-0.686-25.866h13.189l0.515,16.273h0.685
		c3.769-11.134,12.848-18.157,22.954-18.157c1.713,0,2.911,0.171,4.282,0.514v14.218c-1.542-0.343-3.084-0.514-5.139-0.514
		c-10.621,0-18.158,8.051-20.213,19.356c-0.343,2.055-0.686,4.453-0.686,7.022v44.194h-14.902V296.078z"/>
	<path fill="#FFFFFF" d="M2757.905,314.406c0.342,20.385,13.36,28.777,28.435,28.777c10.792,0,17.301-1.884,22.953-4.282
		l2.57,10.792c-5.311,2.398-14.39,5.139-27.579,5.139c-25.522,0-40.769-16.787-40.769-41.796s14.731-44.708,38.885-44.708
		c27.064,0,34.259,23.81,34.259,39.056c0,3.083-0.343,5.481-0.514,7.022H2757.905z M2802.098,303.615
		c0.172-9.593-3.939-24.496-20.897-24.496c-15.245,0-21.926,14.047-23.125,24.496H2802.098z"/>
</g>
<g>
	<path fill="#FFFFFF" d="M325.586,233.682L150.993,132.879c-5.337-3.081-11.903-3.081-17.246,0
		c-5.328,3.078-8.615,8.775-8.615,14.934v201.6c0,6.161,3.293,11.853,8.615,14.927c2.674,1.542,5.646,2.308,8.623,2.308
		c2.972,0,5.951-0.766,8.617-2.308l174.593-100.8c5.335-3.076,8.619-8.77,8.619-14.927
		C334.209,242.456,330.919,236.764,325.586,233.682z"/>
</g>
</svg>
