<?xml version="1.0" encoding="utf-8"?>
<!-- Generator: Adobe Illustrator 17.0.0, SVG Export Plug-In . SVG Version: 6.00 Build 0)  -->
<!DOCTYPE svg PUBLIC "-//W3C//DTD SVG 1.1//EN" "http://www.w3.org/Graphics/SVG/1.1/DTD/svg11.dtd">
<svg version="1.1" xmlns="http://www.w3.org/2000/svg" xmlns:xlink="http://www.w3.org/1999/xlink" x="0px" y="0px" width="800px"
	 height="300px" viewBox="-390 0 7 830" enable-background="new 0 0 800 800" xml:space="preserve">
<g id="_x38_00x800">
	<g>
		<circle fill="#AAEAF9" cx="649.626" cy="579.214" r="30.523"/>

			<text transform="matrix(0.9184 -0.3956 0.3956 0.9184 648.0247 602.3643)" fill="#FFFFFF" font-family="'Quicksand-Bold'" font-size="57.1315">?</text>
	</g>
	<g>
		<path fill="#AAEAF9" d="M421.658,618.843c0.947,2.163-0.047,4.706-2.21,5.656l-19.215,8.422c-2.163,0.946-4.709-0.048-5.653-2.208
			l-1.879-4.283c-0.946-2.162,0.048-4.705,2.209-5.655l19.217-8.42c2.162-0.951,4.707,0.045,5.655,2.208L421.658,618.843z"/>
		<g>
			<g>
				<g>

						<rect x="371.67" y="532.857" transform="matrix(-0.9159 0.4014 -0.4014 -0.9159 971.2915 947.1108)" fill="#FCC05E" width="29.532" height="84.882"/>
					<g>
						<polygon fill="#FCE9D0" points="361.856,519.207 382.925,530.499 355.877,542.352 						"/>
						<polygon fill="#54667A" points="369.33,523.216 361.856,519.207 359.733,527.419 						"/>
					</g>

						<rect x="372.491" y="536.774" transform="matrix(-0.9159 0.4014 -0.4014 -0.9159 955.7509 958.1859)" fill="#F9DCB2" width="10.013" height="84.883"/>

						<rect x="390.398" y="528.927" transform="matrix(-0.9159 0.4013 -0.4013 -0.9159 986.8786 936.0134)" fill="#F9DCB2" width="10.013" height="84.883"/>
				</g>
			</g>

				<rect x="390.18" y="613.857" transform="matrix(0.9159 -0.4013 0.4013 0.9159 -213.7861 214.4292)" fill="#FFFDFF" width="29.563" height="7.354"/>
		</g>
	</g>
	<g>
		<circle fill="#AAEAF9" cx="412.392" cy="701.635" r="30.523"/>

			<text transform="matrix(0.9994 -0.0342 0.0342 0.9994 402.4374 722.6237)" fill="#FFFFFF" font-family="'Quicksand-Bold'" font-size="57.1315">?</text>
	</g>
	<g>
		<g>
			<g>
				<path fill="#FCC05E" d="M531.647,748.825c5.324-14.44-2.065-30.462-16.505-35.786c-14.441-5.324-30.462,2.066-35.786,16.507
					c-2.874,7.796-2.017,16.042,1.629,22.826c2.461,8.151,0.604,17.958,0.604,17.958l10.942,4.035l10.943,4.034
					c0,0,4.952-8.663,12.115-13.268C522.769,762.337,528.772,756.623,531.647,748.825z"/>
				<g>
					<path fill="#84DCF4" d="M508.096,783.474c-0.555,1.504-2.241,2.281-3.745,1.727l-27.843-10.266
						c-1.504-0.555-2.282-2.24-1.727-3.744l0.308-0.84c0.556-1.504,2.241-2.281,3.745-1.727l27.844,10.266
						c1.505,0.555,2.281,2.24,1.728,3.745L508.096,783.474z"/>
					<path fill="#84DCF4" d="M505.77,789.784c-0.555,1.505-2.241,2.281-3.746,1.727l-27.842-10.265
						c-1.505-0.555-2.282-2.24-1.727-3.744l0.309-0.839c0.555-1.505,2.241-2.282,3.745-1.727l27.843,10.266
						c1.504,0.555,2.282,2.24,1.728,3.745L505.77,789.784z"/>
					<path fill="#84DCF4" d="M503.442,796.094c-0.555,1.505-2.24,2.281-3.745,1.727l-27.843-10.265
						c-1.505-0.556-2.282-2.241-1.727-3.744l0.308-0.839c0.556-1.505,2.241-2.282,3.746-1.728l27.842,10.265
						c1.505,0.555,2.283,2.241,1.728,3.745L503.442,796.094z"/>
				</g>
			</g>
			<g>
				<g>
					<path fill="#DD690A" d="M497.704,737.878c-1.105,6.095-2.149,12.202-3.133,18.317c-0.644,4.003-1.269,8.014-1.705,12.044
						c-0.103,0.96-0.691,3.297,0.248,4.056c1.467,1.185,16.287-26.386,17.948-29.493c0.381-0.712-0.647-1.458-1.031-0.739
						c-2.326,4.352-4.692,8.683-7.083,13.001c-2.801,5.059-5.474,12-9.649,16.115c0.59-0.58,0.629,0.547,0.662-0.709
						c0.015-0.506,0.066-1.012,0.108-1.516c0.127-1.435,0.323-2.863,0.513-4.291c0.507-3.787,1.12-7.562,1.737-11.333
						c0.839-5.123,1.725-10.239,2.65-15.346C499.116,737.181,497.849,737.078,497.704,737.878L497.704,737.878z"/>
				</g>
				<g>
					<path fill="#DD690A" d="M492.589,743.104c6.639,2.448,13.274,4.895,19.913,7.342c0.768,0.284,1.208-0.907,0.439-1.191
						c-6.639-2.447-13.274-4.894-19.913-7.342C492.259,741.628,491.819,742.82,492.589,743.104L492.589,743.104z"/>
				</g>
			</g>
		</g>
	</g>
	<g>
		<path fill="#84DCF4" d="M507.026,518.158c0.172-1.442-0.888-2.792-2.33-2.966c-15.882-1.903-31.761-3.808-47.643-5.712
			c-1.443-0.173-2.79,0.887-2.963,2.329c-1.904,15.878-3.809,31.761-5.713,47.64c-0.172,1.446,0.886,2.794,2.329,2.966
			c15.882,1.904,31.761,3.809,47.642,5.714c0.779,0.093,1.408-0.12,1.881-0.494c0.028-0.021,0.052-0.038,0.079-0.061
			c0.026-0.024,0.054-0.041,0.081-0.067c0.477-0.375,0.831-0.932,0.925-1.711C503.218,549.918,505.122,534.036,507.026,518.158z
			 M496.337,562.519c-14.116-1.692-28.235-3.385-42.35-5.077c1.692-14.119,3.385-28.234,5.079-42.351
			c14.115,1.693,28.234,3.386,42.349,5.079C499.723,534.284,498.029,548.4,496.337,562.519z"/>
		<path fill="#84DCF4" d="M460.157,536.448c3.351,4.879,6.706,9.754,10.058,14.633c0.847,1.234,2.622,1.253,3.742,0.449
			c7.704-5.521,15.406-11.043,23.108-16.562c2.798-2.005-0.507-6.19-3.294-4.191c-6.936,4.973-13.871,9.941-20.808,14.914
			c-2.871-4.182-5.745-8.358-8.616-12.536C462.396,530.316,458.216,533.631,460.157,536.448z"/>
	</g>
	<g>
		<g>
			<g>
				<polygon fill="#536579" points="590.352,574.588 606.301,606.286 582.536,598.524 				"/>
				<g>
					<polygon fill="#F9DCB2" points="590.352,574.588 522.227,552.338 482.352,674.435 574.243,704.446 606.301,606.286
						582.536,598.524 					"/>
				</g>
			</g>
		</g>
		<g>
			<g>
				<g>

						<rect x="515.677" y="594.821" transform="matrix(0.9506 0.3104 -0.3104 0.9506 211.829 -139.3667)" fill="#F2A22F" width="56.131" height="1.935"/>
				</g>
				<g>

						<rect x="513.674" y="600.956" transform="matrix(0.9506 0.3105 -0.3105 0.9506 213.6385 -138.4432)" fill="#F2A22F" width="56.13" height="1.937"/>
				</g>
				<g>

						<rect x="512.157" y="604.037" transform="matrix(0.9506 0.3104 -0.3104 0.9506 214.0287 -134.7623)" fill="#F2A22F" width="36.445" height="1.935"/>
				</g>
			</g>
			<g>
				<path fill="#F2A22F" d="M598.985,609.758c0.137-0.419-0.099-0.881-0.518-1.018c-6.543-2.138-13.089-4.275-19.633-6.412
					c-0.418-0.137-0.881,0.099-1.018,0.517c-2.137,6.544-4.274,13.089-6.412,19.633c-0.136,0.418,0.098,0.881,0.517,1.018
					c6.544,2.138,13.089,4.274,19.634,6.412c0.226,0.073,0.424,0.047,0.587-0.036c0.01-0.004,0.018-0.009,0.028-0.013
					c0.01-0.005,0.019-0.01,0.026-0.015c0.163-0.083,0.302-0.228,0.376-0.453C594.71,622.846,596.848,616.302,598.985,609.758z
					 M591.29,628.123c-6.033-1.971-12.067-3.941-18.1-5.912c1.971-6.033,3.94-12.066,5.911-18.099
					c6.032,1.97,12.065,3.94,18.099,5.911C595.23,616.057,593.26,622.09,591.29,628.123z"/>
				<path fill="#536579" d="M592.813,613.331c-3.732,1.673-7.463,3.347-11.193,5.018c-0.518-1.187-1.035-2.375-1.553-3.562
					c-0.627-1.435-2.781-0.331-2.159,1.095c0.671,1.54,1.343,3.079,2.013,4.618c0.272,0.627,1.053,0.789,1.627,0.531
					c4.12-1.847,8.24-3.693,12.361-5.541C595.336,614.851,594.233,612.694,592.813,613.331z"/>
			</g>
		</g>
		<g>
			<g>
				<g>

						<rect x="506.364" y="623.338" transform="matrix(0.9506 0.3104 -0.3104 0.9506 220.2105 -135.0616)" fill="#F2A22F" width="56.131" height="1.936"/>
				</g>
				<g>

						<rect x="504.36" y="629.475" transform="matrix(0.9506 0.3104 -0.3104 0.9506 222.028 -134.1411)" fill="#F2A22F" width="56.131" height="1.937"/>
				</g>
				<g>

						<rect x="502.843" y="632.555" transform="matrix(0.9506 0.3104 -0.3104 0.9506 222.4191 -130.4608)" fill="#F2A22F" width="36.446" height="1.936"/>
				</g>
			</g>
			<g>
				<path fill="#F2A22F" d="M589.671,638.275c0.137-0.418-0.098-0.882-0.516-1.018c-6.545-2.139-13.09-4.275-19.634-6.413
					c-0.419-0.136-0.881,0.099-1.018,0.518c-2.138,6.544-4.274,13.089-6.411,19.634c-0.137,0.416,0.098,0.88,0.516,1.016
					c6.544,2.139,13.09,4.275,19.634,6.412c0.226,0.074,0.423,0.049,0.587-0.035c0.01-0.004,0.019-0.009,0.027-0.012
					c0.01-0.007,0.02-0.01,0.027-0.017c0.164-0.083,0.302-0.227,0.375-0.452C585.396,651.363,587.534,644.818,589.671,638.275z
					 M581.976,656.641c-6.033-1.971-12.066-3.941-18.1-5.912c1.971-6.031,3.941-12.065,5.912-18.098
					c6.032,1.969,12.066,3.939,18.099,5.91C585.917,644.574,583.946,650.607,581.976,656.641z"/>
				<path fill="#536579" d="M583.499,641.85c-3.73,1.672-7.462,3.346-11.192,5.019c-0.518-1.189-1.036-2.376-1.554-3.565
					c-0.625-1.433-2.779-0.331-2.158,1.097c0.671,1.539,1.342,3.078,2.013,4.617c0.273,0.627,1.053,0.789,1.628,0.531
					c4.119-1.848,8.239-3.695,12.359-5.541C586.022,643.367,584.921,641.212,583.499,641.85z"/>
			</g>
		</g>
		<g>
			<g>
				<g>

						<rect x="497.051" y="651.856" transform="matrix(0.9506 0.3105 -0.3105 0.9506 228.6177 -130.7668)" fill="#F2A22F" width="56.13" height="1.936"/>
				</g>
				<g>

						<rect x="495.046" y="657.994" transform="matrix(0.9506 0.3105 -0.3105 0.9506 230.4374 -129.8463)" fill="#F2A22F" width="56.13" height="1.936"/>
				</g>
				<g>

						<rect x="493.529" y="661.072" transform="matrix(0.9506 0.3104 -0.3104 0.9506 230.8109 -126.1599)" fill="#F2A22F" width="36.446" height="1.936"/>
				</g>
			</g>
			<g>
				<path fill="#F2A22F" d="M580.358,666.793c0.137-0.419-0.1-0.882-0.518-1.019c-6.544-2.138-13.088-4.274-19.633-6.412
					c-0.418-0.136-0.881,0.099-1.018,0.517c-2.137,6.545-4.274,13.089-6.412,19.634c-0.137,0.418,0.099,0.88,0.517,1.017
					c6.544,2.138,13.089,4.275,19.634,6.413c0.226,0.073,0.424,0.048,0.587-0.037c0.01-0.003,0.019-0.008,0.028-0.011
					c0.009-0.007,0.018-0.011,0.026-0.016c0.163-0.083,0.302-0.229,0.376-0.453C576.084,679.881,578.221,673.336,580.358,666.793z
					 M572.662,685.158c-6.032-1.971-12.066-3.941-18.099-5.911c1.97-6.033,3.94-12.066,5.91-18.1c6.033,1.97,12.066,3.94,18.1,5.911
					C576.604,673.092,574.633,679.125,572.662,685.158z"/>
				<path fill="#536579" d="M574.185,670.367c-3.728,1.672-7.461,3.347-11.191,5.018c-0.518-1.188-1.037-2.376-1.554-3.564
					c-0.626-1.433-2.78-0.33-2.159,1.097c0.672,1.538,1.343,3.079,2.014,4.617c0.273,0.627,1.053,0.79,1.627,0.531
					c4.12-1.848,8.24-3.694,12.36-5.541C576.708,671.886,575.606,669.729,574.185,670.367z"/>
			</g>
		</g>
	</g>
	<g>
		<circle fill="#AAEAF9" cx="726.745" cy="579.213" r="30.524"/>

			<text transform="matrix(0.9994 -0.0342 0.0342 0.9994 716.7905 600.2018)" fill="#FFFFFF" font-family="'Quicksand-Bold'" font-size="57.1315">?</text>
	</g>
	<g>
		<path fill="#84DCF4" d="M702.781,716.37c-9.02,21.014-33.365,30.737-54.373,21.721c-21.011-9.018-30.735-33.363-21.717-54.377
			c9.018-21.01,33.363-30.733,54.373-21.715C702.074,671.016,711.798,695.36,702.781,716.37z"/>

			<text transform="matrix(0.9189 0.3944 -0.3944 0.9189 640.4034 720.0673)" fill="#FFFFFF" font-family="'Quicksand-Bold'" font-size="77.4899">?</text>
	</g>
	<g>
		<circle fill="#AAEAF9" cx="767.457" cy="765.399" r="30.523"/>

			<text transform="matrix(0.9994 -0.0342 0.0342 0.9994 757.5034 786.3874)" fill="#FFFFFF" font-family="'Quicksand-Bold'" font-size="57.1315">?</text>
	</g>
	<g>
		<circle fill="#AAEAF9" cx="696.221" cy="278.427" r="30.523"/>

			<text transform="matrix(0.9786 0.2057 -0.2057 0.9786 681.5389 296.4949)" fill="#FFFFFF" font-family="'Quicksand-Bold'" font-size="57.1315">?</text>
	</g>
	<g>
		<path fill="#FCC05E" d="M355.784,661.472c0.351-1.161-0.326-2.424-1.486-2.773c-12.782-3.859-25.562-7.719-38.345-11.578
			c-1.16-0.35-2.423,0.326-2.773,1.488c-3.858,12.778-7.718,25.561-11.576,38.341c-0.352,1.163,0.325,2.425,1.485,2.775
			c12.782,3.859,25.562,7.718,38.345,11.577c0.627,0.19,1.174,0.106,1.617-0.135c0.025-0.012,0.049-0.022,0.074-0.037
			c0.024-0.016,0.05-0.025,0.076-0.044c0.445-0.239,0.816-0.647,1.006-1.273C348.067,687.034,351.926,674.252,355.784,661.472z
			 M340.59,696.4c-11.361-3.43-22.725-6.861-34.085-10.291c3.431-11.363,6.861-22.725,10.292-34.085
			c11.359,3.431,22.724,6.861,34.084,10.292C347.451,673.676,344.021,685.037,340.59,696.4z"/>
		<g>
			<path fill="#FCC05E" d="M337.541,685.797c-1.9-3.547-3.803-7.09-5.701-10.635c3.543-1.902,7.089-3.803,10.634-5.701
				c2.642-1.416,0.445-5.512-2.195-4.096c-3.545,1.9-7.09,3.803-10.636,5.702c-1.9-3.544-3.802-7.091-5.702-10.636
				c-1.415-2.641-5.511-0.445-4.095,2.197c1.902,3.543,3.803,7.088,5.701,10.634c-3.543,1.9-7.088,3.8-10.634,5.702
				c-2.642,1.416-0.444,5.508,2.196,4.092c3.544-1.898,7.089-3.799,10.635-5.701c1.9,3.547,3.801,7.091,5.703,10.635
				C334.862,690.63,338.957,688.438,337.541,685.797z"/>
		</g>
	</g>
	<g>
		<path fill="#84DCF4" d="M638.602,407.102c0.406-1.396-0.419-2.9-1.814-3.306c-15.358-4.471-30.713-8.942-46.071-13.413
			c-1.394-0.406-2.897,0.419-3.304,1.814c-4.47,15.354-8.942,30.713-13.413,46.068c-0.406,1.398,0.418,2.901,1.813,3.306
			c15.357,4.472,30.713,8.942,46.07,13.415c0.754,0.219,1.408,0.111,1.937-0.18c0.03-0.015,0.058-0.029,0.087-0.047
			c0.03-0.019,0.06-0.031,0.091-0.053c0.531-0.293,0.972-0.784,1.191-1.537C629.66,437.814,634.131,422.456,638.602,407.102z
			 M620.815,449.122c-13.649-3.974-27.303-7.949-40.952-11.923c3.975-13.654,7.949-27.303,11.924-40.953
			c13.649,3.975,27.303,7.95,40.951,11.924C628.764,421.819,624.789,435.469,620.815,449.122z"/>
		<path fill="#84DCF4" d="M589.376,417.495c2.51,5.36,5.023,10.718,7.534,16.079c0.635,1.356,2.382,1.664,3.619,1.054
			c8.502-4.189,17.002-8.379,25.501-12.568c3.089-1.521,0.511-6.189-2.564-4.672c-7.656,3.773-15.308,7.543-22.964,11.316
			c-2.149-4.594-4.304-9.184-6.454-13.774C592.586,411.812,587.921,414.399,589.376,417.495z"/>
	</g>
	<g>
		<g>
			<path fill="#C3CCD8" d="M761.912,439.7l-46.953-16.091c-8.836-3.028-18.456,1.679-21.483,10.517l-9.141,26.669
				c-3.029,8.837,1.682,18.456,10.518,21.485l10.668,3.656l-6.17,18.001l27.504-10.69l14.95,5.123
				c8.836,3.029,18.454-1.68,21.483-10.517l9.141-26.669C775.456,452.346,770.747,442.728,761.912,439.7z"/>
		</g>
		<path fill="#FFFFFF" d="M705.889,457.39c3.463,6.386,6.93,12.767,10.393,19.152c0.876,1.615,3.038,1.867,4.51,1.029
			c10.112-5.746,20.222-11.495,30.331-17.24c3.675-2.086,0.179-7.619-3.479-5.538c-9.106,5.175-18.206,10.347-27.314,15.522
			c-2.964-5.472-5.935-10.939-8.901-16.407C709.411,450.195,703.884,453.703,705.889,457.39z"/>
	</g>
	<g>
		<path fill="#AAEAF9" d="M774.978,358.707c0.58,16.849-12.611,30.976-29.457,31.554c-16.848,0.578-30.975-12.614-31.553-29.463
			c-0.578-16.847,12.613-30.974,29.461-31.551C760.275,328.67,774.404,341.861,774.978,358.707z"/>

			<text transform="matrix(0.9994 -0.0342 0.0342 0.9994 734.5187 380.7411)" fill="#FFFFFF" font-family="'Quicksand-Bold'" font-size="57.1315">?</text>
	</g>
	<g>
		<g>
			<g>
				<path fill="#FCC05E" d="M786.232,654.679c4.305-14.776-4.185-30.244-18.962-34.547c-14.775-4.305-30.243,4.187-34.546,18.963
					c-2.324,7.977-0.892,16.144,3.217,22.657c3.023,7.958,1.854,17.871,1.854,17.871l11.197,3.262l11.199,3.262
					c0,0,4.335-8.988,11.16-14.081C778.318,668.779,783.908,662.659,786.232,654.679z"/>
				<g>
					<path fill="#84DCF4" d="M765.154,690.886c-0.447,1.539-2.076,2.433-3.615,1.984l-28.491-8.298
						c-1.539-0.447-2.433-2.076-1.983-3.615l0.249-0.858c0.448-1.539,2.076-2.433,3.616-1.983l28.49,8.298
						c1.539,0.448,2.434,2.075,1.984,3.614L765.154,690.886z"/>
					<path fill="#84DCF4" d="M763.275,697.343c-0.448,1.539-2.076,2.433-3.616,1.983l-28.491-8.297
						c-1.539-0.449-2.432-2.075-1.984-3.615l0.25-0.857c0.448-1.54,2.076-2.432,3.615-1.984l28.491,8.298
						c1.539,0.448,2.434,2.076,1.985,3.615L763.275,697.343z"/>
					<path fill="#84DCF4" d="M761.395,703.801c-0.449,1.539-2.076,2.433-3.616,1.983l-28.491-8.297
						c-1.539-0.449-2.433-2.076-1.985-3.616l0.25-0.857c0.449-1.539,2.076-2.434,3.615-1.984l28.491,8.297
						c1.54,0.449,2.434,2.077,1.985,3.616L761.395,703.801z"/>
				</g>
			</g>
			<g>
				<g>
					<path fill="#DD690A" d="M751.609,646.128c-0.679,6.157-1.293,12.322-1.848,18.492c-0.363,4.037-0.707,8.082-0.861,12.132
						c-0.037,0.966-0.46,3.338,0.53,4.029c1.546,1.081,14.407-27.457,15.848-30.673c0.331-0.737-0.747-1.411-1.08-0.666
						c-2.018,4.503-4.075,8.989-6.159,13.463c-2.442,5.243-4.624,12.352-8.501,16.75c0.547-0.62,0.665,0.501,0.609-0.753
						c-0.019-0.506-0.003-1.014,0.004-1.521c0.026-1.44,0.121-2.879,0.212-4.317c0.241-3.812,0.59-7.62,0.942-11.426
						c0.479-5.168,1.005-10.334,1.573-15.492C752.968,645.333,751.697,645.319,751.609,646.128L751.609,646.128z"/>
				</g>
				<g>
					<path fill="#DD690A" d="M746.869,651.698c6.793,1.979,13.584,3.956,20.377,5.935c0.787,0.229,1.143-0.99,0.355-1.219
						c-6.794-1.979-13.584-3.957-20.377-5.936C746.438,650.249,746.083,651.468,746.869,651.698L746.869,651.698z"/>
				</g>
			</g>
		</g>
	</g>
</g>
<g id="_x31_200x800">
</g>
<g id="DESIGNED_BY_FREEPIK">
</g>
</svg>
