<svg xmlns="http://www.w3.org/2000/svg" width="800" height="300" viewBox="-390 0 7 830"><circle fill="#AAEAF9" cx="649.626" cy="579.214" r="30.523"/><text transform="rotate(-23.307 1784.615 -1269.97)" fill="#FFF" font-family="'Quicksand-Bold'" font-size="57.132">?</text><path fill="#AAEAF9" d="M421.658 618.843a4.308 4.308 0 0 1-2.21 5.656l-19.215 8.422c-2.163.946-4.709-.048-5.653-2.208l-1.879-4.283a4.31 4.31 0 0 1 2.209-5.655l19.217-8.42c2.162-.951 4.707.045 5.655 2.208l1.876 4.28z"/><path fill="#FCC05E" d="M416.99 608.255l-27.048 11.855-34.072-77.744 27.049-11.854z"/><path fill="#FCE9D0" d="M361.856 519.207l21.069 11.292-27.048 11.853z"/><path fill="#54667A" d="M369.33 523.216l-7.474-4.009-2.123 8.212z"/><path fill="#F9DCB2" d="M399.125 616.072l-9.17 4.02-34.073-77.745 9.171-4.019zm17.93-7.836l-9.171 4.018-34.064-77.744 9.171-4.018z"/><path fill="#FFFDFF" d="M389.92 620.082l27.077-11.864 2.951 6.735-27.076 11.864z"/><circle fill="#AAEAF9" cx="412.392" cy="701.635" r="30.523"/><text transform="rotate(-1.985 21329.225 -11392.979)" fill="#FFF" font-family="'Quicksand-Bold'" font-size="57.132">?</text><path fill="#FCC05E" d="M531.647 748.825c5.324-14.44-2.065-30.462-16.505-35.786-14.441-5.324-30.462 2.066-35.786 16.507-2.874 7.796-2.017 16.042 1.629 22.826 2.461 8.151.604 17.958.604 17.958l10.942 4.035 10.943 4.034s4.952-8.663 12.115-13.268c7.18-2.794 13.183-8.508 16.058-16.306z"/><g fill="#84DCF4"><path d="M508.096 783.474a2.926 2.926 0 0 1-3.745 1.727l-27.843-10.266a2.925 2.925 0 0 1-1.727-3.744l.308-.84a2.927 2.927 0 0 1 3.745-1.727l27.844 10.266a2.927 2.927 0 0 1 1.728 3.745l-.31.839zm-2.326 6.31a2.926 2.926 0 0 1-3.746 1.727l-27.842-10.265a2.924 2.924 0 0 1-1.727-3.744l.309-.839a2.925 2.925 0 0 1 3.745-1.727l27.843 10.266a2.927 2.927 0 0 1 1.728 3.745l-.31.837z"/><path d="M503.442 796.094a2.925 2.925 0 0 1-3.745 1.727l-27.843-10.265a2.924 2.924 0 0 1-1.727-3.744l.308-.839a2.927 2.927 0 0 1 3.746-1.728l27.842 10.265a2.925 2.925 0 0 1 1.728 3.745l-.309.839z"/></g><path fill="#DD690A" d="M497.704 737.878a938.62 938.62 0 0 0-3.133 18.317c-.644 4.003-1.269 8.014-1.705 12.044-.103.96-.691 3.297.248 4.056 1.467 1.185 16.287-26.386 17.948-29.493.381-.712-.647-1.458-1.031-.739a996.198 996.198 0 0 1-7.083 13.001c-2.801 5.059-5.474 12-9.649 16.115.59-.58.629.547.662-.709.015-.506.066-1.012.108-1.516.127-1.435.323-2.863.513-4.291.507-3.787 1.12-7.562 1.737-11.333a924.245 924.245 0 0 1 2.65-15.346c.147-.803-1.12-.906-1.265-.106z"/><path fill="#DD690A" d="M492.589 743.104l19.913 7.342c.768.284 1.208-.907.439-1.191l-19.913-7.342c-.769-.285-1.209.907-.439 1.191z"/><g fill="#84DCF4"><path d="M507.026 518.158c.172-1.442-.888-2.792-2.33-2.966-15.882-1.903-31.761-3.808-47.643-5.712-1.443-.173-2.79.887-2.963 2.329l-5.713 47.64c-.172 1.446.886 2.794 2.329 2.966l47.642 5.714c.779.093 1.408-.12 1.881-.494.028-.021.052-.038.079-.061.026-.024.054-.041.081-.067.477-.375.831-.932.925-1.711l5.712-47.638zm-10.689 44.361l-42.35-5.077c1.692-14.119 3.385-28.234 5.079-42.351l42.349 5.079-5.078 42.349z"/><path d="M460.157 536.448c3.351 4.879 6.706 9.754 10.058 14.633.847 1.234 2.622 1.253 3.742.449l23.108-16.562c2.798-2.005-.507-6.19-3.294-4.191-6.936 4.973-13.871 9.941-20.808 14.914-2.871-4.182-5.745-8.358-8.616-12.536-1.951-2.839-6.131.476-4.19 3.293z"/></g><path fill="#536579" d="M590.352 574.588l15.949 31.698-23.765-7.762z"/><path fill="#F9DCB2" d="M590.352 574.588l-68.125-22.25-39.875 122.097 91.891 30.011 32.058-98.16-23.765-7.762z"/><path fill="#F2A22F" d="M517.4 586.136l53.357 17.423-.6 1.84-53.359-17.423zm-2.06 6.185l53.357 17.429-.601 1.841-53.357-17.428zm-1.948 6.088l34.645 11.312-.6 1.84-34.646-11.313zm85.593 11.349a.814.814 0 0 0-.518-1.018c-6.543-2.138-13.089-4.275-19.633-6.412a.815.815 0 0 0-1.018.517l-6.412 19.633a.815.815 0 0 0 .517 1.018l19.634 6.412a.75.75 0 0 0 .587-.036l.028-.013a.753.753 0 0 0 .402-.468l6.413-19.633zm-7.695 18.365l-18.1-5.912 5.911-18.099 18.099 5.911-5.91 18.1z"/><path fill="#536579" d="M592.813 613.331c-3.732 1.673-7.463 3.347-11.193 5.018l-1.553-3.562c-.627-1.435-2.781-.331-2.159 1.095l2.013 4.618c.272.627 1.053.789 1.627.531l12.361-5.541c1.427-.639.324-2.796-1.096-2.159z"/><path fill="#F2A22F" d="M508.076 614.659l53.358 17.423-.6 1.84-53.359-17.423zm-1.992 6.132l53.358 17.423-.602 1.842-53.358-17.424zm-2.007 6.137l34.645 11.313-.6 1.84-34.646-11.312zm85.594 11.347a.814.814 0 0 0-.516-1.018c-6.545-2.139-13.09-4.275-19.634-6.413a.815.815 0 0 0-1.018.518c-2.138 6.544-4.274 13.089-6.411 19.634a.813.813 0 0 0 .516 1.016c6.544 2.139 13.09 4.275 19.634 6.412a.741.741 0 0 0 .587-.035l.027-.012c.01-.007.02-.01.027-.017a.743.743 0 0 0 .375-.452l6.413-19.633zm-7.695 18.366l-18.1-5.912 5.912-18.098a75958.01 75958.01 0 0 1 18.099 5.91l-5.911 18.1z"/><path fill="#536579" d="M583.499 641.85l-11.192 5.019-1.554-3.565c-.625-1.433-2.779-.331-2.158 1.097l2.013 4.617c.273.627 1.053.789 1.628.531 4.119-1.848 8.239-3.695 12.359-5.541 1.427-.641.326-2.796-1.096-2.158z"/><path fill="#F2A22F" d="M498.713 643.222l53.357 17.428-.6 1.84-53.358-17.428zm-1.992 6.133l53.357 17.428-.601 1.84-53.357-17.428zm-1.958 6.092l34.645 11.312-.6 1.84-34.646-11.312zm85.595 11.346a.816.816 0 0 0-.518-1.019l-19.633-6.412a.816.816 0 0 0-1.018.517l-6.412 19.634a.814.814 0 0 0 .517 1.017l19.634 6.413a.74.74 0 0 0 .587-.037l.028-.011c.009-.007.018-.011.026-.016a.756.756 0 0 0 .376-.453c2.139-6.545 4.276-13.09 6.413-19.633zm-7.696 18.365l-18.099-5.911 5.91-18.1 18.1 5.911c-1.969 6.034-3.94 12.067-5.911 18.1z"/><path fill="#536579" d="M574.185 670.367c-3.728 1.672-7.461 3.347-11.191 5.018l-1.554-3.564c-.626-1.433-2.78-.33-2.159 1.097.672 1.538 1.343 3.079 2.014 4.617.273.627 1.053.79 1.627.531l12.36-5.541c1.426-.639.324-2.796-1.097-2.158z"/><circle fill="#AAEAF9" cx="726.745" cy="579.213" r="30.524"/><text transform="rotate(-1.985 17911.945 -20644.542)" fill="#FFF" font-family="'Quicksand-Bold'" font-size="57.132">?</text><path fill="#84DCF4" d="M702.781 716.37c-9.02 21.014-33.365 30.737-54.373 21.721-21.011-9.018-30.735-33.363-21.717-54.377 9.018-21.01 33.363-30.733 54.373-21.715 21.01 9.017 30.734 33.361 21.717 54.371z"/><text transform="rotate(23.229 -1431.512 1917.971)" fill="#FFF" font-family="'Quicksand-Bold'" font-size="77.49">?</text><circle fill="#AAEAF9" cx="767.457" cy="765.399" r="30.523"/><text transform="rotate(-1.985 23375.172 -21739.131)" fill="#FFF" font-family="'Quicksand-Bold'" font-size="57.132">?</text><circle fill="#AAEAF9" cx="696.221" cy="278.427" r="30.523"/><text transform="rotate(11.875 -1084.956 3426.14)" fill="#FFF" font-family="'Quicksand-Bold'" font-size="57.132">?</text><g fill="#FCC05E"><path d="M355.784 661.472a2.245 2.245 0 0 0-1.486-2.773l-38.345-11.578a2.246 2.246 0 0 0-2.773 1.488l-11.576 38.341a2.245 2.245 0 0 0 1.485 2.775l38.345 11.577c.627.19 1.174.106 1.617-.135.025-.012.049-.022.074-.037.024-.016.05-.025.076-.044.445-.239.816-.647 1.006-1.273 3.86-12.779 7.719-25.561 11.577-38.341zM340.59 696.4l-34.085-10.291 10.292-34.085 34.084 10.292L340.59 696.4z"/><path d="M337.541 685.797c-1.9-3.547-3.803-7.09-5.701-10.635 3.543-1.902 7.089-3.803 10.634-5.701 2.642-1.416.445-5.512-2.195-4.096-3.545 1.9-7.09 3.803-10.636 5.702l-5.702-10.636c-1.415-2.641-5.511-.445-4.095 2.197 1.902 3.543 3.803 7.088 5.701 10.634l-10.634 5.702c-2.642 1.416-.444 5.508 2.196 4.092 3.544-1.898 7.089-3.799 10.635-5.701 1.9 3.547 3.801 7.091 5.703 10.635 1.415 2.64 5.51.448 4.094-2.193z"/></g><g fill="#84DCF4"><path d="M638.602 407.102c.406-1.396-.419-2.9-1.814-3.306l-46.071-13.413c-1.394-.406-2.897.419-3.304 1.814L574 438.265c-.406 1.398.418 2.901 1.813 3.306 15.357 4.472 30.713 8.942 46.07 13.415.754.219 1.408.111 1.937-.18.03-.015.058-.029.087-.047.03-.019.06-.031.091-.053.531-.293.972-.784 1.191-1.537l13.413-46.067zm-17.787 42.02l-40.952-11.923 11.924-40.953 40.951 11.924-11.923 40.952z"/><path d="M589.376 417.495c2.51 5.36 5.023 10.718 7.534 16.079.635 1.356 2.382 1.664 3.619 1.054 8.502-4.189 17.002-8.379 25.501-12.568 3.089-1.521.511-6.189-2.564-4.672l-22.964 11.316c-2.149-4.594-4.304-9.184-6.454-13.774-1.462-3.118-6.127-.531-4.672 2.565z"/></g><path fill="#C3CCD8" d="M761.912 439.7l-46.953-16.091c-8.836-3.028-18.456 1.679-21.483 10.517l-9.141 26.669c-3.029 8.837 1.682 18.456 10.518 21.485l10.668 3.656-6.17 18.001 27.504-10.69 14.95 5.123c8.836 3.029 18.454-1.68 21.483-10.517l9.141-26.669c3.027-8.838-1.682-18.456-10.517-21.484z"/><path fill="#FFF" d="M705.889 457.39c3.463 6.386 6.93 12.767 10.393 19.152.876 1.615 3.038 1.867 4.51 1.029 10.112-5.746 20.222-11.495 30.331-17.24 3.675-2.086.179-7.619-3.479-5.538l-27.314 15.522c-2.964-5.472-5.935-10.939-8.901-16.407-2.018-3.713-7.545-.205-5.54 3.482z"/><path fill="#AAEAF9" d="M774.978 358.707c.58 16.849-12.611 30.976-29.457 31.554-16.848.578-30.975-12.614-31.553-29.463-.578-16.847 12.613-30.974 29.461-31.551 16.846-.577 30.975 12.614 31.549 29.46z"/><text transform="rotate(-1.985 11506.031 -21275.295)" fill="#FFF" font-family="'Quicksand-Bold'" font-size="57.132">?</text><path fill="#FCC05E" d="M786.232 654.679c4.305-14.776-4.185-30.244-18.962-34.547-14.775-4.305-30.243 4.187-34.546 18.963-2.324 7.977-.892 16.144 3.217 22.657 3.023 7.958 1.854 17.871 1.854 17.871l11.197 3.262 11.199 3.262s4.335-8.988 11.16-14.081c6.967-3.287 12.557-9.407 14.881-17.387z"/><path d="M765.154 690.886a2.924 2.924 0 0 1-3.615 1.984l-28.491-8.298a2.923 2.923 0 0 1-1.983-3.615l.249-.858a2.924 2.924 0 0 1 3.616-1.983l28.49 8.298a2.923 2.923 0 0 1 1.984 3.614l-.25.858zm-1.879 6.457a2.924 2.924 0 0 1-3.616 1.983l-28.491-8.297a2.926 2.926 0 0 1-1.984-3.615l.25-.857a2.925 2.925 0 0 1 3.615-1.984l28.491 8.298a2.925 2.925 0 0 1 1.985 3.615l-.25.857zm-1.88 6.458a2.924 2.924 0 0 1-3.616 1.983l-28.491-8.297a2.927 2.927 0 0 1-1.985-3.616l.25-.857a2.924 2.924 0 0 1 3.615-1.984l28.491 8.297a2.926 2.926 0 0 1 1.985 3.616l-.249.858z" fill="#84DCF4"/><g fill="#DD690A"><path d="M751.609 646.128a923.386 923.386 0 0 0-1.848 18.492c-.363 4.037-.707 8.082-.861 12.132-.037.966-.46 3.338.53 4.029 1.546 1.081 14.407-27.457 15.848-30.673.331-.737-.747-1.411-1.08-.666a1013.607 1013.607 0 0 1-6.159 13.463c-2.442 5.243-4.624 12.352-8.501 16.75.547-.62.665.501.609-.753-.019-.506-.003-1.014.004-1.521.026-1.44.121-2.879.212-4.317.241-3.812.59-7.62.942-11.426a902.54 902.54 0 0 1 1.573-15.492c.09-.813-1.181-.827-1.269-.018z"/><path d="M746.869 651.698l20.377 5.935c.787.229 1.143-.99.355-1.219l-20.377-5.936c-.786-.229-1.141.99-.355 1.22z"/></g></svg>