<?xml version="1.0" encoding="utf-8"?>
<!-- Generator: Adobe Illustrator 17.0.0, SVG Export Plug-In . SVG Version: 6.00 Build 0)  -->
<!DOCTYPE svg PUBLIC "-//W3C//DTD SVG 1.1//EN" "http://www.w3.org/Graphics/SVG/1.1/DTD/svg11.dtd">
<svg version="1.1" xmlns="http://www.w3.org/2000/svg" xmlns:xlink="http://www.w3.org/1999/xlink" x="0px" y="0px" width="400px"
	 height="400px" viewBox="100 100 400 500" enable-background="new 0 0 800 800" xml:space="preserve">
<g id="Background">
</g>
<g id="Objects">
	<g>
		<defs>
			<path id="SVGID_1_" d="M658.154,445.712C636.3,562.951,508.288,637.429,372.225,612.067
				C236.161,586.702,143.58,471.101,165.432,353.865c21.856-117.233,149.87-191.714,285.931-166.349
				C587.427,212.879,680.005,328.479,658.154,445.712z"/>
		</defs>
		<use xlink:href="#SVGID_1_"  overflow="visible" fill="#6DCEAE"/>
		<clipPath id="SVGID_2_">
			<use xlink:href="#SVGID_1_"  overflow="visible"/>
		</clipPath>
		<g clip-path="url(#SVGID_2_)">
			<path fill="#FFFFFF" d="M217.193,247.887c-6.089,17.04-0.756,27.433-6.548,35.135c-5.799,7.689-13.546,21.912-11.244,32.995
				c2.292,11.082,4.444,34.668,9.955,36.328c5.514,1.648,0.299-25.013,4.45-16.094c4.16,8.92,1.974,20.64,10.31,30.545
				c8.339,9.899,21.919,11.179,30.99,21.02c9.08,9.844,17.481,23.312,27.541,23.931c0,0-1.828,5.926-8.667,15.306
				c-6.839,9.377-9.803,21.365-4.832,29.81c4.972,8.445,9.265,20.523,13.873,27.023c4.606,6.499,3.406,36.356-0.707,50.629
				c-4.117,14.272-2.484,48.42,13.73,58.958c16.218,10.547,0.679-3.633-1.134-13.36c-1.824-9.745,8.357-29.788,17.406-31.236
				c9.04-1.44,19.031-12.114,26.94-19.415c7.906-7.295,24.746-7.92,31.59-17.294c6.839-9.38,6.989-21.883,10.819-26.808
				c3.822-4.93,13.813-15.604-1.708-26.019c-15.508-10.411-23.208-8.086-22.678-14.875c0.537-6.795-2.325-14.852-13.703-20.11
				c-11.384-5.252-20.831-13.094-33.948-16.883c-13.112-3.792-17.621,4.769-23.741-1.386c-6.124-6.158-10.846-12.047-12.531-18.63
				c-1.682-6.58-10.792-4.519-9.406-8.022c1.373-3.497,14.539-11.701,1.213-10.428c-13.332,1.276-24.351-2.03-21.846-11.59
				c2.515-9.559,18.652-10.309,25.208-10.343c6.549-0.029,10.229,7.548,17.169,13.228c6.944,5.689,1.831-5.926,7.401-12.405
				c5.577-6.485,21.629-2.865,25.659-12.763c4.021-9.901,2.793-18.908,15.669-17.761c12.878,1.147,25.899,5.455,28.317,0.264
				c2.42-5.188-15.098-0.933-14.559-7.724c0.539-6.798,16.992-13.12,19.971-5.68c2.971,7.446,13.402,10.017,15.262,7.858
				c1.856-2.159,1.241-6.664-1.758-17.874c-3.002-11.21-8.488-9.1-10.559-21.395c-2.073-12.296-11.356-1.491-17.251-8.856
				c-5.912-7.371-11.971-21.662-15.412-11.02c-3.438,10.639-4.564,16.693-12.473,23.997c-7.9,7.301-9.477,0.112-14.085-6.381
				c-4.608-6.503-16.239-14.311-11.119-18.373c5.116-4.059,11.706-15.995,17.357-11.18c5.645,4.815,15.487,6.65,15.212,0.328
				c-0.274-6.314,1.582-8.474,4.956-10.981c3.378-2.504,14.234-6.123,12.197,4.78c-2.025,10.903-4.002,13.67,5.623,16.716
				c9.609,3.049,20.74,5.747,21.052,0.169c0.311-5.588,3.608-3.72,2.487-13.326c-1.116-9.612-9.441-11.786-17.782-17.73
				c-8.35-5.944-12.03-13.523-20.219-12.545c-8.176,0.987-9.337,3.277-11.275,9.808c-1.948,6.531-6.618,8.167-8.865,4.614
				c-2.247-3.555,3.077-12.591-8.599-8.497c-11.669,4.09-17.802,13.603-22.076,5.283c-4.271-8.315,12.158-18.412-3.617-15.712
				c-15.779,2.698-27.455,6.788-20.175,10.656c7.286,3.859,14.232,9.543,6.042,10.521c-8.181,0.981-22.854-6.141-29.383-2.34
				C237.167,226.551,217.193,247.887,217.193,247.887z"/>
			<path fill="#FFFFFF" d="M312.327,197.945c-1.303,6.761-0.154,12.51,8.005,7.759c8.156-4.748,13.729-11.227,18.083-7.278
				c4.355,3.94,12.948,4.71,16.494,5.167c3.551,0.445,5.949-8.51,15.563-5.464c9.619,3.046,6.666-0.636,18.113-3.514
				c11.448-2.88,35.52-7.167,11.87-9.07c-23.647-1.9-24.033-7.614-41.897-1.541c-17.853,6.074-21.372,5.416-26.045,7.051
				c-4.667,1.638-7.779-8.969-14.754-2.753C310.78,194.52,313.645,191.054,312.327,197.945z"/>
			<path fill="#FFFFFF" d="M400.169,194.893c-9.464,4.635-23.907,11.215-14.067,13.045c9.834,1.833,15.441-1.716,19.694,5.134
				c4.252,6.849,0.449,15.543-0.34,19.782c-0.791,4.235-5.41,13.404-0.633,26.829c4.771,13.422,4,21.426,12.506,14.867
				c8.492-6.566,28.184-18.566,36.845-18.197c8.659,0.356,17.658-1.1,23.005-6.372c5.348-5.269,2.227-11.93,10.06-14.951
				c7.834-3.021,7.444-8.73,10.798-14.998c3.349-6.268,22.33-2.73,14.57-7.935c-7.758-5.209-22.765-10.513-41.381-12.103
				C452.605,198.4,417.779,186.266,400.169,194.893z"/>
			<path fill="#FFFFFF" d="M287.968,367.618c-5.639,5.451-3.349,6.271,1.344,8.402c4.693,2.128-3.687,8.089,1.82,9.739
				c5.506,1.65,17.599,7.038,21.784,4.059c4.202-2.976-5.208-3.262-10.777-8.481C296.568,376.118,291.976,363.748,287.968,367.618z"
				/>
			<path fill="#FFFFFF" d="M609.761,529.758c-8.175,1.853-5.795,7.695-13.504,10.016c-7.708,2.319-5.12,4.062-8.805,12.145
				c-3.699,8.086-1.783,13.453,4.375,7.707C597.995,553.885,618.879,527.697,609.761,529.758z"/>
			<path fill="#FFFFFF" d="M668.797,435.482c-0.194-10.692,1.733-106.842,1.733-106.842s-37.183-30.741-45.119-27.21
				c-7.925,3.538-19.745,0.573-17.44-3.945c2.297-4.521,11.209-1.602-2.559-13.571c-13.779-11.972-15.126-20.368-29.209-11.086
				c-14.096,9.278-18.717,18.447-26.314,20.16c-7.593,1.716-15.022,10.358-7.737,14.226c7.274,3.862,8.43,1.572,13.854,7.597
				c5.427,6.025,14.081,6.387,16.056,3.622c1.97-2.771,5.181-12.197,6.56-15.703c1.381-3.5,10.79-14.28,8.221-4.731
				c-2.567,9.549,7.97,11.512-0.298,16.862c-8.271,5.359-5.07,11.592-19.354,10.181c-14.284-1.413-13.635-8.81-22.037-6.613
				c-8.412,2.188-8.165,4.745-11.649,7.854c-3.495,3.109-19.61,7.625-19.61,7.625s-11.267-5.86-6.883,1.853
				c4.38,7.713,7.829,16.493,2.798,16.183c-5.033-0.31-17.146-9.464-18.504-2.195c-1.353,7.267-4.928,14.744,0.353,17.617
				c3.738,2.021,5.794,5.278,9.504,5.569c-3.019,0.52-5.873,1.564-8.269,3.431c-6.618,5.139-5.27,16.562-17.192,18.102
				c-11.927,1.537-12.719,5.778-16.293,13.256c-3.574,7.484-5.193,27.859-2.724,30.201c2.476,2.339,4.579,18.399,16.745,19.412
				c12.182,1.02,24.921,2.908,28.81,5.442c3.889,2.535,11.933-1.608,11.442,12.714c-0.484,14.328,4.101,17.061,5.551,24.854
				c1.456,7.791-5.581,22.144-5.87,31.492c-0.283,9.345,6.621,26.924,5.151,34.796c-1.47,7.875,8.399,13.474,14.586,11.491
				c6.192-1.974,19.265-5.807,25.994-14.579c6.728-8.769,7.632-13.612,17.736-24.891c10.103-11.279,9.684-20.754,15.004-29.79
				c5.323-9.035,15.023-14.118,28.636-22.863c13.622-8.741,12.66-15.188,3.052-16.354c-9.614-1.169-14.486-10.216-17.585-20.824
				c-3.113-10.605-4.218-35.881-1.472-27.222c2.748,8.659,7.119,32.034,14.874,37.237c7.763,5.211,25.054-1.715,29.231-4.632
				c4.178-2.923,4.695-13.481-3.654-19.425c-8.346-5.944-2.041-8.523,6.193-1.977C659.336,439.358,668.987,446.164,668.797,435.482z
				 M599.14,395.548c-1.605,4.713-0.256,13.109-15.164,7.199c-14.902-5.912-13.544-13.182-20.881-8.906
				c-7.344,4.27-15.98,7.674-23.535-2.511c-7.553-10.182-5.701-12.339-10.508-13.865c-3.428-1.079-14.691-5.507-24.886-4.884
				c0.83-0.24,1.734-0.609,2.733-1.124c8.049-4.14,6.981-6.218,15.839-10.833c8.858-4.615,15.502-9.018,20.109-2.518
				c4.601,6.496,16.328,9.936,10.979,15.205c-5.342,5.275-3.214,9.432,2.389,6.714c5.595-2.721,13.072-3.833,9.056-9.591
				c-4.012-5.761-6.561-19.397-1.113-9.612c5.445,9.788,6.759,14.423,10.079,20.051c3.317,5.637,6.967,9.447,8.94,6.685
				c1.968-2.768,1.1-9.82,3.435-10.64c2.334-0.822-1.925,10.295,4.293,12.075C597.117,390.782,600.744,390.835,599.14,395.548z
				 M619.143,377.969c-4.472-3.341-14.055-2.62-25.864-1.683c-11.813,0.926-0.995-7.165,5.298-12.808
				c5.62-5.042,1.769,2.209,11.491,4.656C619.801,370.57,623.614,381.311,619.143,377.969z M640.249,401.33
				c-2.45,1.424-4.042-9.525-5.246-14.768c-1.212-5.237,0.415-13.647,7.22-17.222c8.483-4.461,2.43,8.369,1.073,15.639
				C641.94,392.243,642.702,399.909,640.249,401.33z"/>
			<path fill="#FFFFFF" d="M518.363,302.156c-4.519,0.308-9.309,7.032-7.883,11.064c1.436,4.024-1.769-2.209-7.95-0.232
				c-6.193,1.98-16.128,8.904-8.55,10.938c7.581,2.043,7.197-3.672,13.771,0.063c6.569,3.729,14.419,4.569,15.551-1.491
				C524.431,316.446,525.735,301.647,518.363,302.156z"/>
			<path fill="#FFFFFF" d="M477.873,265.778c-4.331-0.269-7.433,8.641,1.477,11.554c8.917,2.919,25.842,2.939,20.668-3.038
				C494.853,268.318,487.936,266.404,477.873,265.778z"/>
		</g>
	</g>
</g>
</svg>
