<svg xmlns="http://www.w3.org/2000/svg" xmlns:xlink="http://www.w3.org/1999/xlink" width="602" height="290" viewBox="-72.473 -135.489 602 478"><path fill="#CFCECE" d="M406.664 239.769v8.651L237.04 337.796l-.238-.127L66.935 247.94v-7.69l170.105-89.376z"/><path opacity=".4" d="M406.664 239.769v8.651L237.04 337.796l-.238-.127v-9.903z"/><path opacity=".2" d="M236.802 327.766v9.903L66.935 247.94v-7.69z"/><g fill="#FFF"><path d="M173.824 298.026c.051-2.189.124-4.377.607-6.588.736-3.374 2.121-6.634 4.223-9.77 3.163-4.718 7.149-9.035 11.775-13.051a289.795 289.795 0 0 1 6.712-5.619c3.447-2.815 7.107-5.434 10.771-8.061a263.162 263.162 0 0 1 11.1-7.544c9.644-6.194 19.508-12.152 29.672-17.788 12.004-6.657 24.261-12.964 37.108-18.463 7.767-3.324 15.706-6.241 24.109-8.038 4.112-.88 8.195-1.051 12.312-1.036 6.856.024 12.983 1.565 18.859 3.582 9.799 3.364 19.048 7.414 27.662 12.197 4.21 2.338 8.259 4.832 11.246 8.176 1.478 1.655 2.457 3.503 2.156 5.669-.198 1.427-1.068 2.786-2.329 3.992-2.382 2.278-5.379 4.03-8.198 5.941-2.197 1.49-4.568 2.843-6.412 4.635.02.156.092.229.297.088 3.746-2.957 8.125-5.32 12.09-8.067 2.336-1.618 4.548-3.355 5.415-5.773.606-1.689.24-3.204-.603-4.6-2.05-3.393-5.601-5.758-9.268-8.002-5.082-3.111-10.537-5.837-16.209-8.328-5.86-2.574-11.75-5.11-18.004-7.173-3.793-1.251-7.745-2.26-11.933-2.711-6.76-.728-13.614-.271-20.503 1.507-8.424 2.174-16.398 5.301-24.217 8.755-11.849 5.233-23.211 11.129-34.356 17.314a500.998 500.998 0 0 0-29.493 17.716c-6.448 4.182-12.754 8.494-18.765 13.067a176.833 176.833 0 0 0-7.94 6.398c-4.599 3.94-8.882 8.067-12.256 12.651-3.058 4.155-5.195 8.496-5.776 13.108-.226 1.791-.352 3.565-.201 5.324.02.21-.197.536.349.492z"/><path d="M368.117 240.706c1.973-1.47 3.769-3.05 5.37-4.766 1.289-1.38 1.808-2.896 2.027-4.445.33-2.338-.92-4.212-2.442-5.942-2.537-2.883-5.956-5.088-9.524-7.165-6.279-3.654-13.196-6.555-20.447-9.049-5.947-2.046-12.296-3.396-19.075-3.438-6.715-.042-13.452.986-20.078 3.001-11.933 3.628-23.055 8.653-33.951 14.074-15.538 7.73-30.374 16.276-44.648 25.46-7.699 4.953-15.229 10.058-22.279 15.586-5.586 4.379-10.907 8.931-15.486 13.944-3.936 4.309-7.227 8.858-8.984 13.832-1.172 3.317-1.888 6.668-.743 9.892.655 1.844 1.746 3.44 3.926 4.42-.266-.244-.494-.52-.803-.726-2.134-1.431-2.734-3.504-2.993-5.631-.462-3.801.94-7.551 2.858-11.232 3.185-6.114 8.21-11.443 13.78-16.511 10.983-9.994 23.712-18.536 36.842-26.723 14-8.729 28.504-16.871 43.704-24.171 8.151-3.915 16.478-7.523 25.199-10.455 7.583-2.549 15.317-4.06 23.207-4.168 3.445-.047 6.907.263 10.099.953 13.33 2.882 25.057 7.8 34.93 14.924 2.522 1.82 4.621 3.93 5.615 6.636.806 2.193.271 4.31-1.279 6.47-1.379 1.923-3.456 3.41-5.2 5.103.039.168.105.296.375.127z"/><path d="M360.819 241.465c2.126-2.108 4.007-4.348 4.965-6.832.846-2.195.476-4.336-.665-6.284-1.412-2.41-3.549-4.367-6.057-6.085-5.559-3.808-12.056-6.548-19.17-8.451-5.53-1.479-11.436-2.105-17.605-1.847-6.207.259-12.247 1.538-18.215 3.309-12.241 3.633-23.572 8.868-34.66 14.497a431.511 431.511 0 0 0-32.642 18.425c-6.505 4.048-12.878 8.223-19.033 12.6-5.542 3.941-10.887 8.038-15.892 12.389-5.609 4.877-10.64 10.053-14.424 15.822-1.946 2.967-3.494 6.03-3.81 9.266-.366 3.745.896 6.782 5.185 8.497.226.091.457.177.696.25.089.027.205.01.575.021-.46-.24-.72-.399-1.008-.524-4.153-1.788-5.25-4.822-4.67-8.506.858-5.449 4.317-10.262 8.355-14.907 6.699-7.707 14.996-14.369 23.763-20.699 17.405-12.567 36.208-23.647 56.038-33.606 8.924-4.482 18.111-8.55 27.77-11.795a93.598 93.598 0 0 1 17.644-4.082c7.003-.921 13.7-.519 20.078 1.021 5.776 1.395 11.161 3.343 16.039 5.987 3.498 1.896 6.686 4.006 9.009 6.811 1.627 1.965 2.523 4.159 2.202 6.668-.271 2.12-1.65 4.012-3.13 5.863-.555.694-1.131 1.379-1.697 2.068.039.163.106.281.359.124z"/><path d="M354.87 242.076c1.388-1.941 2.867-3.847 3.391-6.022.868-3.608-.388-6.532-3.07-9.142-2.781-2.706-6.339-4.688-10.278-6.211-3.832-1.482-7.917-2.637-12.356-3.178-8.696-1.058-17.344-.112-26.107 2.256-12.373 3.343-23.724 8.509-34.856 14.061-14.914 7.438-28.996 15.823-42.501 24.833-8.759 5.844-17.078 12.051-24.538 18.902-5.054 4.642-9.649 9.527-12.743 15.052-1.519 2.714-2.516 5.512-2.012 8.305.382 2.115 1.718 3.836 4.225 4.76 1.47.542 2.886 1.229 4.688 1.206l.099-.052-.022-.083c-2.373-.55-4.774-1.078-6.363-2.604-1.741-1.671-2.305-3.684-1.888-5.962.677-3.7 2.733-7.105 5.267-10.395 3.346-4.344 7.409-8.309 11.753-12.128 9.267-8.146 19.634-15.37 30.461-22.208 11.741-7.416 23.876-14.376 36.635-20.603 8.544-4.17 17.279-8.011 26.485-11.019 8.199-2.679 16.583-4.32 25.081-4.227 4.256.047 8.383.669 12.366 1.681 4.091 1.039 7.805 2.483 11.149 4.422 3.919 2.272 7.178 4.951 7.903 9.066.379 2.15-.121 4.258-1.403 6.341-.554.9-1.125 1.794-1.688 2.691-.112.252-.068.385.322.258z"/><path d="M345.856 246.681c2.171-2.392 3.96-4.909 5.007-7.651 1.279-3.348.429-6.275-1.839-8.832-3.051-3.44-7.567-5.39-12.677-6.763-4.008-1.077-8.253-1.41-12.585-1.336-6.065.104-12.106 1.021-18.074 2.67-9.652 2.667-18.737 6.433-27.57 10.659a344.168 344.168 0 0 0-46.469 26.846c-6.498 4.466-12.79 9.107-18.554 14.142-5.365 4.686-10.3 9.614-13.888 15.193-1.402 2.18-2.464 4.456-2.53 6.757-.093 3.242 1.535 5.478 6.008 6.519 2.368.551 4.859.862 7.468.724.262-.014.529-.095.794-.144l-.016.023c-2.405-.063-4.737-.335-7.05-.7-3.979-.628-6.648-3.317-6.393-6.543.228-2.874 1.746-5.531 3.515-8.138 2.807-4.136 6.469-7.86 10.423-11.432 12.771-11.536 27.605-21.273 43.198-30.333 10.497-6.099 21.341-11.75 32.782-16.586 7.482-3.162 15.124-5.972 23.218-7.624 6.995-1.428 13.97-1.991 20.781-1.087 5.866.778 11.167 2.524 15.131 5.742 3.869 3.141 5.446 7.023 2.947 11.863-1.07 2.072-2.604 3.941-3.991 5.881-.005.207.111.265.364.15z"/><path d="M336.387 250.808c2.823-2.751 5.176-5.682 6.361-8.992 1.357-3.789.3-6.825-2.982-9.491-3.641-2.957-8.371-4.138-13.515-4.573-5.951-.503-12.052.272-18.092 1.64-8.564 1.94-16.613 5.05-24.471 8.555-16.708 7.453-32.11 16.439-46.646 26.407-7.366 5.052-14.454 10.334-20.546 16.339-3.158 3.113-6.254 6.271-8.496 9.81-1.144 1.806-1.955 3.656-2.202 5.606-.437 3.453 2.061 5.535 6.026 6.252 3.72.673 7.571.579 11.491.122 1.227-.143 2.462-.158 3.678-.488.043-.047.049-.083.02-.107-.028-.023-.052-.033-.071-.029-4.791.628-9.558 1.059-14.155.247-3.991-.704-6.297-2.724-6.192-5.361.075-1.876.689-3.694 1.74-5.474 2.561-4.336 6.216-8.175 10.229-11.838 12.386-11.307 26.954-20.694 42.245-29.429 9.178-5.243 18.698-10.025 28.722-14.088 7.122-2.887 14.421-5.315 22.084-6.736 5.549-1.029 11.069-1.401 16.408-.642 2.772.394 5.609.904 7.886 2.13 2.64 1.423 5.095 3.07 6.171 5.57.879 2.042.596 4.211-.296 6.408-1.055 2.598-3.022 4.88-4.937 7.184-.241.29-.483.578-.725.867-.003.154.054.23.265.111z"/><path d="M229.791 298.479c-3.177.173-6.292.193-9.187-.694-2.67-.817-4.147-2.987-3.553-5.314.687-2.69 2.378-5.104 4.301-7.452 3.291-4.019 7.362-7.594 11.645-11.014 14.184-11.328 30.148-20.815 47.367-28.963 5.583-2.642 11.343-5.042 17.357-6.844 5.744-1.721 11.556-3.226 17.608-3.581 4.582-.269 8.816.273 12.756 1.574 1.878.62 3.278 1.762 4.187 3.261 1.824 3.008.676 6.04-1.218 9.063-2.394 3.821-5.986 7.055-9.696 10.195-7.1 6.01-15.169 11.137-23.625 15.899-.259.146-.516.294-.794.453.249.198.435.02.597-.07 9.73-5.41 18.963-11.293 26.776-18.403 3.403-3.097 6.833-6.247 8.576-10.14.854-1.907 1.443-3.807.912-5.653-.444-1.542-1.357-2.872-2.936-3.947-2.504-1.703-5.725-2.268-8.894-2.726-2.909-.42-6.079-.19-9.19.21-8.931 1.15-17.345 3.863-25.52 7.281-15.665 6.55-29.977 14.745-43.483 23.89-6.355 4.303-12.444 8.839-17.739 13.946-3.25 3.134-6.561 6.274-8.552 9.978-1.002 1.864-1.887 3.774-1.207 5.711.47 1.339 1.473 2.335 3.099 2.879 3.08 1.031 6.448 1.111 9.929.772.225-.039.558.028.484-.311z"/><path d="M322.069 252.115c1.191-1.694 2.005-3.438 2.272-5.301.426-2.974-1.978-4.991-5.178-5.947-3.924-1.172-8.142-.784-12.441-.111-11.97 1.873-22.607 6.616-33.004 11.811-11.808 5.9-22.723 12.745-32.697 20.518-4.436 3.457-8.39 7.214-11.709 11.319-1.207 1.492-2.095 3.086-2.447 4.804-.543 2.647.993 4.171 4.038 4.821 2.493.533 5.115.321 7.742.084 4.633-.419 9.128-1.59 13.617-2.784.976-.26 1.936-.577 2.903-.868.04-.111-.008-.182-.141-.213-.986-.029-1.915.294-2.849.557-5.779 1.626-11.598 2.923-17.564 2.883-1.664-.011-3.233-.268-4.606-.918-1.419-.672-2.058-1.697-2-3.044.055-1.275.533-2.49 1.298-3.694 2.402-3.784 5.756-7.08 9.456-10.208 8.099-6.849 17.181-12.794 26.807-18.254 7.307-4.144 14.915-7.838 22.9-11.003 4.878-1.934 9.861-3.602 15.057-4.63 4.071-.806 8.169-1.323 12.208-.87 2.136.239 4.05.839 5.567 1.906 1.749 1.231 2.183 2.95 1.788 4.877-.253 1.238-.894 2.418-1.477 3.605a.726.726 0 0 0-.082.444c.095.183.184.374.542.216zm46.048-11.409l-.375-.127c-1.611 1.334-3.281 2.63-4.821 4.009-4.813 4.312-9.475 8.723-14.38 12.973-8.437 7.309-18.171 13.44-28.472 19.026-5.083 2.756-10.263 5.379-15.625 7.75-.058.026-.087.098-.129.149l.087.047c2.792-1.03 5.382-2.372 7.998-3.667 10.886-5.391 21.231-11.365 30.596-18.388 4.119-3.089 7.898-6.409 11.556-9.819a301.065 301.065 0 0 1 7.804-7.058c1.896-1.649 4.028-3.136 5.761-4.895z"/><path d="M360.819 241.465l-.361-.119c-1.856 1.606-3.376 3.398-5.046 5.106-14.181 14.494-31.641 26.054-51.382 35.581-1.577.761-3.168 1.501-4.753 2.25.013.135.062.213.247.072 4.943-2.102 9.645-4.541 14.299-7.043 9.908-5.329 19.283-11.183 27.731-17.934 4.388-3.507 8.458-7.214 12.386-11.027a316.704 316.704 0 0 0 6.879-6.886z"/><path d="M354.87 242.076c-.197-.018-.274-.127-.32-.258-9.664 11.656-22.058 21.371-36.146 29.884-7.053 4.262-14.389 8.171-21.976 11.767-.051.061-.062.112-.031.155s.057.061.077.057c5.731-2.638 11.268-5.531 16.681-8.586 9.942-5.611 19.259-11.794 27.592-18.861 4.921-4.174 9.421-8.596 13.474-13.266.247-.284.434-.594.649-.892z"/><path d="M345.856 246.681l-.365-.151c-10.458 11.759-24.06 21.008-38.848 29.299-7.936 4.449-16.224 8.41-24.763 12.008-.091.038-.164.108-.513.344 1.84-.537 3.225-1.247 4.642-1.867 13.406-5.871 26.024-12.703 37.717-20.652 7.91-5.378 15.073-11.274 21.23-17.867.331-.355.601-.742.9-1.114zm19.639-.334l-.297-.088c-3.334 2.274-6.042 4.971-8.768 7.643-8.784 8.611-19.357 15.666-30.836 21.953-6.761 3.703-13.767 7.054-20.939 10.171l.109.059c3.61-1.338 7.053-2.952 10.462-4.609 11.37-5.527 22.23-11.614 31.876-19.012 4.165-3.195 7.848-6.698 11.535-10.205 2.157-2.052 4.358-4.085 6.858-5.912z"/><path d="M336.387 250.808l-.265-.108c-2.074 1.916-3.988 3.923-6.156 5.789-7.892 6.792-16.813 12.648-26.272 18.011-9.52 5.398-19.466 10.193-29.887 14.293-.044.052-.053.095-.025.129s.05.049.069.045c3.968-1.418 7.784-3.109 11.56-4.848 11.484-5.288 22.426-11.236 32.567-18.117 6.69-4.539 13.013-9.356 18.241-14.951.069-.074.113-.162.168-.243zm-14.318 1.307c-.237-.011-.33-.133-.376-.292-.408-.031-.533.235-.688.44-4.607 6.118-11.136 10.938-18.029 15.511-5.291 3.51-10.906 6.658-16.679 9.62a157.691 157.691 0 0 1-8.399 4.016c-.453.2-.952.354-1.263.721-.055.099-.031.176.071.232 1.488-.391 2.758-1.155 4.096-1.785 11.415-5.379 22.172-11.48 31.656-18.936 3.684-2.895 6.985-6.027 9.611-9.527zm-59.45 43.584c-5.24.829-10.45 1.819-15.647 2.944-3.147.681-6.341 1.145-9.483 1.882-.041.052-.046.094-.017.127.028.032.052.046.07.042 1.168-.077 2.296-.416 3.442-.639 5.734-1.113 11.464-2.256 17.206-3.323 1.494-.277 2.988-.528 4.461-.909.072-.047.091-.081.058-.102-.033-.021-.062-.029-.09-.022zm-32.828 2.78l-.488.309c3.723-.181 7.405-.866 11.071-1.648 4.276-.913 8.478-2.105 12.677-3.299.042-.051.049-.093.021-.126-.027-.033-.049-.047-.067-.043-3.442.877-6.886 1.746-10.325 2.633-3.986 1.028-8.019 1.658-12.083 2.057-.269.025-.537.077-.806.117zm-2.848 3.38a.135.135 0 0 0 .051.136c1.108.174 2.207-.257 3.288-.423 5.775-.889 11.482-2.144 17.088-3.829 1.001-.301 2.066-.392 3.016-.888-7.74 2.051-15.529 3.843-23.443 5.004z"/><path d="M258.068 289.466c3.497-.849 6.789-2.182 10.099-3.453 2.902-1.115 5.839-2.19 8.541-3.65l-.088-.057c-.479-.143-.908.073-1.325.256-5.264 2.307-10.679 4.316-16.161 6.193-.396.136-.843.22-1.088.561.006.05.014.1.022.15zm-20.527 11.228l-.052-.17-19.842 4.121c6.653-1.21 13.309-2.386 19.894-3.951zm58.934-17.014l-.047-.212a378.468 378.468 0 0 1-16.822 7.221 167.716 167.716 0 0 0 16.869-7.009zm-43.47 9.991l.046.169c2.896-.939 5.805-1.846 8.683-2.827 2.337-.796 4.636-1.679 6.948-2.53.082-.03.126-.139.188-.212l.001.001c-1.659.314-3.134 1.06-4.692 1.605-3.496 1.222-6.974 2.483-10.544 3.529-.218.064-.42.175-.63.265zm-79.181 4.355c-.283-.084-.216-.337-.348-.494-.073 2.211.761 4.163 1.971 6.009.392.599.855 1.147 1.658 1.497-2.196-1.949-2.7-4.494-3.281-7.012zm100.027-9.059l-.044-.174a297.141 297.141 0 0 1-11.872 4.465c4.089-1.179 8.07-2.589 11.916-4.291zm25.673-4.611l-.247-.072c-3.694 1.611-7.366 3.258-11.109 4.79a99.572 99.572 0 0 0 11.356-4.718zm-15.951-2.331c1.166-.318 2.159-.917 3.2-1.429 2.298-1.131 4.622-2.23 6.806-3.51.01-.088-.039-.114-.147-.078l-9.863 5.014.004.003zm-20.954 13.674a.602.602 0 0 0 .031.125c.746.132 1.501.082 2.273-.133 1.241-.346 2.51-.505 3.778-.686.401-.057.854-.078 1.185-.333-2.443-.013-4.838.718-7.267 1.027zm-52.256 10.215c.785.371 1.559-.214 2.351-.251 1.277-.06 2.564-.238 3.912-.372-.264-.277-.584-.01-.857-.141l1.035-.34c-1.956.529-3.921.444-5.872.678l.016-.023c.034.293.487-.034.577.199l-1.173.268.011-.018zm34.718-5.082c2.576-.473 5.139-.943 7.572-1.89-2.621.287-5.029 1.369-7.572 1.89zm-6.446.589c-2.608.47-5.212.957-7.73 1.943 2.704-.316 5.15-1.37 7.73-1.943zm30.235-13.15c2.535-.692 4.842-1.827 7.22-2.819.301-.126.814-.09.914-.494l.023.012c-1.738.409-3.262 1.242-4.88 1.883-1.107.439-2.297.76-3.276 1.418h-.001zm35.443-3.785a3167.17 3167.17 0 0 0-7.363 3.061c-.023.01.001.102.004.155l-.02-.014c2.567-.918 5.07-1.945 7.466-3.155l-.087-.047z"/><path d="M277.005 284.959c2.319-.773 4.491-1.779 6.568-2.935l-.004-.002c-2.283.821-4.445 1.835-6.542 2.949l-.022-.012zm-47.744 18.503c-1.775.003-3.33.848-5.014 1.232 1.702-.272 3.378-.647 5.014-1.232zm41.366-8.878c2.179-.043 2.851-.2 4.946-1.111-1.652.403-3.284.897-4.946 1.111zm-15.981 3.901c1.834-.068 3.515-.506 5.185-1.015-1.706.414-3.482.348-5.185 1.015zm12.305-4.9c1.925-.355 3.611-1.268 5.421-1.891-1.838.548-3.698 1.046-5.401 1.904l-.02-.013zm-61.784 13.232c-1.211-.119-2.464.407-3.671.215-.112.015-.149.059-.101.135.013.102-.724.378.059.297 1.256-.13 2.528-.165 3.732-.669l-.019.022zm37.351-6.291c1.764-.243 3.484-.683 5.186-1.197-1.748.314-3.493.64-5.186 1.197zm20.626-5.696c-1.51.18-2.853.863-4.292 1.255 1.487-.234 2.92-.629 4.271-1.267l.021.012zm12.929-.691c1.027-.17 2.081-.217 2.984-.882-1.173-.02-2.026.606-2.984.882zm-23.055 3.85c-1.377.107-2.716.505-4.051.925l4.051-.925zm-5.131 1.851c-1.397.196-2.76.472-4.254.967 1.573-.186 2.928-.543 4.254-.967zm49.067-12.138c-1.315.058-2.3.888-3.508 1.195 1.248-.206 2.377-.684 3.486-1.21l.022.015z"/><path d="M263.123 294.817c1.358-.205 2.616-.66 3.828-1.232l.02.013a14.069 14.069 0 0 0-3.827 1.232l-.021-.013zm-23.714 6.846l2.513-.574c-1.086-.37-1.779.233-2.54.441-.054.042-.067.076-.042.101.026.026.049.036.069.032zm-54.826 5.803l-2.545-1.172c.605.556 1.356.938 2.545 1.172zm8.873.284l-2.742-.595c.765.472 1.669.67 2.742.595zm86.479-19.1l-2.477.959a4.097 4.097 0 0 0 2.477-.959z"/><path d="M239.409 301.663a.148.148 0 0 0-.027-.132l-3.474.793c1.199-.065 2.351-.355 3.501-.661zm65.246-15.637l-2.984 1.141c1.146-.121 2.117-.607 3.093-1.083-.037-.018-.073-.038-.109-.058zm-58.959 15.038c1.047-.207 2.121-.296 3.301-.742-1.268.07-2.268.49-3.301.742zm16.298-3.852l3.049-.696-.019-.094-3.05.696.02.094zm-24.99 5.415c.932-.049 1.852-.155 2.69-.614l-2.69.614zm-38.29 4.271c.879.134 1.757.274 2.681.268.032-.045.066-.09.101-.135a11.807 11.807 0 0 0-2.706-.269c-.073.034-.099.079-.076.136zm56.425-16.571c.005.046.014.09.026.134.907-.471 2.051-.399 2.903-.996l.011.011c-1.126-.147-2.15.005-2.94.851zm-1.181 5.483l-2.943.672c.997-.143 2.091.025 2.927-.68l.016.008zm39.621-18.725l2.293-1.156c-.951.165-1.714.595-2.441 1.079.051.025.1.051.148.077zm-84.746 30.271l1.815-.414c-.61.116-1.269-.234-1.815.414zm72.757-15.94c.921.035 1.62-.492 2.693-.747-1.19-.071-1.844.611-2.693.747zm-70.344 15.592l1.935-.336c-.722-.147-1.388.02-1.935.336zm75.713-17.273c-1.174-.11-1.759.532-2.526.66.841.08 1.452-.486 2.526-.66zm-28.619 4.605c.85-.067 1.657-.133 2.456-.762l-2.456.762zm-37.514 10.949c.85-.014 1.542-.209 2.214-.506a6.15 6.15 0 0 0-2.214.506zm-10.475.642c-.865-.091-1.646.264-2.456.47.852-.005 1.669-.196 2.467-.486l-.011.016zm7.425-.056l1.871-.427-.015-.092-1.92.438.064.081zm40.622-8.472c.636.052 1.248-.13 1.841-.42l-1.841.42zm14.465-4.346l1.854-.548c-.618-.003-1.229.012-1.854.548zm-67.677 13.738c.771.189 1.465-.216 2.177-.48l-2.194.501a.262.262 0 0 1 .017-.021zm48.756-10.994c.719-.186 1.499-.156 2.339-.639-.938.129-1.669.257-2.323.648l-.016-.009zm4.922 2.262c-.676.046-1.344.147-2.106.475.829-.029 1.47-.238 2.106-.475zm30.067-6.703c-.735.056-1.4.17-2.141.516.846-.067 1.54-.189 2.141-.516zm.421-18.015c4.024-2.091 7.735-4.507 11.388-6.986 4.181-2.836 7.881-6.001 11.073-9.499 1.71-1.874 3.022-3.869 3.212-6.111.168-1.981-1.209-3.618-3.55-4.255-2.829-.77-5.84-.494-8.863-.076-4.666.646-9.134 1.965-13.554 3.538-12.062 4.293-22.763 10.344-32.975 17.032-6.092 3.99-11.578 8.423-16.139 13.493-1.295 1.44-2.239 2.983-2.736 4.634-.672 2.233.298 3.475 2.963 4.101 2.2.516 4.507.373 6.817.07 4.772-.624 9.381-1.955 13.955-3.39.128-.04.225-.16.337-.242a6.89 6.89 0 0 1-.152-.062c-.548-.062-1.088.087-1.6.25-3.276 1.042-6.637 1.778-10.004 2.42-3.025.577-6.098 1.04-8.94.08-1.995-.674-2.794-1.927-2.098-3.68 1.32-3.323 3.962-6.122 6.96-8.766 7.521-6.633 16.245-12.146 25.514-17.166 4.256-2.304 8.62-4.455 13.172-6.302 3.397-1.379 6.909-2.544 10.451-3.648 4.33-1.349 8.707-1.949 13.085-1.949 3.329 0 5.377 1.031 5.997 3.005.526 1.674-.147 3.312-1.197 4.9-2.652 4.01-6.648 7.24-10.859 10.325-3.606 2.642-7.441 5.067-11.447 7.319-.362.203-.736.405-.93.738-.037.107.002.183.12.227z"/><path d="M261.28 285.656c2.846-.589 5.457-1.742 8.101-2.776 3.937-1.539 7.797-3.224 11.538-5.092.164-.082.31-.188.464-.283a11.31 11.31 0 0 1-.146-.088c-.491-.085-.908.13-1.319.33-5.725 2.782-11.694 5.125-17.77 7.282-.352.125-.908.155-.847.638l-.021-.011zm23.994-10.118c1.417-.659 2.806-1.354 4.078-2.193l-.141-.081c-1.625.317-2.845 1.176-4.05 2.056-.038.102 0 .174.113.218z"/><path d="M281.383 277.506c.715-.24 1.355-.583 1.959-.975-.059-.079-.15-.122-.272-.129-.782.138-1.515.331-1.793 1.037l.106.067z"/><path d="M283.342 276.531c.705-.251 1.358-.57 1.932-.994a3.141 3.141 0 0 1-.124-.075c-.856.049-1.528.346-1.95.981l.142.088zm18.619-15.464c2.243-1.919 4.058-3.97 4.254-6.531.1-1.316-1.187-2.748-2.842-2.936-2.315-.262-4.668-.278-7.093.213-9.489 1.923-17.907 5.846-26.027 10.31-5.531 3.04-10.783 6.384-15.382 10.271-2.604 2.202-5.244 4.453-6.869 7.206-2.092 3.543.452 5.105 4.297 4.87 3.691-.226 7.313-.963 10.806-2.269.6-.224 1.331-.151 1.816-.631l-.153-.062c-.75-.045-1.456.196-2.161.416a41.758 41.758 0 0 1-9.615 1.833c-.27.019-.54.03-.806.013-3.436-.216-4.544-1.812-2.987-4.382 1.245-2.055 2.976-3.891 4.96-5.6 7.089-6.108 15.339-11.054 24.299-15.253 5.12-2.4 10.393-4.533 16.087-5.715 2.434-.505 4.857-.711 7.257-.514 2.386.195 3.464 1.378 3.116 3.25-.276 1.49-1.172 2.797-2.275 4.068-.338.389-.745.761-.852 1.232-.008.104.049.175.17.211z"/><path d="M264.921 281.571c2.074-.333 3.955-1.166 5.846-1.922 9.009-3.601 17.426-7.968 25.028-13.333 2.261-1.596 4.531-3.212 6.166-5.249a4.262 4.262 0 0 1-.15-.078c-.466-.014-.692.274-.95.512-4.656 4.28-10.17 7.786-16.003 11.005-6.002 3.312-12.329 6.102-18.957 8.415-.383.134-.979.14-.959.661l-.021-.011zm30.398-18.993c1.388-1.015 2.286-2.21 2.575-3.61.315-1.522-.321-2.25-2.21-2.522-1.774-.255-3.602-.078-5.378.407-2.771.757-5.569 1.415-8.234 2.521-6.455 2.676-12.41 5.927-17.868 9.794-1.933 1.37-3.814 2.775-5.215 4.502a.411.411 0 0 0 .323.067c1.301-.781 2.204-1.85 3.372-2.735 5.665-4.293 11.872-7.946 18.812-10.783 2.51-1.026 5.041-1.989 7.729-2.564 1.567-.335 3.153-.532 4.734-.54 2.478-.013 3.406 1.092 2.527 2.956-.371.785-1.094 1.474-1.33 2.294-.008.104.047.174.163.213z"/><path d="M258.989 273.67c-1.392 1.035-2.41 2.218-2.812 3.642-.441 1.56.254 2.418 2.208 2.552 2.269.155 4.548-.215 6.744-.941.788-.26 1.703-.296 2.371-.832l-.151-.063c-1.058-.021-2.063.339-3.076.581-1.339.32-2.669.494-4.022.551-2.63.109-3.649-1.131-2.498-3.085.3-.509.724-.978 1.022-1.489.162-.278.434-.541.328-.856a5.938 5.938 0 0 1-.114-.06z"/><path d="M267.498 278.091c3.302-.635 6.256-2.03 9.204-3.376 5.664-2.585 10.99-5.566 15.671-9.245 1.126-.885 2.054-1.877 2.945-2.892l-.135-.071c-.414-.026-.64.212-.868.434-4.293 4.179-9.666 7.347-15.37 10.183-3.456 1.718-7.038 3.24-10.798 4.432-.297.094-.741.15-.632.544l-.017-.009zm18.794-12.632c.25-.191.53-.366.745-.577.717-.701 1.272-1.486.692-2.242-.516-.672-1.529-.527-2.483-.356-4.731.851-8.845 2.808-12.715 5.195-1.228.758-2.512 1.48-3.37 2.543 1.436-.846 2.704-1.843 4.135-2.695 3.059-1.82 6.298-3.321 9.835-4.354.522-.153 1.061-.204 1.609-.232 2.389-.119 2.928.612 1.663 2.303l-.242.322.131.093zm-4.097 3.113c-.703.406-1.395.823-2.11 1.215-3.068 1.682-6.241 3.171-9.825 3.882-.378.075-.771.14-1.146.14-1.709.001-2.207-.665-1.418-1.897.256-.4.59-.776.817-1.195-.689.53-1.396 1.04-1.79 1.731-.709 1.243.012 1.935 1.693 1.849 1.64-.084 3.115-.688 4.619-1.13 3.234-.952 6.12-2.495 8.882-4.184.141-.086.253-.203.379-.306a3.272 3.272 0 0 0-.101-.105z"/></g><g fill="#FFF"><path d="M75.339 107.648c2.189.051 4.377.124 6.588.607 3.374.736 6.634 2.121 9.77 4.223 4.718 3.163 9.035 7.149 13.051 11.775a289.795 289.795 0 0 1 5.619 6.712c2.815 3.447 5.434 7.107 8.061 10.771a263.162 263.162 0 0 1 7.544 11.1c6.194 9.644 12.152 19.508 17.788 29.672 6.657 12.004 12.964 24.261 18.463 37.108 3.324 7.767 6.241 15.706 8.038 24.109.88 4.112 1.051 8.195 1.036 12.312-.024 6.856-1.565 12.983-3.582 18.859-3.364 9.799-7.414 19.048-12.197 27.662-2.338 4.21-4.832 8.259-8.176 11.246-1.655 1.478-3.503 2.457-5.669 2.156-1.427-.198-2.786-1.068-3.992-2.329-2.278-2.382-4.03-5.379-5.941-8.198-1.49-2.197-2.843-4.568-4.635-6.412-.156.02-.229.092-.088.297 2.957 3.746 5.32 8.125 8.067 12.09 1.618 2.336 3.355 4.548 5.773 5.415 1.689.606 3.204.24 4.6-.603 3.393-2.05 5.758-5.601 8.002-9.268 3.111-5.082 5.837-10.537 8.328-16.209 2.574-5.86 5.11-11.75 7.173-18.005 1.251-3.793 2.26-7.745 2.711-11.933.728-6.76.271-13.614-1.507-20.503-2.174-8.424-5.301-16.398-8.755-24.217-5.233-11.849-11.129-23.211-17.314-34.356a500.998 500.998 0 0 0-17.716-29.493c-4.182-6.448-8.494-12.754-13.067-18.765a176.833 176.833 0 0 0-6.398-7.94c-3.94-4.599-8.067-8.882-12.651-12.256-4.155-3.058-8.496-5.195-13.108-5.776-1.791-.226-3.565-.352-5.324-.201-.209.021-.535-.196-.492.35z"/><path d="M132.659 301.941c1.47 1.973 3.05 3.769 4.766 5.37 1.38 1.288 2.896 1.808 4.445 2.027 2.338.33 4.212-.92 5.942-2.442 2.883-2.537 5.088-5.956 7.165-9.524 3.654-6.279 6.555-13.196 9.049-20.447 2.046-5.947 3.396-12.296 3.438-19.075.042-6.715-.986-13.452-3.001-20.078-3.628-11.933-8.653-23.055-14.074-33.95-7.73-15.538-16.276-30.374-25.46-44.648-4.953-7.699-10.058-15.229-15.586-22.279-4.379-5.586-8.931-10.907-13.944-15.486-4.309-3.936-8.858-7.227-13.832-8.984-3.317-1.172-6.668-1.888-9.892-.743-1.844.655-3.44 1.746-4.42 3.926.244-.266.52-.494.726-.803 1.431-2.134 3.504-2.734 5.631-2.993 3.801-.462 7.551.94 11.232 2.858 6.114 3.185 11.443 8.21 16.511 13.78 9.994 10.983 18.536 23.712 26.723 36.842 8.729 14 16.871 28.504 24.171 43.704 3.915 8.151 7.523 16.478 10.455 25.199 2.549 7.583 4.06 15.317 4.168 23.207.047 3.445-.263 6.907-.953 10.099-2.882 13.33-7.8 25.057-14.924 34.93-1.82 2.522-3.93 4.621-6.636 5.615-2.193.806-4.31.271-6.47-1.279-1.922-1.38-3.41-3.456-5.103-5.2-.168.038-.295.105-.127.374z"/><path d="M131.9 294.643c2.108 2.126 4.348 4.007 6.832 4.965 2.195.846 4.336.476 6.284-.665 2.41-1.412 4.367-3.549 6.085-6.057 3.808-5.559 6.548-12.056 8.451-19.17 1.479-5.53 2.105-11.436 1.847-17.605-.259-6.207-1.538-12.247-3.309-18.215-3.633-12.241-8.868-23.572-14.497-34.66a431.511 431.511 0 0 0-18.425-32.642c-4.048-6.505-8.222-12.878-12.6-19.033-3.941-5.542-8.038-10.887-12.389-15.892-4.877-5.609-10.053-10.64-15.822-14.424-2.967-1.946-6.03-3.494-9.266-3.81-3.745-.366-6.782.896-8.497 5.185a8.686 8.686 0 0 0-.25.696c-.027.089-.01.205-.021.575.24-.46.399-.72.524-1.008 1.788-4.153 4.822-5.25 8.506-4.67 5.449.858 10.262 4.317 14.907 8.355 7.707 6.699 14.369 14.996 20.699 23.763 12.567 17.405 23.647 36.208 33.606 56.038 4.482 8.924 8.55 18.111 11.795 27.77a93.598 93.598 0 0 1 4.082 17.644c.921 7.003.519 13.7-1.021 20.078-1.395 5.776-3.343 11.161-5.987 16.039-1.896 3.498-4.006 6.686-6.811 9.009-1.965 1.627-4.159 2.523-6.668 2.202-2.12-.271-4.012-1.65-5.863-3.13-.694-.555-1.379-1.131-2.068-1.697-.162.039-.281.106-.124.359z"/><path d="M131.29 288.694c1.941 1.388 3.847 2.867 6.022 3.391 3.608.868 6.532-.388 9.142-3.07 2.706-2.781 4.688-6.339 6.211-10.278 1.482-3.832 2.637-7.917 3.178-12.356 1.058-8.696.112-17.344-2.256-26.107-3.343-12.373-8.509-23.724-14.061-34.856-7.438-14.914-15.823-28.996-24.833-42.501-5.844-8.759-12.051-17.078-18.902-24.538-4.642-5.054-9.527-9.649-15.052-12.743-2.713-1.519-5.512-2.516-8.305-2.012-2.115.382-3.836 1.718-4.76 4.225-.542 1.47-1.229 2.886-1.206 4.688l.052.099.083-.022c.55-2.373 1.078-4.774 2.604-6.363 1.671-1.741 3.684-2.305 5.962-1.888 3.7.677 7.105 2.733 10.395 5.267 4.344 3.346 8.308 7.409 12.128 11.753 8.146 9.267 15.37 19.634 22.208 30.461 7.416 11.741 14.376 23.876 20.603 36.635 4.17 8.544 8.011 17.279 11.019 26.485 2.679 8.199 4.32 16.583 4.227 25.081-.047 4.256-.669 8.383-1.681 12.366-1.039 4.091-2.483 7.805-4.422 11.149-2.272 3.919-4.951 7.178-9.066 7.903-2.15.379-4.258-.121-6.341-1.403-.9-.554-1.794-1.125-2.691-1.688-.252-.112-.385-.068-.258.322z"/><path d="M126.684 279.681c2.392 2.171 4.909 3.96 7.651 5.007 3.348 1.278 6.275.429 8.832-1.839 3.44-3.051 5.39-7.567 6.763-12.677 1.077-4.008 1.41-8.253 1.336-12.585-.104-6.064-1.021-12.106-2.67-18.074-2.667-9.652-6.433-18.737-10.659-27.57a344.168 344.168 0 0 0-26.846-46.469c-4.466-6.498-9.107-12.79-14.142-18.554-4.686-5.365-9.614-10.3-15.193-13.888-2.18-1.402-4.456-2.464-6.757-2.53-3.242-.093-5.478 1.535-6.519 6.008-.551 2.368-.862 4.859-.724 7.468.014.262.095.529.144.794l-.023-.016c.063-2.405.335-4.737.7-7.05.628-3.979 3.317-6.648 6.543-6.393 2.874.228 5.531 1.746 8.138 3.515 4.136 2.807 7.86 6.469 11.432 10.423 11.536 12.771 21.273 27.605 30.333 43.198 6.099 10.497 11.75 21.341 16.586 32.782 3.162 7.482 5.972 15.124 7.624 23.218 1.428 6.995 1.991 13.97 1.087 20.781-.778 5.866-2.524 11.167-5.742 15.131-3.141 3.869-7.023 5.446-11.863 2.947-2.072-1.07-3.941-2.604-5.881-3.991-.207-.006-.265.11-.15.364z"/><path d="M122.558 270.212c2.751 2.823 5.682 5.176 8.992 6.361 3.789 1.357 6.825.3 9.491-2.982 2.957-3.641 4.138-8.371 4.573-13.515.503-5.951-.272-12.052-1.64-18.092-1.94-8.564-5.05-16.613-8.555-24.471-7.453-16.708-16.439-32.11-26.407-46.646-5.052-7.366-10.334-14.454-16.339-20.546-3.113-3.158-6.271-6.254-9.81-8.496-1.806-1.144-3.656-1.955-5.606-2.202-3.453-.437-5.535 2.061-6.252 6.026-.673 3.72-.579 7.571-.122 11.491.143 1.227.158 2.462.488 3.678.047.043.083.049.107.02.023-.028.033-.052.028-.071-.627-4.791-1.059-9.558-.247-14.155.704-3.991 2.724-6.297 5.36-6.192 1.876.075 3.694.689 5.474 1.74 4.336 2.561 8.175 6.216 11.838 10.229 11.307 12.386 20.694 26.954 29.429 42.245 5.243 9.178 10.025 18.698 14.088 28.722 2.887 7.122 5.315 14.421 6.736 22.084 1.029 5.549 1.401 11.069.642 16.409-.394 2.772-.904 5.609-2.13 7.886-1.423 2.64-3.07 5.095-5.57 6.171-2.042.879-4.211.596-6.408-.296-2.598-1.055-4.88-3.022-7.184-4.937-.29-.241-.578-.483-.867-.725-.153-.005-.229.052-.109.264z"/><path d="M74.887 163.616c-.173-3.177-.193-6.292.694-9.187.817-2.67 2.987-4.147 5.314-3.553 2.69.687 5.104 2.378 7.452 4.301 4.019 3.291 7.594 7.362 11.014 11.645 11.328 14.184 20.815 30.148 28.963 47.367 2.642 5.583 5.042 11.343 6.844 17.357 1.721 5.744 3.226 11.556 3.581 17.608.269 4.582-.273 8.816-1.574 12.756-.62 1.878-1.762 3.278-3.261 4.187-3.008 1.824-6.04.676-9.063-1.218-3.821-2.394-7.055-5.986-10.195-9.696-6.01-7.1-11.137-15.169-15.899-23.625-.146-.259-.294-.516-.453-.794-.198.249-.019.435.07.597 5.41 9.73 11.293 18.963 18.403 26.776 3.097 3.403 6.247 6.833 10.14 8.576 1.907.854 3.807 1.443 5.653.912 1.542-.444 2.872-1.357 3.947-2.937 1.703-2.504 2.268-5.725 2.726-8.894.42-2.909.19-6.079-.21-9.19-1.15-8.931-3.863-17.345-7.281-25.52-6.55-15.665-14.745-29.977-23.89-43.483-4.303-6.355-8.839-12.444-13.946-17.739-3.134-3.25-6.274-6.561-9.978-8.552-1.864-1.002-3.774-1.887-5.711-1.207-1.339.47-2.335 1.473-2.879 3.099-1.031 3.08-1.111 6.448-.772 9.929.038.226-.029.558.311.485z"/><path d="M121.25 255.894c1.694 1.191 3.438 2.005 5.301 2.272 2.974.426 4.991-1.978 5.947-5.178 1.172-3.924.784-8.142.111-12.441-1.873-11.97-6.616-22.607-11.811-33.004-5.9-11.808-12.745-22.723-20.518-32.697-3.457-4.436-7.214-8.39-11.319-11.709-1.492-1.207-3.086-2.095-4.804-2.447-2.647-.543-4.171.993-4.821 4.038-.533 2.493-.321 5.115-.084 7.742.419 4.633 1.59 9.128 2.784 13.617.26.976.577 1.936.868 2.903.111.04.182-.008.213-.141.029-.986-.294-1.915-.557-2.849-1.626-5.779-2.923-11.598-2.883-17.564.011-1.664.268-3.233.918-4.606.672-1.419 1.697-2.058 3.044-2 1.275.055 2.49.533 3.694 1.298 3.784 2.402 7.08 5.756 10.208 9.456 6.849 8.099 12.794 17.181 18.254 26.807 4.144 7.307 7.838 14.915 11.003 22.9 1.934 4.878 3.602 9.861 4.63 15.057.806 4.071 1.323 8.169.87 12.208-.239 2.137-.839 4.05-1.906 5.567-1.231 1.749-2.95 2.183-4.877 1.788-1.238-.253-2.418-.894-3.605-1.477a.726.726 0 0 0-.444-.082c-.182.094-.374.183-.216.542zm11.409 46.047l.127-.375c-1.334-1.611-2.63-3.281-4.009-4.821-4.312-4.813-8.723-9.475-12.973-14.38-7.309-8.437-13.44-18.171-19.026-28.472-2.756-5.083-5.379-10.263-7.75-15.625-.026-.058-.098-.087-.149-.129l-.047.087c1.03 2.792 2.372 5.382 3.667 7.998 5.391 10.886 11.365 21.231 18.388 30.596 3.089 4.119 6.409 7.898 9.819 11.556a301.065 301.065 0 0 1 7.058 7.804c1.649 1.896 3.136 4.029 4.895 5.761z"/><path d="M131.9 294.643l.119-.361c-1.606-1.856-3.398-3.376-5.106-5.046-14.494-14.181-26.054-31.641-35.581-51.382-.761-1.577-1.501-3.168-2.25-4.753-.135.013-.213.062-.072.247 2.102 4.943 4.541 9.645 7.043 14.299 5.329 9.908 11.183 19.283 17.934 27.731 3.507 4.388 7.214 8.458 11.027 12.386a318.964 318.964 0 0 0 6.886 6.879z"/><path d="M131.29 288.694c.018-.197.127-.274.258-.32-11.656-9.664-21.371-22.058-29.884-36.146-4.262-7.053-8.171-14.389-11.767-21.976-.061-.051-.112-.062-.155-.031s-.061.057-.057.077c2.638 5.731 5.531 11.268 8.586 16.681 5.611 9.942 11.794 19.259 18.861 27.592 4.174 4.921 8.596 9.421 13.266 13.474.284.247.594.435.892.649z"/><path d="M126.684 279.681l.151-.365c-11.759-10.458-21.008-24.06-29.299-38.848-4.449-7.936-8.411-16.224-12.008-24.763-.038-.091-.108-.164-.344-.513.537 1.84 1.247 3.225 1.867 4.642 5.871 13.406 12.703 26.024 20.652 37.717 5.378 7.91 11.274 15.073 17.867 21.23.356.33.742.601 1.114.9zm.334 19.638l.088-.297c-2.274-3.334-4.971-6.042-7.643-8.768-8.611-8.784-15.666-19.357-21.953-30.836-3.703-6.761-7.054-13.767-10.171-20.939l-.059.109c1.338 3.61 2.952 7.053 4.609 10.462 5.527 11.37 11.614 22.23 19.012 31.876 3.195 4.165 6.698 7.848 10.205 11.535 2.052 2.157 4.086 4.358 5.912 6.858z"/><path d="M122.558 270.212l.108-.265c-1.916-2.074-3.923-3.988-5.789-6.156-6.792-7.892-12.648-16.813-18.011-26.272-5.398-9.52-10.193-19.466-14.293-29.887-.052-.044-.095-.053-.129-.025s-.049.05-.045.069c1.418 3.968 3.109 7.784 4.848 11.56 5.288 11.484 11.236 22.426 18.117 32.567 4.539 6.69 9.356 13.013 14.951 18.241.074.069.161.112.243.168zm-1.308-14.318c.011-.237.133-.33.292-.376.031-.408-.235-.533-.44-.688-6.118-4.607-10.938-11.136-15.511-18.029-3.51-5.291-6.658-10.906-9.62-16.679a157.691 157.691 0 0 1-4.016-8.399c-.2-.453-.354-.952-.721-1.263-.099-.055-.176-.031-.232.071.391 1.489 1.155 2.758 1.785 4.096 5.379 11.415 11.48 22.172 18.936 31.656 2.896 3.683 6.027 6.985 9.527 9.611zm-43.583-59.45a282.805 282.805 0 0 0-2.944-15.647c-.681-3.147-1.145-6.341-1.882-9.483-.052-.041-.094-.046-.127-.017-.032.028-.046.052-.042.07.076 1.168.416 2.296.639 3.442 1.113 5.734 2.256 11.464 3.323 17.206.278 1.494.528 2.988.909 4.461.047.072.081.091.102.058.02-.034.028-.063.022-.09zm-2.78-32.828l-.309-.488c.181 3.723.866 7.405 1.649 11.071.913 4.276 2.105 8.478 3.299 12.677.051.042.093.049.126.021.033-.027.047-.049.043-.067-.877-3.442-1.746-6.886-2.633-10.325-1.028-3.986-1.658-8.019-2.057-12.083-.026-.27-.078-.538-.118-.806zm-3.381-2.848a.135.135 0 0 0-.136.051c-.174 1.108.257 2.207.423 3.288.889 5.775 2.144 11.482 3.829 17.088.301 1.001.392 2.066.888 3.016-2.051-7.741-3.843-15.53-5.004-23.443z"/><path d="M83.9 191.892c.849 3.497 2.182 6.789 3.453 10.099 1.115 2.902 2.19 5.839 3.65 8.541l.057-.088c.143-.479-.073-.908-.256-1.325-2.307-5.264-4.316-10.679-6.193-16.161-.136-.396-.22-.843-.561-1.088-.05.006-.1.014-.15.022zm-11.229-20.526l.17-.052-4.121-19.842c1.21 6.652 2.387 13.308 3.951 19.894zm17.014 58.933l.212-.047a378.468 378.468 0 0 1-7.221-16.822 167.619 167.619 0 0 0 7.009 16.869zm-9.99-43.469l-.169.046c.939 2.896 1.846 5.805 2.827 8.683.796 2.337 1.679 4.636 2.53 6.948.03.082.139.126.212.188l-.001.001c-.314-1.659-1.06-3.134-1.605-4.692-1.222-3.496-2.483-6.974-3.529-10.544-.064-.218-.176-.421-.265-.63zm-4.356-79.182c.084-.283.337-.216.494-.348-2.211-.073-4.163.761-6.009 1.971-.599.392-1.147.855-1.497 1.658 1.95-2.196 4.495-2.7 7.012-3.281zm9.059 100.027l.174-.044a297.141 297.141 0 0 1-4.465-11.872c1.179 4.089 2.589 8.07 4.291 11.916zm4.612 25.673l.072-.247c-1.611-3.694-3.258-7.366-4.79-11.109a99.39 99.39 0 0 0 4.718 11.356zm2.331-15.951c.318 1.166.917 2.159 1.429 3.2 1.131 2.298 2.229 4.622 3.51 6.806.088.01.114-.039.078-.147a45776.52 45776.52 0 0 1-5.014-9.863l-.003.004zm-13.674-20.953a.602.602 0 0 0-.125.031c-.132.746-.082 1.501.133 2.273.346 1.241.505 2.51.686 3.778.057.401.078.854.333 1.185.012-2.443-.719-4.838-1.027-7.267zm-10.215-52.257c-.371.785.214 1.559.251 2.351.06 1.277.238 2.564.372 3.912.277-.264.01-.584.141-.857l.34 1.035c-.529-1.956-.444-3.921-.678-5.872l.023.016c-.293.034.034.487-.199.577l-.268-1.173.018.011zm5.082 34.718c.473 2.576.943 5.139 1.89 7.572-.288-2.62-1.369-5.029-1.89-7.572zm-.59-6.446c-.47-2.608-.957-5.212-1.943-7.73.316 2.704 1.37 5.151 1.943 7.73z"/><path d="M85.094 202.695c.692 2.535 1.827 4.842 2.819 7.22.126.301.09.814.494.914l-.012.023c-.409-1.738-1.242-3.262-1.883-4.88-.439-1.107-.76-2.297-1.418-3.277zm3.785 35.443a3167.17 3167.17 0 0 0-3.061-7.363c-.01-.023-.102.001-.155.004l.014-.02c.918 2.567 1.945 5.07 3.155 7.466l.047-.087z"/><path d="M88.406 210.829c.773 2.319 1.778 4.491 2.935 6.568l.002-.004c-.821-2.283-1.834-4.445-2.949-6.541l.012-.023zm-18.502-47.744c-.003-1.775-.848-3.33-1.232-5.014.272 1.702.646 3.378 1.232 5.014zm8.878 41.366c.043 2.179.2 2.851 1.111 4.946-.404-1.652-.898-3.284-1.111-4.946zm-3.901-15.981c.068 1.834.506 3.515 1.015 5.185-.414-1.706-.348-3.482-1.015-5.185zm4.899 12.305c.355 1.925 1.268 3.611 1.891 5.421-.548-1.838-1.046-3.698-1.904-5.401l.013-.02zm-13.232-61.784c.119-1.211-.407-2.464-.215-3.671-.015-.112-.059-.149-.135-.101-.102.013-.378-.724-.297.059.13 1.256.165 2.528.669 3.732l-.022-.019zm6.292 37.351c.243 1.764.683 3.484 1.197 5.186-.315-1.748-.641-3.493-1.197-5.186zm5.695 20.626c-.18-1.51-.863-2.853-1.255-4.292.234 1.487.629 2.92 1.267 4.271l-.012.021zm.691 12.929c.17 1.027.217 2.081.882 2.984.021-1.173-.605-2.026-.882-2.984zm-3.849-23.055c-.107-1.377-.505-2.716-.925-4.051l.925 4.051zm-1.852-5.131c-.196-1.397-.472-2.76-.967-4.254.186 1.573.543 2.928.967 4.254zm12.138 49.067c-.058-1.314-.888-2.3-1.195-3.508.206 1.248.684 2.377 1.21 3.486a.784.784 0 0 1-.015.022z"/><path d="M78.548 196.947c.205 1.358.66 2.616 1.232 3.828l-.013.02a14.069 14.069 0 0 0-1.232-3.827l.013-.021zm-6.845-23.714l.574 2.513c.37-1.086-.233-1.779-.441-2.54-.042-.054-.076-.067-.101-.042-.026.026-.037.049-.032.069zM65.9 118.408l1.172-2.545c-.557.604-.939 1.355-1.172 2.545zm-.284 8.873l.595-2.742c-.472.764-.67 1.668-.595 2.742zm19.1 86.478l-.959-2.477c.046.96.381 1.779.959 2.477z"/><path d="M71.703 173.233a.148.148 0 0 0 .132-.027l-.793-3.474c.065 1.199.354 2.351.661 3.501zm15.636 65.246l-1.141-2.984c.121 1.146.607 2.117 1.083 3.093.018-.037.038-.073.058-.109zM72.302 179.52c.207 1.047.296 2.121.742 3.301-.071-1.268-.491-2.268-.742-3.301zm3.851 16.298l.696 3.049.093-.019-.696-3.05-.093.02zm-5.414-24.99c.049.932.155 1.852.614 2.69l-.614-2.69zm-4.272-38.29c-.134.879-.274 1.757-.268 2.681.045.032.09.066.135.101.184-.872.289-1.769.269-2.706-.033-.073-.078-.098-.136-.076zm16.571 56.425a.893.893 0 0 0-.135.026c.471.907.399 2.051.996 2.903l-.011.011c.148-1.126-.003-2.15-.85-2.94zm-5.483-1.181l-.672-2.943c.143.997-.025 2.091.68 2.927l-.008.016zm18.725 39.621l1.156 2.293c-.165-.951-.595-1.714-1.079-2.441-.024.051-.05.1-.077.148zm-30.27-84.746l.414 1.815c-.116-.61.233-1.269-.414-1.815zm15.94 72.757c-.035.921.492 1.62.747 2.693.07-1.19-.612-1.844-.747-2.693zM66.357 145.07l.336 1.935c.148-.722-.019-1.388-.336-1.935zm17.273 75.713c.11-1.174-.532-1.759-.66-2.526-.08.841.486 1.453.66 2.526zm-4.604-28.619c.067.85.133 1.657.762 2.456l-.762-2.456zM68.077 154.65c.014.85.209 1.542.506 2.214a6.176 6.176 0 0 0-.506-2.214zm-.643-10.475c.091-.865-.264-1.646-.47-2.456.006.852.196 1.669.486 2.467a.404.404 0 0 0-.016-.011zm.057 7.425l.427 1.871.092-.015-.438-1.92a1.755 1.755 0 0 0-.081.064zm8.471 40.622c-.053.636.13 1.248.42 1.841l-.42-1.841zm4.347 14.465l.548 1.854c.002-.618-.013-1.229-.548-1.854zM66.571 139.01c-.189.771.216 1.465.48 2.177l-.501-2.194a.817.817 0 0 1 .021.017z"/><path d="M77.564 187.766c.186.719.156 1.499.639 2.339-.129-.938-.257-1.669-.648-2.323l.009-.016zm-2.262 4.923c-.046-.676-.147-1.344-.475-2.106.03.828.239 1.469.475 2.106zm6.703 30.066c-.056-.735-.17-1.4-.516-2.141.067.846.189 1.54.516 2.141zm18.015.421c2.091 4.024 4.507 7.735 6.986 11.388 2.836 4.181 6.001 7.881 9.499 11.073 1.874 1.71 3.869 3.022 6.111 3.213 1.981.168 3.618-1.209 4.255-3.55.77-2.829.494-5.84.076-8.863-.646-4.666-1.965-9.134-3.538-13.554-4.293-12.062-10.344-22.763-17.032-32.975-3.99-6.092-8.423-11.578-13.493-16.139-1.44-1.295-2.983-2.239-4.634-2.736-2.233-.672-3.475.298-4.101 2.963-.516 2.2-.373 4.507-.07 6.817.624 4.772 1.955 9.381 3.39 13.955.04.128.16.225.242.337a6.89 6.89 0 0 1 .062-.152c.062-.548-.087-1.088-.25-1.6-1.042-3.276-1.778-6.637-2.42-10.004-.577-3.025-1.04-6.098-.08-8.94.674-1.995 1.927-2.794 3.679-2.098 3.323 1.32 6.122 3.962 8.766 6.96 6.633 7.521 12.146 16.245 17.166 25.514 2.304 4.256 4.455 8.62 6.302 13.172 1.379 3.397 2.544 6.909 3.648 10.451 1.349 4.33 1.949 8.707 1.949 13.085 0 3.329-1.031 5.377-3.005 5.997-1.674.526-3.312-.147-4.9-1.197-4.01-2.652-7.24-6.648-10.325-10.859-2.642-3.606-5.067-7.441-7.319-11.447-.203-.362-.405-.736-.738-.93-.106-.038-.181.001-.226.119z"/><path d="M87.71 195.104c.589 2.846 1.742 5.457 2.776 8.101 1.539 3.937 3.224 7.797 5.092 11.538.082.164.188.31.283.464l.088-.146c.085-.491-.13-.908-.33-1.319-2.782-5.725-5.125-11.694-7.282-17.77-.125-.352-.155-.908-.638-.847l.011-.021zm10.118 23.994c.659 1.417 1.354 2.806 2.193 4.078l.081-.141c-.317-1.625-1.176-2.845-2.056-4.05-.102-.038-.175 0-.218.113z"/><path d="M95.86 215.207c.24.715.583 1.355.975 1.959.079-.059.122-.15.129-.272-.137-.782-.331-1.515-1.037-1.793a3.8 3.8 0 0 0-.067.106z"/><path d="M96.835 217.166c.251.705.57 1.358.994 1.932.024-.042.049-.083.075-.124-.049-.856-.346-1.528-.981-1.95l-.088.142zm15.463 18.619c1.919 2.243 3.97 4.058 6.531 4.254 1.316.1 2.748-1.187 2.936-2.842.262-2.315.278-4.668-.213-7.093-1.923-9.489-5.846-17.907-10.31-26.027-3.04-5.531-6.384-10.783-10.271-15.382-2.202-2.604-4.453-5.244-7.206-6.869-3.543-2.092-5.105.452-4.87 4.297.226 3.691.963 7.313 2.269 10.806.224.6.151 1.331.631 1.816l.062-.153c.045-.75-.196-1.456-.416-2.161a41.758 41.758 0 0 1-1.833-9.615c-.019-.27-.03-.54-.013-.806.216-3.436 1.812-4.544 4.382-2.987 2.055 1.245 3.891 2.976 5.6 4.96 6.108 7.089 11.054 15.339 15.253 24.299 2.4 5.12 4.533 10.393 5.715 16.087.505 2.434.711 4.857.514 7.257-.195 2.386-1.378 3.464-3.25 3.116-1.489-.276-2.797-1.172-4.068-2.275-.389-.338-.761-.745-1.232-.852-.104-.008-.174.049-.211.17z"/><path d="M91.795 198.745c.333 2.074 1.166 3.955 1.922 5.846 3.601 9.009 7.968 17.426 13.333 25.028 1.596 2.261 3.212 4.531 5.248 6.166.025-.05.051-.101.078-.15.014-.466-.274-.692-.511-.95-4.28-4.656-7.786-10.17-11.005-16.003-3.312-6.002-6.102-12.329-8.415-18.957-.134-.383-.14-.979-.661-.959l.011-.021zm18.992 30.398c1.015 1.388 2.21 2.286 3.61 2.575 1.522.315 2.25-.321 2.522-2.21.255-1.774.078-3.602-.407-5.378-.757-2.771-1.415-5.569-2.521-8.234-2.676-6.455-5.927-12.41-9.794-17.868-1.37-1.933-2.775-3.814-4.502-5.215a.411.411 0 0 0-.067.323c.781 1.301 1.85 2.204 2.735 3.372 4.293 5.665 7.946 11.872 10.783 18.812 1.026 2.51 1.989 5.041 2.564 7.729.335 1.567.532 3.153.54 4.734.013 2.478-1.092 3.406-2.956 2.527-.785-.371-1.474-1.094-2.294-1.33-.103-.008-.174.047-.213.163z"/><path d="M99.696 192.813c-1.035-1.392-2.218-2.41-3.642-2.812-1.56-.441-2.418.254-2.552 2.208-.156 2.269.215 4.548.941 6.744.26.788.296 1.703.832 2.371l.063-.151c.021-1.058-.339-2.063-.581-3.076a20.979 20.979 0 0 1-.551-4.022c-.109-2.63 1.131-3.649 3.085-2.498.509.3.978.724 1.489 1.022.278.162.541.434.856.328.019-.039.039-.077.06-.114z"/><path d="M95.274 201.323c.635 3.302 2.03 6.256 3.376 9.204 2.585 5.664 5.566 10.99 9.245 15.671.885 1.126 1.877 2.054 2.892 2.945l.071-.135c.026-.414-.212-.64-.434-.868-4.179-4.293-7.347-9.666-10.183-15.37-1.718-3.456-3.24-7.038-4.432-10.798-.094-.297-.15-.741-.544-.632l.009-.017zm12.633 18.793c.191.25.366.53.577.745.701.717 1.486 1.272 2.242.692.672-.516.527-1.529.356-2.483-.851-4.731-2.808-8.845-5.195-12.715-.758-1.228-1.48-2.512-2.543-3.37.846 1.436 1.843 2.704 2.695 4.135 1.82 3.059 3.321 6.298 4.354 9.835.153.522.204 1.061.232 1.609.119 2.389-.612 2.928-2.303 1.663l-.322-.242a8.178 8.178 0 0 0-.093.131zm-3.114-4.097c-.406-.703-.823-1.395-1.215-2.11-1.682-3.068-3.171-6.241-3.882-9.825-.075-.378-.14-.771-.14-1.146-.001-1.709.665-2.207 1.897-1.418.4.256.776.59 1.195.817-.53-.689-1.04-1.396-1.731-1.79-1.243-.709-1.935.012-1.849 1.693.084 1.64.688 3.115 1.13 4.619.952 3.234 2.494 6.12 4.184 8.882.086.141.203.253.306.379.035-.032.07-.066.105-.101z"/></g><path fill="#BED735" d="M373.599 180.535v8.651l-169.625 89.376-.238-.128-169.867-89.729v-7.69l170.105-89.376z"/><path opacity=".4" d="M373.599 180.535v8.651l-169.625 89.376-.238-.128v-9.903z"/><path opacity=".2" d="M203.736 268.531v9.903L33.869 188.705v-7.69z"/><g opacity=".8" fill="#FFF"><path d="M156.521 244.335l-12.206-6.289 172.835-86.967 12.134 6.36zm-54.425-27.36l-12.206-6.289 172.836-86.966 12.134 6.359zm-42.14-22.863l-12.206-6.289 172.835-86.966 12.134 6.359z"/><path d="M242.855 248.544L70.94 161.537l7.139-3.75 171.996 87.017zm44.968-23.296l-147.84-74.833 2.967-5.861 152.062 76.97zm46.201-23.934l-153.132-77.512 2.967-5.861 157.354 79.649z"/></g><path fill="#36BAEC" d="M373.601 115.995v8.651l-169.625 89.376-.238-.127-169.867-89.729v-7.69L203.976 27.1z"/><path opacity=".4" d="M373.601 115.995v8.651l-169.625 89.376-.238-.127v-9.903z"/><path opacity=".2" d="M203.738 203.992v9.903L33.871 124.166v-7.69z"/><path fill="#FFF" d="M236.627 134.029c-5.498 0-11.319-.224-17.462-.674a4.513 4.513 0 0 1-2.055-.669c-7.009-4.344-26.885-14.188-51.923-20.347-18.303-4.502-36.698-6.498-54.671-5.931-22.41.707-44.246 5.423-64.902 14.018a4.516 4.516 0 1 1-3.47-8.34c21.736-9.045 44.715-13.995 68.298-14.714 18.836-.573 38.092 1.537 57.228 6.275 29.027 7.186 48.663 18.094 53.222 20.774 5.484.379 10.698.568 15.621.568 28.042.001 46.819-6.116 54.744-17.963 4.134-6.179 5.43-13.925 3.854-23.021-1.237-7.133-3.858-12.417-3.884-12.469a4.521 4.521 0 0 1 2.003-6.062 4.512 4.512 0 0 1 6.059 1.989c.514 1.016 12.45 25.106-.485 44.527-9.758 14.652-30.638 22.039-62.177 22.039z"/><path fill="#FFF" d="M200.414 25.208c-5.299 6.56-8.735 13.749-8.948 22.278-.216 8.653 4.194 16.438 9.31 23.052 9.661 12.489 21.67 23.715 28.332 38.243 7.462 16.274 1.142 34.371-10.845 46.516-5.166 5.234-10.989 10.314-13.834 17.287-3.972 9.735-1.438 20.444-2.737 30.608-.408 3.192 4.597 3.153 5 0 1.256-9.829-1.492-20.625 2.866-29.868 3.264-6.921 9.89-11.889 15.009-17.37 10.046-10.757 14.819-26.538 11.831-40.975-2.894-13.981-13.343-25.459-22.281-36.009-5.706-6.736-12.271-13.547-15.714-21.783-4.185-10.011-1-20.339 5.546-28.443 2.007-2.483-1.508-6.045-3.535-3.536z"/><ellipse fill="#FFF" cx="169.175" cy="71.484" rx="24.791" ry="15.24"/><ellipse opacity=".1" fill="#FFF" cx="203.738" cy="109.208" rx="87.175" ry="53.59"/><ellipse fill="#C4DC7A" cx="325.96" cy="115.084" rx="9.558" ry="5.876"/><ellipse fill="#4995D1" cx="207.94" cy="175.139" rx="9.558" ry="5.876"/><ellipse fill="#FEC36F" cx="183.698" cy="128.479" rx="4.65" ry="2.859"/><path opacity=".3" fill="#4995D1" d="M51.47 120.959s89.064-35.498 162.961 16.258h11.182s-19.145 29.569-27.23 37.922l2.266 22.568"/><image overflow="visible" opacity=".21" width="174" height="173" xlink:href="6B028FFB904042CB.png" transform="translate(257.527 28.511)"/><circle fill="#FFF" cx="347.431" cy="107.975" r="68.375"/><circle fill="none" stroke="#EDEDED" stroke-width="6" stroke-miterlimit="10" cx="347.431" cy="107.975" r="68.375"/><path fill="#FFD782" d="M353.037 141.611h-6.229a1.246 1.246 0 0 1-1.246-1.246v-28.653c0-.688.558-1.246 1.246-1.246h6.229c.688 0 1.246.558 1.246 1.246v28.653c0 .688-.558 1.246-1.246 1.246z"/><path fill="#FFC36E" d="M353.037 141.611h-6.229a1.246 1.246 0 0 1-1.246-1.246v-21.178c0-.688.558-1.246 1.246-1.246h6.229c.688 0 1.246.558 1.246 1.246v21.178c0 .688-.558 1.246-1.246 1.246z"/><path fill="#C3E678" d="M365.495 141.611h-6.229a1.246 1.246 0 0 1-1.246-1.246V89.288c0-.688.558-1.246 1.246-1.246h6.229c.688 0 1.246.558 1.246 1.246v51.077c0 .688-.558 1.246-1.246 1.246z"/><path fill="#A5D76E" d="M365.495 141.611h-6.229a1.246 1.246 0 0 1-1.246-1.246v-36.128c0-.688.558-1.246 1.246-1.246h6.229c.688 0 1.246.558 1.246 1.246v36.128c0 .688-.558 1.246-1.246 1.246z"/><path fill="#00D2FF" d="M328.121 141.611h-6.229a1.246 1.246 0 0 1-1.246-1.246v-21.178c0-.688.558-1.246 1.246-1.246h6.229c.688 0 1.246.558 1.246 1.246v21.178c0 .688-.558 1.246-1.246 1.246z"/><path fill="#9BE6D2" d="M377.953 141.611h-6.229a1.246 1.246 0 0 1-1.246-1.246V81.813c0-.688.558-1.246 1.246-1.246h6.229c.688 0 1.246.558 1.246 1.246v58.552a1.247 1.247 0 0 1-1.246 1.246z"/><path fill="#78D2BE" d="M377.953 141.611h-6.229a1.246 1.246 0 0 1-1.246-1.246V96.763c0-.688.558-1.246 1.246-1.246h6.229c.688 0 1.246.558 1.246 1.246v43.603a1.247 1.247 0 0 1-1.246 1.245z"/><path fill="#FF6464" d="M340.579 141.611h-6.229a1.246 1.246 0 0 1-1.246-1.246v-36.128c0-.688.558-1.246 1.246-1.246h6.229c.688 0 1.246.558 1.246 1.246v36.128c0 .688-.558 1.246-1.246 1.246z"/><path fill="#D2555A" d="M340.579 141.611h-6.229a1.246 1.246 0 0 1-1.246-1.246v-28.653c0-.688.558-1.246 1.246-1.246h6.229c.688 0 1.246.558 1.246 1.246v28.653c0 .688-.558 1.246-1.246 1.246z"/><path fill="#18BDF6" d="M328.121 141.611h-6.229a1.246 1.246 0 0 1-1.246-1.246v-13.704c0-.688.558-1.246 1.246-1.246h6.229c.688 0 1.246.558 1.246 1.246v13.704c0 .688-.558 1.246-1.246 1.246z"/><path d="M315.04 135.382h-2.492a1.246 1.246 0 0 1 0-2.492h2.492v2.492zm0-7.475h-2.492a1.246 1.246 0 0 1 0-2.492h2.492v2.492zm0-7.474h-2.492a1.246 1.246 0 0 1 0-2.492h2.492v2.492zm0-7.475h-2.492a1.246 1.246 0 0 1 0-2.492h2.492v2.492zm0-7.475h-2.492a1.246 1.246 0 0 1 0-2.492h2.492v2.492zm0-7.475h-2.492a1.246 1.246 0 0 1 0-2.492h2.492v2.492zm0-7.474h-2.492a1.246 1.246 0 0 1 0-2.492h2.492v2.492zm0-7.475h-2.492a1.246 1.246 0 0 1 0-2.492h2.492v2.492z" fill="#D7DEED"/><path fill="#C7CFE2" d="M315.04 141.611a1.246 1.246 0 0 1-1.246-1.246V74.338a1.246 1.246 0 0 1 2.492 0v66.027c0 .688-.558 1.246-1.246 1.246z"/><path fill="#AFB9D2" d="M311.303 141.611c0-.688.558-1.246 1.246-1.246h69.764a1.246 1.246 0 0 1 0 2.492h-69.764a1.246 1.246 0 0 1-1.246-1.246z"/></svg>