<?xml version="1.0" encoding="utf-8"?>
<!-- Generator: Adobe Illustrator 17.0.0, SVG Export Plug-In . SVG Version: 6.00 Build 0)  -->
<!DOCTYPE svg PUBLIC "-//W3C//DTD SVG 1.1//EN" "http://www.w3.org/Graphics/SVG/1.1/DTD/svg11.dtd">
<svg version="1.1" id="Layer_1" xmlns="http://www.w3.org/2000/svg" xmlns:xlink="http://www.w3.org/1999/xlink" x="0px" y="0px"
	 width="72.243px" height="66.551px" viewBox="0 0 72.243 66.551" enable-background="new 0 0 72.243 66.551" xml:space="preserve">
<g>
	<g>
		<path fill="#fff" d="M36.575,23.053v9.086h8.738v2.32h-8.738v9.164h-2.475v-9.164h-8.738v-2.32h8.738v-9.086H36.575z"/>
	</g>
	<path fill="#fff" d="M35.338,52.067c-10.327,0-18.729-8.402-18.729-18.729s8.401-18.729,18.729-18.729
		s18.729,8.401,18.729,18.729S45.665,52.067,35.338,52.067z M35.338,16.609c-9.225,0-16.729,7.504-16.729,16.729
		c0,9.225,7.504,16.729,16.729,16.729s16.729-7.504,16.729-16.729C52.066,24.114,44.563,16.609,35.338,16.609z"/>
</g>
</svg>
