<svg xmlns="http://www.w3.org/2000/svg" width="1200" height="1200" viewBox="0 0 1200 1200"><path fill="#F1F2F2" d="M525.07 888.506h191.104v127.403H525.07z"/><path fill="#6D6E71" d="M1062.55 343.918c0-26.454-22.193-48.631-49.809-48.631H224.837c-27.62 0-50.124 22.177-50.124 48.631v397.278h887.837V343.918z"/><path fill="#FFF" stroke="#231F20" stroke-width="5.86" stroke-linejoin="round" stroke-miterlimit="10" d="M174.713 741.196v102.916c0 26.466 22.504 44.394 50.124 44.394h787.904c27.616 0 49.809-17.928 49.809-44.394V741.196H174.713z"/><path fill="#BCBEC0" d="M649.712 814.252c0 17.068-13.837 30.917-30.917 30.917-17.08 0-30.913-13.849-30.913-30.917 0-17.08 13.834-30.914 30.913-30.914 17.08.001 30.917 13.834 30.917 30.914z"/><path fill="#FFF" stroke="#231F20" stroke-width="5.86" stroke-linejoin="round" stroke-miterlimit="10" d="M485.256 1015.908h262.768v35.832H485.256z"/><path fill="#6E2455" stroke="#231F20" stroke-width="5.86" stroke-linejoin="round" stroke-miterlimit="10" d="M230.451 347.044h776.36v394.152h-776.36z"/><path d="M286.19 398.802h672.845v103.515H286.19zm0 127.402h441.928v87.589H286.19zm485.722 0h183.141v87.589H771.912zM286.19 641.663h668.864v43.795H286.19z" opacity=".2" fill="#020202"/><path fill="none" stroke="#231F20" stroke-width="5.86" stroke-linejoin="round" stroke-miterlimit="10" d="M660.435 462.503h-31.851"/><path fill="#F1F2F2" stroke="#231F20" stroke-width="5.86" stroke-linejoin="round" stroke-miterlimit="10" d="M515.704 223.623h1.403v-25.101c0-18.781 15.859-34.619 34.65-34.619h169.382c18.775 0 34.848 15.838 34.848 34.619v52.444c0 15.99-11.944 29.376-27.869 33.005v132.432c0 26.104-20.062 46.1-46.151 46.1h-21.532v47.776H584.79v-47.776h-21.862c-26.108 0-49.801-19.996-49.801-46.1v-89.358c-7.963-.023-15.925-7.691-15.925-17.154v-67.584c-.002-9.479 8.264-18.684 18.502-18.684z"/><path fill="#A7A9AC" d="M477.294 733.234V549.719c0-21.482 19.347-39.441 40.82-39.441h216.1c21.477 0 41.68 17.959 41.68 39.441v183.514"/><path fill="#F1F2F2" stroke="#231F20" stroke-width="5.86" stroke-linejoin="round" stroke-miterlimit="10" d="M622.438 619.004l38.296-108.725H583.93z"/><path fill="none" stroke="#231F20" stroke-width="5.86" stroke-linejoin="round" stroke-miterlimit="10" d="M728.118 283.343H560.902m55.738 374.245h11.944m-11.944 39.814h11.944m39.814-358.32v43.794h-15.925M540.995 733.234V621.756m171.198 111.478V621.756M552.939 362.97v41.112s.595 22.589 16.894 22.589h110.509"/><path fill="#939598" stroke="#231F20" stroke-width="5.86" stroke-linejoin="round" stroke-miterlimit="10" d="M537.014 362.97h31.85"/><path fill="#FFF" d="M1138.195 263.436H803.763v95.552h149.125l19.658 34.071 19.658-34.071h145.991z"/><path fill="none" stroke="#231F20" stroke-width="5.86" stroke-linejoin="round" stroke-miterlimit="10" d="M835.614 295.287h103.515m-103.515 35.832h270.73"/><path fill="#FFF" d="M807.744 657.588h334.432v-95.552H993.051l-19.658-34.07-19.657 34.07H807.744z"/><path fill="none" stroke="#231F20" stroke-width="5.86" stroke-linejoin="round" stroke-miterlimit="10" d="M1110.326 625.738h-103.515m103.515-35.832H839.595"/><path fill="#FFF" d="M421.555 446.578H87.123v95.552h149.125l19.658 34.07 19.658-34.07h145.991z"/><path fill="none" stroke="#231F20" stroke-width="5.86" stroke-linejoin="round" stroke-miterlimit="10" d="M118.974 478.428h103.515M118.974 514.26h270.731"/></svg>