<?xml version="1.0" encoding="utf-8"?>
<!-- Generator: Adobe Illustrator 17.0.0, SVG Export Plug-In . SVG Version: 6.00 Build 0)  -->
<!DOCTYPE svg PUBLIC "-//W3C//DTD SVG 1.1//EN" "http://www.w3.org/Graphics/SVG/1.1/DTD/svg11.dtd">
<svg version="1.1" xmlns="http://www.w3.org/2000/svg" xmlns:xlink="http://www.w3.org/1999/xlink" x="0px" y="0px" width="1200px"
	 height="1200px" viewBox="0 0 1200 1200" enable-background="new 0 0 1200 1200" xml:space="preserve">
<g id="Background">
</g>
<g id="Element">
	<g>
		<g>
			<rect x="525.07" y="888.506" fill="#F1F2F2" width="191.104" height="127.403"/>
			<g>
				<path fill="#6D6E71" d="M1062.55,343.918c0-26.454-22.193-48.631-49.809-48.631H224.837c-27.62,0-50.124,22.177-50.124,48.631
					v397.278h887.837V343.918z"/>
				<path fill="#FFFFFF" stroke="#231F20" stroke-width="5.8599" stroke-linejoin="round" stroke-miterlimit="10" d="
					M174.713,741.196v102.916c0,26.466,22.504,44.394,50.124,44.394h787.904c27.616,0,49.809-17.928,49.809-44.394V741.196H174.713z
					"/>
			</g>
			<path fill="#BCBEC0" d="M649.712,814.252c0,17.068-13.837,30.917-30.917,30.917c-17.08,0-30.913-13.849-30.913-30.917
				c0-17.08,13.834-30.914,30.913-30.914C635.875,783.339,649.712,797.172,649.712,814.252z"/>
			
				<rect x="485.256" y="1015.908" fill="#FFFFFF" stroke="#231F20" stroke-width="5.8599" stroke-linejoin="round" stroke-miterlimit="10" width="262.768" height="35.832"/>
			
				<rect x="230.451" y="347.044" fill="#6E2455" stroke="#231F20" stroke-width="5.8599" stroke-linejoin="round" stroke-miterlimit="10" width="776.36" height="394.152"/>
			<g opacity="0.2">
				<rect x="286.19" y="398.802" fill="#020202" width="672.845" height="103.515"/>
				<rect x="286.19" y="526.204" fill="#020202" width="441.928" height="87.589"/>
				<rect x="771.912" y="526.204" fill="#020202" width="183.141" height="87.589"/>
				<rect x="286.19" y="641.663" fill="#020202" width="668.864" height="43.795"/>
			</g>
		</g>
		<g>
			<g>
				<g>
					<g>
						
							<line fill="none" stroke="#231F20" stroke-width="5.8599" stroke-linejoin="round" stroke-miterlimit="10" x1="660.435" y1="462.503" x2="628.584" y2="462.503"/>
						<path fill="#F1F2F2" stroke="#231F20" stroke-width="5.8599" stroke-linejoin="round" stroke-miterlimit="10" d="
							M515.704,223.623h1.403v-25.101c0-18.781,15.859-34.619,34.65-34.619h169.382c18.775,0,34.848,15.838,34.848,34.619v52.444
							c0,15.99-11.944,29.376-27.869,33.005v132.432c0,26.104-20.062,46.1-46.151,46.1h-21.532v47.776H584.79v-47.776h-21.862
							c-26.108,0-49.801-19.996-49.801-46.1v-89.358c-7.963-0.023-15.925-7.691-15.925-17.154v-67.584
							C497.2,232.828,505.466,223.623,515.704,223.623z"/>
						<g>
							<path fill="#A7A9AC" d="M477.294,733.234V549.719c0-21.482,19.347-39.441,40.82-39.441h216.1
								c21.477,0,41.68,17.959,41.68,39.441v183.514"/>
						</g>
						<polygon fill="#F1F2F2" stroke="#231F20" stroke-width="5.8599" stroke-linejoin="round" stroke-miterlimit="10" points="
							622.438,619.004 660.734,510.279 583.93,510.279 						"/>
					</g>
					
						<line fill="none" stroke="#231F20" stroke-width="5.8599" stroke-linejoin="round" stroke-miterlimit="10" x1="728.118" y1="283.343" x2="560.902" y2="283.343"/>
					
						<line fill="none" stroke="#231F20" stroke-width="5.8599" stroke-linejoin="round" stroke-miterlimit="10" x1="616.64" y1="657.588" x2="628.584" y2="657.588"/>
					
						<line fill="none" stroke="#231F20" stroke-width="5.8599" stroke-linejoin="round" stroke-miterlimit="10" x1="616.64" y1="697.402" x2="628.584" y2="697.402"/>
					<polyline fill="none" stroke="#231F20" stroke-width="5.8599" stroke-linejoin="round" stroke-miterlimit="10" points="
						668.398,339.082 668.398,382.876 652.473,382.876 					"/>
				</g>
				
					<line fill="none" stroke="#231F20" stroke-width="5.8599" stroke-linejoin="round" stroke-miterlimit="10" x1="540.995" y1="733.234" x2="540.995" y2="621.756"/>
				
					<line fill="none" stroke="#231F20" stroke-width="5.8599" stroke-linejoin="round" stroke-miterlimit="10" x1="712.193" y1="733.234" x2="712.193" y2="621.756"/>
			</g>
			<g>
				<path fill="none" stroke="#231F20" stroke-width="5.8599" stroke-linejoin="round" stroke-miterlimit="10" d="M552.939,362.97
					v41.112c0,0,0.595,22.589,16.894,22.589c16.298,0,110.509,0,110.509,0"/>
			</g>
			
				<line fill="#939598" stroke="#231F20" stroke-width="5.8599" stroke-linejoin="round" stroke-miterlimit="10" x1="537.014" y1="362.97" x2="568.864" y2="362.97"/>
		</g>
		<g>
			<polygon fill="#FFFFFF" points="1138.195,263.436 803.763,263.436 803.763,358.988 952.888,358.988 972.546,393.059 
				992.204,358.988 1138.195,358.988 			"/>
			
				<line fill="none" stroke="#231F20" stroke-width="5.8599" stroke-linejoin="round" stroke-miterlimit="10" x1="835.614" y1="295.287" x2="939.129" y2="295.287"/>
			
				<line fill="none" stroke="#231F20" stroke-width="5.8599" stroke-linejoin="round" stroke-miterlimit="10" x1="835.614" y1="331.119" x2="1106.344" y2="331.119"/>
		</g>
		<g>
			<polygon fill="#FFFFFF" points="807.744,657.588 1142.176,657.588 1142.176,562.036 993.051,562.036 973.393,527.966 
				953.736,562.036 807.744,562.036 			"/>
			
				<line fill="none" stroke="#231F20" stroke-width="5.8599" stroke-linejoin="round" stroke-miterlimit="10" x1="1110.326" y1="625.738" x2="1006.811" y2="625.738"/>
			
				<line fill="none" stroke="#231F20" stroke-width="5.8599" stroke-linejoin="round" stroke-miterlimit="10" x1="1110.326" y1="589.906" x2="839.595" y2="589.906"/>
		</g>
		<g>
			<polygon fill="#FFFFFF" points="421.555,446.578 87.123,446.578 87.123,542.13 236.248,542.13 255.906,576.2 275.564,542.13 
				421.555,542.13 			"/>
			
				<line fill="none" stroke="#231F20" stroke-width="5.8599" stroke-linejoin="round" stroke-miterlimit="10" x1="118.974" y1="478.428" x2="222.489" y2="478.428"/>
			
				<line fill="none" stroke="#231F20" stroke-width="5.8599" stroke-linejoin="round" stroke-miterlimit="10" x1="118.974" y1="514.26" x2="389.705" y2="514.26"/>
		</g>
	</g>
</g>
</svg>
