<?xml version="1.0" encoding="utf-8"?>
<!-- Generator: Adobe Illustrator 17.0.0, SVG Export Plug-In . SVG Version: 6.00 Build 0)  -->
<!DOCTYPE svg PUBLIC "-//W3C//DTD SVG 1.1//EN" "http://www.w3.org/Graphics/SVG/1.1/DTD/svg11.dtd">
<svg version="1.1" id="Layer_1" xmlns="http://www.w3.org/2000/svg" xmlns:xlink="http://www.w3.org/1999/xlink" x="0px" y="0px"
	 width="302.477px" height="132.754px" viewBox="0 0 302.477 132.754" enable-background="new 0 0 302.477 132.754"
	 xml:space="preserve">
<rect x="0" y="0" display="none" fill="#231F20" width="302.477" height="132.754"/>
<path id="C" fill="#CECECC" d="M57.286,78.083c-5.7,0-9.67-4.17-9.67-10.15c0-5.93,3.97-10.07,9.67-10.07
	c4.09,0,7.23,2.21,8.23,5.71h10.05c-1.29-8.55-8.65-14.42-18.28-14.42c-1.93,0-3.77,0.22-5.49,0.66c-5.1,1.25-9.2,4.27-11.66,8.44
	c-1.65,2.78-2.57,6.06-2.57,9.68c0,10.93,8.3,18.86,19.72,18.86c0.59,0,1.18-0.02,1.75-0.07c5.6-0.42,10.31-2.89,13.28-6.72
	c1.68-2.16,2.82-4.74,3.25-7.63h-10.05C64.516,75.873,61.375,78.083,57.286,78.083z"/>
<g id="artix">
	<path id="A" fill="#CECECC" d="M122.287,86.938h-12.668v-2.111c-2.814,1.799-6.256,2.891-10.399,2.891
		c-10.246,0-18.848-8.522-18.848-19.782c0-11.34,8.602-19.786,18.848-19.786c4.143,0,7.586,1.094,10.399,2.893v-2.035h12.668V86.938
		z M109.619,73.799V62.07c-2.346-2.738-5.082-3.598-7.895-3.598c-5.164,0-8.918,4.223-8.918,9.465c0,5.238,3.754,9.383,8.918,9.383
		C104.538,77.32,107.273,76.537,109.619,73.799z"/>
	<path id="T" fill="#CECECC" d="M195.43,86.235c-4.928,1.562-7.742,1.877-11.496,1.877c-9.153,0-15.254-6.727-15.254-16.971v-11.26
		h-7.426V49.009h7.426V36.108h12.674v12.901h12.901v10.873h-12.901V70.75c0,3.832,2.184,5.709,5.938,5.709
		c1.803,0,3.91-0.389,6.729-0.939L195.43,86.235z"/>
	<path id="R" fill="#CECECC" d="M156.688,60.429c-6.178,0.234-10.088,1.877-13.057,4.846v21.663h-12.668V49.009h12.668v4.068
		c3.365-2.893,7.43-4.692,13.057-4.692V60.429z"/>
	<path id="I" fill="#CECECC" d="M200.477,35.948c0-4.141,3.281-7.192,7.424-7.192c4.07,0,7.428,3.051,7.428,7.192
		c0,4.07-3.359,7.119-7.428,7.119C203.758,43.067,200.477,40.018,200.477,35.948z M214.319,86.938h-12.674V49.009h12.674V86.938z"/>
	<path id="X" fill="#CECECC" d="M261.008,86.938h-13.918l-7.586-10.869l-7.67,10.869h-13.918l13.295-18.924l-13.295-19.006h14.469
		l7.035,10.01l7.119-10.01h14.469l-13.297,19.006L261.008,86.938z"/>
</g>
<g id="Compass">
	<path id="Arrow2" fill="#CECECC" d="M39.266,55.863l-9.41-25.67l0.46,0.41l19.71,17.62C45.516,49.593,41.805,52.273,39.266,55.863z
		"/>
	<path id="Arrow1" fill="#CECECC" d="M82.466,107.663l-0.43-0.38l-21.01-18.78c4.94-0.75,9.14-2.99,12.1-6.31L82.466,107.663z"/>
	<path id="Point" fill="#CECECC" d="M58.715,67.976c0,1.098-0.893,1.994-1.994,1.994c-1.098,0-1.992-0.896-1.992-1.994
		c0-1.098,0.893-1.994,1.992-1.994C57.822,65.982,58.715,66.877,58.715,67.976z"/>
</g>
</svg>
