<?xml version="1.0" encoding="utf-8"?>
<!-- Generator: Adobe Illustrator 16.0.0, SVG Export Plug-In . SVG Version: 6.00 Build 0)  -->
<!DOCTYPE svg PUBLIC "-//W3C//DTD SVG 1.1//EN" "http://www.w3.org/Graphics/SVG/1.1/DTD/svg11.dtd">
<svg version="1.1" id="Cartix_comming_soon_BG" xmlns="http://www.w3.org/2000/svg" xmlns:xlink="http://www.w3.org/1999/xlink"
	 x="0px" y="0px" width="500px" height="597px" viewBox="0 0 500 597" enable-background="new 0 0 500 597" xml:space="preserve">
<g id="cartix_Background_vector" opacity="0.2">
	<circle id="circle_3_1_" fill="none" stroke="#FFFFFF" stroke-miterlimit="10" cx="250" cy="347" r="168.582"/>
	<circle id="circle_4" fill="none" stroke="#FFFFFF" stroke-width="0.25" stroke-miterlimit="10" cx="250" cy="347" r="220.453"/>
	<g id="circle_5">
		
			<circle fill="none" stroke="#FFFFFF" stroke-width="0.25" stroke-miterlimit="10" stroke-dasharray="11.9865,11.9865" cx="250" cy="346.999" r="247.993"/>
	</g>
	<circle id="circle_2" fill="none" stroke="#FFFFFF" stroke-width="0.25" stroke-miterlimit="10" cx="250" cy="347" r="128.793"/>
	<path id="circle_1" fill="none" stroke="#FFFFFF" stroke-miterlimit="10" d="M325.583,400.982
		c-29.815,41.746-87.826,51.426-129.571,21.609c-41.747-29.815-51.41-87.829-21.594-129.574
		c29.816-41.748,87.823-51.424,129.57-21.608C345.733,301.226,355.398,359.236,325.583,400.982z"/>
	<g id="compass" opacity="0.3">
		<polygon fill="#FFFFFF" points="302.102,384.213 101.805,555.888 102.942,552.955 197.897,309.786 398.194,138.113 
			396.959,141.291 		"/>
		<polygon opacity="0.3" fill="#8E2B70" points="302.102,384.213 101.805,555.888 102.942,552.955 396.959,141.291 		"/>
	</g>
</g>
<g id="cartix_vector_logo">
	<g>
		<path fill="#FFFFFF" d="M197.711,37.494l-4.48-12.211l0.221,0.201l9.369,8.369c-1.029,0.311-1.969,0.77-2.81,1.359
			C199.111,35.834,198.331,36.604,197.711,37.494z"/>
		<path fill="#FFFFFF" d="M206.98,37.574c-0.39-0.051-0.8-0.061-1.22-0.01c-0.479,0.049-0.92,0.119-1.351,0.24
			c-0.139,0.029-0.279,0.078-0.409,0.129c-0.14,0.041-0.271,0.1-0.399,0.17c-0.261,0.121-0.521,0.27-0.771,0.461
			c-0.13,0.08-0.24,0.18-0.36,0.299c-0.05,0.031-0.1,0.08-0.15,0.131c-0.06,0.061-0.109,0.129-0.17,0.189
			c-1.459,0.76-2.279,2.24-2.43,3.811l-1.58-4.311c0.61-1.039,1.44-1.93,2.43-2.629c0.92-0.641,1.971-1.121,3.141-1.4L206.98,37.574
			z"/>
		<path fill="#FFFFFF" d="M210.791,51.193c-1.08,0.561-2.32,0.91-3.68,1.01l-4.66-4.17c0.56,0.24,1.209,0.381,1.949,0.381
			c0.221,0,0.42-0.041,0.641-0.061c0.65,0.32,1.369,0.52,2.09,0.52c0.67,0,1.3-0.129,1.85-0.369c0.01,0,0.021-0.01,0.03-0.01
			c0.181-0.07,0.341-0.15,0.5-0.26c0.16-0.08,0.32-0.191,0.47-0.311c0.01-0.01,0.021-0.01,0.03-0.02
			c0.149-0.121,0.29-0.25,0.431-0.381c0.14-0.129,0.279-0.279,0.399-0.439c0.66-0.061,1.24-0.221,1.74-0.48l0.87,2.381
			C212.761,49.895,211.852,50.645,210.791,51.193z"/>
		<path fill="#FFFFFF" d="M218.301,62.203l-0.21-0.18l-9.989-8.93c1.189-0.18,2.279-0.539,3.25-1.07c0.959-0.5,1.809-1.16,2.51-1.93
			L218.301,62.203z"/>
		<path opacity="0.2" fill="#FFFFFF" d="M202.82,33.854c-1.029,0.311-1.969,0.77-2.81,1.359l-6.56-9.729L202.82,33.854z"/>
		<path opacity="0.2" fill="#FFFFFF" d="M206.98,37.574c-0.39-0.051-0.8-0.061-1.22-0.01c-0.479,0.049-0.92,0.119-1.351,0.24
			c-0.139,0.039-0.279,0.078-0.409,0.129c-0.14,0.051-0.271,0.109-0.399,0.17c-0.261,0.121-0.521,0.27-0.771,0.461
			c-0.12,0.09-0.24,0.189-0.36,0.299l-1.9-2.809c0.92-0.641,1.971-1.121,3.141-1.4L206.98,37.574z"/>
		<path opacity="0.2" fill="#FFFFFF" d="M210.791,51.193l-1.811-2.689c0.01,0,0.021-0.01,0.03-0.01c0.181-0.08,0.341-0.16,0.5-0.26
			c0.16-0.09,0.32-0.201,0.47-0.311c0.01-0.01,0.021-0.01,0.03-0.02c0.149-0.121,0.29-0.25,0.431-0.381
			c0.129-0.141,0.26-0.279,0.379-0.439c0.011,0,0.011,0,0.021,0c0.66-0.061,1.24-0.221,1.74-0.48l0.87,2.381
			C212.761,49.895,211.852,50.645,210.791,51.193z"/>
		<path opacity="0.2" fill="#FFFFFF" d="M218.301,62.203l-0.21-0.18l-6.739-10c0.959-0.5,1.809-1.16,2.51-1.93L218.301,62.203z"/>
	</g>
	<g>
		<path fill="#FFFFFF" d="M206.301,48.123c-2.73,0-4.63-1.99-4.63-4.85c0-2.85,1.899-4.83,4.63-4.83c1.95,0,3.45,1.061,3.939,2.721
			h4.74c-0.619-4.051-4.109-6.82-8.68-6.82c-0.91,0-1.779,0.109-2.59,0.311c-1.17,0.279-2.221,0.76-3.141,1.4
			c-0.989,0.699-1.819,1.59-2.43,2.629c-0.779,1.32-1.21,2.881-1.21,4.59c0,5.189,3.94,8.961,9.37,8.961
			c0.27,0,0.551-0.01,0.811-0.031c1.359-0.1,2.6-0.449,3.68-1.01c1.061-0.549,1.97-1.299,2.66-2.209
			c0.789-1.01,1.32-2.23,1.529-3.58h-4.74C209.751,47.074,208.251,48.123,206.301,48.123z"/>
	</g>
	<g>
		<path fill="#FFFFFF" d="M237.278,52.324h-6.037v-1.006c-1.341,0.857-2.981,1.379-4.956,1.379c-4.883,0-8.982-4.063-8.982-9.428
			c0-5.404,4.1-9.43,8.982-9.43c1.975,0,3.615,0.521,4.956,1.379v-0.971h6.037V52.324z M231.241,46.063v-5.59
			c-1.118-1.305-2.422-1.715-3.763-1.715c-2.461,0-4.25,2.014-4.25,4.512c0,2.496,1.789,4.471,4.25,4.471
			C228.819,47.74,230.123,47.367,231.241,46.063z"/>
		<path fill="#FFFFFF" d="M272.138,51.99c-2.349,0.744-3.689,0.895-5.479,0.895c-4.362,0-7.27-3.207-7.27-8.088V39.43h-3.54v-5.182
			h3.54V28.1h6.04v6.148h6.148v5.182h-6.148v5.18c0,1.826,1.041,2.721,2.83,2.721c0.859,0,1.863-0.186,3.207-0.447L272.138,51.99z"
			/>
		<path fill="#FFFFFF" d="M253.673,39.691c-2.944,0.111-4.808,0.895-6.223,2.309v10.324h-6.037V34.248h6.037v1.939
			c1.604-1.379,3.541-2.236,6.223-2.236V39.691z"/>
		<path fill="#FFFFFF" d="M274.543,28.023c0-1.973,1.563-3.428,3.538-3.428c1.939,0,3.54,1.455,3.54,3.428
			c0,1.939-1.601,3.393-3.54,3.393C276.106,31.416,274.543,29.963,274.543,28.023z M281.14,52.324h-6.04V34.248h6.04V52.324z"/>
		<path fill="#FFFFFF" d="M303.391,52.324h-6.633l-3.615-5.18l-3.655,5.18h-6.633l6.336-9.018l-6.336-9.059h6.896l3.353,4.771
			l3.393-4.771h6.896l-6.337,9.059L303.391,52.324z"/>
	</g>
	<circle fill="#FFFFFF" cx="206.032" cy="43.287" r="0.95"/>
</g>
<text transform="matrix(1 0 0 1 118.1973 333.9824)" fill="#FFFFFF" font-family="'Campton-BoldDEMO'" font-size="39.6075">Coming soon...</text>
</svg>
