<?xml version="1.0" encoding="utf-8"?>
<!-- Generator: Adobe Illustrator 16.0.0, SVG Export Plug-In . SVG Version: 6.00 Build 0)  -->
<!DOCTYPE svg PUBLIC "-//W3C//DTD SVG 1.1//EN" "http://www.w3.org/Graphics/SVG/1.1/DTD/svg11.dtd">
<svg version="1.1" id="Layer_1" xmlns="http://www.w3.org/2000/svg" xmlns:xlink="http://www.w3.org/1999/xlink" x="0px" y="0px"
	 width="110.25px" height="36.93px" viewBox="0 0 110.25 36.93" enable-background="new 0 0 110.25 36.93" xml:space="preserve">
<g id="cartix_vector_logo">
	<g>
		<path fill="#FFFFFF" d="M4.351,12.61L0,0.75l0.215,0.195l9.099,8.128c-0.999,0.302-1.912,0.748-2.729,1.32
			C5.711,10.998,4.954,11.745,4.351,12.61z"/>
		<path fill="#FFFFFF" d="M13.354,12.688c-0.379-0.05-0.776-0.059-1.185-0.01c-0.465,0.047-0.893,0.116-1.312,0.233
			c-0.135,0.028-0.271,0.075-0.397,0.125c-0.136,0.04-0.263,0.097-0.388,0.165c-0.253,0.118-0.506,0.262-0.749,0.448
			c-0.126,0.078-0.233,0.175-0.35,0.29c-0.049,0.03-0.097,0.078-0.146,0.127c-0.059,0.06-0.106,0.125-0.165,0.184
			c-1.417,0.738-2.213,2.175-2.36,3.701l-1.535-4.187c0.592-1.009,1.398-1.875,2.36-2.553c0.894-0.623,1.915-1.089,3.051-1.36
			L13.354,12.688z"/>
		<path fill="#FFFFFF" d="M17.055,25.914c-1.049,0.545-2.253,0.884-3.574,0.98l-4.526-4.05c0.544,0.233,1.174,0.37,1.893,0.37
			c0.215,0,0.408-0.04,0.623-0.059c0.631,0.311,1.33,0.504,2.03,0.504c0.65,0,1.263-0.125,1.797-0.358
			c0.01,0,0.02-0.009,0.029-0.009c0.175-0.068,0.331-0.146,0.485-0.253c0.155-0.077,0.311-0.186,0.457-0.302
			c0.01-0.009,0.021-0.009,0.029-0.019c0.145-0.117,0.281-0.243,0.418-0.37c0.136-0.125,0.271-0.271,0.387-0.427
			c0.641-0.059,1.205-0.214,1.69-0.467l0.845,2.313C18.969,24.654,18.086,25.383,17.055,25.914z"/>
		<path fill="#FFFFFF" d="M24.349,36.607l-0.204-0.175l-9.702-8.673c1.155-0.175,2.213-0.523,3.157-1.039
			c0.932-0.486,1.757-1.127,2.438-1.874L24.349,36.607z"/>
		<path opacity="0.2" fill="#FFFFFF" enable-background="new    " d="M9.313,9.074c-0.999,0.302-1.912,0.748-2.729,1.32L0.213,0.945
			L9.313,9.074z"/>
		<path opacity="0.2" fill="#FFFFFF" enable-background="new    " d="M13.354,12.688c-0.379-0.05-0.776-0.059-1.185-0.01
			c-0.465,0.047-0.893,0.116-1.312,0.233c-0.135,0.037-0.271,0.075-0.397,0.125c-0.136,0.049-0.263,0.106-0.388,0.165
			c-0.253,0.118-0.506,0.262-0.749,0.448c-0.117,0.087-0.233,0.184-0.35,0.29l-1.846-2.728c0.894-0.623,1.915-1.089,3.051-1.36
			L13.354,12.688z"/>
		<path opacity="0.2" fill="#FFFFFF" enable-background="new    " d="M17.055,25.914l-1.759-2.612c0.01,0,0.021-0.009,0.029-0.009
			c0.176-0.078,0.332-0.156,0.486-0.253c0.155-0.087,0.311-0.195,0.457-0.302c0.01-0.009,0.021-0.009,0.029-0.019
			c0.145-0.117,0.282-0.243,0.419-0.37c0.125-0.139,0.252-0.271,0.368-0.427c0.011,0,0.011,0,0.021,0
			c0.641-0.059,1.205-0.214,1.69-0.467l0.845,2.313C18.969,24.654,18.086,25.383,17.055,25.914z"/>
		<path opacity="0.2" fill="#FFFFFF" enable-background="new    " d="M24.349,36.607l-0.204-0.175L17.6,26.721
			c0.932-0.486,1.757-1.127,2.438-1.874L24.349,36.607z"/>
	</g>
	<g>
		<path fill="#FFFFFF" d="M12.694,22.933c-2.651,0-4.497-1.934-4.497-4.71c0-2.769,1.844-4.691,4.497-4.691
			c1.895,0,3.351,1.03,3.827,2.643h4.603c-0.601-3.935-3.991-6.625-8.43-6.625c-0.884,0-1.728,0.106-2.516,0.303
			c-1.136,0.271-2.157,0.738-3.051,1.36c-0.96,0.678-1.767,1.544-2.36,2.553c-0.757,1.282-1.175,2.798-1.175,4.458
			c0,5.039,3.827,8.703,9.101,8.703c0.262,0,0.535-0.009,0.788-0.03c1.32-0.097,2.525-0.436,3.574-0.98
			c1.031-0.533,1.913-1.262,2.584-2.146c0.766-0.98,1.282-2.166,1.485-3.477h-4.604C16.045,21.913,14.588,22.933,12.694,22.933z"/>
	</g>
	<g>
		<path fill="#FFFFFF" d="M42.781,27.013h-5.863v-0.978c-1.302,0.833-2.896,1.34-4.813,1.34c-4.743,0-8.724-3.946-8.724-9.156
			c0-5.249,3.981-9.159,8.724-9.159c1.918,0,3.511,0.506,4.813,1.339V9.456h5.863V27.013z M36.917,20.933v-5.43
			c-1.086-1.268-2.353-1.666-3.655-1.666c-2.39,0-4.128,1.957-4.128,4.383c0,2.425,1.738,4.343,4.128,4.343
			C34.565,22.561,35.832,22.198,36.917,20.933z"/>
		<path fill="#FFFFFF" d="M76.64,26.688c-2.282,0.723-3.583,0.868-5.323,0.868c-4.235,0-7.061-3.114-7.061-7.855V14.49h-3.437V9.457
			h3.437V3.486h5.868v5.971h5.97v5.033h-5.97v5.031c0,1.773,1.011,2.643,2.746,2.643c0.835,0,1.81-0.181,3.115-0.435L76.64,26.688z"
			/>
		<path fill="#FFFFFF" d="M58.704,14.743c-2.859,0.108-4.669,0.87-6.044,2.243v10.026h-5.864V9.457h5.864v1.883
			c1.559-1.339,3.439-2.172,6.044-2.172V14.743z"/>
		<path fill="#FFFFFF" d="M78.975,3.411c0-1.916,1.518-3.33,3.436-3.33c1.884,0,3.439,1.414,3.439,3.33
			c0,1.883-1.556,3.296-3.439,3.296C80.492,6.707,78.975,5.295,78.975,3.411z M85.383,27.013h-5.867V9.457h5.867V27.013z"/>
		<path fill="#FFFFFF" d="M106.993,27.013h-6.442l-3.511-5.031l-3.55,5.031h-6.441l6.153-8.758l-6.153-8.799h6.696l3.257,4.634
			l3.295-4.634h6.698l-6.153,8.799L106.993,27.013z"/>
	</g>
	<circle fill="#FFFFFF" cx="12.433" cy="18.237" r="0.923"/>
</g>
</svg>
