<?xml version="1.0" encoding="utf-8"?>
<!-- Generator: Adobe Illustrator 16.0.0, SVG Export Plug-In . SVG Version: 6.00 Build 0)  -->
<!DOCTYPE svg PUBLIC "-//W3C//DTD SVG 1.1//EN" "http://www.w3.org/Graphics/SVG/1.1/DTD/svg11.dtd">
<svg version="1.1" id="Coming_soon" xmlns="http://www.w3.org/2000/svg" xmlns:xlink="http://www.w3.org/1999/xlink" x="0px"
	 y="0px" width="272px" height="46.334px" viewBox="0 0 272 46.334" enable-background="new 0 0 272 46.334" xml:space="preserve">
<g id="coming_soon">
	<path fill="#FFFFFF" d="M24.172,22.139h6.854c-0.832,6.973-6.141,11.727-13.508,11.727c-8.12,0-14.261-5.902-14.261-14.023
		c0-8.122,6.141-14.022,14.261-14.022c7.367,0,12.676,4.753,13.508,11.726h-6.854c-0.753-3.368-3.13-5.468-6.693-5.468
		c-4.397,0-7.447,3.288-7.447,7.767c0,4.475,3.05,7.764,7.447,7.764C21.043,27.604,23.42,25.506,24.172,22.139z"/>
	<path fill="#FFFFFF" d="M53.601,23.682c0,5.863-4.356,10.221-10.418,10.221s-10.417-4.355-10.417-10.221
		c0-5.783,4.355-10.021,10.417-10.021S53.601,17.898,53.601,23.682z M47.54,23.723c0-2.496-1.742-4.518-4.316-4.518
		c-2.614,0-4.357,2.021-4.357,4.518c0,2.574,1.743,4.635,4.357,4.635C45.797,28.357,47.54,26.297,47.54,23.723z"/>
	<path fill="#FFFFFF" d="M87.902,22.336v10.973h-6.456v-9.941c0-2.732-1.309-4.041-3.446-4.041c-0.99,0-1.979,0.438-2.932,1.584
		c0.04,0.477,0.079,0.951,0.079,1.428v10.973H68.73v-9.943c0-2.732-1.348-4.041-3.446-4.041c-0.99,0-1.94,0.477-2.892,1.705v12.279
		h-6.417V14.097h6.417v1.149c1.308-1.108,2.653-1.743,4.793-1.743c2.416,0,4.477,0.911,5.901,2.574
		c2.021-1.781,3.961-2.574,6.813-2.574C84.496,13.502,87.902,16.869,87.902,22.336z"/>
	<path fill="#FFFFFF" d="M90.869,7.479c0-2.1,1.663-3.644,3.763-3.644c2.061,0,3.765,1.544,3.765,3.644
		c0,2.061-1.704,3.604-3.765,3.604C92.532,11.085,90.869,9.54,90.869,7.479z M97.88,33.309h-6.417V14.095h6.417V33.309L97.88,33.309
		z"/>
	<path fill="#FFFFFF" d="M121.487,22.336v10.973h-6.457v-9.941c0-2.732-1.387-4.041-3.485-4.041c-1.188,0-2.456,0.674-3.564,1.941
		v12.041h-6.417V14.097h6.417v1.308c1.545-1.229,3.248-1.901,5.308-1.901C118.16,13.502,121.487,16.869,121.487,22.336z"/>
	<path fill="#FFFFFF" d="M144.816,32.992c0,6.021-4.278,9.506-10.3,9.506c-5.822,0-10.062-3.326-10.379-8.318h6.339
		c0.316,1.783,1.663,2.893,4.04,2.893c2.179,0,3.883-1.348,3.883-3.961v-1.822c-1.428,0.832-3.13,1.348-5.229,1.348
		c-5.188,0-9.546-4.16-9.546-9.35c0-5.861,4.357-9.862,9.546-9.862c2.101,0,3.804,0.555,5.229,1.426v-0.754h6.417V32.992
		L144.816,32.992z M138.399,25.742v-5.309c-1.188-1.346-2.575-1.781-3.962-1.781c-2.614,0-4.517,1.861-4.517,4.635
		c0,2.1,1.901,4.238,4.517,4.238C135.824,27.525,137.212,27.09,138.399,25.742z"/>
	<path fill="#FFFFFF" d="M162.201,26.732c0.277,1.664,1.664,2.418,3.685,2.418c1.703,0,2.732-0.516,2.732-1.348
		c0-0.635-0.594-1.148-1.861-1.348l-3.881-0.674c-3.328-0.555-5.625-2.416-5.625-5.783c0-4.041,3.445-6.418,8.557-6.418
		c4.078,0,8.714,1.584,8.99,6.654h-5.703c-0.118-1.465-1.467-2.139-3.248-2.139c-1.663,0-2.416,0.635-2.416,1.387
		c0,0.635,0.476,1.229,1.98,1.506l3.604,0.594c3.604,0.674,5.98,2.416,5.98,5.824c0,4.436-4,6.496-8.992,6.496
		c-5.029,0-9.109-2.1-9.506-7.211L162.201,26.732z"/>
	<path fill="#FFFFFF" d="M197.335,23.682c0,5.863-4.355,10.221-10.418,10.221c-6.061,0-10.416-4.355-10.416-10.221
		c0-5.783,4.355-10.021,10.416-10.021C192.979,13.66,197.335,17.898,197.335,23.682z M191.274,23.723
		c0-2.496-1.742-4.518-4.316-4.518c-2.615,0-4.357,2.021-4.357,4.518c0,2.574,1.742,4.635,4.357,4.635
		C189.532,28.357,191.274,26.297,191.274,23.723z"/>
	<path fill="#FFFFFF" d="M220.028,23.682c0,5.863-4.355,10.221-10.416,10.221c-6.063,0-10.418-4.355-10.418-10.221
		c0-5.783,4.355-10.021,10.418-10.021C215.673,13.66,220.028,17.898,220.028,23.682z M213.968,23.723
		c0-2.496-1.742-4.518-4.316-4.518c-2.615,0-4.357,2.021-4.357,4.518c0,2.574,1.742,4.635,4.357,4.635
		C212.226,28.357,213.968,26.297,213.968,23.723z"/>
	<path fill="#FFFFFF" d="M242.329,22.336v10.973h-6.457v-9.941c0-2.732-1.387-4.041-3.484-4.041c-1.189,0-2.457,0.674-3.566,1.941
		v12.041h-6.416V14.097h6.416v1.308c1.545-1.229,3.248-1.901,5.309-1.901C239.001,13.502,242.329,16.869,242.329,22.336z"/>
	<path fill="#FFFFFF" d="M244.505,30.537c0-1.941,1.623-3.447,3.604-3.447s3.605,1.506,3.605,3.447c0,1.979-1.625,3.484-3.605,3.484
		S244.505,32.516,244.505,30.537z"/>
	<path fill="#FFFFFF" d="M253.019,30.537c0-1.941,1.625-3.447,3.604-3.447c1.98,0,3.605,1.506,3.605,3.447
		c0,1.979-1.625,3.484-3.605,3.484C254.644,34.021,253.019,32.516,253.019,30.537z"/>
	<path fill="#FFFFFF" d="M261.534,30.537c0-1.941,1.623-3.447,3.604-3.447s3.605,1.506,3.605,3.447c0,1.979-1.625,3.484-3.605,3.484
		S261.534,32.516,261.534,30.537z"/>
</g>
</svg>
