<svg xmlns="http://www.w3.org/2000/svg" width="60" height="60" viewBox="0 0 448.992 448.992"><g fill="#fff"><path d="M144.953 228.698a5.499 5.499 0 0 0-9.389 3.889v97.609a5.5 5.5 0 0 0 5.5 5.5h97.608a5.501 5.501 0 0 0 3.89-9.389l-97.609-97.609zm1.611 95.998v-78.831l78.83 78.831h-78.83z"/><path d="M422.521 33.882L393.924 5.285a5.5 5.5 0 0 0-7.778 0L220.874 170.557a5.51 5.51 0 0 0-1.221 1.854l-18.116 45.488L128.639 145l13.082-13.081a5.5 5.5 0 1 0-7.778-7.778l-13.082 13.081-21.944-21.944V5.5a5.5 5.5 0 0 0-5.5-5.5H30.361a5.5 5.5 0 0 0-5.5 5.5v437.992a5.5 5.5 0 0 0 5.5 5.5h63.056a5.5 5.5 0 0 0 5.5-5.5v-60.149h252.509l15.36 15.36c1.074 1.074 2.481 1.611 3.889 1.611s2.815-.537 3.889-1.611a5.5 5.5 0 0 0 0-7.778L209.907 226.268l45.488-18.116a5.522 5.522 0 0 0 1.854-1.22L422.521 41.66a5.5 5.5 0 0 0 0-7.778zM87.916 437.992H35.861v-9.787h9.447a5.5 5.5 0 1 0 0-11h-9.447v-17.316h9.447a5.5 5.5 0 1 0 0-11h-9.447v-17.315h9.447a5.5 5.5 0 1 0 0-11h-9.447v-17.316h9.447a5.5 5.5 0 1 0 0-11h-9.447v-17.315h9.447a5.5 5.5 0 1 0 0-11h-9.447v-17.316h9.447a5.5 5.5 0 1 0 0-11h-9.447v-17.315h9.447a5.5 5.5 0 1 0 0-11h-9.447v-17.316h9.447a5.5 5.5 0 1 0 0-11h-9.447v-17.315h9.447a5.5 5.5 0 1 0 0-11h-9.447v-17.316h9.447a5.5 5.5 0 1 0 0-11h-9.447V145.05h9.447a5.5 5.5 0 1 0 0-11h-9.447v-17.316h9.447a5.5 5.5 0 1 0 0-11h-9.447V88.418h9.447a5.5 5.5 0 1 0 0-11h-9.447V60.103h9.447a5.5 5.5 0 1 0 0-11h-9.447V31.787h9.447a5.5 5.5 0 1 0 0-11h-9.447V11h52.056v426.992zm11-65.649v-241.51l26.766 26.766-15.649 15.649a5.5 5.5 0 1 0 7.778 7.778l15.649-15.649 12.244 12.244-15.649 15.649a5.5 5.5 0 1 0 7.778 7.778l15.649-15.649 12.244 12.244-15.649 15.649a5.5 5.5 0 1 0 7.778 7.778l15.649-15.649 12.244 12.244-15.649 15.649a5.5 5.5 0 1 0 7.778 7.778l15.649-15.649 12.244 12.244-15.649 15.649a5.5 5.5 0 1 0 7.778 7.778l15.649-15.649 12.244 12.244-15.649 15.649a5.5 5.5 0 1 0 7.778 7.778l15.649-15.649 12.244 12.244-15.649 15.649a5.5 5.5 0 1 0 7.778 7.778l15.649-15.649 12.244 12.244-15.649 15.649a5.5 5.5 0 1 0 7.778 7.778l15.649-15.649 12.244 12.244-15.649 15.649a5.5 5.5 0 1 0 7.778 7.778l15.649-15.649 12.244 12.244-15.649 15.649a5.5 5.5 0 1 0 7.778 7.778l15.649-15.649 26.766 26.766H98.916zM246.84 188.744L383.599 51.985l6.52 6.52L253.36 195.264l-6.52-6.52zm-7.778-7.778l-6.52-6.52L369.301 37.687l6.52 6.52-136.759 136.759zm-12.28 3.277l16.781 16.781-27.888 11.107 11.107-27.888zM397.898 50.727L377.08 29.909l12.956-12.956 20.818 20.818-12.956 12.956zm-9.899 353.633a5.5 5.5 0 1 0-7.778 7.778l16.97 16.97a5.482 5.482 0 0 0 3.889 1.611 5.5 5.5 0 0 0 3.889-9.389l-16.97-16.97zm30.404 30.404a5.5 5.5 0 1 0-7.775 7.781l.346.345a5.483 5.483 0 0 0 3.888 1.61 5.5 5.5 0 0 0 3.888-9.39l-.347-.346z"/><path d="M242.483 28.878a5.481 5.481 0 0 0 3.89-1.612l.877-.877a5.5 5.5 0 0 0-7.779-7.777l-.877.878a5.5 5.5 0 0 0 3.889 9.388zm-30.406 30.405a5.484 5.484 0 0 0 3.889-1.611l16.971-16.97a5.5 5.5 0 1 0-7.778-7.778l-16.971 16.97a5.5 5.5 0 0 0 3.889 9.389zm-30.405 30.406a5.484 5.484 0 0 0 3.889-1.611l16.971-16.97a5.5 5.5 0 1 0-7.778-7.778L177.782 80.3a5.5 5.5 0 0 0 3.89 9.389zm-30.406 30.405a5.482 5.482 0 0 0 3.889-1.611l16.97-16.97a5.5 5.5 0 1 0-7.778-7.778l-16.97 16.971a5.5 5.5 0 0 0 3.889 9.388z"/></g></svg>